<?xml version="1.0" encoding="UTF-8"?>
<svg version="1.1" xmlns="http://www.w3.org/2000/svg" width="512" height="512">
<path d="M0 0 C9.57362551 7.58525713 16.0684556 17.77708636 17.5390625 30.01171875 C18.57024015 42.36743668 15.41072038 53.5421583 7.73046875 63.3125 C3.1016594 68.7304203 3.1016594 68.7304203 0.5390625 70.01171875 C1.6115625 70.44484375 2.6840625 70.87796875 3.7890625 71.32421875 C7.37958415 73.06584261 9.92480723 75.25478432 12.73388672 78.07617188 C18.36428409 83.7268291 22.36498668 86.02628629 30.4296875 87.3671875 C38.58293534 89.05724515 44.1397073 94.00863355 49.06640625 100.47265625 C52.88672397 107.05941094 53.99410303 112.73987566 53.9375 120.21875 C53.94180527 121.48956673 53.94180527 121.48956673 53.94619751 122.78605652 C53.94822531 124.56172359 53.94278605 126.33741366 53.93017578 128.11303711 C53.91400244 130.83432364 53.93011887 133.55414764 53.94921875 136.27539062 C53.94723805 138.00651369 53.94339796 139.73763585 53.9375 141.46875 C53.94357269 142.2812471 53.94964539 143.0937442 53.9559021 143.93086243 C53.88563385 149.53926368 53.88563385 149.53926368 52.26480103 151.74882507 C50.5390625 153.01171875 50.5390625 153.01171875 46.5390625 153.01171875 C46.5390625 159.61171875 46.5390625 166.21171875 46.5390625 173.01171875 C48.1890625 173.34171875 49.8390625 173.67171875 51.5390625 174.01171875 C54.26968906 176.74234531 53.80370941 178.25559159 53.82958984 182.07861328 C53.84234955 183.35398956 53.85510925 184.62936584 53.86825562 185.94338989 C53.87131445 187.34376881 53.87354158 188.74414975 53.875 190.14453125 C53.88142752 191.57982517 53.88815585 193.01511777 53.89517212 194.45040894 C53.90716359 197.465017 53.91085144 200.47951038 53.90966797 203.49414062 C53.90946558 207.34088398 53.93667507 211.18688186 53.97121239 215.03344917 C53.99355951 218.0019156 53.99750301 220.97020551 53.99644852 223.93874741 C53.99879631 225.35561548 54.00757327 226.77248903 54.02311325 228.18927383 C54.11315876 237.25358061 53.83704556 243.80297261 47.8984375 251 C41.19149065 256.51858005 35.21491286 258.59010877 26.5390625 258.01171875 C25.19988989 257.70267892 23.86446071 257.37532357 22.5390625 257.01171875 C22.54597595 258.18840402 22.54597595 258.18840402 22.55302906 259.3888607 C22.66359479 278.50281686 22.74626108 297.61670893 22.79812336 316.73091698 C22.82387216 325.97453696 22.85895889 335.21794309 22.91625977 344.46142578 C22.96619678 352.52087159 22.99837767 360.58016247 23.00950497 368.63975871 C23.01600637 372.90478301 23.03121645 377.1693642 23.06771278 381.43424606 C23.10183549 385.45460109 23.11208302 389.47433355 23.10460091 393.49481964 C23.10596824 394.96453112 23.11580391 396.43426499 23.13508987 397.90385056 C23.26320191 408.17614924 21.98106722 415.57269472 15.3984375 423.6328125 C8.15223244 429.87260019 1.65796821 432.6405712 -7.98046875 432.296875 C-15.35025054 431.44964024 -20.70070189 428.54637231 -26.4609375 424.01171875 C-26.95722656 424.42164063 -27.45351563 424.8315625 -27.96484375 425.25390625 C-35.36048489 431.11989865 -42.08476279 432.8772118 -51.4609375 432.01171875 C-59.40028075 430.76526896 -65.41228345 426.1328848 -70.4609375 420.01171875 C-75.28246817 412.40541864 -75.00649311 404.58710243 -74.91503906 395.85327148 C-74.91390906 394.33472219 -74.91454743 392.81617071 -74.91680908 391.29762268 C-74.9179512 387.19891849 -74.89452399 383.10068777 -74.86651325 379.00209308 C-74.84141529 374.71000272 -74.83915101 370.4179001 -74.83441162 366.12574768 C-74.82200641 358.00860364 -74.78921825 349.89167651 -74.74901366 341.77462775 C-74.70421929 332.5291601 -74.68228968 323.28368179 -74.66223192 314.03813255 C-74.62048328 295.02920523 -74.55017926 276.02047947 -74.4609375 257.01171875 C-75.33878906 257.24955078 -75.33878906 257.24955078 -76.234375 257.4921875 C-83.57746791 259.20557585 -90.01715098 257.77321365 -96.4609375 254.01171875 C-102.94210721 248.29444381 -105.63195709 242.52598459 -106.4609375 234.01171875 C-106.6066586 230.28594964 -106.60783698 226.56324472 -106.60620117 222.83496094 C-106.60955978 221.72994736 -106.6129184 220.62493378 -106.61637878 219.48643494 C-106.62585512 215.84380968 -106.6278303 212.20123056 -106.62890625 208.55859375 C-106.63212134 206.01662172 -106.63548561 203.47464987 -106.63899231 200.93267822 C-106.64497544 195.60664364 -106.64687601 190.28062613 -106.64624023 184.95458984 C-106.64564033 178.8226639 -106.65617924 172.69082617 -106.6719839 166.55892253 C-106.68670427 160.63385581 -106.69022641 154.70881568 -106.68963051 148.78372955 C-106.69080655 146.27525726 -106.69520709 143.76678424 -106.70296288 141.25832367 C-106.71281954 137.74082739 -106.70986218 134.22355499 -106.70385742 130.70605469 C-106.70947693 129.68126511 -106.71509644 128.65647552 -106.72088623 127.60063171 C-106.66803187 115.34457564 -104.8812019 104.02347517 -96.4140625 94.6796875 C-91.05419045 90.10235677 -84.52917002 87.06100622 -77.5234375 86.38671875 C-71.62972539 85.52167391 -68.18050021 81.55660653 -64.18969727 77.44091797 C-60.52967403 73.7135747 -57.389704 71.79103445 -52.4609375 70.01171875 C-53.4921875 69.22796875 -54.5234375 68.44421875 -55.5859375 67.63671875 C-63.84425984 60.54860403 -68.79248411 49.26454711 -69.6640625 38.50390625 C-69.91355268 24.57403792 -65.43114124 13.42175568 -55.94140625 3.34375 C-40.53702745 -11.13879196 -17.12694671 -11.77169104 0 0 Z M-38.4609375 77.01171875 C-34.64261774 82.52240734 -30.7000819 86.82040323 -25.4609375 91.01171875 C-21.5009375 86.72171875 -17.5409375 82.43171875 -13.4609375 78.01171875 C-16.51318983 76.48559259 -19.11834569 77.52650381 -22.4609375 78.01171875 C-27.93220218 78.18540969 -33.04532463 77.78537773 -38.4609375 77.01171875 Z " fill="#000000" transform="translate(458.4609375,43.98828125)"/>
<path d="M0 0 C0.96177658 -0.00335861 1.92355316 -0.00671722 2.91447449 -0.01017761 C6.08516746 -0.01965472 9.25580743 -0.02162913 12.42651367 -0.02270508 C14.63840252 -0.02592 16.85029116 -0.02928425 19.06217957 -0.03279114 C23.69640597 -0.03877437 28.33061375 -0.04063187 32.96484375 -0.04003906 C38.88945537 -0.03993751 44.81394696 -0.05358655 50.73853016 -0.07081127 C55.30686486 -0.08195542 59.87517078 -0.08395752 64.44351768 -0.08342934 C66.62708639 -0.08460593 68.81065593 -0.08900963 70.9942112 -0.0967617 C74.05481891 -0.10660993 77.11516897 -0.10366442 80.17578125 -0.09765625 C81.06907135 -0.10327576 81.96236145 -0.10889526 82.88272095 -0.11468506 C94.00184839 -0.05949852 102.82687983 2.51552726 111.32885742 9.93041992 C122.09936368 21.13819033 120.86112897 35.33068425 120.77807617 49.81323242 C120.77823136 52.02037097 120.7797236 54.22750978 120.78248596 56.43464661 C120.78386525 61.04330604 120.7713876 65.65165248 120.74853516 70.26025391 C120.72010209 76.15466346 120.72290794 82.0485555 120.73562527 87.94300365 C120.7425922 92.49417002 120.73478234 97.0452176 120.72236824 101.59636879 C120.71786716 103.76959083 120.71750514 105.94282567 120.72143364 108.11604881 C120.72435707 111.15494166 120.70778615 114.19313 120.68603516 117.23193359 C120.69278763 118.56547882 120.69278763 118.56547882 120.69967651 119.92596436 C120.59898093 128.43041547 118.45691413 134.97033197 112.28198242 141.14526367 C107.29667002 144.65178677 102.77896343 146.29076953 96.71948242 146.27026367 C95.95506836 146.2728418 95.1906543 146.27541992 94.40307617 146.27807617 C92.28198242 146.14526367 92.28198242 146.14526367 89.28198242 145.14526367 C89.3055481 146.10565552 89.3055481 146.10565552 89.32958984 147.08544922 C89.39215357 150.00112999 89.4310405 152.91666922 89.46948242 155.83276367 C89.49461914 156.84016602 89.51975586 157.84756836 89.5456543 158.88549805 C89.64265463 168.682532 89.64265463 168.682532 86.28198242 172.14526367 C84.63198242 172.47526367 82.98198242 172.80526367 81.28198242 173.14526367 C81.28198242 179.41526367 81.28198242 185.68526367 81.28198242 192.14526367 C82.93198242 192.47526367 84.58198242 192.80526367 86.28198242 193.14526367 C88.46356103 195.26332955 89.1952855 196.59579414 89.66966248 199.60231018 C89.67776695 200.97817543 89.67776695 200.97817543 89.68603516 202.38183594 C89.70506142 203.94980675 89.70506142 203.94980675 89.72447205 205.54945374 C89.72153641 206.67548508 89.71860077 207.80151642 89.71557617 208.96166992 C89.72081802 210.12850815 89.72605988 211.29534637 89.73146057 212.49754333 C89.73788601 214.9697083 89.73653708 217.44190383 89.72802734 219.9140625 C89.71956876 223.6694305 89.74819079 227.42325108 89.7800293 231.1784668 C89.78164286 233.58536739 89.78106082 235.99227064 89.77807617 238.39916992 C89.79492714 240.06696251 89.79492714 240.06696251 89.81211853 241.76844788 C89.72875736 251.25340989 87.82805207 260.53259792 81.12573242 267.64526367 C73.83498199 273.57672165 65.52664681 275.97491304 56.28198242 275.14526367 C51.59639407 274.09717154 47.95622964 272.6250165 44.03198242 269.83276367 C41.45529422 267.82030721 41.45529422 267.82030721 38.84448242 268.64526367 C37.42450189 269.47647179 36.00549225 270.30936985 34.59057617 271.14916992 C31.11735359 273.18209286 28.36637859 274.75627356 24.28198242 275.14526367 C23.3306543 275.24000977 23.3306543 275.24000977 22.36010742 275.33666992 C14.4056695 275.77388194 6.75293286 273.37629531 0.40698242 268.52026367 C-4.76322681 263.64833575 -8.43266895 256.12563616 -8.84106541 248.99763107 C-8.84014361 248.21963779 -8.83922182 247.44164452 -8.83827209 246.64007568 C-8.83964676 245.7426767 -8.84102142 244.84527771 -8.84243774 243.92068481 C-8.83884247 242.94388763 -8.83524719 241.96709045 -8.83154297 240.96069336 C-8.831689 239.92623077 -8.83183502 238.89176819 -8.83198547 237.82595825 C-8.83128875 234.4063304 -8.82350752 230.98675701 -8.81567383 227.56713867 C-8.8138088 225.19630971 -8.8123853 222.82548036 -8.81138611 220.45465088 C-8.80756764 214.21410051 -8.79774303 207.9735734 -8.78668213 201.73303223 C-8.77645363 195.36523758 -8.7718854 188.99743917 -8.7668457 182.62963867 C-8.75612019 170.13483678 -8.73905177 157.64005216 -8.71801758 145.14526367 C-9.70801758 145.47526367 -10.69801758 145.80526367 -11.71801758 146.14526367 C-19.57536932 146.9511459 -25.50604847 145.3689346 -31.96801758 140.89526367 C-37.10684744 135.75643381 -39.82179345 130.24765157 -39.8651886 122.94187927 C-39.8723439 122.11086197 -39.87949921 121.27984467 -39.88687134 120.42364502 C-39.88956024 119.52023376 -39.89224915 118.61682251 -39.89501953 117.68603516 C-39.90159073 116.72776321 -39.90816193 115.76949127 -39.91493225 114.78218079 C-39.93464379 111.61023883 -39.94632508 108.43834424 -39.95629883 105.26635742 C-39.96037436 104.18049913 -39.96444988 103.09464085 -39.96864891 101.97587776 C-39.98950366 96.22496863 -40.0038062 90.47408329 -40.01318359 84.72314453 C-40.02422765 78.8007937 -40.05860646 72.87882068 -40.09835529 66.95660305 C-40.12458222 62.38818188 -40.13288099 57.81984976 -40.13646507 53.25135994 C-40.14131777 51.06942261 -40.15289391 48.8874889 -40.17150307 46.70562553 C-40.38623779 19.85279861 -40.38623779 19.85279861 -30.13208008 9.15698242 C-20.96891056 1.52100782 -11.48948813 -0.00578952 0 0 Z " fill="#030302" transform="translate(215.718017578125,200.854736328125)"/>
<path d="M0 0 C1.04853653 -0.00700928 2.09707306 -0.01401855 3.17738342 -0.02124023 C6.61397457 -0.03872261 10.04972985 -0.02723167 13.48632812 -0.01367188 C15.89188799 -0.01636958 18.29744678 -0.02025431 20.70300293 -0.02526855 C25.73293488 -0.03115042 30.76258178 -0.02264261 35.79248047 -0.00390625 C42.22151127 0.01888199 48.64987398 0.00575193 55.07888031 -0.01819611 C60.04275494 -0.0326893 65.00647267 -0.02803186 69.97035217 -0.01768494 C72.34009379 -0.0150274 74.70984992 -0.01825292 77.07957458 -0.02760315 C80.39848258 -0.03782649 83.71632693 -0.02218577 87.03515625 0 C88.00272354 -0.00809692 88.97029083 -0.01619385 89.96717834 -0.02453613 C98.82823015 0.08452357 106.65264244 2.5759973 113.33007812 8.58007812 C114.10996094 9.25167969 114.88984375 9.92328125 115.69335938 10.61523438 C123.98242133 20.96611342 123.74714294 31.49738158 123.64648438 44.12304688 C123.64731455 46.01630286 123.64977952 47.90955876 123.65379333 49.80281067 C123.65663832 53.75247126 123.64207368 57.70156068 123.61450195 61.65112305 C123.58035106 66.69821682 123.58647318 71.74429506 123.60516453 76.7914381 C123.61575951 80.69412113 123.6067752 84.59657006 123.59177971 88.49923134 C123.58662051 90.35984921 123.58705204 92.22049174 123.59332466 94.08110619 C123.59881012 96.68440305 123.57829928 99.28627063 123.55102539 101.8894043 C123.56081421 103.02658401 123.56081421 103.02658401 123.57080078 104.18673706 C123.45821861 110.54573619 121.44434078 115.70535652 117.27148438 120.54101562 C116.71332031 120.98703125 116.15515625 121.43304688 115.58007812 121.89257812 C115.02449219 122.3540625 114.46890625 122.81554687 113.89648438 123.29101562 C109.20611024 126.35292307 105.26130989 126.74643292 99.70507812 126.64257812 C98.45082031 126.62453125 97.1965625 126.60648437 95.90429688 126.58789062 C94.95167969 126.5646875 93.9990625 126.54148437 93.01757812 126.51757812 C93.01615311 127.29716888 93.01472809 128.07675964 93.01325989 128.87997437 C92.9953526 136.26469742 92.95351271 143.64872998 92.88548756 151.03314781 C92.85134873 154.82865512 92.82612824 158.62376555 92.82202148 162.41943359 C92.81771001 166.0897325 92.78901576 169.75913813 92.74414635 173.42915726 C92.73126137 174.82196453 92.72683142 176.2148792 92.73142433 177.60773849 C92.75707779 187.75950867 91.3814168 195.17426472 84.87695312 203.13867188 C77.63074806 209.37845957 71.13648384 212.14643058 61.49804688 211.80273438 C54.12826508 210.95549962 48.77781373 208.05223169 43.01757812 203.51757812 C42.52128906 203.9275 42.025 204.33742188 41.51367188 204.75976562 C34.11803074 210.62575803 27.39375283 212.38307117 18.01757812 211.51757812 C10.07823488 210.27112833 4.06623218 205.63874418 -0.98242188 199.51757812 C-5.70310653 191.98935485 -5.58655565 184.27708746 -5.59179688 175.63867188 C-5.60680393 174.21662029 -5.62353632 172.79458597 -5.64190674 171.37257385 C-5.68531021 167.65891653 -5.70551861 163.94549419 -5.72064209 160.23162842 C-5.74031158 156.43032083 -5.78226992 152.62926345 -5.82226562 148.828125 C-5.89727442 141.39134376 -5.94774231 133.95466851 -5.98242188 126.51757812 C-6.94083984 126.53570557 -7.89925781 126.55383301 -8.88671875 126.57250977 C-10.77487305 126.59365845 -10.77487305 126.59365845 -12.70117188 126.61523438 C-13.94833984 126.63336182 -15.19550781 126.65148926 -16.48046875 126.67016602 C-22.13316783 126.42386534 -25.66520295 124.71010366 -29.72460938 120.86914062 C-35.00347359 115.08512194 -36.28197737 110.0403334 -36.3046875 102.24584961 C-36.31461731 101.42558792 -36.32454712 100.60532623 -36.33477783 99.76020813 C-36.36392538 97.0529948 -36.37761199 94.3460162 -36.38867188 91.63867188 C-36.40018691 89.74642436 -36.41170221 87.85417684 -36.42321777 85.96192932 C-36.44421349 81.99340738 -36.45591323 78.02496612 -36.46289062 74.05639648 C-36.47382625 68.9981615 -36.52181559 63.9410125 -36.57883453 58.88311672 C-36.61629785 54.97173573 -36.62650973 51.06061018 -36.62956238 47.14906502 C-36.63557417 45.28610389 -36.6514904 43.42314502 -36.67793274 41.56036186 C-36.83737219 29.45986721 -36.29301311 19.55459448 -27.78186035 10.06370544 C-19.91070031 2.20526237 -10.85347471 -0.09082547 0 0 Z " fill="#010001" transform="translate(35.982421875,264.482421875)"/>
<path d="M0 0 C2.09765625 1.9140625 2.09765625 1.9140625 4.0625 4.625 C7.80447287 9.52915557 11.72913654 14.11350405 15.9375 18.625 C16.5054126 19.24068848 17.0733252 19.85637695 17.65844727 20.49072266 C21.3747979 24.47552932 23.2073653 26.16074776 28.625 26.4375 C34.57638537 26.40304914 37.7981733 23.98833897 42 20 C42.48597656 19.41863281 42.97195313 18.83726562 43.47265625 18.23828125 C45 17 45 17 46.9296875 17.09375 C49.45677646 18.19994743 51.10477145 19.62571952 53.125 21.5 C56.63808832 24.73469264 58.48807541 26.15270068 63.3125 26.25 C64.07175781 26.27578125 64.83101563 26.3015625 65.61328125 26.328125 C71.49572458 25.51940939 75.02797626 21.14591972 78.8125 16.9375 C79.33875977 16.36692871 79.86501953 15.79635742 80.40722656 15.20849609 C83.62795191 11.67554752 86.46830211 8.01937705 89.25 4.125 C92.34520668 0.16930017 92.34520668 0.16930017 95.0546875 -0.53125 C99.75353312 -0.17662014 103.46457398 1.94667753 107 5 C110.44965866 10.07110829 111.56924831 13.8097923 111.46875 19.98046875 C111.47579956 20.71574295 111.48284912 21.45101715 111.4901123 22.20857239 C111.51199511 24.53524364 111.50917466 26.86075701 111.5 29.1875 C111.48794777 32.26494161 111.50163035 35.34067711 111.53125 38.41796875 C111.51993042 39.11907272 111.50861084 39.8201767 111.49694824 40.54252625 C111.53186127 43.91599714 111.76845905 45.69685446 113.84179688 48.41137695 C116.00073436 50.17119512 116.00073436 50.17119512 119 51 C119 57.6 119 64.2 119 71 C116.525 71.99 116.525 71.99 114 73 C111.16992998 75.83007002 111.64754074 78.61952852 111.5859375 82.4140625 C111.56657135 83.14370209 111.5472052 83.87334167 111.5272522 84.62509155 C111.46741578 86.95827502 111.42105577 89.29150773 111.375 91.625 C111.33682386 93.20575082 111.29777235 94.78648076 111.2578125 96.3671875 C111.16006049 100.24468372 111.08052772 104.12195439 111 108 C105.72 108 100.44 108 95 108 C94.98541748 105.8346167 94.97083496 103.6692334 94.95581055 101.43823242 C94.90550821 94.28952167 94.83892109 87.14102975 94.76428509 79.99253368 C94.71952795 75.65772034 94.68028384 71.32300214 94.65356445 66.98803711 C94.62758445 62.80573993 94.5872203 58.62380785 94.53681374 54.44173622 C94.52010897 52.84496916 94.50861721 51.2481389 94.50238609 49.65129662 C94.49278383 47.41712402 94.46477338 45.18389309 94.43237305 42.94995117 C94.42126999 41.67754074 94.41016693 40.40513031 94.39872742 39.09416199 C94.25749446 36.02718689 94.25749446 36.02718689 92.5962677 34.0905304 C89.49831484 31.97408604 86.64002824 32.65333064 83 33 C80.39166459 36.91250311 80.69270218 40.24397723 80.68115234 44.78588867 C80.67110672 45.68365524 80.6610611 46.58142181 80.65071106 47.50639343 C80.61979457 50.47691196 80.60282039 53.44734002 80.5859375 56.41796875 C80.56723266 58.47635176 80.54765977 60.53472704 80.5272522 62.59309387 C80.47585271 68.01324925 80.43626882 73.43342951 80.39910889 78.85369873 C80.35208829 85.35575511 80.29045702 91.85768728 80.23126221 98.35964203 C80.14295472 108.23971143 80.0732584 118.11975589 80 128 C57.89 128 35.78 128 13 128 C12.96261719 121.39355469 12.92523438 114.78710938 12.88671875 107.98046875 C12.85645171 103.80140591 12.82531215 99.62238633 12.79101562 95.44335938 C12.73663232 88.80658098 12.68552496 82.16988816 12.65356445 75.53295898 C12.62760262 70.18361043 12.58725095 64.83454819 12.53681374 59.48537636 C12.52009673 57.44202542 12.50861266 55.39862491 12.50238609 53.35521507 C12.49279747 50.49846578 12.46480146 47.64245703 12.43237305 44.78588867 C12.43452568 43.5116655 12.43452568 43.5116655 12.4367218 42.21170044 C12.48375253 37.97437751 12.48375253 37.97437751 10.69382954 34.28259754 C7.88652259 32.15685531 5.38262883 32.63757548 2 33 C0.17316222 34.02129865 0.17316222 34.02129865 -1 36 C-1.47632676 39.21160949 -1.47632676 39.21160949 -1.43237305 42.94995117 C-1.4425647 43.65264633 -1.45275635 44.35534149 -1.46325684 45.07933044 C-1.493437 47.40062378 -1.50266006 49.72150483 -1.51171875 52.04296875 C-1.52856179 53.65295285 -1.54671152 55.26292377 -1.56611633 56.87287903 C-1.61366355 61.10936362 -1.64344218 65.34579479 -1.66955566 69.5824585 C-1.6993375 73.90599115 -1.74587594 78.22933961 -1.79101562 82.55273438 C-1.87710255 91.03508121 -1.94287498 99.51740862 -2 108 C-7.28 108 -12.56 108 -18 108 C-18.11599 95.62142124 -18.20476457 83.24297235 -18.25906086 70.86396027 C-18.28512406 65.1154914 -18.320463 59.3673951 -18.37719727 53.61914062 C-18.43163278 48.06888684 -18.46144519 42.51899079 -18.47438622 36.9684906 C-18.4836053 34.85381949 -18.5016082 32.73916735 -18.52865028 30.62464905 C-18.5650934 27.65624095 -18.56993889 24.68929991 -18.56762695 21.72070312 C-18.58560333 20.85179443 -18.60357971 19.98288574 -18.62210083 19.08764648 C-18.57060986 12.95399648 -17.00871586 8.69957316 -13 4 C-8.99462709 0.68205541 -5.19735977 -0.6563676 0 0 Z " fill="#5FB8FC" transform="translate(386,146)"/>
<path d="M0 0 C0.89267578 0.00322266 1.78535156 0.00644531 2.70507812 0.00976562 C4.09823242 0.02233398 4.09823242 0.02233398 5.51953125 0.03515625 C6.45990234 0.03966797 7.40027344 0.04417969 8.36914062 0.04882812 C10.69016837 0.06060999 13.01106769 0.07706067 15.33203125 0.09765625 C15.76902344 1.27521484 15.76902344 1.27521484 16.21484375 2.4765625 C20.93578518 14.57583063 26.0571946 19.80766666 37.73046875 25.20703125 C46.25066597 28.12385552 54.82673404 26.23847388 62.73828125 22.51171875 C72.10329104 17.40609594 75.81851502 9.78767075 79.33203125 0.09765625 C82.33302713 -0.01125086 85.32999503 -0.0900793 88.33203125 -0.15234375 C89.17121094 -0.18585938 90.01039063 -0.219375 90.875 -0.25390625 C96.69775499 -0.34418152 101.71513982 0.30520972 106.33203125 4.09765625 C110.54666102 8.47071286 111.90129399 12.10284593 111.89851379 18.14183044 C111.87270737 19.0025264 111.84690094 19.86322235 111.8203125 20.75 C111.80970039 22.10019981 111.80970039 22.10019981 111.7988739 23.47767639 C111.77105606 26.33104271 111.70834342 29.18239085 111.64453125 32.03515625 C111.61943198 33.97848713 111.59662167 35.92184901 111.57617188 37.86523438 C111.52127099 42.61014351 111.43508798 47.35355864 111.33203125 52.09765625 C106.05203125 52.09765625 100.77203125 52.09765625 95.33203125 52.09765625 C95.29464844 50.32777344 95.25726563 48.55789063 95.21875 46.734375 C95.15310225 44.41794713 95.08665451 42.10154183 95.01953125 39.78515625 C94.99697266 38.61791016 94.97441406 37.45066406 94.95117188 36.24804688 C94.91572266 35.12978516 94.88027344 34.01152344 94.84375 32.859375 C94.81756592 31.82772217 94.79138184 30.79606934 94.7644043 29.7331543 C94.53045427 27.08865835 94.53045427 27.08865835 93.01879883 25.26489258 C90.14671513 23.2774223 87.69010107 23.67789752 84.33203125 24.09765625 C81.81415657 26.44945008 81.35506552 27.90976798 80.93330383 31.35003662 C80.92220078 32.63799133 80.91109772 33.92594604 80.8996582 35.25292969 C80.88437073 36.32182182 80.88437073 36.32182182 80.86877441 37.41230774 C80.83865254 39.76062897 80.82938005 42.10854224 80.8203125 44.45703125 C80.80346515 46.08800613 80.78531483 47.71896803 80.76591492 49.34991455 C80.71841459 53.63734888 80.68860557 57.92473058 80.66247559 62.21234131 C80.6274275 67.35952221 80.57041469 72.50650099 80.51708221 77.65351868 C80.43856783 85.46820564 80.38796309 93.28262802 80.33203125 101.09765625 C58.55203125 101.09765625 36.77203125 101.09765625 14.33203125 101.09765625 C14.30625 95.874375 14.28046875 90.65109375 14.25390625 85.26953125 C14.22874025 81.96088834 14.20240948 78.65233707 14.171875 75.34375 C14.12351812 70.09195604 14.07948207 64.84037418 14.06103516 59.58837891 C14.04589315 55.35413601 14.01149206 51.12044784 13.96372223 46.88645172 C13.94888292 45.27097647 13.94098877 43.65542203 13.9401474 42.03987885 C13.93778351 39.7769606 13.9107542 37.51558264 13.87792969 35.25292969 C13.86904724 33.96497498 13.86016479 32.67702026 13.85101318 31.35003662 C13.24528375 27.55402293 12.4012749 26.34577193 9.33203125 24.09765625 C6.21603844 23.65251442 4.30410415 23.41066726 1.68041992 25.26489258 C-0.19940598 27.81999905 -0.09968152 29.70713938 -0.1796875 32.859375 C-0.21513672 33.97763672 -0.25058594 35.09589844 -0.28710938 36.24804688 C-0.30966797 37.41529297 -0.33222656 38.58253906 -0.35546875 39.78515625 C-0.38962891 40.96400391 -0.42378906 42.14285156 -0.45898438 43.35742188 C-0.54154114 46.27049644 -0.60642888 49.18406193 -0.66796875 52.09765625 C-5.94796875 52.09765625 -11.22796875 52.09765625 -16.66796875 52.09765625 C-16.76710159 46.36854053 -16.83956215 40.63992786 -16.88769531 34.91015625 C-16.90776781 32.96247659 -16.93503207 31.01485688 -16.96972656 29.06738281 C-17.01843727 26.26221904 -17.04098116 23.45785438 -17.05859375 20.65234375 C-17.07923889 19.78648651 -17.09988403 18.92062927 -17.12115479 18.02853394 C-17.1231763 12.53925201 -16.32092691 9.45464818 -12.66796875 5.09765625 C-8.51064027 1.34592079 -5.56897697 -0.03547119 0 0 Z " fill="#FEE458" transform="translate(208.66796875,216.90234375)"/>
<path d="M0 0 C22.11 0 44.22 0 67 0 C67 44.22 67 88.44 67 134 C58.42 134 49.84 134 41 134 C40.98541748 130.53201904 40.97083496 127.06403809 40.95581055 123.4909668 C40.90554487 112.05156428 40.83911547 100.61228776 40.76428509 89.17302227 C40.71929816 82.23523666 40.67989032 75.29750272 40.65356445 68.35961914 C40.62815795 61.66813538 40.5872731 54.97691196 40.53681374 48.28556252 C40.52008796 45.72864439 40.50860941 43.17168655 40.50238609 40.6147213 C40.49280715 37.04197331 40.46482182 33.46981981 40.43237305 29.8972168 C40.43380814 28.83266769 40.43524323 27.76811859 40.4367218 26.67131042 C40.42418365 25.69955872 40.41164551 24.72780701 40.39872742 23.72660828 C40.39411845 22.88132411 40.38950949 22.03603994 40.38476086 21.16514111 C39.90749498 18.47945218 39.19328352 17.59012805 37 16 C32.38723567 15.41030084 32.38723567 15.41030084 28.30617046 17.22802448 C26.6129654 19.52505845 26.61676133 20.88597232 26.60127258 23.72660828 C26.58873444 24.69835999 26.57619629 25.67011169 26.5632782 26.67131042 C26.56471329 27.73585953 26.56614838 28.80040863 26.56762695 29.8972168 C26.5574353 31.01931549 26.54724365 32.14141418 26.53674316 33.29751587 C26.50649452 37.01480017 26.49732889 40.73182729 26.48828125 44.44921875 C26.47144341 47.02326828 26.4532944 49.59730953 26.43388367 52.17134094 C26.3911488 58.25923424 26.36166124 64.34706032 26.33856028 70.43505555 C26.31152327 77.36614898 26.26761092 84.29710322 26.22227156 91.22809732 C26.12938588 105.48533403 26.05995102 119.74258768 26 134 C17.42 134 8.84 134 0 134 C0 89.78 0 45.56 0 0 Z " fill="#8378C1" transform="translate(399,288)"/>
<path d="M0 0 C2.03150645 1.44609143 3.87779739 2.98126324 5.734375 4.64453125 C6.33894531 5.14597656 6.94351563 5.64742187 7.56640625 6.1640625 C15.80828307 13.54404371 19.96056629 24.16077395 20.94921875 35 C21.46634243 48.01083173 16.84723749 59.2232489 8.234375 68.83203125 C-1.62507197 78.23289929 -13.71695278 81.1491297 -26.92578125 80.921875 C-38.43015431 80.42103485 -48.81910714 73.96738258 -56.6328125 65.75390625 C-64.0740114 56.14087418 -67.37486259 44.67007524 -66.265625 32.64453125 C-64.2416453 19.80331553 -58.36246187 9.85835674 -48.265625 1.64453125 C-33.91871709 -7.34970765 -14.80986105 -8.86038239 0 0 Z " fill="#010100" transform="translate(102.265625,169.35546875)"/>
<path d="M0 0 C8.37431023 7.73989279 14.54744133 16.93550593 15.30078125 28.59375 C15.63244694 41.44355433 13.91387462 52.01217419 5.0625 61.90625 C4.299375 62.7725 3.53625 63.63875 2.75 64.53125 C-6.84933627 73.01438438 -17.89425803 77.80426487 -30.89453125 77.2890625 C-44.44425987 75.58447533 -54.05825773 69.61933981 -63 59.59375 C-70.61279007 49.03407345 -72.15467744 37.60141072 -70.9375 24.90625 C-68.45515463 13.22794336 -61.41164986 3.92754552 -51.9375 -3.09375 C-35.80885947 -13.37641079 -14.70207868 -12.39175203 0 0 Z " fill="#010100" transform="translate(283.9375,110.09375)"/>
<path d="M0 0 C21.78 0 43.56 0 66 0 C66.3125 16.75 66.3125 16.75 66.38793945 22.01855469 C66.42023737 23.40302208 66.45361224 24.78746495 66.48828125 26.171875 C66.49452515 26.88553223 66.50076904 27.59918945 66.50720215 28.33447266 C66.59612278 31.41058758 66.83396782 33.6857056 68.28198242 36.42675781 C70.13013536 38.36992427 70.13013536 38.36992427 74 39 C74 45.93 74 52.86 74 60 C72.35 60.66 70.7 61.32 69 62 C66.57829321 65.63256018 66.6955497 67.52578695 66.5859375 71.85546875 C66.56657135 72.51710526 66.5472052 73.17874176 66.5272522 73.86042786 C66.46757313 75.96932164 66.42111913 78.07827037 66.375 80.1875 C66.33680934 81.61916415 66.29775697 83.05080559 66.2578125 84.48242188 C66.16026148 87.98816165 66.08060538 91.49366577 66 95 C57.75 95 49.5 95 41 95 C40.9906543 92.71868164 40.98130859 90.43736328 40.97167969 88.08691406 C40.93791862 80.55102495 40.88237474 73.01540995 40.81609726 65.47974014 C40.77658102 60.91063242 40.74441301 56.34171861 40.72900391 51.77246094 C40.71386445 47.36316445 40.67946771 42.95440092 40.63169098 38.54534149 C40.61684907 36.86287823 40.60895738 35.18033888 40.60811615 33.49781036 C40.60575307 31.14151633 40.57872959 28.78670315 40.54589844 26.43066406 C40.5509288 25.73438904 40.55595917 25.03811401 40.56114197 24.32073975 C40.48927755 20.98922706 40.1911563 19.25187393 38.15338135 16.5668335 C36.02792941 14.7747338 36.02792941 14.7747338 33 14.5 C29.23419979 15.12763337 28.29391401 15.97746218 26 19 C25.59685851 21.61489622 25.43521547 23.81655668 25.45410156 26.43066406 C25.44376389 27.17251953 25.43342621 27.914375 25.42277527 28.67871094 C25.39333735 31.12457026 25.39184796 33.56960242 25.390625 36.015625 C25.37564394 37.71386291 25.35891694 39.41208624 25.34051514 41.11029053 C25.29682075 45.57532417 25.276838 50.04016128 25.26177979 54.50537109 C25.24221616 59.06359489 25.20024534 63.62160619 25.16015625 68.1796875 C25.08483131 77.11976212 25.03662512 86.05968298 25 95 C16.75 95 8.5 95 0 95 C0 63.65 0 32.3 0 0 Z " fill="#8378C1" transform="translate(223,334)"/>
<path d="M0 0 C0.88945313 0.00644531 1.77890625 0.01289063 2.6953125 0.01953125 C3.61570312 0.03628906 4.53609375 0.05304688 5.484375 0.0703125 C6.42023437 0.07933594 7.35609375 0.08835937 8.3203125 0.09765625 C10.62526157 0.12117614 12.9296866 0.15404397 15.234375 0.1953125 C15.42193359 0.79134277 15.60949219 1.38737305 15.80273438 2.00146484 C19.12251966 12.29739843 23.18725806 18.14516424 32.55078125 23.8828125 C39.65643629 27.35806737 49.34546351 27.51238382 56.90234375 25.4765625 C59.13482727 24.52362633 61.15963102 23.45260735 63.234375 22.1953125 C63.85828125 21.85628906 64.4821875 21.51726562 65.125 21.16796875 C72.73767115 16.51761964 76.05646473 8.51840623 78.234375 0.1953125 C81.40054099 0.04831194 84.56581482 -0.03930856 87.734375 -0.1171875 C88.62125 -0.15908203 89.508125 -0.20097656 90.421875 -0.24414062 C96.98366134 -0.3647617 101.15667469 0.99516378 106.234375 5.1953125 C110.83176374 10.14634652 111.359139 13.62813253 111.33203125 20.26953125 C111.32990883 21.29528008 111.32990883 21.29528008 111.32774353 22.3417511 C111.32215376 24.52214972 111.30960322 26.70244501 111.296875 28.8828125 C111.29185867 30.36262872 111.287296 31.84244656 111.28320312 33.32226562 C111.2730393 36.94668626 111.2534621 40.57088394 111.234375 44.1953125 C105.954375 44.1953125 100.674375 44.1953125 95.234375 44.1953125 C94.984375 36.4453125 94.984375 36.4453125 94.93652344 34.02441406 C94.7709031 30.56382066 94.46700259 28.50727834 92.37890625 25.70703125 C89.47468801 23.65979544 87.71165153 23.67742025 84.234375 24.1953125 C79.26896531 28.49635835 79.26896531 28.49635835 80.234375 44.1953125 C58.124375 44.1953125 36.014375 44.1953125 13.234375 44.1953125 C12.904375 38.5853125 12.574375 32.9753125 12.234375 27.1953125 C8.58359273 23.80387848 8.58359273 23.80387848 4.609375 24.3203125 C0.97501582 24.86262014 0.97501582 24.86262014 -0.765625 28.1953125 C-1.06703871 30.9563758 -1.27420494 33.61604287 -1.390625 36.3828125 C-1.514375 38.9609375 -1.638125 41.5390625 -1.765625 44.1953125 C-7.045625 44.1953125 -12.325625 44.1953125 -17.765625 44.1953125 C-17.85789086 39.90751296 -17.93738194 35.62320962 -17.98535156 31.33520508 C-18.00536322 29.87935666 -18.03258177 28.42358756 -18.06738281 26.96801758 C-18.41722801 11.95039798 -18.41722801 11.95039798 -13.765625 6.1953125 C-9.47825199 2.22949246 -5.8951374 -0.07557868 0 0 Z " fill="#FD5493" transform="translate(32.765625,279.8046875)"/>
<path d="M0 0 C6.84064352 3.98943625 12.88004701 10.20082448 15.22265625 17.90234375 C16.73948802 26.04611046 16.01687248 32.98093047 11.625 40.0625 C7.49944747 45.97294183 2.5997228 50.83017722 -4.375 53.0625 C-12.87475019 54.18717421 -20.95699519 53.59278151 -28.375 49.0625 C-34.37283582 44.26877516 -38.56243441 38.59161859 -40.375 31.0625 C-41.38686889 21.35157918 -39.27768987 14.43617395 -33.25 6.8125 C-24.46699366 -2.47186188 -11.88639994 -5.24830274 0 0 Z " fill="#FDCCBC" transform="translate(268.375,117.9375)"/>
<path d="M0 0 C6.36651676 5.03371325 10.18159551 10.82788296 11.31640625 18.9296875 C11.68858028 27.95001066 10.08393156 34.73890555 4.04296875 41.5546875 C-1.94605154 47.22030069 -8.35144017 50.66811056 -16.66015625 51.02734375 C-24.96887233 50.66811056 -31.37426096 47.22030069 -37.36328125 41.5546875 C-43.40396398 34.73922155 -45.01439099 27.94668802 -44.6328125 18.92578125 C-43.43102398 10.28482246 -39.14079036 4.5908345 -32.4765625 -0.84375 C-22.07129438 -8.16077665 -10.23183294 -6.97540871 0 0 Z " fill="#FDCCBC" transform="translate(96.16015625,184.47265625)"/>
<path d="M0 0 C5.74735917 4.31834246 10.20460101 9.62822825 12.15234375 16.6171875 C13.21825629 26.77000444 11.56736164 34.44587469 5.96484375 42.9296875 C-1.51170218 50.0739425 -9.25729015 52.12196367 -19.38671875 52.01953125 C-26.75893949 51.16248979 -32.72072677 47.49458632 -37.34765625 41.7421875 C-42.5856054 33.7036008 -44.05029514 26.23829863 -42.84765625 16.6171875 C-40.18379996 7.73766652 -34.41301683 2.50547685 -26.78515625 -2.3203125 C-18.26683866 -5.42676318 -7.74533482 -4.56214397 0 0 Z " fill="#FDCCBC" transform="translate(447.84765625,55.3828125)"/>
<path d="M0 0 C22.11 0 44.22 0 67 0 C67 10.23 67 20.46 67 31 C58.42 31 49.84 31 41 31 C40.505 25.06 40.505 25.06 40 19 C38.68 17.68 37.36 16.36 36 15 C32.37350049 14.91083846 32.37350049 14.91083846 29 16 C25.93665831 20.07101925 25.93665831 20.07101925 26 31 C17.42 31 8.84 31 0 31 C0 20.77 0 10.54 0 0 Z " fill="#8378C1" transform="translate(46,378)"/>
<path d="M0 0 C22.11 0 44.22 0 67 0 C67 7.92 67 15.84 67 24 C44.89 24 22.78 24 0 24 C0 16.08 0 8.16 0 0 Z " fill="#FE75A9" transform="translate(46,339)"/>
<path d="M0 0 C22.11 0 44.22 0 67 0 C67 0.33 67 0.66 67 1 C47.53 1 28.06 1 8 1 C8 44.89 8 88.78 8 134 C5.36 134 2.72 134 0 134 C0 89.78 0 45.56 0 0 Z " fill="#6A5DB1" transform="translate(399,288)"/>
<path d="M0 0 C-0.721875 0.680625 -1.44375 1.36125 -2.1875 2.0625 C-9.99838575 9.98402153 -13.07622867 17.88717358 -13.4375 29.0625 C-13.29684569 35.2311962 -12.16713994 39.73231708 -9 45 C-8.360625 46.0725 -7.72125 47.145 -7.0625 48.25 C-4.91784432 51.10954091 -2.59621389 53.54802021 0 56 C-9.84578141 56.66251987 -16.47716791 55.02062238 -24.25 48.875 C-30.57821316 42.88851035 -33.26604914 36.69983539 -33.625 28 C-33.23759136 18.84126237 -30.28689436 12.85361816 -23.6875 6.5625 C-16.04695502 0.33174256 -9.72051633 -0.4824521 0 0 Z " fill="#FAAD9D" transform="translate(85,179)"/>
<path d="M0 0 C0 0.33 0 0.66 0 1 C-0.91265625 1.22429687 -1.8253125 1.44859375 -2.765625 1.6796875 C-8.30544599 3.94111201 -10.35081034 8.85539949 -13 14 C-16.55344042 22.76619663 -15.67930153 32.46843084 -12.15234375 41.06640625 C-10.00965844 45.63804656 -7.57693208 49.42306792 -4 53 C-1.32891902 53.95547581 -1.32891902 53.95547581 1 54 C1 54.33 1 54.66 1 55 C-8.66712087 55.50146448 -17.21087742 55.62691237 -25.0625 49.3515625 C-31.50908524 43.20044575 -35.01123862 36.68118644 -35.375 27.6875 C-35.18062471 19.24932578 -31.77804838 12.87584395 -26.02734375 6.796875 C-18.07767799 -0.24907153 -10.31090194 -0.66857433 0 0 Z " fill="#FAAE9D" transform="translate(263,116)"/>
<path d="M0 0 C-0.38671875 0.4846875 -0.7734375 0.969375 -1.171875 1.46875 C-9.35221976 11.99790662 -12.35700563 21.50617994 -11 35 C-8.66906243 43.17278941 -5.18647256 50.20901829 2 55 C-7.4876925 55.81452368 -14.33406349 54.91624 -22 49 C-28.39958379 42.63967746 -31.10331827 35.52946089 -31.5 26.625 C-31.29029163 19.07549873 -29.20606273 13.54813219 -24.1328125 7.93359375 C-16.664434 0.97376242 -9.98761369 -0.48764117 0 0 Z " fill="#FBAE9E" transform="translate(436,52)"/>
<path d="M0 0 C0.515625 0.2475 1.03125 0.495 1.5625 0.75 C0.634375 1.7709375 0.634375 1.7709375 -0.3125 2.8125 C-4.67033082 8.83656025 -4.73838053 15.08619349 -4.75634766 22.26538086 C-4.76639328 23.19299225 -4.7764389 24.12060364 -4.78678894 25.07632446 C-4.81751885 28.12249163 -4.83462772 31.16857132 -4.8515625 34.21484375 C-4.87028234 36.33477018 -4.88985636 38.45468921 -4.9102478 40.57460022 C-4.9614887 46.13937009 -5.00115749 51.7041641 -5.03839111 57.26904297 C-5.07848119 62.95351086 -5.1295507 68.63787904 -5.1796875 74.32226562 C-5.27635158 85.46477362 -5.36078681 96.60733803 -5.4375 107.75 C-8.4075 107.75 -11.3775 107.75 -14.4375 107.75 C-14.55349 95.37142124 -14.64226457 82.99297235 -14.69656086 70.61396027 C-14.72262406 64.8654914 -14.757963 59.1173951 -14.81469727 53.36914062 C-14.86913278 47.81888684 -14.89894519 42.26899079 -14.91188622 36.7184906 C-14.9211053 34.60381949 -14.9391082 32.48916735 -14.96615028 30.37464905 C-15.0025934 27.40624095 -15.00743889 24.43929991 -15.00512695 21.47070312 C-15.02310333 20.60179443 -15.04107971 19.73288574 -15.05960083 18.83764648 C-15.00815723 12.70963954 -13.45604223 8.43789448 -9.4375 3.75 C-6.52885614 1.37954713 -3.8875927 -0.39872746 0 0 Z " fill="#1CA7FE" transform="translate(382.4375,146.25)"/>
<path d="M0 0 C8.58 0 17.16 0 26 0 C26.10804105 4.37566252 26.18735287 8.74865081 26.25 13.125 C26.28351563 14.3625 26.31703125 15.6 26.3515625 16.875 C26.47391933 28.25418502 26.47391933 28.25418502 22 33 C18.33699967 36.13971457 14.90434067 36.57806136 10.21875 36.421875 C6.35229187 35.68670338 4.6650205 33.860022 2 31 C-0.21551053 27.56789054 -0.23339723 24.7401066 -0.1953125 20.703125 C-0.18886719 19.49785156 -0.18242188 18.29257812 -0.17578125 17.05078125 C-0.15064453 15.16939453 -0.15064453 15.16939453 -0.125 13.25 C-0.11597656 11.98027344 -0.10695312 10.71054687 -0.09765625 9.40234375 C-0.07409087 6.26814871 -0.03822013 3.13405059 0 0 Z " fill="#FDCDBD" transform="translate(46,424)"/>
<path d="M0 0 C8.58 0 17.16 0 26 0 C26.10804105 4.37566252 26.18735287 8.74865081 26.25 13.125 C26.28351563 14.3625 26.31703125 15.6 26.3515625 16.875 C26.47391933 28.25418502 26.47391933 28.25418502 22 33 C18.33699967 36.13971457 14.90434067 36.57806136 10.21875 36.421875 C6.35229187 35.68670338 4.6650205 33.860022 2 31 C-0.21551053 27.56789054 -0.23339723 24.7401066 -0.1953125 20.703125 C-0.18886719 19.49785156 -0.18242188 18.29257812 -0.17578125 17.05078125 C-0.15064453 15.16939453 -0.15064453 15.16939453 -0.125 13.25 C-0.11597656 11.98027344 -0.10695313 10.71054687 -0.09765625 9.40234375 C-0.07409087 6.26814871 -0.03822013 3.13405059 0 0 Z " fill="#FECCBC" transform="translate(87,424)"/>
<path d="M0 0 C6.20659496 -0.47743038 6.20659496 -0.47743038 9.20599365 1.32745361 C12.08646322 5.61851342 11.522562 9.96013104 11.45410156 15.01074219 C11.45468567 16.13298691 11.45526978 17.25523163 11.45587158 18.41148376 C11.45308325 22.12359468 11.42195424 25.83490423 11.390625 29.546875 C11.38316532 32.11948203 11.3774711 34.69209473 11.37347412 37.26470947 C11.35975828 43.34564979 11.32822816 49.42625904 11.28807616 55.50707459 C11.24335162 62.43081593 11.22136976 69.35457108 11.20129442 76.27842093 C11.15949498 90.51910188 11.08914725 104.75954071 11 119 C8.69 119 6.38 119 4 119 C3.99761165 118.41100796 3.99522329 117.82201591 3.99276257 117.21517563 C3.93363143 102.88494812 3.85809355 88.55487663 3.76428509 74.22483444 C3.71931579 67.29492462 3.67990384 60.36506633 3.65356445 53.43505859 C3.62814067 46.75005431 3.58724382 40.06530985 3.53681374 33.38043976 C3.52009952 30.82713921 3.50861371 28.27379902 3.50238609 25.72045135 C3.49279472 22.1503028 3.46479399 18.58074607 3.43237305 15.01074219 C3.43380814 13.94978836 3.43524323 12.88883453 3.4367218 11.79573059 C3.42418365 10.82260422 3.41164551 9.84947784 3.39872742 8.84686279 C3.39411845 8.00250042 3.38950949 7.15813805 3.38476086 6.28818893 C2.91798179 3.51223427 1.82639689 2.1012598 0 0 Z " fill="#6D5FB7" transform="translate(436,303)"/>
<path d="M0 0 C1.2375 -0.103125 2.475 -0.20625 3.75 -0.3125 C4.79414063 -0.39951172 4.79414063 -0.39951172 5.859375 -0.48828125 C8 0 8 0 10.10540771 1.97868347 C12.66133352 6.05463214 12.5364115 9.11554552 12.45410156 13.8293457 C12.45468567 14.70789719 12.45526978 15.58644867 12.45587158 16.49162292 C12.4530916 19.38674853 12.42200375 22.28083618 12.390625 25.17578125 C12.3831623 27.18645159 12.37746951 29.19712922 12.37347412 31.20780945 C12.35822011 36.49337941 12.31894004 41.77850795 12.2746582 47.06390381 C12.22649636 53.40898771 12.2081704 59.75421942 12.18484497 66.0994339 C12.14608915 75.73326271 12.06943334 85.36612343 12 95 C31.47 95 50.94 95 71 95 C71 95.33 71 95.66 71 96 C48.89 96 26.78 96 4 96 C3.96261719 89.40515625 3.92523438 82.8103125 3.88671875 76.015625 C3.85644771 71.84111953 3.82530552 67.66665716 3.79101562 63.4921875 C3.736656 56.86427962 3.6855475 50.23645699 3.65356445 43.60839844 C3.62758138 38.26552945 3.58721433 32.92294611 3.53681374 27.5802536 C3.5201112 25.54052021 3.50861807 23.50073738 3.50238609 21.46094513 C3.49278188 18.60679583 3.46476668 15.75338291 3.43237305 12.89941406 C3.43380814 12.05352722 3.43524323 11.20764038 3.4367218 10.33612061 C3.36674633 5.9851639 3.1948494 3.13153689 0 0 Z " fill="#1E9DEE" transform="translate(395,178)"/>
<path d="M0 0 C5.61 0 11.22 0 17 0 C17.07425639 5.88986463 17.12865268 11.77945566 17.16479492 17.66967773 C17.17986465 19.67265572 17.2003241 21.6756008 17.22631836 23.6784668 C17.26278127 26.56046681 17.27974461 29.44202984 17.29296875 32.32421875 C17.30845261 33.21711105 17.32393646 34.11000336 17.33988953 35.029953 C17.34118487 39.83473067 17.18191753 43.12280859 14 47 C10.90826248 48.54586876 8.40570448 48.29359521 5 48 C2.63502561 46.13291495 1.33969285 44.67938569 0 42 C-0.08902493 40.64154807 -0.11760132 39.27884026 -0.11352539 37.91748047 C-0.11344986 37.07675995 -0.11337433 36.23603943 -0.11329651 35.36984253 C-0.10813522 34.46146637 -0.10297394 33.55309021 -0.09765625 32.6171875 C-0.0962413 31.68778351 -0.09482635 30.75837952 -0.09336853 29.80081177 C-0.08776053 26.82550876 -0.07520668 23.85028036 -0.0625 20.875 C-0.05748603 18.86067817 -0.05292295 16.84635516 -0.04882812 14.83203125 C-0.0377885 9.88799198 -0.02051849 4.94400865 0 0 Z " fill="#E3A091" transform="translate(304,283)"/>
<path d="M0 0 C5.61 0 11.22 0 17 0 C17.07425639 5.88986463 17.12865268 11.77945566 17.16479492 17.66967773 C17.17986465 19.67265572 17.2003241 21.6756008 17.22631836 23.6784668 C17.26278127 26.56046681 17.27974461 29.44202984 17.29296875 32.32421875 C17.30845261 33.21711105 17.32393646 34.11000336 17.33988953 35.029953 C17.34118487 39.83473067 17.18191753 43.12280859 14 47 C10.90826248 48.54586876 8.40570448 48.29359521 5 48 C2.63502561 46.13291495 1.33969285 44.67938569 0 42 C-0.08902493 40.64154807 -0.11760132 39.27884026 -0.11352539 37.91748047 C-0.11344986 37.07675995 -0.11337433 36.23603943 -0.11329651 35.36984253 C-0.10813522 34.46146637 -0.10297394 33.55309021 -0.09765625 32.6171875 C-0.0962413 31.68778351 -0.09482635 30.75837952 -0.09336853 29.80081177 C-0.08776053 26.82550876 -0.07520668 23.85028036 -0.0625 20.875 C-0.05748603 18.86067817 -0.05292295 16.84635516 -0.04882812 14.83203125 C-0.0377885 9.88799198 -0.02051849 4.94400865 0 0 Z " fill="#E8A494" transform="translate(191,283)"/>
<path d="M0 0 C2.31 0 4.62 0 7 0 C7 31.35 7 62.7 7 95 C4.69 95 2.38 95 0 95 C0 63.65 0 32.3 0 0 Z " fill="#6E60B8" transform="translate(223,334)"/>
<path d="M0 0 C1.2375 -0.103125 2.475 -0.20625 3.75 -0.3125 C4.79414063 -0.39951172 4.79414063 -0.39951172 5.859375 -0.48828125 C9.23487094 0.28167677 10.16026734 2.14416487 12 5 C12.367028 7.66030101 12.50912002 9.89417214 12.45410156 12.54418945 C12.45468567 13.28619095 12.45526978 14.02819244 12.45587158 14.79267883 C12.45309564 17.23336364 12.42202886 19.67281111 12.390625 22.11328125 C12.38316082 23.81006707 12.37746872 25.50686153 12.37347412 27.20365906 C12.35823162 31.66069511 12.31896207 36.11720636 12.2746582 40.57403564 C12.23367543 45.12545676 12.21545671 49.67696302 12.1953125 54.22851562 C12.15246621 63.15257381 12.08423188 72.07624319 12 81 C9.69 81 7.38 81 5 81 C4.99453156 79.5884539 4.99453156 79.5884539 4.98895264 78.14839172 C4.95199603 69.27590825 4.89421626 60.40377164 4.81609726 51.53155231 C4.77660402 46.97032046 4.74442468 42.40928219 4.72900391 37.84790039 C4.71384937 33.44508349 4.67942558 29.04279873 4.63169098 24.64021873 C4.6168647 22.96137304 4.60895827 21.28245137 4.60811615 19.60354042 C4.60574839 17.24984773 4.5786869 14.89762797 4.54589844 12.54418945 C4.5509288 11.8515097 4.55595917 11.15882996 4.56114197 10.44515991 C4.459505 5.72339999 3.26548135 3.36947612 0 0 Z " fill="#6D5FB7" transform="translate(259,348)"/>
<path d="M0 0 C5.28 0 10.56 0 16 0 C16.11507231 4.46736264 16.21449895 8.92955031 16.2746582 13.3972168 C16.29974109 14.91529801 16.3338166 16.43325918 16.37719727 17.95092773 C16.43813293 20.13815965 16.46626895 22.32379039 16.48828125 24.51171875 C16.51446533 25.82615967 16.54064941 27.14060059 16.56762695 28.49487305 C15.85832304 32.87486285 14.46236672 34.31530772 11 37 C7.49587381 37.57210224 5.77595516 37.44040698 2.6875 35.6875 C0.20548413 33.20548413 0.00965286 31.27092373 -0.11352539 27.8137207 C-0.10828857 26.53070068 -0.10305176 25.24768066 -0.09765625 23.92578125 C-0.0962413 23.2419487 -0.09482635 22.55811615 -0.09336853 21.8535614 C-0.08777876 19.67316278 -0.07522822 17.49286749 -0.0625 15.3125 C-0.05748367 13.83268378 -0.052921 12.35286594 -0.04882812 10.87304688 C-0.0386643 7.24862624 -0.0190871 3.62442856 0 0 Z " fill="#FCAF9E" transform="translate(15,339)"/>
<path d="M0 0 C5.28 0 10.56 0 16 0 C16.04597306 4.34190033 16.0857788 8.68295234 16.10986328 13.02490234 C16.11990591 14.50116847 16.13354265 15.97741479 16.15087891 17.45361328 C16.17520421 19.57850034 16.1865004 21.70312385 16.1953125 23.828125 C16.20578613 25.1059082 16.21625977 26.38369141 16.22705078 27.70019531 C16.01228146 30.82150951 15.77384504 32.46930458 14 35 C10.48175489 37.34549674 9.14224306 37.57991403 5 37 C1.53194996 34.31992651 0.14180226 32.87563657 -0.56762695 28.49487305 C-0.54144287 27.18043213 -0.51525879 25.86599121 -0.48828125 24.51171875 C-0.48120651 23.80852005 -0.47413177 23.10532135 -0.46684265 22.3808136 C-0.43899212 20.14859773 -0.3762832 17.91894923 -0.3125 15.6875 C-0.28740451 14.16865619 -0.26459352 12.6497728 -0.24414062 11.13085938 C-0.19345718 7.4188036 -0.09562185 3.7122526 0 0 Z " fill="#FECCBC" transform="translate(128,339)"/>
<path d="M0 0 C7.34404564 -0.48960304 7.34404564 -0.48960304 10.10540771 1.57147217 C12.7016924 4.89944393 12.48263187 7.05311495 12.45410156 11.24707031 C12.45468567 11.96941864 12.45526978 12.69176697 12.45587158 13.43600464 C12.4530908 15.81720488 12.42200139 18.1971442 12.390625 20.578125 C12.38316253 22.23149939 12.37746963 23.88488264 12.37347412 25.53826904 C12.3582181 29.88517778 12.31893695 34.23154999 12.2746582 38.57824707 C12.23370458 43.01563255 12.21546294 47.45310492 12.1953125 51.890625 C12.1524423 60.59399593 12.08419184 69.29693118 12 78 C9.69 78 7.38 78 5 78 C4.99453156 76.64483025 4.99453156 76.64483025 4.98895264 75.26228333 C4.95106658 66.74297353 4.89420688 58.22404632 4.81609726 49.7050066 C4.77660874 45.32537665 4.74442713 40.94594817 4.72900391 36.56616211 C4.71384618 32.33839883 4.67941693 28.11118939 4.63169098 23.88367271 C4.61686795 22.27181503 4.60895845 20.65987827 4.60811615 19.04795265 C4.60574738 16.78763599 4.5786785 14.52885103 4.54589844 12.26879883 C4.53701599 10.98306473 4.52813354 9.69733063 4.51898193 8.37263489 C3.92038954 4.48264668 2.69424141 2.80363302 0 0 Z " fill="#FAC600" transform="translate(218,240)"/>
<path d="M0 0 C5.95703125 -0.390625 5.95703125 -0.390625 8 0 C10.42761542 2.39217326 10.97703061 3.79534191 11.36076355 7.2144165 C11.35410172 8.48460632 11.34743988 9.75479614 11.34057617 11.06347656 C11.34101425 11.76631775 11.34145233 12.46915894 11.34190369 13.19329834 C11.33981874 15.50935948 11.31650259 17.8246908 11.29296875 20.140625 C11.28737173 21.74916183 11.28310213 23.35770378 11.28010559 24.96624756 C11.26866513 29.19468366 11.239205 33.42280937 11.20599365 37.65112305 C11.17527544 41.96789349 11.16159652 46.28471421 11.14648438 50.6015625 C11.11433438 59.06785058 11.06314789 67.53388665 11 76 C8.69 76 6.38 76 4 76 C3.99413376 75.10686096 3.98826752 74.21372192 3.98222351 73.29351807 C3.92432241 64.87695246 3.85226059 56.46065297 3.76428509 48.04434586 C3.71955539 43.71740836 3.68030512 39.39056559 3.65356445 35.06347656 C3.62755722 30.88765915 3.58717346 26.71220572 3.53681374 22.53661346 C3.52012748 20.94346392 3.50862415 19.35025139 3.50238609 17.75702667 C3.49276381 15.52545504 3.46472894 13.2948183 3.43237305 11.06347656 C3.42126999 9.79328674 3.41016693 8.52309692 3.39872742 7.2144165 C2.97927544 3.832925 2.30850073 2.44258714 0 0 Z " fill="#1CA7FE" transform="translate(477,178)"/>
<path d="M0 0 C8.58 0 17.16 0 26 0 C26.53571429 14.19642857 26.53571429 14.19642857 24.3125 17.6875 C20.55954053 21.44045947 17.89295448 23.16013881 12.5625 23.5 C9.18892356 23.38754745 7.21323262 22.85499355 4.5625 20.75 C-1.39875079 14.35256012 -0.15769349 8.51544867 0 0 Z " fill="#918291" transform="translate(440,437)"/>
<path d="M0 0 C8.58 0 17.16 0 26 0 C26.53571429 14.19642857 26.53571429 14.19642857 24.3125 17.6875 C20.55954053 21.44045947 17.89295448 23.16013881 12.5625 23.5 C9.22353893 23.38313636 7.20971612 22.86928311 4.5625 20.8125 C-1.53902614 14.11570302 0 9.65404174 0 0 Z " fill="#918291" transform="translate(399,437)"/>
<path d="M0 0 C-1.12020904 2.24041807 -2.24455912 4.40456591 -3.54223633 6.55126953 C-5.42254238 10.99963718 -5.47644634 14.7751509 -5.51171875 19.5546875 C-5.52966995 20.45623566 -5.54762115 21.35778381 -5.56611633 22.28665161 C-5.6200415 25.14938768 -5.65405775 28.01195871 -5.6875 30.875 C-5.7206888 32.82293954 -5.7551799 34.77085736 -5.79101562 36.71875 C-5.87575772 41.47904726 -5.94265359 46.23929708 -6 51 C-4.02 51 -2.04 51 0 51 C0 43.41 0 35.82 0 28 C0.33 28 0.66 28 1 28 C1 35.92 1 43.84 1 52 C-4.28 52 -9.56 52 -15 52 C-15.09913284 46.27088428 -15.1715934 40.54227161 -15.21972656 34.8125 C-15.23979906 32.86482034 -15.26706332 30.91720063 -15.30175781 28.96972656 C-15.35046852 26.16456279 -15.37301241 23.36019813 -15.390625 20.5546875 C-15.41127014 19.68883026 -15.43191528 18.82297302 -15.45318604 17.93087769 C-15.45520755 12.44159576 -14.65295816 9.35699193 -11 5 C-7.4018276 1.75286881 -4.95978961 0 0 0 Z " fill="#F0C006" transform="translate(207,217)"/>
<path d="M0 0 C0.88945313 0.00644531 1.77890625 0.01289063 2.6953125 0.01953125 C3.61570312 0.03628906 4.53609375 0.05304688 5.484375 0.0703125 C6.42023437 0.07933594 7.35609375 0.08835937 8.3203125 0.09765625 C10.62526157 0.12117614 12.9296866 0.15404397 15.234375 0.1953125 C14.904375 0.8553125 14.574375 1.5153125 14.234375 2.1953125 C8.624375 2.1953125 3.014375 2.1953125 -2.765625 2.1953125 C-8.10313622 10.89537066 -8.54068757 18.44136773 -8.578125 28.3203125 C-8.60131691 29.76826605 -8.62669184 31.21618636 -8.65429688 32.6640625 C-8.71654732 36.17445415 -8.74935587 39.68437099 -8.765625 43.1953125 C-6.455625 43.1953125 -4.145625 43.1953125 -1.765625 43.1953125 C-1.765625 43.5253125 -1.765625 43.8553125 -1.765625 44.1953125 C-7.045625 44.1953125 -12.325625 44.1953125 -17.765625 44.1953125 C-17.85789086 39.90751296 -17.93738194 35.62320962 -17.98535156 31.33520508 C-18.00536322 29.87935666 -18.03258177 28.42358756 -18.06738281 26.96801758 C-18.41722801 11.95039798 -18.41722801 11.95039798 -13.765625 6.1953125 C-9.47825199 2.22949246 -5.8951374 -0.07557868 0 0 Z " fill="#F6347D" transform="translate(32.765625,279.8046875)"/>
<path d="M0 0 C2.64 0 5.28 0 8 0 C8.09889038 6.05056995 8.17147918 12.10066935 8.21972656 18.15185547 C8.23983969 20.21020705 8.26713397 22.26850152 8.30175781 24.32666016 C8.35028883 27.28562513 8.37297166 30.24383461 8.390625 33.203125 C8.41127014 34.12305237 8.43191528 35.04297974 8.45318604 35.99078369 C8.45541136 42.32954024 8.45541136 42.32954024 6.22558594 45.61230469 C4 47 4 47 0 47 C0 31.49 0 15.98 0 0 Z " fill="#FECDBD" transform="translate(312,284)"/>
<path d="M0 0 C8.58 0 17.16 0 26 0 C26 8.44827586 26 8.44827586 23 13 C19.21521134 16.44071697 15.28112658 16.51545826 10.37109375 16.34765625 C6.8862517 15.83669918 5.29186176 14.63911354 3 12 C0.11093552 7.417346 0 5.71062135 0 0 Z " fill="#D8EAFC" transform="translate(263,444)"/>
<path d="M0 0 C8.58 0 17.16 0 26 0 C26 6.80722892 26 6.80722892 23.75 10.25 C23.33234375 10.91515625 22.9146875 11.5803125 22.484375 12.265625 C20.25729283 14.8677947 18.19238679 15.83575352 14.81640625 16.30078125 C10.09078272 16.32535122 6.70356336 16.26785002 3 13 C-0.20336152 8.13972735 0 6.24218898 0 0 Z " fill="#D8EAFC" transform="translate(223,444)"/>
<path d="M0 0 C1.34444159 0.90029571 2.67531438 1.82088022 4 2.75 C5.11375 3.51570312 5.11375 3.51570312 6.25 4.296875 C7.11625 5.13992187 7.11625 5.13992187 8 6 C8 11.03522679 6.00892421 12.61574935 2.6875 16 C-1.91155076 20.78169273 -1.91155076 20.78169273 -6 26 C-9.59905908 25.44449305 -10.99909799 24.25112752 -13.25 21.4375 C-13.77078125 20.79683594 -14.2915625 20.15617187 -14.828125 19.49609375 C-15.21484375 19.00238281 -15.6015625 18.50867188 -16 18 C-15.43152344 17.3709375 -14.86304688 16.741875 -14.27734375 16.09375 C-9.4728318 10.76788032 -4.70399152 5.41488413 0 0 Z " fill="#86C3F6" transform="translate(457,131)"/>
<path d="M0 0 C6.88642548 5.12067536 12.2570706 11.8856059 17 19 C15.93283928 20.20205464 14.84561663 21.38632333 13.75 22.5625 C13.14671875 23.22378906 12.5434375 23.88507813 11.921875 24.56640625 C10 26 10 26 8.06396484 25.77832031 C5.66495943 24.87365634 4.69899387 23.92895203 3.0546875 21.98046875 C2.53519531 21.37009766 2.01570313 20.75972656 1.48046875 20.13085938 C0.95066406 19.48955078 0.42085938 18.84824219 -0.125 18.1875 C-0.66253906 17.55779297 -1.20007813 16.92808594 -1.75390625 16.27929688 C-4.34202089 13.20389382 -6.17416961 10.65166078 -8 7 C-5.36 4.69 -2.72 2.38 0 0 Z " fill="#87C4F7" transform="translate(407,131)"/>
<path d="M0 0 C10.89 0 21.78 0 33 0 C30.73801917 5.65495208 30.73801917 5.65495208 27.5625 8.25 C26.96566406 8.75015625 26.36882812 9.2503125 25.75390625 9.765625 C21.37940569 12.84433809 16.11948017 12.56794233 11 12 C6.13581218 9.61379465 3.16911334 6.28762393 0 2 C0 1.34 0 0.68 0 0 Z " fill="#F5C6B6" transform="translate(63,280)"/>
<path d="M0 0 C10.56 0 21.12 0 32 0 C29.75619924 5.60950189 27.71941508 8.73093963 22.1875 11.3125 C16.16205575 12.61210562 12.04019554 12.93572419 6.6875 9.8125 C3.53451635 7.63204765 1.54896255 5.5819759 0 2 C0 1.34 0 0.68 0 0 Z " fill="#F9C9BA" transform="translate(240,217)"/>
<path d="M0 0 C8.58 0 17.16 0 26 0 C26 0.33 26 0.66 26 1 C20.06 1 14.12 1 8 1 C8 12.22 8 23.44 8 35 C3.79781633 32.89890816 1.57433334 31.38049239 0 27 C-0.48295525 22.36392953 -0.37606043 17.77953884 -0.25 13.125 C-0.23195312 11.86429687 -0.21390625 10.60359375 -0.1953125 9.3046875 C-0.14831417 6.20279781 -0.07657532 3.10130049 0 0 Z " fill="#F2AB9B" transform="translate(46,424)"/>
<path d="M0 0 C1.98 0 3.96 0 6 0 C6.0493933 6.06891692 6.08571643 12.13771713 6.10986328 18.20678711 C6.11992835 20.271912 6.13358154 22.33702263 6.15087891 24.40209961 C6.17510493 27.36836264 6.18647797 30.33443744 6.1953125 33.30078125 C6.20563507 34.2258699 6.21595764 35.15095856 6.22659302 36.1040802 C6.22674408 36.96474594 6.22689514 37.82541168 6.22705078 38.7121582 C6.231492 39.46938675 6.23593323 40.2266153 6.24050903 41.00679016 C6 43 6 43 4 46 C3.01 46 2.02 46 1 46 C-0.1650499 43.6699002 -0.1209358 42.32752923 -0.11352539 39.73388672 C-0.11344986 38.85312469 -0.11337433 37.97236267 -0.11329651 37.06491089 C-0.10813522 36.11278717 -0.10297394 35.16066345 -0.09765625 34.1796875 C-0.0962413 33.20589142 -0.09482635 32.23209534 -0.09336853 31.22879028 C-0.08775973 28.11082927 -0.07520573 24.9929394 -0.0625 21.875 C-0.05748613 19.76432395 -0.05292303 17.65364678 -0.04882812 15.54296875 C-0.03778745 10.36195479 -0.02104073 5.18098248 0 0 Z " fill="#FECDBD" transform="translate(201,284)"/>
<path d="M0 0 C8.58 0 17.16 0 26 0 C26 8.91 26 17.82 26 27 C25.67 27 25.34 27 25 27 C25 18.42 25 9.84 25 1 C19.06 1 13.12 1 7 1 C7 12.22 7 23.44 7 35 C1.06030337 30.24824269 1.06030337 30.24824269 0 27 C-0.22705078 24.06738281 -0.22705078 24.06738281 -0.1953125 20.703125 C-0.18886719 19.49785156 -0.18242188 18.29257812 -0.17578125 17.05078125 C-0.15064453 15.16939453 -0.15064453 15.16939453 -0.125 13.25 C-0.11597656 11.98027344 -0.10695313 10.71054687 -0.09765625 9.40234375 C-0.07409087 6.26814871 -0.03822013 3.13405059 0 0 Z " fill="#F2AB9B" transform="translate(87,424)"/>
<path d="M0 0 C2.31 0 4.62 0 7 0 C7 11.88 7 23.76 7 36 C8.32 36.33 9.64 36.66 11 37 C7.09318837 37.45428042 5.49925687 37.38267404 2.32348633 34.94848633 C-0.62850424 31.20243293 -0.58238725 29.23584014 -0.48828125 24.51171875 C-0.48120651 23.80852005 -0.47413177 23.10532135 -0.46684265 22.3808136 C-0.43899212 20.14859773 -0.3762832 17.91894923 -0.3125 15.6875 C-0.28740451 14.16865619 -0.26459352 12.6497728 -0.24414062 11.13085938 C-0.18920007 7.41974752 -0.10299739 3.71012459 0 0 Z " fill="#FBAF9E" transform="translate(128,339)"/>
<path d="M0 0 C5.28 0 10.56 0 16 0 C16.48160535 10.95652174 16.48160535 10.95652174 14.5 15.25 C11.47294253 17.36894023 9.553517 17.74673081 5.90625 17.4609375 C4 17 4 17 1.5 15.25 C-0.84938852 10.15965821 -0.24476283 5.56835439 0 0 Z " fill="#FBAE9D" transform="translate(368,269)"/>
<path d="M0 0 C5.28 0 10.56 0 16 0 C16.60680356 11.0438247 16.60680356 11.0438247 13.9375 15.25 C10.2277004 17.46009338 8.24660348 17.77210972 4 17 C1.5625 15.25 1.5625 15.25 0 12 C-0.3223239 7.93660531 -0.17976027 4.08954612 0 0 Z " fill="#FCCCBC" transform="translate(481,269)"/>
<path d="M0 0 C2.64 0 5.28 0 8 0 C8 10.23 8 20.46 8 31 C5.36 31 2.72 31 0 31 C0 20.77 0 10.54 0 0 Z " fill="#6C5FB5" transform="translate(46,378)"/>
<path d="M0 0 C2.31 0 4.62 0 7 0 C7.07427649 4.48401485 7.12866111 8.96770174 7.16479492 13.45214844 C7.17986151 14.9769515 7.20031876 16.50171136 7.22631836 18.02636719 C7.26279706 20.22081166 7.27974714 22.41468216 7.29296875 24.609375 C7.31653442 26.5888916 7.31653442 26.5888916 7.34057617 28.60839844 C6.9866721 32.13272487 6.41890223 33.48902883 4 36 C3.01 35.67 2.02 35.34 1 35 C-0.50606515 31.98786971 -0.12160331 28.88717378 -0.09765625 25.5859375 C-0.0962413 24.85629791 -0.09482635 24.12665833 -0.09336853 23.37490845 C-0.08776531 21.04156415 -0.07521235 18.70831536 -0.0625 16.375 C-0.05748541 14.79427222 -0.05292243 13.21354293 -0.04882812 11.6328125 C-0.03779484 7.75517146 -0.02052811 3.87760193 0 0 Z " fill="#FDCBBC" transform="translate(24,339)"/>
<path d="M0 0 C7.37931034 -0.49195402 7.37931034 -0.49195402 10.109375 1.671875 C12.45893904 4.56513981 12.46899759 5.95711309 12.390625 9.640625 C12.37773437 10.71054688 12.36484375 11.78046875 12.3515625 12.8828125 C12.31804687 13.99398437 12.28453125 15.10515625 12.25 16.25 C12.23195313 17.37664062 12.21390625 18.50328125 12.1953125 19.6640625 C12.14820222 22.44356896 12.08243361 25.2213534 12 28 C14.64 28 17.28 28 20 28 C20 28.33 20 28.66 20 29 C14.72 29 9.44 29 4 29 C3.96261719 27.24171875 3.92523438 25.4834375 3.88671875 23.671875 C3.8210635 21.36456184 3.75461601 19.05727113 3.6875 16.75 C3.66494141 15.59113281 3.64238281 14.43226563 3.61914062 13.23828125 C3.58369141 12.12324219 3.54824219 11.00820312 3.51171875 9.859375 C3.48553467 8.83295898 3.45935059 7.80654297 3.43237305 6.74902344 C2.95100114 3.68846573 2.04762948 2.27885191 0 0 Z " fill="#E8B903" transform="translate(300,240)"/>
<path d="M0 0 C5.76171875 -0.48828125 5.76171875 -0.48828125 8 0 C13 5 13 5 13 20 C32.47 20 51.94 20 72 20 C72 20.33 72 20.66 72 21 C49.89 21 27.78 21 5 21 C4.67 15.39 4.34 9.78 4 4 C2.68 2.68 1.36 1.36 0 0 Z " fill="#E13576" transform="translate(41,303)"/>
<path d="M0 0 C2.64 0 5.28 0 8 0 C8 7.92 8 15.84 8 24 C5.36 24 2.72 24 0 24 C0 16.08 0 8.16 0 0 Z " fill="#FA5493" transform="translate(46,339)"/>
<path d="M0 0 C8.58 0 17.16 0 26 0 C26 4.62 26 9.24 26 14 C25.67 14 25.34 14 25 14 C25 9.71 25 5.42 25 1 C19.06 1 13.12 1 7 1 C7 7.93 7 14.86 7 22 C1.01328273 17.21062619 1.01328273 17.21062619 0 14 C-0.26474494 9.31930955 -0.08689616 4.6923928 0 0 Z " fill="#786A77" transform="translate(440,437)"/>
<path d="M0 0 C7.27272727 -0.48484848 7.27272727 -0.48484848 10.25 1.5 C12.69466761 4.99238229 12.43798423 8.15772797 12.25 12.25 C12.23195312 12.99507813 12.21390625 13.74015625 12.1953125 14.5078125 C12.14835649 16.33909701 12.07661652 18.16971649 12 20 C14.97 20 17.94 20 21 20 C21 20.33 21 20.66 21 21 C15.72 21 10.44 21 5 21 C4.75 13.3125 4.75 13.3125 4.70214844 10.91918945 C4.47019062 6.09141475 3.51691805 3.56615491 0 0 Z " fill="#F5347D" transform="translate(123,303)"/>
<path d="M0 0 C2.64 0 5.28 0 8 0 C8 7.26 8 14.52 8 22 C3.28312744 19.64156372 1.64839842 17.94519525 0 13 C-0.06937062 10.77181559 -0.08457084 8.54165476 -0.0625 6.3125 C-0.05347656 5.13300781 -0.04445313 3.95351563 -0.03515625 2.73828125 C-0.02355469 1.83464844 -0.01195312 0.93101562 0 0 Z " fill="#786976" transform="translate(399,437)"/>
<path d="M0 0 C2.91384978 0.25337824 5.22314937 0.47909552 7.68359375 2.12890625 C9.6633372 4.94284427 9.28812022 7.29995269 9.1875 10.6875 C9.16042969 11.86699219 9.13335937 13.04648437 9.10546875 14.26171875 C9.07066406 15.16535156 9.03585938 16.06898438 9 17 C6.69 17 4.38 17 2 17 C1.95101562 16.18015625 1.90203125 15.3603125 1.8515625 14.515625 C1.77679688 13.43796875 1.70203125 12.3603125 1.625 11.25 C1.55539063 10.18265625 1.48578125 9.1153125 1.4140625 8.015625 C1.0271777 5.19793568 0.44313834 3.4169634 -1 1 C-0.67 0.67 -0.34 0.34 0 0 Z " fill="#6E60B7" transform="translate(85,392)"/>
<path d="M0 0 C8.58 0 17.16 0 26 0 C26 0.33 26 0.66 26 1 C20.06 1 14.12 1 8 1 C8 5.62 8 10.24 8 15 C2.94900063 11.96940038 1.94571717 11.22271451 0 6 C0 4.02 0 2.04 0 0 Z " fill="#A6C6E3" transform="translate(263,444)"/>
<path d="M0 0 C8.58 0 17.16 0 26 0 C26 1.98 26 3.96 26 6 C25.67 6 25.34 6 25 6 C25 4.35 25 2.7 25 1 C19.06 1 13.12 1 7 1 C7 5.62 7 10.24 7 15 C2.39758861 12.69879431 1.76902844 11.68792537 0 7 C0 4.69 0 2.38 0 0 Z " fill="#A7C7E4" transform="translate(223,444)"/>
<path d="M0 0 C2.31 0 4.62 0 7 0 C7.08133791 1.91595968 7.13934367 3.83291932 7.1875 5.75 C7.22230469 6.81734375 7.25710938 7.8846875 7.29296875 8.984375 C6.96808704 12.32849074 6.40833164 13.68710342 4 16 C3.01 16 2.02 16 1 16 C-0.14077657 12.57767028 -0.09815117 9.91326783 -0.0625 6.3125 C-0.05347656 5.13300781 -0.04445313 3.95351563 -0.03515625 2.73828125 C-0.02355469 1.83464844 -0.01195312 0.93101562 0 0 Z " fill="#FDCCBC" transform="translate(377,269)"/>
</svg>
