<?xml version="1.0" encoding="UTF-8"?>
<svg version="1.1" xmlns="http://www.w3.org/2000/svg" width="512" height="512">
<path d="M0 0 C2 2.75 2 2.75 4 6 C9.84621379 14.76932068 20.61417681 19.63938469 29.625 24.5625 C38.11923976 29.26107918 46.56381201 34.02710702 54.9375 38.9375 C63.23374931 43.79945629 71.543433 48.63626856 79.875 53.4375 C81.49523071 54.37130493 81.49523071 54.37130493 83.14819336 55.32397461 C85.33796334 56.58576826 87.52782355 57.84740534 89.71777344 59.10888672 C95.14659945 62.2368015 100.57317249 65.36861966 106 68.5 C108.16015357 69.74609839 110.32030983 70.99219214 112.48046875 72.23828125 C117.99053783 75.41707167 123.4992416 78.59822086 129.00756836 81.7800293 C132.2613878 83.65800014 135.51732645 85.53225602 138.7734375 87.40625 C142.83089156 89.74277955 146.87678561 92.09754346 150.9140625 94.46875 C152.75520257 95.54167656 154.59634811 96.61459373 156.4375 97.6875 C157.65143433 98.40909302 157.65143433 98.40909302 158.88989258 99.14526367 C170.5702807 105.91918682 182.25084461 109.61381284 195.7265625 106.94921875 C217.40768007 100.6622121 238.51827364 84.64925151 257.91992188 73.29052734 C265.58412042 68.80876947 273.2861574 64.39545717 281 60 C290.7132656 54.46468793 300.39407256 48.87715672 310.04272461 43.22973633 C316.40376379 39.50830844 322.78056987 35.81553494 329.16845703 32.14038086 C341.48865551 25.05824685 341.48865551 25.05824685 353.75 17.875 C354.83796875 17.23304688 355.9259375 16.59109375 357.046875 15.9296875 C362.31867276 12.48488843 366.37609725 8.93585412 369.875 3.6875 C370.47054688 2.80449219 371.06609375 1.92148437 371.6796875 1.01171875 C372.11539062 0.34785156 372.55109375 -0.31601562 373 -1 C378.96932934 -0.03733488 383.88964186 2.68793101 389.25 5.375 C390.77753906 6.1175 390.77753906 6.1175 392.3359375 6.875 C393.78613281 7.59816406 393.78613281 7.59816406 395.265625 8.3359375 C396.15024414 8.77470215 397.03486328 9.2134668 397.94628906 9.66552734 C400 11 400 11 401 14 C392.37880936 35.43097862 368.93165174 46.38504983 350.2084198 57.03355408 C344.12299254 60.49482367 338.06137831 63.99684949 332 67.5 C329.83343912 68.75018334 327.66677224 70.00018301 325.5 71.25 C324.4275 71.86875 323.355 72.4875 322.25 73.125 C304.375 83.4375 304.375 83.4375 286.5 93.75 C285.42709717 94.3689917 284.35419434 94.9879834 283.2487793 95.62573242 C281.08621417 96.8733474 278.92361661 98.12090616 276.76098633 99.3684082 C270.1704853 103.17021941 263.58118061 106.9740929 256.99291992 110.77978516 C253.7364092 112.65927218 250.47765147 114.53481853 247.21875 116.41015625 C243.18637864 118.73214677 239.16649914 121.07362207 235.15625 123.43359375 C213.35624185 136.20050222 191.5275101 143.65055147 166 137.5 C148.46261205 131.86642763 132.65120142 121.20723016 116.79138184 112.03497314 C113.94921875 110.39290979 111.10338695 108.75723631 108.2578125 107.12109375 C96.87265762 100.5703815 85.51708708 93.97063313 74.17871094 87.33935547 C66.47974984 82.84472466 58.74525241 78.41411759 51 74 C39.17685547 67.26121114 27.40399938 60.44004981 15.66552734 53.5546875 C13.14548526 52.0848553 10.61614151 50.63290818 8.08203125 49.1875 C-6.11565413 41.05739625 -23.38210383 30.34297068 -29 14 C-27.45105709 9.35317126 -23.79731478 8.55423134 -19.57617188 6.421875 C-18.45791016 5.87015625 -17.33964844 5.3184375 -16.1875 4.75 C-15.08083984 4.1828125 -13.97417969 3.615625 -12.83398438 3.03125 C-11.76857422 2.50015625 -10.70316406 1.9690625 -9.60546875 1.421875 C-8.62731201 0.93299805 -7.64915527 0.44412109 -6.64135742 -0.05957031 C-3.80941468 -1.06785606 -2.70366398 -1.25419658 0 0 Z " fill="#3D4B66" transform="translate(70,373)"/>
<path d="M0 0 C2.81708331 1.6283674 5.63703821 3.25174234 8.45678711 4.87548828 C13.82927369 7.97051652 19.19871292 11.07078615 24.56713867 14.17285156 C28.88738854 16.66863172 33.20914198 19.16180125 37.53100586 21.65478516 C40.77987707 23.52883391 44.02848843 25.40333256 47.27709961 27.27783203 C51.63556599 29.79243264 55.99503402 32.30528489 60.35522461 34.81689453 C73.01374499 42.11043862 85.65864509 49.42631251 98.26538086 56.80908203 C101.73661517 58.84112662 105.21685933 60.85522799 108.71069336 62.84814453 C122.90551598 70.97815543 140.16794894 81.69148178 145.78491211 98.03173828 C144.2359692 102.67856702 140.58222689 103.47750694 136.36108398 105.60986328 C135.24282227 106.16158203 134.12456055 106.71330078 132.97241211 107.28173828 C131.86575195 107.84892578 130.7590918 108.41611328 129.61889648 109.00048828 C128.55348633 109.53158203 127.48807617 110.06267578 126.39038086 110.60986328 C125.41222412 111.09874023 124.43406738 111.58761719 123.42626953 112.09130859 C120.59432679 113.09959434 119.48857609 113.28593486 116.78491211 112.03173828 C114.78491211 109.28173828 114.78491211 109.28173828 112.78491211 106.03173828 C107.09633956 97.49887945 97.11453277 92.99861886 88.34887695 88.20556641 C81.92995635 84.69183344 75.59794695 81.04452118 69.28491211 77.34423828 C60.84234861 72.39984786 52.38687519 67.47945145 43.90991211 62.59423828 C42.83032227 61.97202393 41.75073242 61.34980957 40.63842773 60.70874023 C38.44808691 59.44662311 36.25765709 58.18466043 34.06713867 56.92285156 C28.63831269 53.7949368 23.2117193 50.6631538 17.78491211 47.53173828 C15.61825628 46.28171949 13.45158961 45.0317195 11.28491211 43.78173828 C-1.71508789 36.28173828 -1.71508789 36.28173828 -4.96923828 34.40405273 C-7.12173399 33.16242132 -9.2745626 31.92136684 -11.42773438 30.6809082 C-16.46653816 27.77709367 -21.50197685 24.86791575 -26.52529907 21.93740845 C-28.2980145 20.90360945 -30.0718129 19.87169375 -31.84594727 18.84033203 C-34.06686709 17.54848225 -36.28575858 16.25313639 -38.50219727 14.95361328 C-51.32307543 7.50817669 -63.87227787 1.79091473 -79.08227539 5.04736328 C-101.82102287 12.19220663 -123.7448915 28.55756572 -144.23071289 40.53955078 C-153.77331722 46.11602985 -163.35566582 51.62385319 -172.93286133 57.140625 C-179.4372673 60.88825433 -185.93884584 64.64078789 -192.44042969 68.39331055 C-197.99195081 71.5970629 -203.54529586 74.79758405 -209.10180664 77.99267578 C-215.47943709 81.66111971 -221.84982787 85.34187661 -228.21508789 89.03173828 C-229.03235352 89.50401855 -229.84961914 89.97629883 -230.69165039 90.46289062 C-241.52754828 96.74214243 -249.60436419 102.13494097 -256.21508789 113.03173828 C-262.18441723 112.06907316 -267.10472975 109.34380727 -272.46508789 106.65673828 C-273.99262695 105.91423828 -273.99262695 105.91423828 -275.55102539 105.15673828 C-276.51782227 104.67462891 -277.48461914 104.19251953 -278.48071289 103.69580078 C-279.36533203 103.25703613 -280.24995117 102.81827148 -281.16137695 102.36621094 C-283.21508789 101.03173828 -283.21508789 101.03173828 -284.21508789 98.03173828 C-275.59389725 76.60075966 -252.14673963 65.64668845 -233.42350769 54.9981842 C-227.33808043 51.53691461 -221.2764662 48.03488879 -215.21508789 44.53173828 C-213.04852701 43.28155494 -210.88186013 42.03155527 -208.71508789 40.78173828 C-207.64258789 40.16298828 -206.57008789 39.54423828 -205.46508789 38.90673828 C-193.54842122 32.03173828 -181.63175456 25.15673828 -169.71508789 18.28173828 C-168.64218506 17.66274658 -167.56928223 17.04375488 -166.46386719 16.40600586 C-164.30130206 15.15839088 -162.1387045 13.91083212 -159.97607422 12.66333008 C-153.38557319 8.86151887 -146.7962685 5.05764538 -140.20800781 1.25195312 C-136.95149709 -0.6275339 -133.69273936 -2.50308025 -130.43383789 -4.37841797 C-126.40146653 -6.70040849 -122.38158703 -9.04188379 -118.37133789 -11.40185547 C-73.78467622 -37.51348921 -41.70164167 -24.1215926 0 0 Z " fill="#3D4B66" transform="translate(325.215087890625,26.96826171875)"/>
<path d="M0 0 C13.2 0 26.4 0 40 0 C45.11395662 9.65169278 50.20817977 19.30869426 55.125 29.0625 C55.70979126 30.21274658 55.70979126 30.21274658 56.30639648 31.38623047 C59 36.76366257 59 36.76366257 59 39 C59.66 39 60.32 39 61 39 C61.38176392 37.74860229 61.38176392 37.74860229 61.77124023 36.47192383 C63.12689476 32.64145234 64.83123032 29.06801871 66.66015625 25.44921875 C67.0100914 24.74980667 67.36002655 24.05039459 67.7205658 23.32978821 C68.45577284 21.86237899 69.19291086 20.3959358 69.93188477 18.93041992 C71.06667022 16.67922709 72.19492397 14.4248501 73.32226562 12.16992188 C74.03868355 10.74199731 74.75546738 9.31425626 75.47265625 7.88671875 C75.81120132 7.21074142 76.1497464 6.5347641 76.49855042 5.83830261 C78.88389969 1.11610031 78.88389969 1.11610031 80 0 C83.02977804 -0.08871273 86.03667022 -0.1151935 89.06640625 -0.09765625 C89.97502914 -0.0962413 90.88365204 -0.09482635 91.81980896 -0.09336853 C94.73407221 -0.08775193 97.64825981 -0.07519665 100.5625 -0.0625 C102.53320202 -0.05748714 104.50390524 -0.05292386 106.47460938 -0.04882812 C111.31643559 -0.03777711 116.15820495 -0.02050138 121 0 C121.02332758 19.54029795 121.04097848 39.08059309 121.05181217 58.62090206 C121.05697543 67.69315493 121.06401869 76.76539916 121.07543945 85.83764648 C121.08538538 93.74208712 121.09185321 101.64652151 121.09408849 109.55096823 C121.09539576 113.73894719 121.09848259 117.92690827 121.10573006 122.11488152 C121.11248884 126.05215298 121.11461725 129.98939908 121.11310768 133.9266758 C121.11338407 135.37594617 121.11539004 136.82521735 121.11920547 138.27448273 C121.12414043 140.24470414 121.12239809 142.21493898 121.12025452 144.18516541 C121.12117631 145.29039519 121.1220981 146.39562498 121.12304783 147.53434658 C121 150 121 150 120 151 C110.1 151 100.2 151 90 151 C89.505 102.49 89.505 102.49 89 53 C79.76 71.48 70.52 89.96 61 109 C60.34 109 59.68 109 59 109 C49.76 90.52 40.52 72.04 31 53 C30.67 85.34 30.34 117.68 30 151 C20.1 151 10.2 151 0 151 C0 101.17 0 51.34 0 0 Z " fill="#57ABFF" transform="translate(256,180)"/>
<path d="M0 0 C7.61300091 -0.10208695 15.22582288 -0.17175219 22.83935547 -0.21972656 C25.42503455 -0.23974306 28.01066894 -0.2669647 30.59619141 -0.30175781 C34.32986536 -0.35071459 38.06293669 -0.37306955 41.796875 -0.390625 C42.93799744 -0.41127014 44.07911987 -0.43191528 45.25482178 -0.45318604 C59.17851209 -0.45700947 69.72534654 4.26880895 79.84375 13.72265625 C87.19524853 21.65552329 91.30422999 32.12847938 91.29052734 42.8503418 C91.29724457 43.61383438 91.30396179 44.37732697 91.31088257 45.16395569 C91.32980235 47.67577721 91.33378416 50.1873305 91.3359375 52.69921875 C91.34237128 54.45791226 91.34910007 56.21660471 91.35610962 57.97529602 C91.36806856 61.65958128 91.37179204 65.34377288 91.37060547 69.02807617 C91.37040274 73.72407267 91.39766268 78.41946083 91.43214989 83.11531353 C91.45451193 86.74871009 91.45844012 90.38196262 91.45738602 94.01542091 C91.45972962 95.74519756 91.46848234 97.47497894 91.48405075 99.20468712 C91.60603023 114.16124489 89.34099923 126.05797974 78.77734375 137.3828125 C66.87548883 148.81312007 53.49775769 151.346862 37.4609375 151.23046875 C36.41346344 151.23001053 35.36598938 151.22955231 34.28677368 151.2290802 C32.09693249 151.22608367 29.90709292 151.21827655 27.71728516 151.20581055 C24.34920823 151.1873587 20.98140385 151.18530256 17.61328125 151.18554688 C15.47916427 151.18063803 13.34504915 151.1748125 11.2109375 151.16796875 C10.20066498 151.16685593 9.19039246 151.1657431 8.14950562 151.16459656 C7.22408966 151.15821671 6.29867371 151.15183685 5.34521484 151.14526367 C4.11924088 151.13954597 4.11924088 151.13954597 2.86849976 151.13371277 C1 151 1 151 0 150 C-0.09662973 148.063717 -0.12187144 146.12385738 -0.12025452 144.18516541 C-0.12162918 142.92166763 -0.12300385 141.65816986 -0.12442017 140.35638428 C-0.12088055 138.94323707 -0.11724574 137.5300901 -0.11352539 136.11694336 C-0.11324353 134.63898216 -0.11340124 133.16102081 -0.1139679 131.68305969 C-0.1142559 127.65844172 -0.1083587 123.63385328 -0.10139394 119.6092422 C-0.09516088 115.40783635 -0.09455664 111.2064299 -0.09336853 107.00502014 C-0.09025507 99.04353743 -0.08204149 91.08206838 -0.07201904 83.1205917 C-0.06085836 74.05907411 -0.05534757 64.99755588 -0.05032361 55.93603313 C-0.03985888 37.290681 -0.02225916 18.64534159 0 0 Z M31 31 C31 60.37 31 89.74 31 120 C45.10616614 121.05322029 45.10616614 121.05322029 56 116 C59.54215239 111.56966553 60.50276919 108.62879758 60.51757812 102.98828125 C60.5245874 102.31429291 60.53159668 101.64030457 60.53881836 100.94589233 C60.55631771 98.73433323 60.54480598 96.52407043 60.53125 94.3125 C60.53394727 92.76602942 60.53783165 91.2195605 60.54284668 89.6730957 C60.54873075 86.43847441 60.54021455 83.20429618 60.52148438 79.96972656 C60.49869485 75.83363067 60.51182388 71.6985731 60.53577423 67.56251526 C60.55026213 64.37105556 60.54561266 61.17984006 60.53526306 57.9883728 C60.53260401 56.46381506 60.53583655 54.93923479 60.54518127 53.41470337 C60.55539712 51.27978199 60.53977939 49.14651742 60.51757812 47.01171875 C60.51439575 45.79959717 60.51121338 44.58747559 60.50793457 43.33862305 C59.88260147 39.22834662 58.6901932 37.15713257 56 34 C48.28568122 29.58382361 48.28568122 29.58382361 31 31 Z " fill="#66CDFF" transform="translate(15,180)"/>
<path d="M0 0 C10.20408983 7.05383391 18.01848488 15.93966728 20.73187256 28.39819336 C21.87634182 36.70515431 22.32914568 44.81802289 22.30078125 53.19921875 C22.3026947 54.47796875 22.30460815 55.75671875 22.30657959 57.07421875 C22.30949612 59.7565607 22.30534716 62.43876773 22.29589844 65.12109375 C22.28450593 68.51605987 22.29108435 71.91070948 22.30304337 75.30566406 C22.31211148 78.60353928 22.30571602 81.90133463 22.30078125 85.19921875 C22.30482971 86.39546875 22.30887817 87.59171875 22.31304932 88.82421875 C22.21857657 106.13234992 19.76205332 120.14534816 7.45703125 133.0078125 C-2.29403025 141.83095041 -13.94693909 145.43351175 -26.96484375 145.19921875 C-40.74495221 143.53789243 -50.5122382 138.31093455 -59.96484375 128.19921875 C-68.64770324 116.57950972 -69.44051762 105.22907484 -69.43359375 91.27734375 C-69.44070849 89.52772787 -69.44840938 87.77811429 -69.45666504 86.02850342 C-69.47006654 82.37049875 -69.47169886 78.71270974 -69.46582031 75.0546875 C-69.45993714 70.40028551 -69.49047842 65.74693127 -69.53093719 61.09273148 C-69.5569745 57.48067797 -69.55967704 53.86887114 -69.55604553 50.25673676 C-69.55772273 48.54256312 -69.56722806 46.82837631 -69.58518982 45.11429596 C-69.72128937 30.51894576 -67.61531235 18.13977793 -56.96484375 7.19921875 C-41.68271618 -7.20817424 -18.41652788 -11.18579625 0 0 Z M-36.6388092 31.41261292 C-38.26859117 34.83753117 -38.35204013 37.30887868 -38.36889648 41.09741211 C-38.37575974 41.77125443 -38.38262299 42.44509674 -38.38969421 43.13935852 C-38.40792327 45.35614381 -38.40413054 47.57221869 -38.3984375 49.7890625 C-38.40300131 51.33696217 -38.40830749 52.88485981 -38.4143219 54.43275452 C-38.4232454 57.67327111 -38.42083883 60.91354116 -38.41088867 64.15405273 C-38.39940174 68.29798709 -38.41960924 72.44106894 -38.44880581 76.58489132 C-38.4671904 79.78061795 -38.46687088 82.97614116 -38.46116829 86.17190742 C-38.46101534 87.69926715 -38.46703798 89.2266409 -38.47945976 90.75395012 C-38.4944113 92.89371409 -38.48366485 95.03191436 -38.46655273 97.17163086 C-38.46638657 98.38676865 -38.4662204 99.60190643 -38.46604919 100.85386658 C-37.76975675 105.50134887 -35.76437267 108.77814746 -32.0703125 111.6953125 C-27.32148667 114.02620257 -24.23633019 114.76114066 -18.96484375 113.19921875 C-14.60843787 110.85346174 -12.05274894 108.70469836 -9.96484375 104.19921875 C-9.05067978 100.49917113 -8.83361076 97.03967921 -8.81958008 93.23486328 C-8.81320023 92.05658966 -8.80682037 90.87831604 -8.80024719 89.66433716 C-8.79913437 88.39967621 -8.79802155 87.13501526 -8.796875 85.83203125 C-8.7935466 84.52394501 -8.7902182 83.21585876 -8.78678894 81.86813354 C-8.78081351 79.10267308 -8.77894741 76.3372438 -8.77954102 73.57177734 C-8.77964255 70.04248956 -8.76599249 66.51340335 -8.74876881 62.98416328 C-8.73492187 59.60011648 -8.73555871 56.21610598 -8.734375 52.83203125 C-8.72718948 51.57141876 -8.72000397 50.31080627 -8.71260071 49.01199341 C-8.56146113 38.44515974 -8.56146113 38.44515974 -13.33984375 29.38671875 C-17.56346308 25.86703597 -20.19909011 24.72408105 -25.87109375 24.8828125 C-30.40591329 25.56811172 -33.85404593 27.73047075 -36.6388092 31.41261292 Z " fill="#59AAFF" transform="translate(474.96484375,185.80078125)"/>
<path d="M0 0 C30.03 0 60.06 0 91 0 C91 10.23 91 20.46 91 31 C71.2 31 51.4 31 31 31 C31 40.57 31 50.14 31 60 C40.9 60 50.8 60 61 60 C61 70.23 61 80.46 61 91 C51.1 91 41.2 91 31 91 C31 100.57 31 110.14 31 120 C50.8 120 70.6 120 91 120 C91 130.23 91 140.46 91 151 C79.28272869 151.02254989 67.56547169 151.04091443 55.84818363 151.05181217 C50.40797688 151.05704128 44.96778569 151.06413943 39.52758789 151.07543945 C34.28214298 151.08626735 29.03671308 151.09227662 23.79125786 151.09487724 C21.78529054 151.09673167 19.77932408 151.10035262 17.77336311 151.10573006 C14.97397176 151.11293919 12.17464321 151.113991 9.37524414 151.11352539 C8.53727295 151.11712067 7.69930176 151.12071594 6.8359375 151.12442017 C1.11405216 151.11405216 1.11405216 151.11405216 0 150 C-0.09662973 148.063717 -0.12187144 146.12385738 -0.12025452 144.18516541 C-0.12162918 142.92166763 -0.12300385 141.65816986 -0.12442017 140.35638428 C-0.12088055 138.94323707 -0.11724574 137.5300901 -0.11352539 136.11694336 C-0.11324353 134.63898216 -0.11340124 133.16102081 -0.1139679 131.68305969 C-0.1142559 127.65844172 -0.1083587 123.63385328 -0.10139394 119.6092422 C-0.09516088 115.40783635 -0.09455664 111.2064299 -0.09336853 107.00502014 C-0.09025507 99.04353743 -0.08204149 91.08206838 -0.07201904 83.1205917 C-0.05877325 72.3661424 -0.05335811 61.61168939 -0.04751682 50.857234 C-0.0381016 33.90481243 -0.01818279 16.95241969 0 0 Z " fill="#64CCFF" transform="translate(135,180)"/>
<path d="M0 0 C2 2.75 2 2.75 4 6 C9.84621379 14.76932068 20.61417681 19.63938469 29.625 24.5625 C38.11923976 29.26107918 46.56381201 34.02710702 54.9375 38.9375 C63.23374931 43.79945629 71.543433 48.63626856 79.875 53.4375 C81.49523071 54.37130493 81.49523071 54.37130493 83.14819336 55.32397461 C85.33796334 56.58576826 87.52782355 57.84740534 89.71777344 59.10888672 C95.14659945 62.2368015 100.57317249 65.36861966 106 68.5 C108.16015357 69.74609839 110.32030983 70.99219214 112.48046875 72.23828125 C117.99053783 75.41707167 123.4992416 78.59822086 129.00756836 81.7800293 C132.2613878 83.65800014 135.51732645 85.53225602 138.7734375 87.40625 C142.83089156 89.74277955 146.87678561 92.09754346 150.9140625 94.46875 C152.75520257 95.54167656 154.59634811 96.61459373 156.4375 97.6875 C157.65143433 98.40909302 157.65143433 98.40909302 158.88989258 99.14526367 C167.1861475 103.95659294 175.43699248 107.11453634 185 108 C186 109 186 109 186.11352539 111.86743164 C186.10828857 113.11903076 186.10305176 114.37062988 186.09765625 115.66015625 C186.09553383 116.65685585 186.09553383 116.65685585 186.09336853 117.6736908 C186.08775518 119.80333899 186.07520054 121.93288339 186.0625 124.0625 C186.05748671 125.50325369 186.05292351 126.94400903 186.04882812 128.38476562 C186.03778145 131.92321102 186.02050792 135.46159539 186 139 C159.5342334 139.58885513 138.93512675 124.84143155 116.79138184 112.03497314 C113.94921875 110.39290979 111.10338695 108.75723631 108.2578125 107.12109375 C96.87265762 100.5703815 85.51708708 93.97063313 74.17871094 87.33935547 C66.47974984 82.84472466 58.74525241 78.41411759 51 74 C39.17685547 67.26121114 27.40399938 60.44004981 15.66552734 53.5546875 C13.14548526 52.0848553 10.61614151 50.63290818 8.08203125 49.1875 C-6.11565413 41.05739625 -23.38210383 30.34297068 -29 14 C-27.45105709 9.35317126 -23.79731478 8.55423134 -19.57617188 6.421875 C-18.45791016 5.87015625 -17.33964844 5.3184375 -16.1875 4.75 C-15.08083984 4.1828125 -13.97417969 3.615625 -12.83398438 3.03125 C-11.76857422 2.50015625 -10.70316406 1.9690625 -9.60546875 1.421875 C-8.62731201 0.93299805 -7.64915527 0.44412109 -6.64135742 -0.05957031 C-3.80941468 -1.06785606 -2.70366398 -1.25419658 0 0 Z " fill="#4C5D7F" transform="translate(70,373)"/>
<path d="M0 0 C1.0737085 0.00620361 2.14741699 0.01240723 3.25366211 0.01879883 C4.06843018 0.0267749 4.88319824 0.03475098 5.72265625 0.04296875 C5.74731247 4.29711498 5.76549524 8.55122373 5.77758789 12.80541992 C5.78262726 14.25366948 5.78945878 15.70191392 5.7980957 17.15014648 C5.81017872 19.22771463 5.81588836 21.30521572 5.8203125 23.3828125 C5.82554932 24.63441162 5.83078613 25.88601074 5.83618164 27.17553711 C5.72265625 30.04296875 5.72265625 30.04296875 4.72265625 31.04296875 C3.03638022 31.24117479 1.34852415 31.42595184 -0.33984375 31.60546875 C-23.95286805 35.54556499 -48.83410315 55.58456241 -69.29296875 67.55078125 C-78.83557308 73.12726031 -88.41792168 78.63508366 -97.99511719 84.15185547 C-104.49952316 87.8994848 -111.0011017 91.65201836 -117.50268555 95.40454102 C-123.05420667 98.60829337 -128.60755172 101.80881452 -134.1640625 105.00390625 C-140.54169294 108.67235018 -146.91208373 112.35310708 -153.27734375 116.04296875 C-154.09460938 116.51524902 -154.911875 116.9875293 -155.75390625 117.47412109 C-166.58980414 123.7533729 -174.66662005 129.14617144 -181.27734375 140.04296875 C-187.24667309 139.08030363 -192.16698561 136.35503774 -197.52734375 133.66796875 C-199.05488281 132.92546875 -199.05488281 132.92546875 -200.61328125 132.16796875 C-201.58007812 131.68585938 -202.546875 131.20375 -203.54296875 130.70703125 C-204.42758789 130.2682666 -205.31220703 129.82950195 -206.22363281 129.37744141 C-208.27734375 128.04296875 -208.27734375 128.04296875 -209.27734375 125.04296875 C-200.65615311 103.61199013 -177.20899549 92.65791892 -158.48576355 82.00941467 C-152.40033629 78.54814508 -146.33872206 75.04611926 -140.27734375 71.54296875 C-138.11078287 70.29278541 -135.94411599 69.04278574 -133.77734375 67.79296875 C-132.70484375 67.17421875 -131.63234375 66.55546875 -130.52734375 65.91796875 C-118.61067708 59.04296875 -106.69401042 52.16796875 -94.77734375 45.29296875 C-93.70444092 44.67397705 -92.63153809 44.05498535 -91.52612305 43.41723633 C-89.36355792 42.16962135 -87.20096036 40.92206259 -85.03833008 39.67456055 C-78.44782905 35.87274934 -71.85852436 32.06887585 -65.27026367 28.26318359 C-62.01375295 26.38369657 -58.75499522 24.50815022 -55.49609375 22.6328125 C-51.46372239 20.31082198 -47.44384289 17.96934668 -43.43359375 15.609375 C-34.29413348 10.25696174 -25.46422735 5.14460286 -15.27734375 2.04296875 C-14.10751953 1.68138672 -14.10751953 1.68138672 -12.9140625 1.3125 C-8.57186961 0.16332284 -4.48788684 -0.03369744 0 0 Z " fill="#4C5D7F" transform="translate(250.27734375,-0.04296875)"/>
<path d="M0 0 C3.46107497 1.81338237 6.85183914 3.69409118 10.1875 5.7265625 C11.70368915 6.63404655 13.22066888 7.54021056 14.73828125 8.4453125 C15.98085693 9.1878125 15.98085693 9.1878125 17.24853516 9.9453125 C22.26417931 12.91808579 27.32170635 15.81841422 32.375 18.7265625 C34.03136475 19.68103271 34.03136475 19.68103271 35.72119141 20.65478516 C39.12625838 22.61685268 42.53183526 24.57803276 45.9375 26.5390625 C62.63414207 36.15503246 79.3051598 45.81229578 95.9375 55.5390625 C94.29276763 61.72242342 91.01196913 66.93562116 87.8125 72.4140625 C87.24917969 73.38859375 86.68585938 74.363125 86.10546875 75.3671875 C84.72099637 77.76068212 83.33156459 80.1511463 81.9375 82.5390625 C78.24148418 81.95827753 75.50042492 80.94846669 72.26171875 79.08984375 C71.36428955 78.57897217 70.46686035 78.06810059 69.54223633 77.54174805 C68.57954834 76.98398682 67.61686035 76.42622559 66.625 75.8515625 C65.60881592 75.26995361 64.59263184 74.68834473 63.5456543 74.08911133 C55.44324652 69.44076017 47.37853154 64.72695402 39.31591797 60.01000977 C31.77050718 55.59819544 24.20869457 51.21580981 16.62704468 46.86660767 C15.38664755 46.15453941 14.1469087 45.44132311 12.90786743 44.72689819 C11.1761086 43.72877233 9.44161947 42.73538817 7.70703125 41.7421875 C6.21586792 40.88608887 6.21586792 40.88608887 4.69458008 40.01269531 C3.32982544 39.28324707 3.32982544 39.28324707 1.9375 38.5390625 C1.10202637 38.09022705 0.26655273 37.6413916 -0.59423828 37.17895508 C-3.09814554 36.28261179 -3.09814554 36.28261179 -5.60424805 37.45092773 C-6.50183838 37.99434814 -7.39942871 38.53776855 -8.32421875 39.09765625 C-9.34725098 39.70359619 -10.3702832 40.30953613 -11.42431641 40.93383789 C-12.52179199 41.60793701 -13.61926758 42.28203613 -14.75 42.9765625 C-15.90949704 43.67045946 -17.0701636 44.36240556 -18.23193359 45.05249023 C-20.64764963 46.48942049 -23.05809394 47.93465778 -25.46533203 49.38574219 C-30.99156659 52.70679572 -36.59376472 55.89605885 -42.1875 59.1015625 C-50.9706037 64.16380466 -59.74050222 69.24858878 -68.5 74.3515625 C-69.51916504 74.94461182 -70.53833008 75.53766113 -71.58837891 76.14868164 C-72.5272998 76.69645264 -73.4662207 77.24422363 -74.43359375 77.80859375 C-75.25786865 78.28917236 -76.08214355 78.76975098 -76.93139648 79.26489258 C-78.67279285 80.30605968 -80.37434188 81.41362375 -82.0625 82.5390625 C-84.09765625 82.38720703 -84.09765625 82.38720703 -86.0625 81.5390625 C-87.37109375 79.97607422 -87.37109375 79.97607422 -88.5 77.96875 C-88.92023438 77.2365625 -89.34046875 76.504375 -89.7734375 75.75 C-90.19882813 74.97914063 -90.62421875 74.20828125 -91.0625 73.4140625 C-91.48789063 72.66640625 -91.91328125 71.91875 -92.3515625 71.1484375 C-93.19413847 69.6648835 -94.03019425 68.1776056 -94.859375 66.68652344 C-96.00393883 64.64358848 -97.18675495 62.62709041 -98.375 60.609375 C-100.0625 57.5390625 -100.0625 57.5390625 -100.0625 55.5390625 C-99.33998047 55.12769043 -98.61746094 54.71631836 -97.87304688 54.29248047 C-84.21725772 46.5135115 -70.58199378 38.70416527 -57.0168457 30.76782227 C-48.52070161 25.7989913 -40.00661898 20.86159614 -31.46533203 15.97070312 C-26.40539396 13.06966173 -21.3754986 10.1387237 -16.41015625 7.078125 C-15.54366455 6.55178467 -14.67717285 6.02544434 -13.78442383 5.4831543 C-12.18660812 4.50931521 -10.59833645 3.51956177 -9.0222168 2.51098633 C-3.89719448 -0.58656754 -3.89719448 -0.58656754 0 0 Z " fill="#3D4B66" transform="translate(258.0625,57.4609375)"/>
<path d="M0 0 C0.99 0.495 0.99 0.495 2 1 C2.17957923 5.83983265 2.2719854 10.6710144 2.28686523 15.51416016 C2.30381159 17.15747221 2.34378957 18.80072494 2.40795898 20.44287109 C2.81013244 31.21327235 2.81013244 31.21327235 1 36 C-2.77871262 39.93761862 -7.05250993 41.82204522 -12 44 C-14.02878919 45.15330109 -16.04384789 46.33116091 -18.04296875 47.53515625 C-20.0900682 48.71281272 -22.13827906 49.88853899 -24.1875 51.0625 C-26.4583369 52.36848338 -28.72917012 53.67447316 -31 54.98046875 C-32.16400474 55.64902636 -33.32806744 56.31748306 -34.4921875 56.98583984 C-39.110575 59.63742797 -43.72750377 62.29153789 -48.3425293 64.94897461 C-50.55144111 66.22086026 -52.76122333 67.49123562 -54.97192383 68.76000977 C-59.62808619 71.43976646 -64.26433451 74.1354709 -68.82421875 76.9765625 C-69.52264893 77.40984863 -70.2210791 77.84313477 -70.94067383 78.28955078 C-72.71525211 79.40003407 -74.47927825 80.52733363 -76.2421875 81.65625 C-79 83 -79 83 -81.02001953 82.80712891 C-83.5370088 81.78109111 -84.11548421 80.78038254 -85.4375 78.4296875 C-85.85773438 77.6975 -86.27796875 76.9653125 -86.7109375 76.2109375 C-87.13632813 75.44007813 -87.56171875 74.66921875 -88 73.875 C-88.42539063 73.12734375 -88.85078125 72.3796875 -89.2890625 71.609375 C-90.13163847 70.125821 -90.96769425 68.6385431 -91.796875 67.14746094 C-92.94143883 65.10452598 -94.12425495 63.08802791 -95.3125 61.0703125 C-97 58 -97 58 -97 56 C-96.27748047 55.58862793 -95.55496094 55.17725586 -94.81054688 54.75341797 C-81.15475772 46.974449 -67.51949378 39.16510277 -53.9543457 31.22875977 C-45.46002188 26.26099335 -36.94291787 21.33344485 -28.41162109 16.42944336 C-23.32667154 13.50515294 -18.25226846 10.56659631 -13.20703125 7.57421875 C-11.88022339 6.79147583 -11.88022339 6.79147583 -10.52661133 5.99291992 C-8.88318573 5.02185532 -7.24346971 4.04447564 -5.6081543 3.05981445 C-3.77327618 1.97902976 -1.89075483 0.97975477 0 0 Z " fill="#4C5D7F" transform="translate(255,57)"/>
</svg>
