<?xml version="1.0" encoding="UTF-8"?>
<svg version="1.1" xmlns="http://www.w3.org/2000/svg" width="182" height="171">
<path d="M0 0 C60.06 0 120.12 0 182 0 C182 56.43 182 112.86 182 171 C121.94 171 61.88 171 0 171 C0 114.57 0 58.14 0 0 Z " fill="#E3EFF6" transform="translate(0,0)"/>
<path d="M0 0 C60.06 0 120.12 0 182 0 C182 56.43 182 112.86 182 171 C121.94 171 61.88 171 0 171 C0 158.46 0 145.92 0 133 C2.31 133.33 4.62 133.66 7 134 C7 136.97 7 139.94 7 143 C10.63 143.33 14.26 143.66 18 144 C18.99 146.475 18.99 146.475 20 149 C20.66 149.99 21.32 150.98 22 152 C24.46781787 152.44401255 24.46781787 152.44401255 27.33984375 152.37109375 C28.9340918 152.39719727 28.9340918 152.39719727 30.56054688 152.42382812 C32.80793033 152.43292684 35.05533289 152.43814877 37.30273438 152.43945312 C38.36685547 152.45814453 39.43097656 152.47683594 40.52734375 152.49609375 C41.50437256 152.49794678 42.48140137 152.4997998 43.48803711 152.50170898 C46 153 46 153 47.35572815 154.99981785 C48.81834364 157.19534375 48.81834364 157.19534375 51.20361328 157.50057125 C52.06712402 157.50078053 52.93063477 157.50098982 53.8203125 157.50120544 C55.30930054 157.51595665 55.30930054 157.51595665 56.82836914 157.53100586 C58.46020142 157.51650391 58.46020142 157.51650391 60.125 157.50170898 C61.27154053 157.50711197 62.41808105 157.51251495 63.59936523 157.51808167 C67.39983717 157.53061746 71.19955874 157.51404474 75 157.49609375 C77.63411499 157.49624862 80.26823021 157.49773567 82.90234375 157.50050354 C88.42717295 157.5032063 93.95178498 157.48972472 99.4765625 157.46655273 C105.86538905 157.43994236 112.25385247 157.43819552 118.64271545 157.4499411 C124.78676613 157.46071777 130.93066428 157.45443233 137.07470703 157.44038582 C139.69026303 157.43586003 142.30582972 157.4355443 144.92138672 157.43945122 C148.57281614 157.44235197 152.22364618 157.42590993 155.875 157.40405273 C156.96288818 157.40855438 158.05077637 157.41305603 159.17163086 157.41769409 C160.16428955 157.40778946 161.15694824 157.39788483 162.1796875 157.38768005 C163.04319824 157.38525016 163.90670898 157.38282026 164.79638672 157.38031673 C167.49005626 156.91542228 168.38179515 156.17117575 170 154 C171.25257644 144.60223528 169.53250443 134.65330892 168.5390625 125.26171875 C168.38627667 123.76844154 168.23414107 122.27509767 168.08261108 120.7816925 C167.68456147 116.87285076 167.2791417 112.96481245 166.87164307 109.0569458 C166.14802008 102.10525859 165.43726264 95.15223696 164.7265625 88.19921875 C164.65004015 87.4522385 164.5735178 86.70525826 164.49467659 85.93564224 C160.79840104 49.79091625 160.79840104 49.79091625 160.22799683 33.89509583 C160.09913401 31.416258 160.09913401 31.416258 159 28 C156.78347408 26.14127878 154.67273843 25.22610773 152 24 C151.29875 23.236875 150.5975 22.47375 149.875 21.6875 C148.946875 20.8521875 148.946875 20.8521875 148 20 C145.46823091 20.17295995 145.46823091 20.17295995 143 21 C141.68 21 140.36 21 139 21 C138.67 20.67 138.34 20.34 138 20 C134.37940768 19.70643846 132.12296038 20.14935681 129 22 C128.01 21.01 128.01 21.01 127 20 C123.91652174 19.83318891 123.91652174 19.83318891 121 20 C121 20.66 121 21.32 121 22 C120.443125 21.67 119.88625 21.34 119.3125 21 C116.61624708 19.83405279 114.91342967 19.70865703 112 20 C109.74867483 20.91568906 109.74867483 20.91568906 108 22 C107.01 21.01 107.01 21.01 106 20 C102.26703674 19.61713197 101.22373677 19.85084215 98 22 C97.01 21.34 96.02 20.68 95 20 C92.52733235 20.34444881 92.52733235 20.34444881 90 21 C88.68 21 87.36 21 86 21 C85.67 20.67 85.34 20.34 85 20 C81.37940768 19.70643846 79.12296038 20.14935681 76 22 C75.01 21.01 75.01 21.01 74 20 C70.26703674 19.61713197 69.22373677 19.85084215 66 22 C65.01 21.34 64.02 20.68 63 20 C61.34450469 19.61500109 59.6777567 19.27206865 58 19 C57.505 20.485 57.505 20.485 57 22 C56.1646875 21.505 56.1646875 21.505 55.3125 21 C52.63215108 19.8409302 50.89403967 19.70317542 48 20 C47.01 20.66 46.02 21.32 45 22 C44.01 21.34 43.02 20.68 42 20 C38.67759676 20.3241369 37.39223697 20.60776303 35 23 C34.896875 23.66 34.79375 24.32 34.6875 25 C34.460625 25.66 34.23375 26.32 34 27 C33.21625 27.268125 32.4325 27.53625 31.625 27.8125 C28.36727409 29.28623315 27.99988695 30.82123957 26.72091675 34.03607178 C25.60609752 37.07307287 24.61619691 40.13599644 23.66015625 43.2265625 C23.45192734 43.89609955 23.24369843 44.5656366 23.02915955 45.25546265 C22.37008892 47.37757044 21.71620851 49.5012351 21.0625 51.625 C20.62859658 53.02484544 20.1943541 54.42458583 19.75976562 55.82421875 C17.83093754 62.04242741 15.91787085 68.26548455 14.00390625 74.48828125 C11.85562052 81.47223756 9.70366374 88.45500353 7.53564453 95.43286133 C7.09034056 96.86833308 6.6463578 98.30421528 6.20361328 99.74047852 C5.55305937 101.8501455 4.89808456 103.95839526 4.2421875 106.06640625 C3.66766846 107.9218103 3.66766846 107.9218103 3.08154297 109.81469727 C2 113 2 113 0 117 C0 78.39 0 39.78 0 0 Z " fill="#FEFEFE" transform="translate(0,0)"/>
<path d="M0 0 C1.84276141 0.55282842 3.67482878 1.14160959 5.5 1.75 C6.16 1.09 6.82 0.43 7.5 -0.25 C11.11754103 -0.63079379 13.38401212 -0.09651134 16.5 1.75 C16.83 1.09 17.16 0.43 17.5 -0.25 C19.1396875 -0.0025 19.1396875 -0.0025 20.8125 0.25 C24.37525873 0.81718184 24.37525873 0.81718184 27.5 0.75 C27.83 0.42 28.16 0.09 28.5 -0.25 C32.12059232 -0.54356154 34.37703962 -0.10064319 37.5 1.75 C38.16 1.09 38.82 0.43 39.5 -0.25 C43.11754103 -0.63079379 45.38401212 -0.09651134 48.5 1.75 C49.16 1.09 49.82 0.43 50.5 -0.25 C53.4375 0.125 53.4375 0.125 56.5 0.75 C57.49 0.75 58.48 0.75 59.5 0.75 C59.83 0.42 60.16 0.09 60.5 -0.25 C64.12059232 -0.54356154 66.37703962 -0.10064319 69.5 1.75 C70.16 1.09 70.82 0.43 71.5 -0.25 C74.69151509 -0.6699362 76.08491075 -0.51924708 78.8125 1.25 C79.369375 1.745 79.92625 2.24 80.5 2.75 C80.5 2.09 80.5 1.43 80.5 0.75 C85.91538462 -0.48076923 85.91538462 -0.48076923 88.875 0.6875 C89.41125 1.038125 89.9475 1.38875 90.5 1.75 C91.16 1.09 91.82 0.43 92.5 -0.25 C96.11754103 -0.63079379 98.38401212 -0.09651134 101.5 1.75 C102.16 1.09 102.82 0.43 103.5 -0.25 C106.5 -0.125 106.5 -0.125 109.5 0.75 C110.5625 2.6875 110.5625 2.6875 111.5 4.75 C113.92383077 5.91953416 113.92383077 5.91953416 116.5 6.75 C119.5 8.75 119.5 8.75 120.1159668 11.31274414 C120.22593994 12.37614014 120.33591309 13.43953613 120.44921875 14.53515625 C120.57490234 15.70626953 120.70058594 16.87738281 120.83007812 18.08398438 C121.00700195 19.92959961 121.00700195 19.92959961 121.1875 21.8125 C121.31705078 23.01583984 121.44660156 24.21917969 121.58007812 25.45898438 C122.25371897 31.98510284 122.5 38.14106253 122.5 44.75 C80.59 44.75 38.68 44.75 -4.5 44.75 C-8.66438356 7.27054795 -8.66438356 7.27054795 -4.1875 0.875 C-2.5 -0.25 -2.5 -0.25 0 0 Z " fill="#ED4F2C" transform="translate(40.5,19.25)"/>
<path d="M0 0 C0.58175138 5.099221 1.15071048 10.19966883 1.70898438 15.30151367 C1.89967542 17.02877138 2.093569 18.75567922 2.29101562 20.48217773 C3.61017742 32.04166948 4.27147582 43.36518722 4 55 C4.66 55 5.32 55 6 55 C6.55617268 60.65139467 7.10725427 66.30325702 7.65405273 71.95556641 C7.83990125 73.86975811 8.0270306 75.78382598 8.21557617 77.69775391 C8.48972112 80.48306659 8.75949577 83.2687626 9.02734375 86.0546875 C9.11688324 86.97320496 9.20642273 87.89172241 9.29867554 88.83807373 C9.71667113 93.28905564 10.05672069 97.72004751 10.21142578 102.18847656 C10.2416835 103.00309357 10.27194122 103.81771057 10.30311584 104.65701294 C10.35190428 106.1702895 10.38478199 107.68420596 10.39793396 109.19821167 C10.55970302 114.29978608 11.55045798 117.22897455 15 121 C18.22949448 121.90469782 21.38930802 121.81678843 24.72558594 121.77294922 C26.20412804 121.78889381 26.20412804 121.78889381 27.71253967 121.80516052 C30.97033407 121.83326366 34.2265143 121.819138 37.484375 121.8046875 C39.74311746 121.81593449 42.00184822 121.82981374 44.26055908 121.84622192 C50.20532287 121.88232405 56.14957306 121.88262521 62.09442139 121.87554932 C68.16069786 121.87463775 74.22678046 121.90747587 80.29296875 121.9375 C92.19536627 121.99142263 104.09749387 122.00753673 116 122 C116 121.34 116 120.68 116 120 C117.61654028 118.28467115 119.29576679 116.62823362 121 115 C122.02825186 113.9879177 123.05423913 112.97353024 124.078125 111.95703125 C124.59890625 111.44076172 125.1196875 110.92449219 125.65625 110.39257812 C126.1821875 109.87115234 126.708125 109.34972656 127.25 108.8125 C127.79140625 108.27947266 128.3328125 107.74644531 128.890625 107.19726562 C131.80757101 104.37492463 131.80757101 104.37492463 134 101 C134.66 101 135.32 101 136 101 C140.13414127 123.55321712 140.13414127 123.55321712 136.67359924 129.14222717 C132.35476921 132.14320239 127.89547701 131.54748571 122.76147461 131.50170898 C121.04144478 131.50981346 121.04144478 131.50981346 119.28666687 131.51808167 C115.49163097 131.53060183 111.69734875 131.51405604 107.90234375 131.49609375 C105.269658 131.49624865 102.63697202 131.49773612 100.00428772 131.50050354 C94.4854347 131.50320472 88.96679929 131.48973695 83.44799805 131.46655273 C77.06653501 131.43993018 70.6854355 131.43820029 64.30393595 131.4499411 C58.16468858 131.46071719 52.02559387 131.45443337 45.88635445 131.44038582 C43.27358954 131.4358605 40.66081393 131.43554389 38.04804802 131.43945122 C34.40151697 131.44235181 30.75558619 131.42591123 27.10913086 131.40405273 C26.02281372 131.40855438 24.93649658 131.41305603 23.81726074 131.41769409 C22.82604721 131.40778946 21.83483368 131.39788483 20.81358337 131.38768005 C19.95137145 131.38525016 19.08915953 131.38282026 18.20081997 131.38031673 C15.5238993 130.91772655 14.61254524 130.15261794 13 128 C13 127.34 13 126.68 13 126 C12.29391602 126.02618408 11.58783203 126.05236816 10.86035156 126.0793457 C7.65712792 126.18336357 4.4542594 126.24834149 1.25 126.3125 C0.13882813 126.35439453 -0.97234375 126.39628906 -2.1171875 126.43945312 C-10.31405652 126.56289995 -10.31405652 126.56289995 -13.765625 123.73046875 C-15 121 -15 121 -15 117 C-15.92232422 117.05220703 -15.92232422 117.05220703 -16.86328125 117.10546875 C-17.67152344 117.13253906 -18.47976562 117.15960938 -19.3125 117.1875 C-20.51326172 117.23970703 -20.51326172 117.23970703 -21.73828125 117.29296875 C-24 117 -24 117 -25.78125 115.6875 C-27.59219053 113.18004388 -27.20005332 111.00079974 -27 108 C-28.98 107.34 -30.96 106.68 -33 106 C-35.06061817 87.31133796 -27.4719836 69.41853693 -21.14770508 52.13769531 C-19.20055858 46.76180623 -17.60191891 41.31773355 -16.0625 35.8125 C-13.91046063 28.13510848 -11.68029268 20.48894313 -9.3125 12.875 C-8.88432983 11.46118042 -8.88432983 11.46118042 -8.44750977 10.01879883 C-8.17221436 9.14376709 -7.89691895 8.26873535 -7.61328125 7.3671875 C-7.37391846 6.59487793 -7.13455566 5.82256836 -6.88793945 5.02685547 C-5.28340315 1.36425982 -4.06301079 0 0 0 Z " fill="#CFDBE1" transform="translate(33,27)"/>
<path d="M0 0 C26.07 0 52.14 0 79 0 C81.25 19.125 81.25 19.125 81 28 C76.38 28 71.76 28 67 28 C67 28.99 67 29.98 67 31 C66.01 31 65.02 31 64 31 C64 34.63 64 38.26 64 42 C65.32 42 66.64 42 68 42 C68 42.66 68 43.32 68 44 C66.68 44 65.36 44 64 44 C63.67 45.32 63.34 46.64 63 48 C62.67 48 62.34 48 62 48 C61.67 46.35 61.34 44.7 61 43 C60.09636719 43.144375 59.19273437 43.28875 58.26171875 43.4375 C57.08222656 43.623125 55.90273437 43.80875 54.6875 44 C53.51574219 44.185625 52.34398438 44.37125 51.13671875 44.5625 C48 45 48 45 45 45 C45.495 48.465 45.495 48.465 46 52 C47.98 52.495 47.98 52.495 50 53 C50 54.32 50 55.64 50 57 C48.68 57 47.36 57 46 57 C45.34 58.32 44.68 59.64 44 61 C44 58.69 44 56.38 44 54 C39.38 54 34.76 54 30 54 C30 54.99 30 55.98 30 57 C29.01 57 28.02 57 27 57 C26.67 58.65 26.34 60.3 26 62 C25.67 62 25.34 62 25 62 C24.34 55.07 23.68 48.14 23 41 C18.71 41 14.42 41 10 41 C10 41.99 10 42.98 10 44 C8.02 43.67 6.04 43.34 4 43 C4 42.34 4 41.68 4 41 C-0.29 41 -4.58 41 -9 41 C-9 41.99 -9 42.98 -9 44 C-10.32 44 -11.64 44 -13 44 C-13 46.97 -13 49.94 -13 53 C-7.06 53 -1.12 53 5 53 C5 50.36 5 47.72 5 45 C5.33 45 5.66 45 6 45 C6 47.64 6 50.28 6 53 C7.65 53.33 9.3 53.66 11 54 C11 54.99 11 55.98 11 57 C10.01 57 9.02 57 8 57 C8 60.3 8 63.6 8 67 C7.34 67 6.68 67 6 67 C5.505 60.565 5.505 60.565 5 54 C0.71 54 -3.58 54 -8 54 C-8 54.99 -8 55.98 -8 57 C-8.99 57 -9.98 57 -11 57 C-11 56.01 -11 55.02 -11 54 C-11.66 54 -12.32 54 -13 54 C-12.67 54.99 -12.34 55.98 -12 57 C-11.93259135 58.56118428 -11.91485544 60.1250252 -11.9375 61.6875 C-11.94652344 62.49574219 -11.95554687 63.30398437 -11.96484375 64.13671875 C-11.97644531 64.75160156 -11.98804688 65.36648437 -12 66 C-12.33 66 -12.66 66 -13 66 C-13.43484084 62.07216902 -13.86169615 58.14355308 -14.28173828 54.21411133 C-14.49498147 52.23409827 -14.71421577 50.25473336 -14.93359375 48.27539062 C-15.72856167 40.79890666 -16.15488041 33.51815312 -16 26 C-10.06 25.67 -4.12 25.34 2 25 C2 21.37 2 17.74 2 14 C-4.435 14.495 -4.435 14.495 -11 15 C-11 15.99 -11 16.98 -11 18 C-12.32 18 -13.64 18 -15 18 C-15.33 20.31 -15.66 22.62 -16 25 C-16.33 25 -16.66 25 -17 25 C-17.33 21.04 -17.66 17.08 -18 13 C-11.73 13 -5.46 13 1 13 C0.505 6.565 0.505 6.565 0 0 Z " fill="#B1BDC5" transform="translate(71,72)"/>
<path d="M0 0 C0.33808357 3.37454164 0.66961318 6.74969681 1 10.125 C1.09539062 11.07632813 1.19078125 12.02765625 1.2890625 13.0078125 C1.37929687 13.9359375 1.46953125 14.8640625 1.5625 15.8203125 C1.64628906 16.66867676 1.73007813 17.51704102 1.81640625 18.39111328 C2.01789668 21.25431374 2 24.12971861 2 27 C8.93 27.495 8.93 27.495 16 28 C15.34 28.33 14.68 28.66 14 29 C13.7525 29.55558594 13.505 30.11117187 13.25 30.68359375 C11.42460505 34.06627877 8.75428053 36.41540256 6 39.0625 C1.67183338 43.24121866 1.67183338 43.24121866 -2 48 C-2.66 48 -3.32 48 -4 48 C-4 48.66 -4 49.32 -4 50 C-37.33 50 -70.66 50 -105 50 C-105.33 49.34 -105.66 48.68 -106 48 C-56.005 48.495 -56.005 48.495 -5 49 C-5.33 47.35 -5.66 45.7 -6 44 C-6.13767999 41.96127701 -6.21927616 39.91813565 -6.25 37.875 C-6.27578125 36.84117187 -6.3015625 35.80734375 -6.328125 34.7421875 C-6 32 -6 32 -3 29 C-9.93 28.505 -9.93 28.505 -17 28 C-16.505 29.98 -16.505 29.98 -16 32 C-15.82997454 34.69540361 -15.91122178 37.29226438 -16 40 C-17.68503699 41.68503699 -19.76259884 41.11965983 -22.01094055 41.12442017 C-22.72735214 41.12082489 -23.44376373 41.11722961 -24.18188477 41.11352539 C-25.3086412 41.11374443 -25.3086412 41.11374443 -26.4581604 41.1139679 C-28.95260459 41.11326863 -31.44697503 41.10547564 -33.94140625 41.09765625 C-35.66633564 41.09579212 -37.39126557 41.09436819 -39.11619568 41.09336853 C-43.66512503 41.08954297 -48.21402267 41.07971238 -52.76293945 41.06866455 C-57.40120006 41.05845124 -62.03946577 41.05387108 -66.67773438 41.04882812 C-75.78517022 41.03809014 -84.89258248 41.02101327 -94 41 C-95.38226016 38.23547967 -95.09525387 35.9538637 -95.0625 32.875 C-95.05347656 31.77929688 -95.04445313 30.68359375 -95.03515625 29.5546875 C-95.02355469 28.71164063 -95.01195312 27.86859375 -95 27 C-94.34 27 -93.68 27 -93 27 C-93 27.99 -93 28.98 -93 30 C-92.01 30 -91.02 30 -90 30 C-90 29.01 -90 28.02 -90 27 C-85.71 27 -81.42 27 -77 27 C-75.99503148 30.01490557 -75.89664697 32.04181692 -75.9375 35.1875 C-75.94652344 36.08855469 -75.95554687 36.98960937 -75.96484375 37.91796875 C-75.97644531 38.60503906 -75.98804687 39.29210937 -76 40 C-75.34 40 -74.68 40 -74 40 C-74.33 39.34 -74.66 38.68 -75 38 C-75.07033769 36.12620395 -75.0843022 34.24998898 -75.0625 32.375 C-75.05347656 31.37210938 -75.04445313 30.36921875 -75.03515625 29.3359375 C-75.02355469 28.56507812 -75.01195313 27.79421875 -75 27 C-74.67 27.99 -74.34 28.98 -74 30 C-73.01 30 -72.02 30 -71 30 C-71.495 28.515 -71.495 28.515 -72 27 C-76.77092956 25.76597138 -81.42469446 25.88734888 -86.3125 25.9375 C-87.14845703 25.94201172 -87.98441406 25.94652344 -88.84570312 25.95117188 C-90.89716649 25.96289452 -92.94859273 25.98082797 -95 26 C-95.33 22.04 -95.66 18.08 -96 14 C-95.67 14.99 -95.34 15.98 -95 17 C-93.68 17 -92.36 17 -91 17 C-91 16.01 -91 15.02 -91 14 C-86.05 14 -81.1 14 -76 14 C-75.67 14.66 -75.34 15.32 -75 16 C-74.01 16.33 -73.02 16.66 -72 17 C-72 16.01 -72 15.02 -72 14 C-67.71 14 -63.42 14 -59 14 C-57.71553081 16.56893838 -57.67022856 18.76576337 -57.4375 21.625 C-57.35371094 22.62789062 -57.26992187 23.63078125 -57.18359375 24.6640625 C-57.12300781 25.43492188 -57.06242187 26.20578125 -57 27 C-56.34 27 -55.68 27 -55 27 C-55 27.99 -55 28.98 -55 30 C-54.01 30 -53.02 30 -52 30 C-52 29.01 -52 28.02 -52 27 C-49.70839681 26.97307516 -47.41670454 26.95363876 -45.125 26.9375 C-43.84882812 26.92589844 -42.57265625 26.91429688 -41.2578125 26.90234375 C-38 27 -38 27 -36 28 C-36 28.66 -36 29.32 -36 30 C-34.68 30 -33.36 30 -32 30 C-32 28.68 -32 27.36 -32 26 C-33.65 25.67 -35.3 25.34 -37 25 C-37 22.69 -37 20.38 -37 18 C-28.585 16.515 -28.585 16.515 -20 15 C-19.505 17.475 -19.505 17.475 -19 20 C-18.505 18.515 -18.505 18.515 -18 17 C-16.68 17 -15.36 17 -14 17 C-14 16.34 -14 15.68 -14 15 C-15.32 15 -16.64 15 -18 15 C-19.37432457 11.18243176 -18.67975039 7.92744671 -18 4 C-17.01 4 -16.02 4 -15 4 C-15 3.01 -15 2.02 -15 1 C-12.68753088 0.83290546 -10.37502385 0.66633538 -8.0625 0.5 C-6.77472656 0.4071875 -5.48695313 0.314375 -4.16015625 0.21875 C-1 0 -1 0 0 0 Z " fill="#BAC8D1" transform="translate(153,99)"/>
<path d="M0 0 C0.99 0.33 1.98 0.66 3 1 C1.94110137 10.93788654 0.87806262 20.87532614 -0.1875 30.8125 C-0.26650795 31.54962723 -0.3455159 32.28675446 -0.42691803 33.04621887 C-2.67322718 53.99797865 -4.97375472 74.94101054 -7.48901367 95.86254883 C-8.52970471 104.56832015 -9.42754718 113.24826373 -10 122 C-10.66 121.67 -11.32 121.34 -12 121 C-12 119.68 -12 118.36 -12 117 C-12.92232422 117.05220703 -12.92232422 117.05220703 -13.86328125 117.10546875 C-14.67152344 117.13253906 -15.47976563 117.15960938 -16.3125 117.1875 C-17.51326172 117.23970703 -17.51326172 117.23970703 -18.73828125 117.29296875 C-21 117 -21 117 -22.78125 115.6875 C-24.59219053 113.18004388 -24.20005332 111.00079974 -24 108 C-25.98 107.34 -27.96 106.68 -30 106 C-32.06061817 87.31133796 -24.4719836 69.41853693 -18.14770508 52.13769531 C-16.20055858 46.76180623 -14.60191891 41.31773355 -13.0625 35.8125 C-10.91046063 28.13510848 -8.68029268 20.48894313 -6.3125 12.875 C-5.88432983 11.46118042 -5.88432983 11.46118042 -5.44750977 10.01879883 C-5.17221436 9.14376709 -4.89691895 8.26873535 -4.61328125 7.3671875 C-4.37391846 6.59487793 -4.13455566 5.82256836 -3.88793945 5.02685547 C-2.91882994 2.81471713 -1.80327095 1.58144125 0 0 Z " fill="#EAE9EA" transform="translate(30,27)"/>
<path d="M0 0 C0.66 0 1.32 0 2 0 C6.13554625 22.56088179 6.13554625 22.56088179 2.6716156 28.13925171 C-1.63570245 31.13924718 -6.08074835 30.57280866 -11.20678711 30.54931641 C-12.35026108 30.55953827 -13.49373505 30.56976013 -14.67185974 30.58029175 C-18.45723317 30.60812538 -22.24188007 30.60616744 -26.02734375 30.6015625 C-28.6552406 30.60933393 -31.28313494 30.61800275 -33.911026 30.62753296 C-39.42146258 30.64395644 -44.93169407 30.6421446 -50.44213867 30.63134766 C-56.80789279 30.61926648 -63.17276297 30.64389361 -69.53836626 30.68648779 C-75.66697361 30.72598526 -81.79516797 30.73206553 -87.92389107 30.72501755 C-90.52944579 30.72604551 -93.13501441 30.73654989 -95.74049187 30.75664139 C-99.38229626 30.78127747 -103.0220476 30.76784683 -106.66381836 30.74462891 C-108.28250824 30.76756012 -108.28250824 30.76756012 -109.93389893 30.79095459 C-117.00569407 30.69114446 -117.00569407 30.69114446 -119.79718208 28.75077438 C-122.38309669 25.86140144 -123.00004132 23.99948768 -123.3125 20.125 C-123.209375 19.09375 -123.10625 18.0625 -123 17 C-122.54059021 17.48608231 -122.08118042 17.97216461 -121.60784912 18.47297668 C-117.62455013 20.80539323 -113.81289719 20.43937608 -109.27441406 20.43237305 C-108.28871933 20.4425647 -107.3030246 20.45275635 -106.28746033 20.46325684 C-103.03012451 20.49344564 -99.77308248 20.50266193 -96.515625 20.51171875 C-94.25688698 20.52856104 -91.99815837 20.54671066 -89.73944092 20.56611633 C-83.79485002 20.61367114 -77.85029723 20.64344518 -71.90557861 20.66955566 C-65.8393196 20.69933344 -59.77319194 20.74587334 -53.70703125 20.79101562 C-41.80475613 20.87711118 -29.90245402 20.94442876 -18 21 C-18 20.34 -18 19.68 -18 19 C-16.38345972 17.28467115 -14.70423321 15.62823362 -13 14 C-11.97174814 12.9879177 -10.94576087 11.97353024 -9.921875 10.95703125 C-9.40109375 10.44076172 -8.8803125 9.92449219 -8.34375 9.39257812 C-7.8178125 8.87115234 -7.291875 8.34972656 -6.75 7.8125 C-6.20859375 7.27947266 -5.6671875 6.74644531 -5.109375 6.19726562 C-2.19242899 3.37492463 -2.19242899 3.37492463 0 0 Z " fill="#B8CAD2" transform="translate(167,128)"/>
<path d="M0 0 C0.99 0 1.98 0 3 0 C3 3.63 3 7.26 3 11 C8.61 11 14.22 11 20 11 C20 7.37 20 3.74 20 0 C22 2 22 2 22.1953125 4.6015625 C22.13020833 7.40104167 22.06510417 10.20052083 22 13 C17.38 13 12.76 13 8 13 C8 13.99 8 14.98 8 16 C7.01 16 6.02 16 5 16 C5 19.63 5 23.26 5 27 C6.32 27 7.64 27 9 27 C9 27.66 9 28.32 9 29 C7.68 29 6.36 29 5 29 C4.67 30.32 4.34 31.64 4 33 C3.67 33 3.34 33 3 33 C2.67 31.35 2.34 29.7 2 28 C1.09636719 28.144375 0.19273437 28.28875 -0.73828125 28.4375 C-1.91777344 28.623125 -3.09726563 28.80875 -4.3125 29 C-5.48425781 29.185625 -6.65601562 29.37125 -7.86328125 29.5625 C-11 30 -11 30 -14 30 C-13.505 33.465 -13.505 33.465 -13 37 C-11.68 37.33 -10.36 37.66 -9 38 C-9 39.32 -9 40.64 -9 42 C-10.32 42 -11.64 42 -13 42 C-13.66 43.32 -14.32 44.64 -15 46 C-15 43.69 -15 41.38 -15 39 C-19.62 39 -24.24 39 -29 39 C-29 39.99 -29 40.98 -29 42 C-29.99 42 -30.98 42 -32 42 C-32.33 43.65 -32.66 45.3 -33 47 C-33.33 47 -33.66 47 -34 47 C-34.66 40.07 -35.32 33.14 -36 26 C-40.29 26 -44.58 26 -49 26 C-49 26.99 -49 27.98 -49 29 C-50.98 28.67 -52.96 28.34 -55 28 C-55 27.34 -55 26.68 -55 26 C-59.29 26 -63.58 26 -68 26 C-68 26.99 -68 27.98 -68 29 C-69.32 29 -70.64 29 -72 29 C-72 31.97 -72 34.94 -72 38 C-66.06 38 -60.12 38 -54 38 C-54 35.36 -54 32.72 -54 30 C-53.67 30 -53.34 30 -53 30 C-53 32.64 -53 35.28 -53 38 C-51.35 38.33 -49.7 38.66 -48 39 C-48 39.99 -48 40.98 -48 42 C-48.99 42 -49.98 42 -51 42 C-51 45.3 -51 48.6 -51 52 C-51.66 52 -52.32 52 -53 52 C-53.495 45.565 -53.495 45.565 -54 39 C-58.29 39 -62.58 39 -67 39 C-67 39.99 -67 40.98 -67 42 C-67.99 42 -68.98 42 -70 42 C-70 41.01 -70 40.02 -70 39 C-70.66 39 -71.32 39 -72 39 C-71.67 39.99 -71.34 40.98 -71 42 C-70.93259135 43.56118428 -70.91485544 45.1250252 -70.9375 46.6875 C-70.94652344 47.49574219 -70.95554688 48.30398437 -70.96484375 49.13671875 C-70.97644531 49.75160156 -70.98804688 50.36648437 -71 51 C-71.33 51 -71.66 51 -72 51 C-72.33972801 48.18814406 -72.67190212 45.37571764 -73 42.5625 C-73.09539062 41.77939453 -73.19078125 40.99628906 -73.2890625 40.18945312 C-73.42441406 39.01479492 -73.42441406 39.01479492 -73.5625 37.81640625 C-73.64628906 37.10943604 -73.73007813 36.40246582 -73.81640625 35.67407227 C-74.08298062 31.79137399 -74 27.89183861 -74 24 C-67.73 24 -61.46 24 -55 24 C-54.67 23.01 -54.34 22.02 -54 21 C-54 21.99 -54 22.98 -54 24 C-48.06 24 -42.12 24 -36 24 C-36 22.02 -36 20.04 -36 18 C-35.67 18 -35.34 18 -35 18 C-35 19.98 -35 21.96 -35 24 C-29.06 24 -23.12 24 -17 24 C-17.495 22.515 -17.495 22.515 -18 21 C-18.3125 17.5 -18.3125 17.5 -18 14 C-16.1875 12 -16.1875 12 -14 11 C-13.01 11.33 -12.02 11.66 -11 12 C-12.98 12.99 -12.98 12.99 -15 14 C-15.49312822 18.76843349 -15.49312822 18.76843349 -13.5625 22.9375 C-9.7973416 24.49866324 -6.02385793 24.59814104 -2 24 C0.18331689 22.23863645 0.18331689 22.23863645 0.1953125 20.0546875 C0.17210937 19.33539063 0.14890625 18.61609375 0.125 17.875 C0.08375 16.59625 0.0425 15.3175 0 14 C-5.18082051 10.65405342 -8.84777564 9.43173504 -15 9 C-15 8.67 -15 8.34 -15 8 C-13.27119018 7.94550162 -11.54187288 7.90698312 -9.8125 7.875 C-8.84957031 7.85179688 -7.88664062 7.82859375 -6.89453125 7.8046875 C-3.87187222 8.0086456 -1.73230015 8.73125368 1 10 C0.67 6.7 0.34 3.4 0 0 Z " fill="#B3C2CB" transform="translate(130,87)"/>
<path d="M0 0 C0.33 0.99 0.66 1.98 1 3 C2.32 3 3.64 3 5 3 C5 2.01 5 1.02 5 0 C9.95 0 14.9 0 20 0 C20.33 0.66 20.66 1.32 21 2 C21.99 2.33 22.98 2.66 24 3 C24 2.01 24 1.02 24 0 C28.29 0 32.58 0 37 0 C40.49889374 6.99778749 39.11983394 17.37057221 39 25 C36.18743719 25.02684312 33.37512759 25.04676188 30.5625 25.0625 C29.76005859 25.07087891 28.95761719 25.07925781 28.13085938 25.08789062 C26.08704779 25.0965143 24.04316098 25.0522815 22 25 C21 24 21 24 20.90234375 21.49609375 C20.91974609 19.98208984 20.91974609 19.98208984 20.9375 18.4375 C20.94652344 17.42558594 20.95554687 16.41367188 20.96484375 15.37109375 C20.97644531 14.58863281 20.98804687 13.80617188 21 13 C21.33 13.99 21.66 14.98 22 16 C22.99 16 23.98 16 25 16 C24.67 15.01 24.34 14.02 24 13 C19.22907044 11.76597138 14.57530554 11.88734888 9.6875 11.9375 C8.43356445 11.94426758 8.43356445 11.94426758 7.15429688 11.95117188 C5.10283351 11.96289452 3.05140727 11.98082797 1 12 C0.67 8.04 0.34 4.08 0 0 Z " fill="#E0EDF5" transform="translate(57,113)"/>
<path d="M0 0 C0.94385356 9.05088151 1.0841558 17.91117372 1 27 C-3.62 27 -8.24 27 -13 27 C-13 27.99 -13 28.98 -13 30 C-14.65 30.33 -16.3 30.66 -18 31 C-18 29.35 -18 27.7 -18 26 C-23.28 26 -28.56 26 -34 26 C-34 26.66 -34 27.32 -34 28 C-33.34 28 -32.68 28 -32 28 C-32 28.66 -32 29.32 -32 30 C-32.99 30 -33.98 30 -35 30 C-35 32.64 -35 35.28 -35 38 C-37 36 -37 36 -37.1953125 33.3984375 C-37.13020833 30.59895833 -37.06510417 27.79947917 -37 25 C-31.06 24.67 -25.12 24.34 -19 24 C-19 20.37 -19 16.74 -19 13 C-25.435 13.495 -25.435 13.495 -32 14 C-32 14.99 -32 15.98 -32 17 C-33.32 17 -34.64 17 -36 17 C-36.33 19.31 -36.66 21.62 -37 24 C-37.33 24 -37.66 24 -38 24 C-38.33 20.04 -38.66 16.08 -39 12 C-32.73 12 -26.46 12 -20 12 C-20 9.03 -20 6.06 -20 3 C-17.525 3.495 -17.525 3.495 -15 4 C-15 3.01 -15 2.02 -15 1 C-12.68753088 0.83290546 -10.37502385 0.66633538 -8.0625 0.5 C-6.77472656 0.4071875 -5.48695312 0.314375 -4.16015625 0.21875 C-1 0 -1 0 0 0 Z " fill="#A6B2BB" transform="translate(92,73)"/>
<path d="M0 0 C2.62506802 -0.02690844 5.24986173 -0.04679404 7.875 -0.0625 C8.62136719 -0.07087891 9.36773437 -0.07925781 10.13671875 -0.08789062 C15.7734375 -0.11328125 15.7734375 -0.11328125 18 1 C18 1.99 18 2.98 18 4 C18.99 4 19.98 4 21 4 C21 3.01 21 2.02 21 1 C26.61 1 32.22 1 38 1 C38 1.99 38 2.98 38 4 C38.99 4 39.98 4 41 4 C41 3.01 41 2.02 41 1 C45.29 1 49.58 1 54 1 C54.495 6.445 54.495 6.445 55 12 C36.52 12 18.04 12 -1 12 C-1.33 8.37 -1.66 4.74 -2 1 C-1.67 1.99 -1.34 2.98 -1 4 C-0.01 4 0.98 4 2 4 C2 3.34 2 2.68 2 2 C1.34 2 0.68 2 0 2 C0 1.34 0 0.68 0 0 Z " fill="#E1ECF4" transform="translate(58,99)"/>
<path d="M0 0 C1.18890557 3.48841169 0.79703797 5.82802247 -0.07421875 9.375 C-0.3278418 10.43307861 -0.58146484 11.49115723 -0.84277344 12.58129883 C-1.26091309 14.27355591 -1.26091309 14.27355591 -1.6875 16 C-2.25091556 18.35754404 -2.8120915 20.71562437 -3.37109375 23.07421875 C-3.64937012 24.2451709 -3.92764648 25.41612305 -4.21435547 26.62255859 C-6.53144238 36.58358416 -8.56217082 46.62322036 -10 56.75 C-10.79588289 62.25074813 -12.06788334 67.58094223 -13.45996094 72.95410156 C-15.17906205 79.5950569 -16.61424493 86.28118753 -18 93 C-20.31 93 -22.62 93 -25 93 C-27.05881459 74.32769542 -19.49142311 56.42366471 -13.15429688 39.16186523 C-10.79990095 32.67685166 -8.97245058 26.05992627 -7.11987305 19.41748047 C-2.32318321 2.32318321 -2.32318321 2.32318321 0 0 Z " fill="#EC5331" transform="translate(25,40)"/>
<path d="M0 0 C1.84276141 0.55282842 3.67482878 1.14160959 5.5 1.75 C6.16 1.09 6.82 0.43 7.5 -0.25 C11.11754103 -0.63079379 13.38401212 -0.09651134 16.5 1.75 C16.83 1.09 17.16 0.43 17.5 -0.25 C19.1396875 -0.0025 19.1396875 -0.0025 20.8125 0.25 C24.37525873 0.81718184 24.37525873 0.81718184 27.5 0.75 C27.83 0.42 28.16 0.09 28.5 -0.25 C32.12059232 -0.54356154 34.37703962 -0.10064319 37.5 1.75 C38.16 1.09 38.82 0.43 39.5 -0.25 C43.11754103 -0.63079379 45.38401212 -0.09651134 48.5 1.75 C49.16 1.09 49.82 0.43 50.5 -0.25 C53.4375 0.125 53.4375 0.125 56.5 0.75 C57.49 0.75 58.48 0.75 59.5 0.75 C59.83 0.42 60.16 0.09 60.5 -0.25 C64.12059232 -0.54356154 66.37703962 -0.10064319 69.5 1.75 C70.16 1.09 70.82 0.43 71.5 -0.25 C74.69151509 -0.6699362 76.08491075 -0.51924708 78.8125 1.25 C79.369375 1.745 79.92625 2.24 80.5 2.75 C80.5 2.09 80.5 1.43 80.5 0.75 C85.91538462 -0.48076923 85.91538462 -0.48076923 88.875 0.6875 C89.41125 1.038125 89.9475 1.38875 90.5 1.75 C91.16 1.09 91.82 0.43 92.5 -0.25 C96.11754103 -0.63079379 98.38401212 -0.09651134 101.5 1.75 C102.16 1.09 102.82 0.43 103.5 -0.25 C106.5625 0 106.5625 0 109.5 0.75 C109.995 1.74 109.995 1.74 110.5 2.75 C110.17 3.74 109.84 4.73 109.5 5.75 C106.86 5.75 104.22 5.75 101.5 5.75 C101.5 7.4 101.5 9.05 101.5 10.75 C100.84 10.75 100.18 10.75 99.5 10.75 C99.5 11.41 99.5 12.07 99.5 12.75 C98.84 12.75 98.18 12.75 97.5 12.75 C97.7784375 11.1103125 97.7784375 11.1103125 98.0625 9.4375 C98.7578068 5.81375867 98.7578068 5.81375867 97.5 2.75 C95.07080135 2.61559222 95.07080135 2.61559222 92.5 3.75 C91.4624977 5.77269357 90.81062146 7.75645388 90.17578125 9.9375 C89.5 11.75 89.5 11.75 87.5 12.75 C87.005 10.77 87.005 10.77 86.5 8.75 C87.16 8.75 87.82 8.75 88.5 8.75 C88.5 7.76 88.5 6.77 88.5 5.75 C86.19 5.75 83.88 5.75 81.5 5.75 C81.17 8.72 80.84 11.69 80.5 14.75 C78.84385343 15.13218767 77.17542976 15.46395102 75.5 15.75 C74.5 14.75 74.5 14.75 74.4375 12.1875 C74.458125 11.383125 74.47875 10.57875 74.5 9.75 C75.49 9.75 76.48 9.75 77.5 9.75 C77.5 8.43 77.5 7.11 77.5 5.75 C74.86 5.75 72.22 5.75 69.5 5.75 C69.17 7.4 68.84 9.05 68.5 10.75 C68.17 10.75 67.84 10.75 67.5 10.75 C67.005 7.285 67.005 7.285 66.5 3.75 C64.10280568 3.07041397 64.10280568 3.07041397 61.5 2.75 C59.19132851 4.73220878 59.19132851 4.73220878 58.5 8.3125 C58.17 9.446875 57.84 10.58125 57.5 11.75 C56.84 12.08 56.18 12.41 55.5 12.75 C55.5 9.78 55.5 6.81 55.5 3.75 C53.025 3.255 53.025 3.255 50.5 2.75 C50.29503906 3.30429687 50.09007812 3.85859375 49.87890625 4.4296875 C49.60949219 5.15414063 49.34007812 5.87859375 49.0625 6.625 C48.79566406 7.34429688 48.52882812 8.06359375 48.25390625 8.8046875 C47.5 10.75 47.5 10.75 46.5 12.75 C45.84 12.75 45.18 12.75 44.5 12.75 C44.83 9.45 45.16 6.15 45.5 2.75 C43.52 2.75 41.54 2.75 39.5 2.75 C39.31824219 3.38808594 39.13648438 4.02617187 38.94921875 4.68359375 C38.57216797 5.92302734 38.57216797 5.92302734 38.1875 7.1875 C37.94386719 8.01121094 37.70023438 8.83492187 37.44921875 9.68359375 C37.13597656 10.36550781 36.82273438 11.04742187 36.5 11.75 C35.51 12.08 34.52 12.41 33.5 12.75 C33.83 9.78 34.16 6.81 34.5 3.75 C32.10280568 3.07041397 32.10280568 3.07041397 29.5 2.75 C27.19132851 4.73220878 27.19132851 4.73220878 26.5 8.3125 C26.17 9.446875 25.84 10.58125 25.5 11.75 C24.51 12.245 24.51 12.245 23.5 12.75 C23.5 9.78 23.5 6.81 23.5 3.75 C21.84385343 3.36781233 20.17542976 3.03604898 18.5 2.75 C16.53177114 4.71822886 16.83751619 8.09808709 16.5 10.75 C15.84 10.75 15.18 10.75 14.5 10.75 C14.5 11.41 14.5 12.07 14.5 12.75 C13.84 12.75 13.18 12.75 12.5 12.75 C12.5 9.45 12.5 6.15 12.5 2.75 C10.07080135 2.61559222 10.07080135 2.61559222 7.5 3.75 C6.4624977 5.77269357 5.81062146 7.75645388 5.17578125 9.9375 C4.5 11.75 4.5 11.75 2.5 12.75 C2.5 9.78 2.5 6.81 2.5 3.75 C0.85 3.42 -0.8 3.09 -2.5 2.75 C-3.16 4.4 -3.82 6.05 -4.5 7.75 C-5.16 7.75 -5.82 7.75 -6.5 7.75 C-6.13803085 5.07142828 -5.76012724 3.14019086 -4.25 0.875 C-2.5 -0.25 -2.5 -0.25 0 0 Z " fill="#58636E" transform="translate(40.5,19.25)"/>
<path d="M0 0 C5.61 0 11.22 0 17 0 C17.495 5.94 17.495 5.94 18 12 C5.79 12 -6.42 12 -19 12 C-20.28317892 8.15046324 -20.06643637 5.05261865 -20 1 C-19.67 1.99 -19.34 2.98 -19 4 C-17.68 4 -16.36 4 -15 4 C-15 3.01 -15 2.02 -15 1 C-12.87506859 0.97306425 -10.75004088 0.95363372 -8.625 0.9375 C-7.44164063 0.92589844 -6.25828125 0.91429688 -5.0390625 0.90234375 C-2 1 -2 1 0 2 C0 2.66 0 3.32 0 4 C0.99 4 1.98 4 3 4 C3 3.01 3 2.02 3 1 C2.01 0.67 1.02 0.34 0 0 Z " fill="#E0EDF5" transform="translate(112,73)"/>
<path d="M0 0 C1.50433594 0.01353516 1.50433594 0.01353516 3.0390625 0.02734375 C3.80992187 0.03894531 4.58078125 0.05054687 5.375 0.0625 C6.42202186 3.7889085 6.44942057 7.19263042 6.375 11.0625 C3.735 10.7325 1.095 10.4025 -1.625 10.0625 C-0.490625 10.701875 0.64375 11.34125 1.8125 12 C5.25 13.9375 5.25 13.9375 6.375 15.0625 C6.84856664 22.40278295 6.84856664 22.40278295 5.1328125 24.79296875 C1.86880244 27.15030935 -1.78498938 26.65430549 -5.625 26.0625 C-8.6875 24.5 -8.6875 24.5 -10.625 22.0625 C-11.0625 18.4375 -11.0625 18.4375 -10.625 15.0625 C-9.965 14.4025 -9.305 13.7425 -8.625 13.0625 C-9.615 13.0625 -10.605 13.0625 -11.625 13.0625 C-11.625 10.0925 -11.625 7.1225 -11.625 4.0625 C-10.305 4.0625 -8.985 4.0625 -7.625 4.0625 C-7.625 3.0725 -7.625 2.0825 -7.625 1.0625 C-4.98041621 -0.25979189 -2.94738699 -0.03427194 0 0 Z " fill="#E2E8EE" transform="translate(124.625,85.9375)"/>
<path d="M0 0 C11.05694276 -0.1139891 21.97636372 0.08949317 33 1 C32.34 1.33 31.68 1.66 31 2 C30.62875 2.83337891 30.62875 2.83337891 30.25 3.68359375 C28.42460505 7.06627877 25.75428053 9.41540256 23 12.0625 C18.67183338 16.24121866 18.67183338 16.24121866 15 21 C14.34 21 13.68 21 13 21 C13 21.66 13 22.32 13 23 C-20.33 23 -53.66 23 -88 23 C-88.33 22.34 -88.66 21.68 -89 21 C-39.005 21.495 -39.005 21.495 12 22 C11.67 20.35 11.34 18.7 11 17 C10.86232001 14.96127701 10.78072384 12.91813565 10.75 10.875 C10.72421875 9.84117187 10.6984375 8.80734375 10.671875 7.7421875 C11 5 11 5 14 2 C7.07 1.505 7.07 1.505 0 1 C0 0.67 0 0.34 0 0 Z " fill="#D0DEE6" transform="translate(136,126)"/>
<path d="M0 0 C0.99 0 1.98 0 3 0 C3 3.63 3 7.26 3 11 C8.61 11 14.22 11 20 11 C20 7.37 20 3.74 20 0 C22 2 22 2 22.1953125 4.6015625 C22.13020833 7.40104167 22.06510417 10.20052083 22 13 C17.38 13 12.76 13 8 13 C8 13.99 8 14.98 8 16 C7.01 16 6.02 16 5 16 C5 19.63 5 23.26 5 27 C6.32 27 7.64 27 9 27 C9 27.66 9 28.32 9 29 C7.68 29 6.36 29 5 29 C4.67 30.32 4.34 31.64 4 33 C3.67 33 3.34 33 3 33 C2.505 30.525 2.505 30.525 2 28 C1.01 28.33 0.02 28.66 -1 29 C-2.99449845 29.19390957 -4.997114 29.31118255 -7 29.375 C-8.5778125 29.44847656 -8.5778125 29.44847656 -10.1875 29.5234375 C-13 29 -13 29 -14.75 26.6640625 C-15.1625 25.78492187 -15.575 24.90578125 -16 24 C-16.66 23.01 -17.32 22.02 -18 21 C-18.375 17.5 -18.375 17.5 -18 14 C-16.1875 12 -16.1875 12 -14 11 C-13.01 11.33 -12.02 11.66 -11 12 C-12.98 12.99 -12.98 12.99 -15 14 C-15.49312822 18.76843349 -15.49312822 18.76843349 -13.5625 22.9375 C-9.7973416 24.49866324 -6.02385793 24.59814104 -2 24 C0.18331689 22.23863645 0.18331689 22.23863645 0.1953125 20.0546875 C0.17210937 19.33539063 0.14890625 18.61609375 0.125 17.875 C0.08375 16.59625 0.0425 15.3175 0 14 C-5.18082051 10.65405342 -8.84777564 9.43173504 -15 9 C-15 8.67 -15 8.34 -15 8 C-13.27119018 7.94550162 -11.54187288 7.90698312 -9.8125 7.875 C-8.84957031 7.85179688 -7.88664062 7.82859375 -6.89453125 7.8046875 C-3.87187222 8.0086456 -1.73230015 8.73125368 1 10 C0.505 5.05 0.505 5.05 0 0 Z " fill="#BDC5CC" transform="translate(130,87)"/>
<path d="M0 0 C3.12826838 0.29100171 4.37427733 1.19380207 6.6875 3.25 C6.6875 2.59 6.6875 1.93 6.6875 1.25 C12.10288462 0.01923077 12.10288462 0.01923077 15.0625 1.1875 C15.59875 1.538125 16.135 1.88875 16.6875 2.25 C17.3475 1.59 18.0075 0.93 18.6875 0.25 C22.30504103 -0.13079379 24.57151212 0.40348866 27.6875 2.25 C28.3475 1.59 29.0075 0.93 29.6875 0.25 C32.75 0.5 32.75 0.5 35.6875 1.25 C36.1825 2.24 36.1825 2.24 36.6875 3.25 C36.3575 4.24 36.0275 5.23 35.6875 6.25 C33.0475 6.25 30.4075 6.25 27.6875 6.25 C27.6875 7.9 27.6875 9.55 27.6875 11.25 C27.0275 11.25 26.3675 11.25 25.6875 11.25 C25.6875 11.91 25.6875 12.57 25.6875 13.25 C25.0275 13.25 24.3675 13.25 23.6875 13.25 C23.873125 12.156875 24.05875 11.06375 24.25 9.9375 C24.9453068 6.31375867 24.9453068 6.31375867 23.6875 3.25 C21.25830135 3.11559222 21.25830135 3.11559222 18.6875 4.25 C17.6499977 6.27269357 16.99812146 8.25645388 16.36328125 10.4375 C15.6875 12.25 15.6875 12.25 13.6875 13.25 C13.3575 11.93 13.0275 10.61 12.6875 9.25 C13.3475 9.25 14.0075 9.25 14.6875 9.25 C14.6875 8.26 14.6875 7.27 14.6875 6.25 C12.3775 6.25 10.0675 6.25 7.6875 6.25 C7.3575 9.22 7.0275 12.19 6.6875 15.25 C5.03135343 15.63218767 3.36292976 15.96395102 1.6875 16.25 C0.6875 15.25 0.6875 15.25 0.625 12.6875 C0.645625 11.883125 0.66625 11.07875 0.6875 10.25 C1.6775 10.25 2.6675 10.25 3.6875 10.25 C3.6875 8.93 3.6875 7.61 3.6875 6.25 C1.0475 6.25 -1.5925 6.25 -4.3125 6.25 C-3.25384276 0.35176678 -3.25384276 0.35176678 0 0 Z " fill="#575A60" transform="translate(114.3125,18.75)"/>
<path d="M0 0 C0.66 0 1.32 0 2 0 C2 0.99 2 1.98 2 3 C2.99 3 3.98 3 5 3 C5 2.01 5 1.02 5 0 C9.29 0 13.58 0 18 0 C19 3 19 3 19 12 C13.06 12 7.12 12 1 12 C0.67 8.04 0.34 4.08 0 0 Z " fill="#DFECF4" transform="translate(58,126)"/>
<path d="M0 0 C0.33 0.99 0.66 1.98 1 3 C1.99 3 2.98 3 4 3 C4 2.01 4 1.02 4 0 C8.62 0 13.24 0 18 0 C18.33 3.96 18.66 7.92 19 12 C13.06 12 7.12 12 1 12 C-0.07396066 7.70415737 -0.07329796 4.39787789 0 0 Z " fill="#DFECF4" transform="translate(97,126)"/>
<path d="M0 0 C0.33 0.99 0.66 1.98 1 3 C1.99 3 2.98 3 4 3 C4 2.01 4 1.02 4 0 C6.14576637 -0.02685938 8.29162645 -0.04633088 10.4375 -0.0625 C11.63246094 -0.07410156 12.82742187 -0.08570312 14.05859375 -0.09765625 C17 0 17 0 18 1 C18.07226502 2.85287502 18.0838122 4.70833878 18.0625 6.5625 C18.05347656 7.57441406 18.04445313 8.58632812 18.03515625 9.62890625 C18.02355469 10.41136719 18.01195313 11.19382812 18 12 C15.18743719 12.02684312 12.37512759 12.04676188 9.5625 12.0625 C8.76005859 12.07087891 7.95761719 12.07925781 7.13085938 12.08789062 C5.08704779 12.0965143 3.04316098 12.0522815 1 12 C0 11 0 11 -0.09765625 8.49609375 C-0.08605469 7.48675781 -0.07445313 6.47742188 -0.0625 5.4375 C-0.05347656 4.42558594 -0.04445313 3.41367188 -0.03515625 2.37109375 C-0.02355469 1.58863281 -0.01195313 0.80617188 0 0 Z " fill="#DFECF4" transform="translate(96,113)"/>
<path d="M0 0 C5.28 0 10.56 0 16 0 C16.33 3.96 16.66 7.92 17 12 C11.06 12 5.12 12 -1 12 C-1.33 8.37 -1.66 4.74 -2 1 C-1.67 1.99 -1.34 2.98 -1 4 C0.32 4 1.64 4 3 4 C2.01 2.68 1.02 1.36 0 0 Z " fill="#E0EDF5" transform="translate(95,86)"/>
<path d="M0 0 C4.62 0 9.24 0 14 0 C14 3.96 14 7.92 14 12 C8.39 12 2.78 12 -3 12 C-3.33 9.03 -3.66 6.06 -4 3 C-2.68 3 -1.36 3 0 3 C0 2.01 0 1.02 0 0 Z " fill="#DEEBF4" transform="translate(139,113)"/>
<path d="M0 0 C4.29 0 8.58 0 13 0 C13.33 3.96 13.66 7.92 14 12 C11.18743719 12.02684312 8.37512759 12.04676188 5.5625 12.0625 C4.76005859 12.07087891 3.95761719 12.07925781 3.13085938 12.08789062 C1.08704779 12.0965143 -0.95683902 12.0522815 -3 12 C-4 11 -4 11 -4.0625 7.4375 C-4.041875 6.303125 -4.02125 5.16875 -4 4 C-2.68 4 -1.36 4 0 4 C0 2.68 0 1.36 0 0 Z " fill="#E0ECF5" transform="translate(121,126)"/>
<path d="M0 0 C2.47923801 -0.02685095 4.9581884 -0.04676547 7.4375 -0.0625 C8.14455078 -0.07087891 8.85160156 -0.07925781 9.58007812 -0.08789062 C11.38693559 -0.09653588 13.19387603 -0.05220011 15 0 C16 1 16 1 16.09765625 3.50390625 C16.06510417 6.3359375 16.03255208 9.16796875 16 12 C10.39 12 4.78 12 -1 12 C-1 9.36 -1 6.72 -1 4 C-0.01 4 0.98 4 2 4 C2 3.01 2 2.02 2 1 C1.34 0.67 0.68 0.34 0 0 Z " fill="#E0EDF5" transform="translate(134,86)"/>
<path d="M0 0 C19.47 0 38.94 0 59 0 C59 0.66 59 1.32 59 2 C54.05 2 49.1 2 44 2 C44 2.99 44 3.98 44 5 C43.01 5 42.02 5 41 5 C41 4.01 41 3.02 41 2 C35.72 2 30.44 2 25 2 C25 2.99 25 3.98 25 5 C23.68 5 22.36 5 21 5 C21.33 8.3 21.66 11.6 22 15 C19.05613377 16.47193312 16.62609964 15.84936173 13.375 15.5625 C12.18648437 15.46066406 10.99796875 15.35882813 9.7734375 15.25390625 C8.85820313 15.17011719 7.94296875 15.08632812 7 15 C7 15.99 7 16.98 7 18 C6.01 18 5.02 18 4 18 C4 17.01 4 16.02 4 15 C3.34 15 2.68 15 2 15 C1.67 15.99 1.34 16.98 1 18 C0.21460891 11.81504513 0 6.35206334 0 0 Z M3 1 C3.99 2.32 4.98 3.64 6 5 C4.68 5 3.36 5 2 5 C1.67 4.01 1.34 3.02 1 2 C1.33 5.63 1.66 9.26 2 13 C7.94 13 13.88 13 20 13 C19.67 9.04 19.34 5.08 19 1 C13.72 1 8.44 1 3 1 Z " fill="#A3AFB7" transform="translate(92,85)"/>
<path d="M0 0 C3.96 0 7.92 0 12 0 C13.37020997 4.11062991 13.06276637 7.66912062 13 12 C7.39 12 1.78 12 -4 12 C-4.33 9.03 -4.66 6.06 -5 3 C-2.525 3.495 -2.525 3.495 0 4 C0 2.68 0 1.36 0 0 Z " fill="#E1EEF6" transform="translate(136,73)"/>
<path d="M0 0 C4.62 0 9.24 0 14 0 C14 3.63 14 7.26 14 11 C8.06 11 2.12 11 -4 11 C-4 8.03 -4 5.06 -4 2 C-2.68 2.33 -1.36 2.66 0 3 C0 2.01 0 1.02 0 0 Z " fill="#E3F0F8" transform="translate(77,74)"/>
<path d="M0 0 C0.33 0.99 0.66 1.98 1 3 C2.32 3 3.64 3 5 3 C5 2.01 5 1.02 5 0 C9.29 0 13.58 0 18 0 C18.33 3.63 18.66 7.26 19 11 C13.06 11 7.12 11 1 11 C0.0318352 7.1273408 -0.07622858 3.96388638 0 0 Z " fill="#E3EFF8" transform="translate(74,87)"/>
<path d="M0 0 C0.82183247 3.6094882 1.16225746 6.98694361 1.1875 10.6875 C1.20167969 11.64011719 1.21585938 12.59273437 1.23046875 13.57421875 C1 16 1 16 -1 18 C-3.9093558 18.14517744 -6.719946 18.18630796 -9.625 18.125 C-10.42679688 18.11597656 -11.22859375 18.10695312 -12.0546875 18.09765625 C-14.03658523 18.07406223 -16.01832981 18.03819065 -18 18 C-16.60493574 14.74957109 -15.03216606 12.92628208 -12.3125 10.6875 C-8.79250634 7.7199141 -5.54329659 4.5972664 -2.34765625 1.28515625 C-1 0 -1 0 0 0 Z " fill="#A8BAC3" transform="translate(168,131)"/>
<path d="M0 0 C1.81242052 -0.02687279 3.62495233 -0.04633715 5.4375 -0.0625 C6.44683594 -0.07410156 7.45617187 -0.08570312 8.49609375 -0.09765625 C11 0 11 0 12 1 C12.47356664 8.34028295 12.47356664 8.34028295 10.7578125 10.73046875 C7.49380244 13.08780935 3.84001062 12.59180549 0 12 C-3.0625 10.4375 -3.0625 10.4375 -5 8 C-5.3125 4.25 -5.3125 4.25 -5 1 C-4.67 1.66 -4.34 2.32 -4 3 C-2.68 3 -1.36 3 0 3 C0 2.01 0 1.02 0 0 Z " fill="#E3E9EF" transform="translate(119,100)"/>
<path d="M0 0 C4.29 0 8.58 0 13 0 C13.33 3.63 13.66 7.26 14 11 C8.06 11 2.12 11 -4 11 C-3.67 8.36 -3.34 5.72 -3 3 C-2.01 3 -1.02 3 0 3 C0 2.01 0 1.02 0 0 Z " fill="#E2EEF6" transform="translate(138,100)"/>
<path d="M0 0 C4.55555556 0.55555556 4.55555556 0.55555556 6 2 C6.14115161 4.67058851 6.04247107 7.32432238 6 10 C6.19335938 9.44570313 6.38671875 8.89140625 6.5859375 8.3203125 C6.84632812 7.59585937 7.10671875 6.87140625 7.375 6.125 C7.63023438 5.40570312 7.88546875 4.68640625 8.1484375 3.9453125 C9 2 9 2 11 0 C15.55555556 0.55555556 15.55555556 0.55555556 17 2 C17.26293056 6.03160191 17.29404844 7.55892734 15 11 C16.32 10.34 17.64 9.68 19 9 C18.67 10.32 18.34 11.64 18 13 C15.525 12.505 15.525 12.505 13 12 C13 9.69 13 7.38 13 5 C11.68 4.67 10.36 4.34 9 4 C9.04125 5.11375 9.0825 6.2275 9.125 7.375 C9 11 9 11 7 13 C4.375 12.625 4.375 12.625 2 12 C2 10.68 2 9.36 2 8 C0.63875 9.2684375 0.63875 9.2684375 -0.75 10.5625 C-3.67025483 13.02603251 -3.67025483 13.02603251 -6.375 12.8125 C-6.91125 12.544375 -7.4475 12.27625 -8 12 C-7.67 10.68 -7.34 9.36 -7 8 C-6.34 8.33 -5.68 8.66 -5 9 C-5.33 9.66 -5.66 10.32 -6 11 C-5.34 11 -4.68 11 -4 11 C-4 10.34 -4 9.68 -4 9 C-3.34 9 -2.68 9 -2 9 C-2.04125 7.88625 -2.0825 6.7725 -2.125 5.625 C-2 2 -2 2 0 0 Z " fill="#DA8674" transform="translate(59,21)"/>
<path d="M0 0 C0.495 0.99 0.495 0.99 1 2 C3.02463255 2.65213292 3.02463255 2.65213292 5 3 C3.68 3 2.36 3 1 3 C1.495 7.455 1.495 7.455 2 12 C7.94 12 13.88 12 20 12 C20 12.33 20 12.66 20 13 C-5.41 13 -30.82 13 -57 13 C-57.33 12.34 -57.66 11.68 -58 11 C-45.46 11 -32.92 11 -20 11 C-20 9.68 -20 8.36 -20 7 C-19.34 7 -18.68 7 -18 7 C-18 8.32 -18 9.64 -18 11 C-12.06 11 -6.12 11 0 11 C-0.495 8.525 -0.495 8.525 -1 6 C-0.5625 2.6875 -0.5625 2.6875 0 0 Z " fill="#C4D2DA" transform="translate(116,127)"/>
<path d="M0 0 C0.33 3.63 0.66 7.26 1 11 C-1.81256281 11.02684312 -4.62487241 11.04676188 -7.4375 11.0625 C-8.23994141 11.07087891 -9.04238281 11.07925781 -9.86914062 11.08789062 C-11.91295221 11.0965143 -13.95683902 11.0522815 -16 11 C-17 10 -17 10 -17.0625 6.4375 C-17.041875 5.303125 -17.02125 4.16875 -17 3 C-14.35436861 2.49891085 -11.70851088 1.99907767 -9.0625 1.5 C-7.93038086 1.28537109 -7.93038086 1.28537109 -6.77539062 1.06640625 C-1.11328125 0 -1.11328125 0 0 0 Z " fill="#E1EDF5" transform="translate(133,114)"/>
<path d="M0 0 C6.96515961 -0.44616681 11.60967983 -0.69925348 17 4 C19.55567619 6.55567619 19.27545746 8.33934676 19.36328125 11.83203125 C18.85625196 14.85785119 17.92053292 16.60336858 16 19 C13.15234375 19.92578125 13.15234375 19.92578125 9.9375 20.3125 C8.87402344 20.45300781 7.81054688 20.59351562 6.71484375 20.73828125 C4 21 4 21 2 21 C0.94228261 19.36935236 -0.05273046 17.69719127 -1 16 C-1.66 15.01 -2.32 14.02 -3 13 C-3.375 9.5 -3.375 9.5 -3 6 C-1.1875 4 -1.1875 4 1 3 C1.99 3.33 2.98 3.66 4 4 C2.02 4.99 2.02 4.99 0 6 C-0.49312822 10.76843349 -0.49312822 10.76843349 1.4375 14.9375 C5.2026584 16.49866324 8.97614207 16.59814104 13 16 C15.18331689 14.23863645 15.18331689 14.23863645 15.1953125 12.0546875 C15.17210937 11.33539063 15.14890625 10.61609375 15.125 9.875 C15.08375 8.59625 15.0425 7.3175 15 6 C9.81917949 2.65405342 6.15222436 1.43173504 0 1 C0 0.67 0 0.34 0 0 Z " fill="#E15334" transform="translate(115,95)"/>
<path d="M0 0 C1.578125 1.70703125 1.578125 1.70703125 1.578125 4.70703125 C2.238125 5.03703125 2.898125 5.36703125 3.578125 5.70703125 C2.588125 5.70703125 1.598125 5.70703125 0.578125 5.70703125 C0.908125 8.01703125 1.238125 10.32703125 1.578125 12.70703125 C2.898125 13.03703125 4.218125 13.36703125 5.578125 13.70703125 C5.578125 15.02703125 5.578125 16.34703125 5.578125 17.70703125 C4.258125 17.70703125 2.938125 17.70703125 1.578125 17.70703125 C0.918125 19.02703125 0.258125 20.34703125 -0.421875 21.70703125 C-0.421875 19.39703125 -0.421875 17.08703125 -0.421875 14.70703125 C-5.041875 14.70703125 -9.661875 14.70703125 -14.421875 14.70703125 C-14.421875 15.69703125 -14.421875 16.68703125 -14.421875 17.70703125 C-15.411875 17.70703125 -16.401875 17.70703125 -17.421875 17.70703125 C-17.751875 16.38703125 -18.081875 15.06703125 -18.421875 13.70703125 C-12.811875 13.70703125 -7.201875 13.70703125 -1.421875 13.70703125 C-1.751875 10.07703125 -2.081875 6.44703125 -2.421875 2.70703125 C-6.711875 2.37703125 -11.001875 2.04703125 -15.421875 1.70703125 C-15.421875 1.04703125 -15.421875 0.38703125 -15.421875 -0.29296875 C-13.3408906 -0.54256659 -11.25686688 -0.76691782 -9.171875 -0.98046875 C-7.43164062 -1.17189453 -7.43164062 -1.17189453 -5.65625 -1.3671875 C-2.421875 -1.29296875 -2.421875 -1.29296875 0 0 Z " fill="#B6C1C9" transform="translate(115.421875,111.29296875)"/>
<path d="M0 0 C1.84276141 0.55282842 3.67482878 1.14160959 5.5 1.75 C6.16 1.09 6.82 0.43 7.5 -0.25 C11.11754103 -0.63079379 13.38401212 -0.09651134 16.5 1.75 C16.83 1.09 17.16 0.43 17.5 -0.25 C19.81 0.08 22.12 0.41 24.5 0.75 C24.5 1.74 24.5 2.73 24.5 3.75 C23.530625 3.564375 22.56125 3.37875 21.5625 3.1875 C20.551875 3.043125 19.54125 2.89875 18.5 2.75 C16.53177114 4.71822886 16.83751619 8.09808709 16.5 10.75 C15.84 10.75 15.18 10.75 14.5 10.75 C14.5 11.41 14.5 12.07 14.5 12.75 C13.84 12.75 13.18 12.75 12.5 12.75 C12.5 9.45 12.5 6.15 12.5 2.75 C10.07080135 2.61559222 10.07080135 2.61559222 7.5 3.75 C6.4624977 5.77269357 5.81062146 7.75645388 5.17578125 9.9375 C4.5 11.75 4.5 11.75 2.5 12.75 C2.5 9.78 2.5 6.81 2.5 3.75 C0.85 3.42 -0.8 3.09 -2.5 2.75 C-3.16 4.4 -3.82 6.05 -4.5 7.75 C-5.16 7.75 -5.82 7.75 -6.5 7.75 C-6.13803085 5.07142828 -5.76012724 3.14019086 -4.25 0.875 C-2.5 -0.25 -2.5 -0.25 0 0 Z " fill="#645D62" transform="translate(40.5,19.25)"/>
<path d="M0 0 C1.17629657 3.47525916 0.81182496 5.87491481 0.00390625 9.421875 C-0.22490234 10.44667969 -0.45371094 11.47148438 -0.68945312 12.52734375 C-0.93630859 13.59082031 -1.18316406 14.65429688 -1.4375 15.75 C-1.68048828 16.82894531 -1.92347656 17.90789063 -2.17382812 19.01953125 C-2.77456295 21.68161107 -3.38355513 24.34152209 -4 27 C-4.66 26.34 -5.32 25.68 -6 25 C-7.485 27.475 -7.485 27.475 -9 30 C-10 28 -10 28 -9.30322266 25.31030273 C-8.9272998 24.19598877 -8.55137695 23.0816748 -8.1640625 21.93359375 C-7.75929688 20.72638672 -7.35453125 19.51917969 -6.9375 18.27539062 C-6.72222656 17.64608643 -6.50695312 17.01678223 -6.28515625 16.3684082 C-5.6272943 14.44421066 -4.98069824 12.51651273 -4.3359375 10.58789062 C-1.14688635 1.14688635 -1.14688635 1.14688635 0 0 Z " fill="#EB755B" transform="translate(25,40)"/>
<path d="M0 0 C4.55555556 0.55555556 4.55555556 0.55555556 6 2 C6.04063832 3.66617115 6.042721 5.33388095 6 7 C5.01 7.495 5.01 7.495 4 8 C2.86649466 10.01669827 2.86649466 10.01669827 2 12 C2 10.68 2 9.36 2 8 C0.63875 9.2684375 0.63875 9.2684375 -0.75 10.5625 C-3.67025483 13.02603251 -3.67025483 13.02603251 -6.375 12.8125 C-6.91125 12.544375 -7.4475 12.27625 -8 12 C-7.67 10.68 -7.34 9.36 -7 8 C-6.34 8.33 -5.68 8.66 -5 9 C-5.33 9.66 -5.66 10.32 -6 11 C-5.34 11 -4.68 11 -4 11 C-4 10.34 -4 9.68 -4 9 C-3.34 9 -2.68 9 -2 9 C-2.04125 7.88625 -2.0825 6.7725 -2.125 5.625 C-2 2 -2 2 0 0 Z " fill="#E45334" transform="translate(59,21)"/>
<path d="M0 0 C2.31 0 4.62 0 7 0 C6.01 0.495 6.01 0.495 5 1 C5 1.99 5 2.98 5 4 C3.68 4 2.36 4 1 4 C1.33 7.3 1.66 10.6 2 14 C-0.41535248 15.20767624 -1.47846408 14.97793036 -4.1328125 14.66015625 C-5.34130859 14.5199707 -5.34130859 14.5199707 -6.57421875 14.37695312 C-7.41597656 14.27318359 -8.25773437 14.16941406 -9.125 14.0625 C-9.97449219 13.96259766 -10.82398437 13.86269531 -11.69921875 13.75976562 C-13.80012277 13.51190616 -15.90015149 13.25664815 -18 13 C-18 12.67 -18 12.34 -18 12 C-12.06 12 -6.12 12 0 12 C-0.33 9.36 -0.66 6.72 -1 4 C-0.5625 1.5 -0.5625 1.5 0 0 Z " fill="#B5C0C8" transform="translate(112,86)"/>
<path d="M0 0 C0.680625 0.350625 1.36125 0.70125 2.0625 1.0625 C3.98836406 2.22456367 3.98836406 2.22456367 6.25 1.625 C7.11625 1.315625 7.11625 1.315625 8 1 C7.54625 1.33 7.0925 1.66 6.625 2 C4.51079299 4.60210094 4.19779858 7.00002057 3.625 10.2578125 C3.41875 10.83273438 3.2125 11.40765625 3 12 C2.01 12.33 1.02 12.66 0 13 C0.33 10.03 0.66 7.06 1 4 C-1.39719432 3.32041397 -1.39719432 3.32041397 -4 3 C-6.30867149 4.98220878 -6.30867149 4.98220878 -7 8.5625 C-7.33 9.696875 -7.66 10.83125 -8 12 C-8.99 12.495 -8.99 12.495 -10 13 C-9.93976735 11.39479996 -9.85091401 9.79065673 -9.75 8.1875 C-9.70359375 7.29417969 -9.6571875 6.40085937 -9.609375 5.48046875 C-9 3 -9 3 -7.109375 1.1953125 C-4.48166331 -0.29372412 -2.98218791 -0.37277349 0 0 Z " fill="#4B545E" transform="translate(74,19)"/>
<path d="M0 0 C4.875 0.875 4.875 0.875 6 2 C6.04092937 4.33297433 6.04241723 6.66705225 6 9 C6.66 9 7.32 9 8 9 C7.34 10.32 6.68 11.64 6 13 C4.68 12.67 3.36 12.34 2 12 C1.67 9.69 1.34 7.38 1 5 C0.01 4.67 -0.98 4.34 -2 4 C-1.34 2.68 -0.68 1.36 0 0 Z " fill="#D38A7A" transform="translate(102,21)"/>
<path d="M0 0 C2.625 0.375 2.625 0.375 5 1 C5.33 1.99 5.66 2.98 6 4 C3.69 4 1.38 4 -1 4 C-1.33 6.97 -1.66 9.94 -2 13 C-3.65614657 13.38218767 -5.32457024 13.71395102 -7 14 C-8 13 -8 13 -8.0625 10.4375 C-8.041875 9.633125 -8.02125 8.82875 -8 8 C-7.01 8.33 -6.02 8.66 -5 9 C-5.33 9.66 -5.66 10.32 -6 11 C-5.34 11 -4.68 11 -4 11 C-3.87882812 10.37351562 -3.75765625 9.74703125 -3.6328125 9.1015625 C-3.38144531 7.87566406 -3.38144531 7.87566406 -3.125 6.625 C-2.96257812 5.81289063 -2.80015625 5.00078125 -2.6328125 4.1640625 C-2 2 -2 2 0 0 Z " fill="#D99385" transform="translate(123,21)"/>
<path d="M0 0 C1.32 0 2.64 0 4 0 C4 0.66 4 1.32 4 2 C3.01 2 2.02 2 1 2 C1 5.63 1 9.26 1 13 C2.32 13 3.64 13 5 13 C5 13.66 5 14.32 5 15 C3.68 15 2.36 15 1 15 C0.67 16.32 0.34 17.64 0 19 C-0.33 19 -0.66 19 -1 19 C-1.33 17.35 -1.66 15.7 -2 14 C-2.99 14.33 -3.98 14.66 -5 15 C-6.72795352 15.06802967 -8.45835365 15.08495645 -10.1875 15.0625 C-11.53908203 15.04896484 -11.53908203 15.04896484 -12.91796875 15.03515625 C-13.60503906 15.02355469 -14.29210937 15.01195313 -15 15 C-15 14.67 -15 14.34 -15 14 C-14.15695313 13.90203125 -13.31390625 13.8040625 -12.4453125 13.703125 C-11.34960938 13.55359375 -10.25390625 13.4040625 -9.125 13.25 C-7.48917969 13.04117188 -7.48917969 13.04117188 -5.8203125 12.828125 C-2.93094757 12.28759416 -2.93094757 12.28759416 -1.65625 10.1875 C-1.00385717 8.01285722 -0.60078928 6.00789278 -0.375 3.75 C-0.25125 2.5125 -0.1275 1.275 0 0 Z " fill="#BCAAAA" transform="translate(134,101)"/>
<path d="M0 0 C2.3125 1.0625 2.3125 1.0625 4 3 C4.25 6.6875 4.25 6.6875 4 10 C3.01 10.495 3.01 10.495 2 11 C1.67 8.69 1.34 6.38 1 4 C-1.39719432 3.32041397 -1.39719432 3.32041397 -4 3 C-6.30867149 4.98220878 -6.30867149 4.98220878 -7 8.5625 C-7.33 9.696875 -7.66 10.83125 -8 12 C-8.99 12.495 -8.99 12.495 -10 13 C-9.93976735 11.39479996 -9.85091401 9.79065673 -9.75 8.1875 C-9.70359375 7.29417969 -9.6571875 6.40085937 -9.609375 5.48046875 C-9 3 -9 3 -7.109375 1.19921875 C-4.4617024 -0.30603216 -3.00458865 -0.4506883 0 0 Z " fill="#4E5057" transform="translate(106,19)"/>
<path d="M0 0 C6.96515961 -0.44616681 11.60967983 -0.69925348 17 4 C17.66 4.66 18.32 5.32 19 6 C18.8984375 8.09375 18.8984375 8.09375 18.375 10.5 C18.13910156 11.69109375 18.13910156 11.69109375 17.8984375 12.90625 C17 15 17 15 14.9140625 16.28125 C14.28242188 16.5184375 13.65078125 16.755625 13 17 C13.66 16.01 14.32 15.02 15 14 C15.24055468 11.94290404 15.24055468 11.94290404 15.125 9.8125 C15.063125 7.9253125 15.063125 7.9253125 15 6 C9.81917949 2.65405342 6.15222436 1.43173504 0 1 C0 0.67 0 0.34 0 0 Z " fill="#E0705A" transform="translate(115,95)"/>
<path d="M0 0 C0.33 0 0.66 0 1 0 C1 1.98 1 3.96 1 6 C2.65 6 4.3 6 6 6 C6 7.65 6 9.3 6 11 C5.01 11 4.02 11 3 11 C3 16.94 3 22.88 3 29 C2.67 29 2.34 29 2 29 C-0.29612756 9.03189066 -0.29612756 9.03189066 0 0 Z " fill="#9FACB5" transform="translate(94,105)"/>
<path d="M0 0 C5.94 0 11.88 0 18 0 C18.33 1.32 18.66 2.64 19 4 C16.77027727 3.88534579 14.54121247 3.75785234 12.3125 3.625 C11.07113281 3.55539063 9.82976562 3.48578125 8.55078125 3.4140625 C5.30682228 3.03577906 2.93432815 2.38020024 0 1 C0 0.67 0 0.34 0 0 Z " fill="#C8D6E0" transform="translate(77,124)"/>
<path d="M0 0 C1.98 0.99 3.96 1.98 6 3 C6 3.66 6 4.32 6 5 C4.68 5 3.36 5 2 5 C2 7.97 2 10.94 2 14 C3.65 14 5.3 14 7 14 C7 15.32 7 16.64 7 18 C6.01 18 5.02 18 4 18 C4 17.01 4 16.02 4 15 C3.34 15 2.68 15 2 15 C1.67 15.99 1.34 16.98 1 18 C0.22959149 11.93303301 -0.09706112 6.11485027 0 0 Z " fill="#9BA7B0" transform="translate(92,85)"/>
<path d="M0 0 C2.4375 0.75 2.4375 0.75 4.4375 1.75 C4.4375 2.41 4.4375 3.07 4.4375 3.75 C5.0975 3.75 5.7575 3.75 6.4375 3.75 C6.125 7.125 6.125 7.125 5.4375 10.75 C4.4475 11.41 3.4575 12.07 2.4375 12.75 C2.4375 9.78 2.4375 6.81 2.4375 3.75 C0.7875 3.42 -0.8625 3.09 -2.5625 2.75 C-3.2225 4.4 -3.8825 6.05 -4.5625 7.75 C-5.2225 7.75 -5.8825 7.75 -6.5625 7.75 C-6.20053085 5.07142828 -5.82262724 3.14019086 -4.3125 0.875 C-2.5625 -0.25 -2.5625 -0.25 0 0 Z " fill="#5C636B" transform="translate(40.5625,19.25)"/>
<path d="M0 0 C0.33 0 0.66 0 1 0 C0.74213573 6.52396607 0.17832479 10.87818251 -4 16 C-5.27597072 12.17208785 -4.86635876 9.93193593 -4 6 C-2 2.5625 -2 2.5625 0 0 Z " fill="#EC4D2C" transform="translate(19,64)"/>
<path d="M0 0 C-1.98 0.99 -1.98 0.99 -4 2 C-4.33417929 5.3324787 -4.33417929 5.3324787 -4 9 C-2.0624994 11.18777466 -2.0624994 11.18777466 0 13 C0 14.32 0 15.64 0 17 C-0.66 17 -1.32 17 -2 17 C-3.05771739 15.36935236 -4.05273046 13.69719127 -5 12 C-5.66 11.01 -6.32 10.02 -7 9 C-7.375 5.5 -7.375 5.5 -7 2 C-4.37226805 -0.89956629 -3.79438356 -1.26479452 0 0 Z " fill="#D06853" transform="translate(119,99)"/>
<path d="M0 0 C0.99 0.33 1.98 0.66 3 1 C2.67 3.97 2.34 6.94 2 10 C1.67 10 1.34 10 1 10 C0.67 8.02 0.34 6.04 0 4 C-0.99 7.3 -1.98 10.6 -3 14 C-3.99 14 -4.98 14 -6 14 C-5.57533503 12.22604492 -5.1347591 10.45589369 -4.6875 8.6875 C-4.44386719 7.70136719 -4.20023438 6.71523438 -3.94921875 5.69921875 C-2.99950411 2.99858988 -2.18152323 1.79043784 0 0 Z " fill="#E8D6D4" transform="translate(30,27)"/>
<path d="M0 0 C0.33 0 0.66 0 1 0 C1 2.64 1 5.28 1 8 C2.65 8.33 4.3 8.66 6 9 C6 9.99 6 10.98 6 12 C5.01 12 4.02 12 3 12 C3 15.3 3 18.6 3 22 C2.34 22 1.68 22 1 22 C0.08839714 14.64206267 -0.11459026 7.41017023 0 0 Z " fill="#9CA8B1" transform="translate(76,117)"/>
<path d="M0 0 C1.13732426 3.40401948 0.83989957 5.77456664 0.0625 9.25 C-0.13214844 10.14203125 -0.32679687 11.0340625 -0.52734375 11.953125 C-0.68332031 12.62859375 -0.83929687 13.3040625 -1 14 C-1.66 13.67 -2.32 13.34 -3 13 C-3.66 14.98 -4.32 16.96 -5 19 C-6.69904029 14.93663256 -5.11367988 11.68069214 -3.625 7.8125 C-3.39039063 7.17119141 -3.15578125 6.52988281 -2.9140625 5.86914062 C-1.16584821 1.16584821 -1.16584821 1.16584821 0 0 Z " fill="#E89580" transform="translate(25,40)"/>
<path d="M0 0 C1.2065625 0.0309375 1.2065625 0.0309375 2.4375 0.0625 C2.7675 2.0425 3.0975 4.0225 3.4375 6.0625 C0.7975 6.0625 -1.8425 6.0625 -4.5625 6.0625 C-3.48963568 0.08511307 -3.48963568 0.08511307 0 0 Z " fill="#B6A5A3" transform="translate(114.5625,18.9375)"/>
<path d="M0 0 C2.9375 0.375 2.9375 0.375 6 1 C6.33 1.66 6.66 2.32 7 3 C6.67 3.99 6.34 4.98 6 6 C3.36 6 0.72 6 -2 6 C-1.34 4.02 -0.68 2.04 0 0 Z " fill="#B7A3A2" transform="translate(144,19)"/>
<path d="M0 0 C5.94 0 11.88 0 18 0 C18 0.66 18 1.32 18 2 C10.08 2.495 10.08 2.495 2 3 C2 2.34 2 1.68 2 1 C1.34 0.67 0.68 0.34 0 0 Z " fill="#BDC9D2" transform="translate(75,98)"/>
<path d="M0 0 C0.9075 0.185625 1.815 0.37125 2.75 0.5625 C5.68314324 0.95734621 7.2644657 0.94691572 10 0 C9.525625 0.350625 9.05125 0.70125 8.5625 1.0625 C6.32126175 3.84163543 6.32882342 6.5144717 6 10 C5.34 10 4.68 10 4 10 C4 10.66 4 11.32 4 12 C3.34 12 2.68 12 2 12 C2.185625 10.906875 2.37125 9.81375 2.5625 8.6875 C3.2578068 5.06375867 3.2578068 5.06375867 2 2 C1.34 1.34 0.68 0.68 0 0 Z " fill="#575358" transform="translate(136,20)"/>
<path d="M0 0 C-3.3 0 -6.6 0 -10 0 C-10 0.99 -10 1.98 -10 3 C-11.32 3 -12.64 3 -14 3 C-14 2.01 -14 1.02 -14 0 C-8.46301682 -3.19441337 -5.26212404 -3.94659303 0 0 Z " fill="#B6B5BA" transform="translate(129,100)"/>
<path d="M0 0 C5.94 0 11.88 0 18 0 C18 0.33 18 0.66 18 1 C13.71 1 9.42 1 5 1 C5 1.99 5 2.98 5 4 C3.68 4 2.36 4 1 4 C0.67 2.68 0.34 1.36 0 0 Z " fill="#B6C3CB" transform="translate(74,86)"/>
<path d="M0 0 C5.61 0 11.22 0 17 0 C17 0.33 17 0.66 17 1 C12.71 1 8.42 1 4 1 C4 1.99 4 2.98 4 4 C2.68 3.67 1.36 3.34 0 3 C0 2.01 0 1.02 0 0 Z " fill="#B5C2CA" transform="translate(73,73)"/>
<path d="M0 0 C5.94 0 11.88 0 18 0 C18 0.33 18 0.66 18 1 C13.71 1 9.42 1 5 1 C5 1.99 5 2.98 5 4 C4.01 4 3.02 4 2 4 C2 3.01 2 2.02 2 1 C1.34 0.67 0.68 0.34 0 0 Z " fill="#A7B5BF" transform="translate(58,125)"/>
<path d="M0 0 C0.33 0.99 0.66 1.98 1 3 C2.65 3.33 4.3 3.66 6 4 C6 5.32 6 6.64 6 8 C3.03 7.505 3.03 7.505 0 7 C0 4.69 0 2.38 0 0 Z " fill="#9FADB5" transform="translate(75,108)"/>
<path d="M0 0 C1.98 0 3.96 0 6 0 C6 1.32 6 2.64 6 4 C4.68 4 3.36 4 2 4 C1.34 5.32 0.68 6.64 0 8 C0 5.36 0 2.72 0 0 Z " fill="#A3B1B9" transform="translate(115,125)"/>
<path d="M0 0 C0.99 0 1.98 0 3 0 C3.25 5.625 3.25 5.625 1 9 C0.34 9 -0.32 9 -1 9 C-0.67 6.03 -0.34 3.06 0 0 Z " fill="#564749" transform="translate(86,23)"/>
<path d="M0 0 C5.28 0 10.56 0 16 0 C16 0.33 16 0.66 16 1 C14.77023438 1.09087891 14.77023438 1.09087891 13.515625 1.18359375 C11.89914063 1.30927734 11.89914063 1.30927734 10.25 1.4375 C9.18265625 1.51871094 8.1153125 1.59992188 7.015625 1.68359375 C4.56320038 1.94090773 2.36078709 2.31812218 0 3 C0 2.01 0 1.02 0 0 Z " fill="#C2D0D9" transform="translate(135,111)"/>
<path d="M0 0 C0.66 0 1.32 0 2 0 C2 0.99 2 1.98 2 3 C2.99 3.33 3.98 3.66 5 4 C4.01 4 3.02 4 2 4 C2 6.31 2 8.62 2 11 C1.67 11 1.34 11 1 11 C1 9.02 1 7.04 1 5 C0.34 5 -0.32 5 -1 5 C-0.67 3.35 -0.34 1.7 0 0 Z " fill="#D2DFE7" transform="translate(94,100)"/>
<path d="M0 0 C0.33 0 0.66 0 1 0 C1.33 3.63 1.66 7.26 2 11 C1.34 11 0.68 11 0 11 C-1.125 3.375 -1.125 3.375 0 0 Z " fill="#BFCBD3" transform="translate(130,74)"/>
<path d="M0 0 C0.66 0 1.32 0 2 0 C2 0.99 2 1.98 2 3 C2.66 2.67 3.32 2.34 4 2 C3.67 3.32 3.34 4.64 3 6 C1.68 6 0.36 6 -1 6 C-1.042721 4.33388095 -1.04063832 2.66617115 -1 1 C-0.67 0.67 -0.34 0.34 0 0 Z " fill="#D8B7AE" transform="translate(148,28)"/>
<path d="M0 0 C0.66 0 1.32 0 2 0 C2.33 0.66 2.66 1.32 3 2 C3.66 1.67 4.32 1.34 5 1 C4.67 2.32 4.34 3.64 4 5 C2.35 4.67 0.7 4.34 -1 4 C-0.67 2.68 -0.34 1.36 0 0 Z " fill="#DEB7AA" transform="translate(126,29)"/>
<path d="M0 0 C0.66 0 1.32 0 2 0 C2 0.99 2 1.98 2 3 C2.66 2.67 3.32 2.34 4 2 C3.67 3.32 3.34 4.64 3 6 C1.68 6 0.36 6 -1 6 C-1.042721 4.33388095 -1.04063832 2.66617115 -1 1 C-0.67 0.67 -0.34 0.34 0 0 Z " fill="#D8B8AF" transform="translate(42,28)"/>
<path d="M0 0 C0.66 0 1.32 0 2 0 C1.125 6.75 1.125 6.75 0 9 C-0.66 9 -1.32 9 -2 9 C-1.125 1.125 -1.125 1.125 0 0 Z " fill="#624D4D" transform="translate(119,23)"/>
<path d="M0 0 C1.98 0.99 3.96 1.98 6 3 C6 3.66 6 4.32 6 5 C4.68 5 3.36 5 2 5 C1.34 5.66 0.68 6.32 0 7 C0 4.69 0 2.38 0 0 Z " fill="#95A1AA" transform="translate(92,85)"/>
<path d="M0 0 C0.33 0 0.66 0 1 0 C1.07654536 4.51617599 1.10228696 8.59085217 0 13 C-0.33 13 -0.66 13 -1 13 C-2.0070238 7.96488101 -1.97387813 4.76052962 0 0 Z " fill="#E76345" transform="translate(22,50)"/>
<path d="M0 0 C0.66 0 1.32 0 2 0 C2 0.99 2 1.98 2 3 C2.66 2.67 3.32 2.34 4 2 C4 2.99 4 3.98 4 5 C2.35 5.33 0.7 5.66 -1 6 C-1.042721 4.33388095 -1.04063832 2.66617115 -1 1 C-0.67 0.67 -0.34 0.34 0 0 Z " fill="#DEC0BA" transform="translate(95,28)"/>
<path d="M0 0 C0.66 0 1.32 0 2 0 C2 0.99 2 1.98 2 3 C2.66 2.67 3.32 2.34 4 2 C3.67 3.32 3.34 4.64 3 6 C1.68 5.67 0.36 5.34 -1 5 C-0.67 3.35 -0.34 1.7 0 0 Z " fill="#DCBEB7" transform="translate(63,28)"/>
<path d="M0 0 C0.99 0.33 1.98 0.66 3 1 C2.6875 4.375 2.6875 4.375 2 8 C1.01 8.66 0.02 9.32 -1 10 C-0.67 6.7 -0.34 3.4 0 0 Z " fill="#50484C" transform="translate(44,22)"/>
<path d="M0 0 C0.66 0 1.32 0 2 0 C2.25 5.625 2.25 5.625 0 9 C-0.66 9 -1.32 9 -2 9 C-1.34 6.03 -0.68 3.06 0 0 Z " fill="#41464D" transform="translate(76,23)"/>
<path d="M0 0 C-1.1858237 3.37503669 -2.27573689 5.64722731 -5 8 C-4.74438677 5.6568787 -4.40729228 3.32156597 -4 1 C-2 0 -2 0 0 0 Z " fill="#ED4622" transform="translate(19,72)"/>
<path d="M0 0 C1.10844919 3.32534757 0.84454356 5.62182575 0 9 C-0.66 9 -1.32 9 -2 9 C-2.25 3.375 -2.25 3.375 0 0 Z " fill="#E07E69" transform="translate(25,40)"/>
<path d="M0 0 C0.99 0.33 1.98 0.66 3 1 C2.67 1.66 2.34 2.32 2 3 C2.66 3 3.32 3 4 3 C4.33 2.34 4.66 1.68 5 1 C4.67 2.32 4.34 3.64 4 5 C2.68 5 1.36 5 0 5 C0 3.35 0 1.7 0 0 Z " fill="#E2C2B8" transform="translate(115,29)"/>
<path d="M0 0 C0.66 0.33 1.32 0.66 2 1 C1.67 1.66 1.34 2.32 1 3 C1.66 3 2.32 3 3 3 C3 2.34 3 1.68 3 1 C3.66 1 4.32 1 5 1 C4.34 2.32 3.68 3.64 3 5 C1.68 4.67 0.36 4.34 -1 4 C-0.67 2.68 -0.34 1.36 0 0 Z " fill="#E0BEB5" transform="translate(52,29)"/>
<path d="M0 0 C2.97 0.495 2.97 0.495 6 1 C6 1.66 6 2.32 6 3 C3.69 3 1.38 3 -1 3 C-0.67 2.01 -0.34 1.02 0 0 Z " fill="#E0DDDD" transform="translate(80,21)"/>
<path d="M0 0 C0.99 0 1.98 0 3 0 C3 2.64 3 5.28 3 8 C0.4345406 5.4345406 0.45953913 3.52313332 0 0 Z " fill="#C3CFD8" transform="translate(130,87)"/>
<path d="M0 0 C2.475 0.495 2.475 0.495 5 1 C5 1.99 5 2.98 5 4 C4.01 4 3.02 4 2 4 C1.34 4.66 0.68 5.32 0 6 C0 4.02 0 2.04 0 0 Z " fill="#9EAAB2" transform="translate(110,73)"/>
<path d="M0 0 C1.65 0.33 3.3 0.66 5 1 C5 1.66 5 2.32 5 3 C2.69 3 0.38 3 -2 3 C-1.34 2.01 -0.68 1.02 0 0 Z " fill="#E0DADA" transform="translate(134,21)"/>
<path d="M0 0 C1.65 0.33 3.3 0.66 5 1 C5 1.66 5 2.32 5 3 C2.69 3 0.38 3 -2 3 C-1.34 2.01 -0.68 1.02 0 0 Z " fill="#E2DDDD" transform="translate(102,21)"/>
<path d="M0 0 C2.4375 0.375 2.4375 0.375 5 1 C5.33 1.66 5.66 2.32 6 3 C3.69 3 1.38 3 -1 3 C-0.67 2.01 -0.34 1.02 0 0 Z " fill="#E6DFDF" transform="translate(91,21)"/>
<path d="M0 0 C1.65 0.33 3.3 0.66 5 1 C5 1.66 5 2.32 5 3 C2.69 3 0.38 3 -2 3 C-1.34 2.01 -0.68 1.02 0 0 Z " fill="#E3DEDD" transform="translate(70,21)"/>
<path d="M0 0 C1.65 0.33 3.3 0.66 5 1 C5 1.66 5 2.32 5 3 C2.69 3 0.38 3 -2 3 C-1.34 2.01 -0.68 1.02 0 0 Z " fill="#E0DAD9" transform="translate(49,21)"/>
<path d="M0 0 C2.4375 0.375 2.4375 0.375 5 1 C5.33 1.66 5.66 2.32 6 3 C3.69 3 1.38 3 -1 3 C-0.67 2.01 -0.34 1.02 0 0 Z " fill="#DEDADA" transform="translate(38,21)"/>
<path d="M0 0 C-1.175625 0.928125 -1.175625 0.928125 -2.375 1.875 C-4.96837647 3.89858661 -4.96837647 3.89858661 -7 6 C-7.33 5.01 -7.66 4.02 -8 3 C-5.53387212 -0.1151089 -3.89156016 -0.31553191 0 0 Z " fill="#6B717A" transform="translate(138,19)"/>
<path d="M0 0 C2.4375 0.375 2.4375 0.375 5 1 C5.33 1.66 5.66 2.32 6 3 C3.69 3 1.38 3 -1 3 C-0.67 2.01 -0.34 1.02 0 0 Z " fill="#DFDBDA" transform="translate(59,21)"/>
<path d="M0 0 C0 0.66 0 1.32 0 2 C-4.625 4.125 -4.625 4.125 -8 3 C-5.53387212 -0.1151089 -3.89156016 -0.31553191 0 0 Z " fill="#636D77" transform="translate(53,19)"/>
</svg>
