<?xml version="1.0" encoding="UTF-8"?>
<svg version="1.1" xmlns="http://www.w3.org/2000/svg" width="512" height="512">
<path d="M0 0 C21.5856161 16.64899537 34.04501058 42.06831073 37.79248047 68.83154297 C42.71810017 109.52802836 31.42776034 152.23620959 6.546875 184.9765625 C3.26224187 189.05653133 -0.18120435 192.92752505 -3.7734375 196.7421875 C-6.0627866 199.12858237 -6.0627866 199.12858237 -8.375 202.1875 C-25.30387401 221.18087084 -52.6840811 235.7170855 -77.9375 239.0625 C-82.42126616 239.30343316 -86.88603301 239.29810512 -91.375 239.25 C-92.54482422 239.24935547 -93.71464844 239.24871094 -94.91992188 239.24804688 C-103.51460956 239.20346348 -103.51460956 239.20346348 -106.9375 238.0625 C-107.48857422 239.87041016 -107.48857422 239.87041016 -108.05078125 241.71484375 C-110.22781 248.24592999 -113.20117947 254.40198034 -116.125 260.625 C-116.68989992 261.83638029 -117.25435629 263.04796752 -117.81835938 264.25976562 C-119.18707516 267.19607043 -120.56105214 270.12981566 -121.9375 273.0625 C-112.01925716 273.22461188 -102.23595924 272.80247405 -92.3482151 272.10595512 C-89.82822238 271.92893582 -87.30784857 271.75867242 -84.78727722 271.59010315 C-77.63203096 271.11055025 -70.47753917 270.62031722 -63.32348633 270.12329102 C-58.91820167 269.81769959 -54.51240687 269.52061411 -50.10620689 269.22853279 C-48.44321207 269.11657238 -46.78043053 269.00139032 -45.11789894 268.88274956 C-25.17540191 267.46057931 -12.74754456 269.9145117 3 282.6015625 C6.3732012 285.31217061 9.84709775 287.86251582 13.35546875 290.39453125 C16.38713899 293.35682689 17.03374157 296.28602244 17.1875 300.4375 C14.04750006 310.55527757 0.64976108 315.76917665 -7.95800781 320.82324219 C-10.01080924 322.06200954 -10.01080924 322.06200954 -12.06542969 323.71582031 C-13.9375 325.0625 -13.9375 325.0625 -15.9375 325.0625 C-11.22219976 330.67243189 -6.22647345 335.7545412 -0.8125 340.6875 C11.43221831 351.85651408 11.43221831 351.85651408 13.0625 357.5625 C13.0625 361.87383672 12.6881756 363.61161207 10.0625 367.0625 C2.297338 371.85018836 -6.63215214 374.9340629 -15.0625 378.375 C-16.41420531 378.92999086 -17.76576883 379.48532716 -19.1171875 380.04101562 C-22.38900379 381.38548786 -25.66270106 382.7253064 -28.9375 384.0625 C-24.66228564 390.89054595 -20.25885072 397.57983273 -15.5625 404.125 C-14.51180918 405.59418632 -13.46227059 407.06419757 -12.4140625 408.53515625 C-11.734646 409.48273804 -11.734646 409.48273804 -11.04150391 410.44946289 C-8.89670814 413.58317931 -8.72359805 416.11723475 -8.51171875 419.89453125 C-9.19723892 423.38502387 -10.27238053 424.63896689 -12.9375 427.0625 C-16.75838824 428.65368006 -20.68950535 429.69776999 -24.6875 430.75 C-25.74710937 431.04455078 -26.80671875 431.33910156 -27.8984375 431.64257812 C-30.90573556 432.47275656 -33.91938381 433.27269309 -36.9375 434.0625 C-38.10671997 434.37815918 -38.10671997 434.37815918 -39.29956055 434.70019531 C-49.53758401 437.39815883 -57.30233925 436.17470256 -66.9375 432.0625 C-68.6032103 431.39344738 -70.26959935 430.72607338 -71.9375 430.0625 C-72.57300781 430.91585938 -73.20851563 431.76921875 -73.86328125 432.6484375 C-77.35162041 436.82463546 -81.64047407 439.66723706 -86.125 442.6875 C-86.92486328 443.24695313 -87.72472656 443.80640625 -88.54882812 444.3828125 C-97.85866229 450.72396862 -106.51890752 454.56128683 -117.9375 453.0625 C-125.21272818 451.12625817 -131.82769682 446.53980621 -136.13671875 440.3359375 C-138.50990937 435.63250994 -138.05407393 432.00732741 -136.9375 427.0625 C-135.50325522 424.19401044 -134.19711802 422.32211802 -131.9375 420.0625 C-132.36417969 419.48886719 -132.79085938 418.91523438 -133.23046875 418.32421875 C-138.38761632 411.31687803 -143.31801024 404.17198418 -148.19213867 396.96557617 C-149.76068757 394.65507799 -151.34425916 392.35603097 -152.9375 390.0625 C-153.44933838 389.31790527 -153.96117676 388.57331055 -154.48852539 387.80615234 C-157.31129168 383.84369247 -159.5721615 381.09539533 -164.125 379.0625 C-164.96417969 378.670625 -165.80335938 378.27875 -166.66796875 377.875 C-169.00647805 376.89397256 -169.00647805 376.89397256 -171.9375 377.0625 C-171.17566406 377.64644531 -171.17566406 377.64644531 -170.3984375 378.2421875 C-160.83776544 386.01247153 -155.67280406 396.15872038 -154.125 408.3125 C-153.29539204 421.56779163 -157.0113759 433.12572665 -164.90625 443.69921875 C-173.69697831 453.35917953 -185.32081963 458.07605585 -198.1171875 458.97265625 C-210.96283729 459.27475231 -221.50827496 455.10499573 -231.3125 446.8125 C-239.6623644 438.81110506 -244.76514029 429.12195012 -245.1484375 417.5 C-245.33179154 404.85108308 -245.33179154 404.85108308 -243.9375 402.0625 C-244.37578125 402.46339844 -244.8140625 402.86429687 -245.265625 403.27734375 C-273.01864883 428.15352974 -305.87374932 440.49636081 -343.17871094 439.21484375 C-367.63694891 437.86422955 -391.22022124 429.58497897 -410.9375 415.0625 C-411.75089844 414.47210938 -412.56429687 413.88171875 -413.40234375 413.2734375 C-431.68275126 399.34832967 -444.60347079 381.92906944 -453.9375 361.0625 C-454.66066406 359.44794922 -454.66066406 359.44794922 -455.3984375 357.80078125 C-467.8677594 327.68547958 -467.09463807 291.97391978 -455.05761719 261.86132812 C-450.99825064 252.27565883 -446.12248747 243.45990394 -439.9375 235.0625 C-439.34710938 234.24910156 -438.75671875 233.43570313 -438.1484375 232.59765625 C-416.55442029 204.24976557 -386.19031252 187.82264476 -351.21875 182.49609375 C-346.17210693 181.89432764 -341.13863675 181.91655308 -336.0625 181.9375 C-334.66837891 181.93169922 -334.66837891 181.93169922 -333.24609375 181.92578125 C-327.08665188 181.93437182 -321.05296244 182.33276692 -314.9375 183.0625 C-320.69788771 174.25138064 -326.70565982 165.61934431 -332.72729492 156.98583984 C-337.09656396 150.71801035 -341.4411553 144.43451935 -345.75 138.125 C-346.28157715 137.34664795 -346.8131543 136.5682959 -347.36083984 135.76635742 C-348.39694001 134.24878674 -349.43291389 132.73112983 -350.46875 131.21337891 C-352.72455483 127.90991472 -354.98542166 124.60995522 -357.25 121.3125 C-357.68570313 120.67795898 -358.12140625 120.04341797 -358.5703125 119.38964844 C-361.92313512 114.51608127 -365.30770212 109.66513244 -368.69702148 104.81689453 C-371.44105921 100.88472013 -374.17106919 96.94292354 -376.89892578 92.99951172 C-378.24549613 91.05948282 -379.59793678 89.12351382 -380.95654297 87.19189453 C-399.23693603 61.18217746 -399.23693603 61.18217746 -396.46484375 44.16015625 C-394.31076534 33.93150847 -389.16729762 25.58453329 -380.9375 19.0625 C-370.58597184 12.57989848 -359.97543818 10.61625281 -348.0625 13.1875 C-333.38388157 17.16720109 -326.09741207 26.96571894 -318 39.125 C-316.68202453 41.08142677 -315.36297867 43.03713281 -314.04296875 44.9921875 C-313.03049072 46.49410645 -313.03049072 46.49410645 -311.99755859 48.02636719 C-308.64663205 52.96499275 -305.22983335 57.85719679 -301.8125 62.75 C-296.98827384 69.66567043 -292.18812218 76.59605295 -287.4375 83.5625 C-282.64440409 90.59083057 -277.80232575 97.58363701 -272.9375 104.5625 C-266.37535264 113.97734669 -259.87541321 123.43272921 -253.40625 132.91162109 C-245.99119033 143.77044351 -238.49784677 154.57360374 -230.98120117 165.36230469 C-226.24613484 172.16487311 -221.54907086 178.99201336 -216.88476562 185.84326172 C-213.89394974 190.22874422 -210.87259119 194.59061707 -207.8203125 198.93359375 C-207.11326172 199.94164062 -206.40621094 200.9496875 -205.67773438 201.98828125 C-204.31588182 203.92731786 -202.9502864 205.86373387 -201.58007812 207.796875 C-192.1438111 221.24427693 -186.76849036 230.73039953 -187.03417969 247.1784668 C-187.06823265 252.72451591 -186.43091941 257.11637007 -183.9375 262.0625 C-183.63199219 262.73023438 -183.32648438 263.39796875 -183.01171875 264.0859375 C-181.16132272 267.38300679 -179.8373097 268.77821598 -176.16796875 269.9375 C-173.42128899 270.44523028 -170.71952106 270.82376264 -167.9375 271.0625 C-167.6075 269.92941406 -167.2775 268.79632813 -166.9375 267.62890625 C-164.32510634 259.79325837 -160.50582254 252.43295175 -156.9375 245 C-155.84487332 242.7186942 -154.75387258 240.43665848 -153.66674805 238.15272522 C-152.99448392 236.74083467 -152.31909067 235.33042778 -151.63989258 233.92185974 C-149.4751743 229.38177329 -147.65014209 224.79235636 -145.9375 220.0625 C-146.4221875 219.67320312 -146.906875 219.28390625 -147.40625 218.8828125 C-166.53562415 202.91714253 -177.97124794 177.05816102 -180.75219727 152.51635742 C-184.1264522 107.83304213 -172.24144099 65.08575347 -143.08984375 30.5546875 C-142.02443359 29.32105469 -142.02443359 29.32105469 -140.9375 28.0625 C-139.91849609 26.85980469 -139.91849609 26.85980469 -138.87890625 25.6328125 C-104.6992366 -13.9436471 -45.04111307 -31.42840898 0 0 Z M-66.9375 24.0625 C-67.2675 25.3825 -67.5975 26.7025 -67.9375 28.0625 C-60.6775 31.3625 -53.4175 34.6625 -45.9375 38.0625 C-43.02232581 35.14732581 -42.15676746 33.61021015 -40.75 29.875 C-40.40582031 28.97394531 -40.06164062 28.07289062 -39.70703125 27.14453125 C-39.32611328 26.11392578 -39.32611328 26.11392578 -38.9375 25.0625 C-44.37697665 23.24934112 -49.47358296 22.86983371 -55.1875 22.875 C-55.88488281 22.87435547 -56.58226562 22.87371094 -57.30078125 22.87304688 C-60.64699155 22.90850768 -63.73817741 23.0317904 -66.9375 24.0625 Z M-26.9375 31.0625 C-28.9175 35.0225 -30.8975 38.9825 -32.9375 43.0625 C-28.86725554 46.11518334 -24.95044927 48.11479034 -20.375 50.25 C-19.60736328 50.61802734 -18.83972656 50.98605469 -18.04882812 51.36523438 C-17.30955078 51.71263672 -16.57027344 52.06003906 -15.80859375 52.41796875 C-15.13755615 52.73403076 -14.46651855 53.05009277 -13.77514648 53.37573242 C-11.79610271 54.23753654 -11.79610271 54.23753654 -8.9375 54.0625 C-8.15707358 52.28113302 -8.15707358 52.28113302 -7.9375 50.0625 C-12.04660807 42.6521763 -19.38202533 34.84023733 -26.9375 31.0625 Z M-92.48828125 34.28515625 C-97.95620839 37.92786302 -103.07815067 41.63509283 -107.9375 46.0625 C-105.00560006 48.45323149 -102.21606712 49.90357307 -98.6875 51.25 C-97.12 51.848125 -95.5525 52.44625 -93.9375 53.0625 C-91.2975 46.7925 -88.6575 40.5225 -85.9375 34.0625 C-89.77519355 32.65113122 -89.77519355 32.65113122 -92.48828125 34.28515625 Z M-73.9375 40.0625 C-75.27820318 42.66310504 -76.61023354 45.26754916 -77.9375 47.875 C-78.3190625 48.61298828 -78.700625 49.35097656 -79.09375 50.11132812 C-79.4546875 50.82353516 -79.815625 51.53574219 -80.1875 52.26953125 C-80.52265625 52.9241333 -80.8578125 53.57873535 -81.203125 54.25317383 C-82.12554263 56.20034549 -82.12554263 56.20034549 -81.9375 59.0625 C-78.50771912 60.76603355 -75.06757937 62.44750046 -71.625 64.125 C-70.64853516 64.61033203 -69.67207031 65.09566406 -68.66601562 65.59570312 C-67.25932617 66.27729492 -67.25932617 66.27729492 -65.82421875 66.97265625 C-64.96014404 67.39683838 -64.09606934 67.82102051 -63.20581055 68.25805664 C-60.82130437 69.36550963 -60.82130437 69.36550963 -57.9375 68.0625 C-56.54286199 65.44315887 -55.33817344 62.91028694 -54.1875 60.1875 C-53.85878906 59.45402344 -53.53007812 58.72054687 -53.19140625 57.96484375 C-51.18470393 53.62797797 -51.18470393 53.62797797 -51.9375 49.0625 C-53.89947169 47.81141789 -53.89947169 47.81141789 -56.33984375 46.80078125 C-57.22994141 46.40439453 -58.12003906 46.00800781 -59.03710938 45.59960938 C-59.97361328 45.19548828 -60.91011719 44.79136719 -61.875 44.375 C-62.80763672 43.95927734 -63.74027344 43.54355469 -64.70117188 43.11523438 C-69.15961746 40.91965513 -69.15961746 40.91965513 -73.9375 40.0625 Z M-38.9375 56.0625 C-40.27707921 58.85121177 -41.60808435 61.64393062 -42.9375 64.4375 C-43.3190625 65.2315625 -43.700625 66.025625 -44.09375 66.84375 C-44.4546875 67.60429688 -44.815625 68.36484375 -45.1875 69.1484375 C-45.52265625 69.8501709 -45.8578125 70.5519043 -46.203125 71.27490234 C-47.06416664 73.04873448 -47.06416664 73.04873448 -46.9375 75.0625 C-43.50453905 76.73863728 -40.06543117 78.40175697 -36.625 80.0625 C-35.64853516 80.53945312 -34.67207031 81.01640625 -33.66601562 81.5078125 C-32.72822266 81.95898438 -31.79042969 82.41015625 -30.82421875 82.875 C-29.96014404 83.29394531 -29.09606934 83.71289062 -28.20581055 84.14453125 C-25.88185185 85.25006882 -25.88185185 85.25006882 -22.9375 85.0625 C-21.59792079 82.27378823 -20.26691565 79.48106938 -18.9375 76.6875 C-18.5559375 75.8934375 -18.174375 75.099375 -17.78125 74.28125 C-17.4203125 73.52070312 -17.059375 72.76015625 -16.6875 71.9765625 C-16.35234375 71.2748291 -16.0171875 70.5730957 -15.671875 69.85009766 C-14.81083336 68.07626552 -14.81083336 68.07626552 -14.9375 66.0625 C-18.55972211 64.38974698 -22.1857166 62.72533749 -25.8125 61.0625 C-26.84503906 60.58554688 -27.87757813 60.10859375 -28.94140625 59.6171875 C-29.92753906 59.16601562 -30.91367187 58.71484375 -31.9296875 58.25 C-32.84089355 57.83105469 -33.75209961 57.41210938 -34.69091797 56.98046875 C-36.84158622 55.93641702 -36.84158622 55.93641702 -38.9375 56.0625 Z M-117.9375 57.0625 C-119.31887335 58.73715856 -120.61896716 60.47939132 -121.875 62.25 C-122.56464844 63.21292969 -123.25429688 64.17585938 -123.96484375 65.16796875 C-127.4886244 69.74020803 -127.4886244 69.74020803 -128.9375 75.0625 C-122.3375 78.0325 -115.7375 81.0025 -108.9375 84.0625 C-107.6175 81.505 -106.2975 78.9475 -104.9375 76.3125 C-104.51984375 75.51360352 -104.1021875 74.71470703 -103.671875 73.89160156 C-103.18460937 72.93205566 -103.18460937 72.93205566 -102.6875 71.953125 C-102.35234375 71.30375977 -102.0171875 70.65439453 -101.671875 69.98535156 C-100.69964375 67.78276149 -100.69964375 67.78276149 -100.9375 64.0625 C-103.39370851 62.89116942 -105.85224917 61.72528278 -108.3125 60.5625 C-109.01117188 60.22863281 -109.70984375 59.89476563 -110.4296875 59.55078125 C-114.02577999 57.71040602 -114.02577999 57.71040602 -117.9375 57.0625 Z M-88.9375 71.0625 C-90.27707921 73.85121177 -91.60808435 76.64393062 -92.9375 79.4375 C-93.3190625 80.2315625 -93.700625 81.025625 -94.09375 81.84375 C-94.4546875 82.60429688 -94.815625 83.36484375 -95.1875 84.1484375 C-95.52265625 84.8501709 -95.8578125 85.5519043 -96.203125 86.27490234 C-97.06416664 88.04873448 -97.06416664 88.04873448 -96.9375 90.0625 C-93.31527789 91.73525302 -89.6892834 93.39966251 -86.0625 95.0625 C-85.02996094 95.53945312 -83.99742187 96.01640625 -82.93359375 96.5078125 C-81.94746094 96.95898438 -80.96132813 97.41015625 -79.9453125 97.875 C-79.03410645 98.29394531 -78.12290039 98.71289062 -77.18408203 99.14453125 C-75.03341378 100.18858298 -75.03341378 100.18858298 -72.9375 100.0625 C-71.56728206 97.29932377 -70.21919824 94.52591522 -68.875 91.75 C-68.48505859 90.96431641 -68.09511719 90.17863281 -67.69335938 89.36914062 C-67.32919922 88.61181641 -66.96503906 87.85449219 -66.58984375 87.07421875 C-66.07925415 86.02947388 -66.07925415 86.02947388 -65.55834961 84.96362305 C-64.66848049 82.87770956 -64.66848049 82.87770956 -65.9375 80.0625 C-67.88272382 78.81159791 -67.88272382 78.81159791 -70.3046875 77.80078125 C-71.19027344 77.40439453 -72.07585937 77.00800781 -72.98828125 76.59960938 C-73.92027344 76.19548828 -74.85226562 75.79136719 -75.8125 75.375 C-76.73675781 74.95927734 -77.66101563 74.54355469 -78.61328125 74.11523438 C-83.58852004 71.79182394 -83.58852004 71.79182394 -88.9375 71.0625 Z M-2.9375 72.0625 C-4.25245542 74.66545276 -5.56454986 77.26978033 -6.875 79.875 C-7.24818359 80.61298828 -7.62136719 81.35097656 -8.00585938 82.11132812 C-8.36357422 82.82353516 -8.72128906 83.53574219 -9.08984375 84.26953125 C-9.41976318 84.9241333 -9.74968262 85.57873535 -10.08959961 86.25317383 C-11.05583679 88.22380621 -11.05583679 88.22380621 -11.9375 91.0625 C-9.98164675 92.06734204 -8.02273763 93.06623805 -6.0625 94.0625 C-4.97195313 94.619375 -3.88140625 95.17625 -2.7578125 95.75 C-0.15374918 97.20314094 -0.15374918 97.20314094 2.0625 97.0625 C2.2769997 88.79234476 2.13672976 81.10014031 0.0625 73.0625 C-0.9275 72.7325 -1.9175 72.4025 -2.9375 72.0625 Z M-135.9375 87.0625 C-137.9175 93.0025 -139.8975 98.9425 -141.9375 105.0625 C-139.36499207 107.63500793 -138.28340373 108.55583682 -135.14453125 109.88671875 C-134.43232422 110.19287109 -133.72011719 110.49902344 -132.98632812 110.81445312 C-132.24833984 111.12318359 -131.51035156 111.43191406 -130.75 111.75 C-129.62561523 112.23049805 -129.62561523 112.23049805 -128.47851562 112.72070312 C-126.63424768 113.50774741 -124.7862286 114.28599144 -122.9375 115.0625 C-121.59472268 112.2961466 -120.26494772 109.52373789 -118.9375 106.75 C-118.5559375 105.96431641 -118.174375 105.17863281 -117.78125 104.36914062 C-117.4203125 103.61181641 -117.059375 102.85449219 -116.6875 102.07421875 C-116.18476563 101.02947388 -116.18476563 101.02947388 -115.671875 99.96362305 C-114.75733234 97.93576062 -114.75733234 97.93576062 -114.9375 95.0625 C-117.68319923 93.71962527 -120.43344266 92.38803004 -123.1875 91.0625 C-124.35345703 90.49015625 -124.35345703 90.49015625 -125.54296875 89.90625 C-126.29707031 89.5453125 -127.05117188 89.184375 -127.828125 88.8125 C-128.51938477 88.47734375 -129.21064453 88.1421875 -129.92285156 87.796875 C-132.20646454 86.83418381 -132.20646454 86.83418381 -135.9375 87.0625 Z M-52.9375 87.0625 C-54.09091698 89.28802258 -55.23531159 91.51745969 -56.375 93.75 C-56.70048828 94.37583984 -57.02597656 95.00167969 -57.36132812 95.64648438 C-59.11502313 99.09963639 -60.41510497 102.21443519 -60.9375 106.0625 C-59.92429687 106.53300781 -58.91109375 107.00351563 -57.8671875 107.48828125 C-56.51560425 108.1171429 -55.16404291 108.74605166 -53.8125 109.375 C-53.14734375 109.68373047 -52.4821875 109.99246094 -51.796875 110.31054688 C-51.13945312 110.61669922 -50.48203125 110.92285156 -49.8046875 111.23828125 C-49.15209961 111.54072754 -48.49951172 111.84317383 -47.82714844 112.15478516 C-46.06808357 112.99977265 -44.34810471 113.92483149 -42.6328125 114.85546875 C-39.92343308 116.43356071 -39.92343308 116.43356071 -36.9375 115.0625 C-35.78393316 113.26232455 -35.78393316 113.26232455 -34.89453125 111.02734375 C-34.36762695 109.81401367 -34.36762695 109.81401367 -33.83007812 108.57617188 C-33.47365234 107.72603516 -33.11722656 106.87589844 -32.75 106 C-32.19795898 104.71899414 -32.19795898 104.71899414 -31.63476562 103.41210938 C-30.7259879 101.29949623 -29.82743798 99.18310231 -28.9375 97.0625 C-32.55972211 95.38974698 -36.1857166 93.72533749 -39.8125 92.0625 C-40.84503906 91.58554688 -41.87757813 91.10859375 -42.94140625 90.6171875 C-43.92753906 90.16601562 -44.91367187 89.71484375 -45.9296875 89.25 C-46.84089355 88.83105469 -47.75209961 88.41210938 -48.69091797 87.98046875 C-50.84158622 86.93641702 -50.84158622 86.93641702 -52.9375 87.0625 Z M-102.9375 101.0625 C-104.27684716 104.01814708 -105.60794247 106.9774378 -106.9375 109.9375 C-107.3190625 110.77925781 -107.700625 111.62101562 -108.09375 112.48828125 C-108.4546875 113.29394531 -108.815625 114.09960938 -109.1875 114.9296875 C-109.52265625 115.67331543 -109.8578125 116.41694336 -110.203125 117.18310547 C-111.05881741 119.03667611 -111.05881741 119.03667611 -110.9375 121.0625 C-103.3475 124.3625 -95.7575 127.6625 -87.9375 131.0625 C-86.638125 128.484375 -85.33875 125.90625 -84 123.25 C-83.59144775 122.44199951 -83.18289551 121.63399902 -82.76196289 120.80151367 C-82.4396167 120.15931885 -82.11727051 119.51712402 -81.78515625 118.85546875 C-81.45523682 118.2008667 -81.12531738 117.54626465 -80.78540039 116.87182617 C-79.81916321 114.90119379 -79.81916321 114.90119379 -78.9375 112.0625 C-86.81542285 108.02137531 -94.64193459 104.19045894 -102.9375 101.0625 Z M-17.9375 103.0625 C-21.8975 111.9725 -21.8975 111.9725 -25.9375 121.0625 C-23.39299888 123.60700112 -22.30771238 124.54933549 -19.21484375 125.88671875 C-18.51166016 126.19287109 -17.80847656 126.49902344 -17.08398438 126.81445312 C-16.35501953 127.12318359 -15.62605469 127.43191406 -14.875 127.75 C-13.77575195 128.23049805 -13.77575195 128.23049805 -12.65429688 128.72070312 C-8.93193599 130.44994772 -8.93193599 130.44994772 -4.9375 131.0625 C-4.07093002 128.31586296 -3.21898214 125.5660757 -2.375 122.8125 C-2.12814453 122.03519531 -1.88128906 121.25789063 -1.62695312 120.45703125 C-1.39814453 119.70292969 -1.16933594 118.94882813 -0.93359375 118.171875 C-0.71888428 117.48061523 -0.5041748 116.78935547 -0.28295898 116.07714844 C0.12677573 113.68765667 -0.01243485 112.3038007 -0.9375 110.0625 C-3.42765086 108.61603692 -5.74879001 107.44252203 -8.375 106.3125 C-9.41624023 105.83876953 -9.41624023 105.83876953 -10.47851562 105.35546875 C-14.06761908 103.64725426 -14.06761908 103.64725426 -17.9375 103.0625 Z M-66.9375 118.0625 C-68.25245542 120.66545276 -69.56454986 123.26978033 -70.875 125.875 C-71.24818359 126.61298828 -71.62136719 127.35097656 -72.00585938 128.11132812 C-72.36357422 128.82353516 -72.72128906 129.53574219 -73.08984375 130.26953125 C-73.41976318 130.9241333 -73.74968262 131.57873535 -74.08959961 132.25317383 C-75.05583679 134.22380621 -75.05583679 134.22380621 -75.9375 137.0625 C-72.34062101 138.7658629 -68.73396081 140.44740589 -65.125 142.125 C-64.10083984 142.61033203 -63.07667969 143.09566406 -62.02148438 143.59570312 C-61.03857422 144.05009766 -60.05566406 144.50449219 -59.04296875 144.97265625 C-58.13699951 145.39683838 -57.23103027 145.82102051 -56.29760742 146.25805664 C-53.83288364 147.36395358 -53.83288364 147.36395358 -50.9375 146.0625 C-49.57246638 143.42304527 -48.38268502 140.86094273 -47.25 138.125 C-46.76950195 137.0122168 -46.76950195 137.0122168 -46.27929688 135.87695312 C-44.55121643 132.10398415 -44.55121643 132.10398415 -43.9375 128.0625 C-47.39283314 126.38955993 -50.85223993 124.72522237 -54.3125 123.0625 C-55.29734375 122.58554688 -56.2821875 122.10859375 -57.296875 121.6171875 C-58.23789062 121.16601562 -59.17890625 120.71484375 -60.1484375 120.25 C-61.01774902 119.83105469 -61.88706055 119.41210938 -62.78271484 118.98046875 C-64.85380306 117.93185644 -64.85380306 117.93185644 -66.9375 118.0625 Z M-143.9375 120.0625 C-145.14012933 123.670388 -145.06997114 126.63468762 -145.0625 130.4375 C-145.06507813 131.74460938 -145.06765625 133.05171875 -145.0703125 134.3984375 C-145.02648437 135.60757813 -144.98265625 136.81671875 -144.9375 138.0625 C-144.91429687 138.98289063 -144.89109375 139.90328125 -144.8671875 140.8515625 C-144.03555694 143.4953301 -144.03555694 143.4953301 -140.375 144.875 C-139.240625 145.266875 -138.10625 145.65875 -136.9375 146.0625 C-135.59815284 143.10685292 -134.26705753 140.1475622 -132.9375 137.1875 C-132.5559375 136.34574219 -132.174375 135.50398437 -131.78125 134.63671875 C-131.4203125 133.83105469 -131.059375 133.02539062 -130.6875 132.1953125 C-130.18476563 131.07987061 -130.18476563 131.07987061 -129.671875 129.94189453 C-128.81618259 128.08832389 -128.81618259 128.08832389 -128.9375 126.0625 C-131.06032669 125.05789469 -133.18583021 124.05894398 -135.3125 123.0625 C-136.49585938 122.505625 -137.67921875 121.94875 -138.8984375 121.375 C-141.69178575 119.93033959 -141.69178575 119.93033959 -143.9375 120.0625 Z M-116.9375 132.0625 C-118.28027732 134.8288534 -119.61005228 137.60126211 -120.9375 140.375 C-121.3190625 141.16068359 -121.700625 141.94636719 -122.09375 142.75585938 C-122.4546875 143.51318359 -122.815625 144.27050781 -123.1875 145.05078125 C-123.69023437 146.09552612 -123.69023437 146.09552612 -124.203125 147.16137695 C-125.11766766 149.18923938 -125.11766766 149.18923938 -124.9375 152.0625 C-117.6775 155.3625 -110.4175 158.6625 -102.9375 162.0625 C-99.85050631 158.97550631 -98.52171035 156.54718281 -96.6875 152.625 C-96.14609375 151.49191406 -95.6046875 150.35882813 -95.046875 149.19140625 C-93.9000223 145.95679705 -93.60545392 145.10571878 -94.9375 142.0625 C-96.99159822 140.58980869 -96.99159822 140.58980869 -99.59375 139.484375 C-101.00333984 138.82695312 -101.00333984 138.82695312 -102.44140625 138.15625 C-103.43011719 137.7128125 -104.41882813 137.269375 -105.4375 136.8125 C-106.42621094 136.35359375 -107.41492188 135.8946875 -108.43359375 135.421875 C-112.52981732 133.1670558 -112.52981732 133.1670558 -116.9375 132.0625 Z M-31.9375 134.0625 C-33.30771794 136.82567623 -34.65580176 139.59908478 -36 142.375 C-36.38994141 143.16068359 -36.77988281 143.94636719 -37.18164062 144.75585938 C-37.54580078 145.51318359 -37.90996094 146.27050781 -38.28515625 147.05078125 C-38.79574585 148.09552612 -38.79574585 148.09552612 -39.31665039 149.16137695 C-40.20651951 151.24729044 -40.20651951 151.24729044 -38.9375 154.0625 C-36.48678471 155.42823274 -34.1154901 156.61349232 -31.5625 157.75 C-30.53382813 158.23049805 -30.53382813 158.23049805 -29.484375 158.72070312 C-26.48049018 160.09115252 -24.27523084 161.0625 -20.9375 161.0625 C-19.58870801 159.60382133 -19.58870801 159.60382133 -18.45703125 157.6328125 C-18.01552734 156.91996094 -17.57402344 156.20710938 -17.11914062 155.47265625 C-16.66732422 154.71855469 -16.21550781 153.96445313 -15.75 153.1875 C-15.28658203 152.44113281 -14.82316406 151.69476563 -14.34570312 150.92578125 C-11.8381147 147.24765169 -11.8381147 147.24765169 -10.9375 143.0625 C-14.05952006 141.55623883 -17.18558399 140.05856757 -20.3125 138.5625 C-21.20195312 138.13324219 -22.09140625 137.70398438 -23.0078125 137.26171875 C-23.85859375 136.85566406 -24.709375 136.44960937 -25.5859375 136.03125 C-26.37145996 135.65419922 -27.15698242 135.27714844 -27.96630859 134.88867188 C-29.8887028 133.93365169 -29.8887028 133.93365169 -31.9375 134.0625 Z M-81.9375 149.0625 C-83.27707921 151.85121177 -84.60808435 154.64393062 -85.9375 157.4375 C-86.3190625 158.2315625 -86.700625 159.025625 -87.09375 159.84375 C-87.4546875 160.60429687 -87.815625 161.36484375 -88.1875 162.1484375 C-88.52265625 162.8501709 -88.8578125 163.5519043 -89.203125 164.27490234 C-90.06416664 166.04873448 -90.06416664 166.04873448 -89.9375 168.0625 C-86.31527789 169.73525302 -82.6892834 171.39966251 -79.0625 173.0625 C-78.02996094 173.53945312 -76.99742187 174.01640625 -75.93359375 174.5078125 C-74.94746094 174.95898438 -73.96132813 175.41015625 -72.9453125 175.875 C-72.03410645 176.29394531 -71.12290039 176.71289062 -70.18408203 177.14453125 C-68.03341378 178.18858298 -68.03341378 178.18858298 -65.9375 178.0625 C-64.59792079 175.27378823 -63.26691565 172.48106938 -61.9375 169.6875 C-61.5559375 168.8934375 -61.174375 168.099375 -60.78125 167.28125 C-60.4203125 166.52070313 -60.059375 165.76015625 -59.6875 164.9765625 C-59.35234375 164.2748291 -59.0171875 163.5730957 -58.671875 162.85009766 C-57.81083336 161.07626552 -57.81083336 161.07626552 -57.9375 159.0625 C-61.37046095 157.38636272 -64.80956883 155.72324303 -68.25 154.0625 C-69.22646484 153.58554688 -70.20292969 153.10859375 -71.20898438 152.6171875 C-72.61567383 151.94042969 -72.61567383 151.94042969 -74.05078125 151.25 C-74.91485596 150.83105469 -75.77893066 150.41210938 -76.66918945 149.98046875 C-78.99314815 148.87493118 -78.99314815 148.87493118 -81.9375 149.0625 Z M-130.9375 163.0625 C-132.94917681 165.96436133 -134.3366789 168.56116325 -134.9375 172.0625 C-133.33321456 176.01335221 -130.78405905 178.92558155 -127.9375 182.0625 C-127.32261719 182.74957031 -126.70773437 183.43664062 -126.07421875 184.14453125 C-122.94583676 187.43939033 -119.89807915 189.79834639 -115.9375 192.0625 C-114.57104299 189.46413864 -113.21919331 186.85984444 -111.875 184.25 C-111.48505859 183.51201172 -111.09511719 182.77402344 -110.69335938 182.01367188 C-110.32919922 181.30146484 -109.96503906 180.58925781 -109.58984375 179.85546875 C-109.24945068 179.2008667 -108.90905762 178.54626465 -108.55834961 177.87182617 C-107.66562283 175.86643888 -107.66562283 175.86643888 -108.9375 173.0625 C-111.01308625 171.71620102 -111.01308625 171.71620102 -113.59375 170.58203125 C-114.53347656 170.14052734 -115.47320312 169.69902344 -116.44140625 169.24414062 C-117.92447266 168.56641602 -117.92447266 168.56641602 -119.4375 167.875 C-120.42621094 167.41158203 -121.41492188 166.94816406 -122.43359375 166.47070312 C-126.52765156 164.18727587 -126.52765156 164.18727587 -130.9375 163.0625 Z M-45.9375 165.0625 C-47.30657416 167.63887588 -48.65778455 170.22218104 -50 172.8125 C-50.38994141 173.54210937 -50.77988281 174.27171875 -51.18164062 175.0234375 C-51.54580078 175.73242188 -51.90996094 176.44140625 -52.28515625 177.171875 C-52.62554932 177.82124023 -52.96594238 178.47060547 -53.31665039 179.13964844 C-54.08936406 181.53284265 -53.87361595 182.747312 -52.9375 185.0625 C-50.69484342 186.64814771 -50.69484342 186.64814771 -47.9375 187.0625 C-45.64756337 186.02709109 -45.64756337 186.02709109 -43.625 184.125 C-42.85671875 183.4753125 -42.0884375 182.825625 -41.296875 182.15625 C-40.12898438 181.11984375 -40.12898438 181.11984375 -38.9375 180.0625 C-37.76960938 179.05703125 -37.76960938 179.05703125 -36.578125 178.03125 C-34.68265306 176.39119626 -32.80381251 174.73557034 -30.9375 173.0625 C-33.4274148 170.1745376 -36.09644659 168.89768573 -39.5625 167.375 C-40.54476563 166.93800781 -41.52703125 166.50101563 -42.5390625 166.05078125 C-44.65925232 164.99900383 -44.65925232 164.99900383 -45.9375 165.0625 Z M-95.9375 180.0625 C-98.5775 185.6725 -101.2175 191.2825 -103.9375 197.0625 C-98.2226299 199.91993505 -93.73938472 200.20014029 -87.375 200.1875 C-85.42400391 200.19136719 -85.42400391 200.19136719 -83.43359375 200.1953125 C-79.56150138 200.10165088 -79.56150138 200.10165088 -75.9375 199.0625 C-74.58647007 196.9904446 -74.58647007 196.9904446 -73.6875 194.5 C-73.35234375 193.67371094 -73.0171875 192.84742188 -72.671875 191.99609375 C-72.42953125 191.35800781 -72.1871875 190.71992188 -71.9375 190.0625 C-75.55972211 188.38974698 -79.1857166 186.72533749 -82.8125 185.0625 C-83.84503906 184.58554688 -84.87757813 184.10859375 -85.94140625 183.6171875 C-86.92753906 183.16601562 -87.91367187 182.71484375 -88.9296875 182.25 C-89.84089355 181.83105469 -90.75209961 181.41210938 -91.69091797 180.98046875 C-93.84158622 179.93641702 -93.84158622 179.93641702 -95.9375 180.0625 Z M-218.9375 364.0625 C-219.63460731 365.34900706 -220.31992876 366.64190665 -221 367.9375 C-221.38285156 368.65679687 -221.76570312 369.37609375 -222.16015625 370.1171875 C-222.41667969 370.75914062 -222.67320312 371.40109375 -222.9375 372.0625 C-222.6075 372.7225 -222.2775 373.3825 -221.9375 374.0625 C-221.34582031 373.78535156 -220.75414062 373.50820313 -220.14453125 373.22265625 C-212.29602373 369.62489016 -212.29602373 369.62489016 -207.9375 369.0625 C-213.01802449 365.3293148 -213.01802449 365.3293148 -218.9375 364.0625 Z " fill="#294368" transform="translate(468.9375,34.9375)"/>
<path d="M0 0 C4.38418316 3.28999823 8.39097167 6.88952433 12.30078125 10.7265625 C13.24244141 11.63148437 13.24244141 11.63148437 14.203125 12.5546875 C23.50749476 22.2599258 28.24649122 34.88947221 31.30078125 47.7265625 C31.65785156 48.87253906 32.01492188 50.01851562 32.3828125 51.19921875 C33.96758564 57.5756449 33.6511284 64.19841156 33.61328125 70.7265625 C33.61046143 71.42208221 33.6076416 72.11760193 33.60473633 72.834198 C33.39510178 107.15938353 19.27542891 140.03122712 -5.17919922 164.28857422 C-23.8872021 181.98695793 -46.47255534 192.85607724 -72.43286133 192.42016602 C-90.62514782 191.62375147 -105.09496846 183.83414392 -117.69921875 170.7265625 C-131.93875175 153.84725867 -138.13514871 133.67108497 -137.94921875 111.8515625 C-137.94245117 110.70260498 -137.93568359 109.55364746 -137.92871094 108.36987305 C-137.83403836 100.62268354 -137.47616058 93.29125771 -135.69921875 85.7265625 C-135.44269531 84.57027344 -135.18617188 83.41398437 -134.921875 82.22265625 C-127.15933343 50.27296796 -108.16128504 21.12062238 -80.1484375 3.43359375 C-56.10858803 -11.11570064 -24.65669029 -16.16152809 0 0 Z M-47.69921875 3.7265625 C-48.02921875 5.0465625 -48.35921875 6.3665625 -48.69921875 7.7265625 C-41.43921875 11.0265625 -34.17921875 14.3265625 -26.69921875 17.7265625 C-23.78404456 14.81138831 -22.91848621 13.27427265 -21.51171875 9.5390625 C-21.16753906 8.63800781 -20.82335937 7.73695312 -20.46875 6.80859375 C-20.08783203 5.77798828 -20.08783203 5.77798828 -19.69921875 4.7265625 C-25.1386954 2.91340362 -30.23530171 2.53389621 -35.94921875 2.5390625 C-36.64660156 2.53841797 -37.34398437 2.53777344 -38.0625 2.53710938 C-41.4087103 2.57257018 -44.49989616 2.6958529 -47.69921875 3.7265625 Z M-7.69921875 10.7265625 C-9.67921875 14.6865625 -11.65921875 18.6465625 -13.69921875 22.7265625 C-9.62897429 25.77924584 -5.71216802 27.77885284 -1.13671875 29.9140625 C-0.36908203 30.28208984 0.39855469 30.65011719 1.18945312 31.02929688 C1.92873047 31.37669922 2.66800781 31.72410156 3.4296875 32.08203125 C4.1007251 32.39809326 4.7717627 32.71415527 5.46313477 33.03979492 C7.44217854 33.90159904 7.44217854 33.90159904 10.30078125 33.7265625 C11.08120767 31.94519552 11.08120767 31.94519552 11.30078125 29.7265625 C7.19167318 22.3162388 -0.14374408 14.50429983 -7.69921875 10.7265625 Z M-73.25 13.94921875 C-78.71792714 17.59192552 -83.83986942 21.29915533 -88.69921875 25.7265625 C-85.76731881 28.11729399 -82.97778587 29.56763557 -79.44921875 30.9140625 C-77.88171875 31.5121875 -76.31421875 32.1103125 -74.69921875 32.7265625 C-72.05921875 26.4565625 -69.41921875 20.1865625 -66.69921875 13.7265625 C-70.5369123 12.31519372 -70.5369123 12.31519372 -73.25 13.94921875 Z M-54.69921875 19.7265625 C-56.03992193 22.32716754 -57.37195229 24.93161166 -58.69921875 27.5390625 C-59.08078125 28.27705078 -59.46234375 29.01503906 -59.85546875 29.77539062 C-60.21640625 30.48759766 -60.57734375 31.19980469 -60.94921875 31.93359375 C-61.284375 32.5881958 -61.61953125 33.24279785 -61.96484375 33.91723633 C-62.88726138 35.86440799 -62.88726138 35.86440799 -62.69921875 38.7265625 C-59.26943787 40.43009605 -55.82929812 42.11156296 -52.38671875 43.7890625 C-51.41025391 44.27439453 -50.43378906 44.75972656 -49.42773438 45.25976562 C-48.02104492 45.94135742 -48.02104492 45.94135742 -46.5859375 46.63671875 C-45.72186279 47.06090088 -44.85778809 47.48508301 -43.9675293 47.92211914 C-41.58302312 49.02957213 -41.58302312 49.02957213 -38.69921875 47.7265625 C-37.30458074 45.10722137 -36.09989219 42.57434944 -34.94921875 39.8515625 C-34.62050781 39.11808594 -34.29179687 38.38460937 -33.953125 37.62890625 C-31.94642268 33.29204047 -31.94642268 33.29204047 -32.69921875 28.7265625 C-34.66119044 27.47548039 -34.66119044 27.47548039 -37.1015625 26.46484375 C-37.99166016 26.06845703 -38.88175781 25.67207031 -39.79882812 25.26367188 C-40.73533203 24.85955078 -41.67183594 24.45542969 -42.63671875 24.0390625 C-43.56935547 23.62333984 -44.50199219 23.20761719 -45.46289062 22.77929688 C-49.92133621 20.58371763 -49.92133621 20.58371763 -54.69921875 19.7265625 Z M-19.69921875 35.7265625 C-21.03879796 38.51527427 -22.3698031 41.30799312 -23.69921875 44.1015625 C-24.08078125 44.895625 -24.46234375 45.6896875 -24.85546875 46.5078125 C-25.21640625 47.26835938 -25.57734375 48.02890625 -25.94921875 48.8125 C-26.284375 49.5142334 -26.61953125 50.2159668 -26.96484375 50.93896484 C-27.82588539 52.71279698 -27.82588539 52.71279698 -27.69921875 54.7265625 C-24.2662578 56.40269978 -20.82714992 58.06581947 -17.38671875 59.7265625 C-16.41025391 60.20351562 -15.43378906 60.68046875 -14.42773438 61.171875 C-13.48994141 61.62304688 -12.55214844 62.07421875 -11.5859375 62.5390625 C-10.72186279 62.95800781 -9.85778809 63.37695312 -8.9675293 63.80859375 C-6.6435706 64.91413132 -6.6435706 64.91413132 -3.69921875 64.7265625 C-2.35963954 61.93785073 -1.0286344 59.14513188 0.30078125 56.3515625 C0.68234375 55.5575 1.06390625 54.7634375 1.45703125 53.9453125 C1.81796875 53.18476562 2.17890625 52.42421875 2.55078125 51.640625 C2.8859375 50.9388916 3.22109375 50.2371582 3.56640625 49.51416016 C4.42744789 47.74032802 4.42744789 47.74032802 4.30078125 45.7265625 C0.67855914 44.05380948 -2.94743535 42.38939999 -6.57421875 40.7265625 C-7.60675781 40.24960938 -8.63929688 39.77265625 -9.703125 39.28125 C-10.68925781 38.83007812 -11.67539062 38.37890625 -12.69140625 37.9140625 C-13.6026123 37.49511719 -14.51381836 37.07617188 -15.45263672 36.64453125 C-17.60330497 35.60047952 -17.60330497 35.60047952 -19.69921875 35.7265625 Z M-98.69921875 36.7265625 C-100.0805921 38.40122106 -101.38068591 40.14345382 -102.63671875 41.9140625 C-103.32636719 42.87699219 -104.01601563 43.83992188 -104.7265625 44.83203125 C-108.25034315 49.40427053 -108.25034315 49.40427053 -109.69921875 54.7265625 C-103.09921875 57.6965625 -96.49921875 60.6665625 -89.69921875 63.7265625 C-88.37921875 61.1690625 -87.05921875 58.6115625 -85.69921875 55.9765625 C-85.2815625 55.17766602 -84.86390625 54.37876953 -84.43359375 53.55566406 C-83.94632812 52.59611816 -83.94632812 52.59611816 -83.44921875 51.6171875 C-83.1140625 50.96782227 -82.77890625 50.31845703 -82.43359375 49.64941406 C-81.4613625 47.44682399 -81.4613625 47.44682399 -81.69921875 43.7265625 C-84.15542726 42.55523192 -86.61396792 41.38934528 -89.07421875 40.2265625 C-89.77289063 39.89269531 -90.4715625 39.55882812 -91.19140625 39.21484375 C-94.78749874 37.37446852 -94.78749874 37.37446852 -98.69921875 36.7265625 Z M-69.69921875 50.7265625 C-71.03879796 53.51527427 -72.3698031 56.30799312 -73.69921875 59.1015625 C-74.08078125 59.895625 -74.46234375 60.6896875 -74.85546875 61.5078125 C-75.21640625 62.26835938 -75.57734375 63.02890625 -75.94921875 63.8125 C-76.284375 64.5142334 -76.61953125 65.2159668 -76.96484375 65.93896484 C-77.82588539 67.71279698 -77.82588539 67.71279698 -77.69921875 69.7265625 C-74.07699664 71.39931552 -70.45100215 73.06372501 -66.82421875 74.7265625 C-65.79167969 75.20351562 -64.75914062 75.68046875 -63.6953125 76.171875 C-62.70917969 76.62304688 -61.72304688 77.07421875 -60.70703125 77.5390625 C-59.7958252 77.95800781 -58.88461914 78.37695312 -57.94580078 78.80859375 C-55.79513253 79.85264548 -55.79513253 79.85264548 -53.69921875 79.7265625 C-52.32900081 76.96338627 -50.98091699 74.18997772 -49.63671875 71.4140625 C-49.24677734 70.62837891 -48.85683594 69.84269531 -48.45507812 69.03320312 C-48.09091797 68.27587891 -47.72675781 67.51855469 -47.3515625 66.73828125 C-46.8409729 65.69353638 -46.8409729 65.69353638 -46.32006836 64.62768555 C-45.43019924 62.54177206 -45.43019924 62.54177206 -46.69921875 59.7265625 C-48.64444257 58.47566041 -48.64444257 58.47566041 -51.06640625 57.46484375 C-51.95199219 57.06845703 -52.83757812 56.67207031 -53.75 56.26367188 C-54.68199219 55.85955078 -55.61398437 55.45542969 -56.57421875 55.0390625 C-57.49847656 54.62333984 -58.42273438 54.20761719 -59.375 53.77929688 C-64.35023879 51.45588644 -64.35023879 51.45588644 -69.69921875 50.7265625 Z M16.30078125 51.7265625 C14.98582583 54.32951526 13.67373139 56.93384283 12.36328125 59.5390625 C11.99009766 60.27705078 11.61691406 61.01503906 11.23242188 61.77539062 C10.87470703 62.48759766 10.51699219 63.19980469 10.1484375 63.93359375 C9.81851807 64.5881958 9.48859863 65.24279785 9.14868164 65.91723633 C8.18244446 67.88786871 8.18244446 67.88786871 7.30078125 70.7265625 C9.2566345 71.73140454 11.21554362 72.73030055 13.17578125 73.7265625 C14.26632812 74.2834375 15.356875 74.8403125 16.48046875 75.4140625 C19.08453207 76.86720344 19.08453207 76.86720344 21.30078125 76.7265625 C21.51528095 68.45640726 21.37501101 60.76420281 19.30078125 52.7265625 C18.31078125 52.3965625 17.32078125 52.0665625 16.30078125 51.7265625 Z M-116.69921875 66.7265625 C-118.67921875 72.6665625 -120.65921875 78.6065625 -122.69921875 84.7265625 C-120.12671082 87.29907043 -119.04512248 88.21989932 -115.90625 89.55078125 C-115.19404297 89.85693359 -114.48183594 90.16308594 -113.74804688 90.47851562 C-113.01005859 90.78724609 -112.27207031 91.09597656 -111.51171875 91.4140625 C-110.38733398 91.89456055 -110.38733398 91.89456055 -109.24023438 92.38476562 C-107.39596643 93.17180991 -105.54794735 93.95005394 -103.69921875 94.7265625 C-102.35644143 91.9602091 -101.02666647 89.18780039 -99.69921875 86.4140625 C-99.31765625 85.62837891 -98.93609375 84.84269531 -98.54296875 84.03320312 C-98.18203125 83.27587891 -97.82109375 82.51855469 -97.44921875 81.73828125 C-96.94648438 80.69353638 -96.94648438 80.69353638 -96.43359375 79.62768555 C-95.51905109 77.59982312 -95.51905109 77.59982312 -95.69921875 74.7265625 C-98.44491798 73.38368777 -101.19516141 72.05209254 -103.94921875 70.7265625 C-105.11517578 70.15421875 -105.11517578 70.15421875 -106.3046875 69.5703125 C-107.05878906 69.209375 -107.81289063 68.8484375 -108.58984375 68.4765625 C-109.28110352 68.14140625 -109.97236328 67.80625 -110.68457031 67.4609375 C-112.96818329 66.49824631 -112.96818329 66.49824631 -116.69921875 66.7265625 Z M-33.69921875 66.7265625 C-34.85263573 68.95208508 -35.99703034 71.18152219 -37.13671875 73.4140625 C-37.46220703 74.03990234 -37.78769531 74.66574219 -38.12304688 75.31054688 C-39.87674188 78.76369889 -41.17682372 81.87849769 -41.69921875 85.7265625 C-40.68601562 86.19707031 -39.6728125 86.66757813 -38.62890625 87.15234375 C-37.277323 87.7812054 -35.92576166 88.41011416 -34.57421875 89.0390625 C-33.9090625 89.34779297 -33.24390625 89.65652344 -32.55859375 89.97460938 C-31.90117187 90.28076172 -31.24375 90.58691406 -30.56640625 90.90234375 C-29.91381836 91.20479004 -29.26123047 91.50723633 -28.58886719 91.81884766 C-26.82980232 92.66383515 -25.10982346 93.58889399 -23.39453125 94.51953125 C-20.68515183 96.09762321 -20.68515183 96.09762321 -17.69921875 94.7265625 C-16.54565191 92.92638705 -16.54565191 92.92638705 -15.65625 90.69140625 C-15.1293457 89.47807617 -15.1293457 89.47807617 -14.59179688 88.24023438 C-14.23537109 87.39009766 -13.87894531 86.53996094 -13.51171875 85.6640625 C-12.95967773 84.38305664 -12.95967773 84.38305664 -12.39648438 83.07617188 C-11.48770665 80.96355873 -10.58915673 78.84716481 -9.69921875 76.7265625 C-13.32144086 75.05380948 -16.94743535 73.38939999 -20.57421875 71.7265625 C-21.60675781 71.24960938 -22.63929688 70.77265625 -23.703125 70.28125 C-24.68925781 69.83007812 -25.67539062 69.37890625 -26.69140625 68.9140625 C-27.6026123 68.49511719 -28.51381836 68.07617188 -29.45263672 67.64453125 C-31.60330497 66.60047952 -31.60330497 66.60047952 -33.69921875 66.7265625 Z M-83.69921875 80.7265625 C-85.03856591 83.68220958 -86.36966122 86.6415003 -87.69921875 89.6015625 C-88.08078125 90.44332031 -88.46234375 91.28507812 -88.85546875 92.15234375 C-89.21640625 92.95800781 -89.57734375 93.76367188 -89.94921875 94.59375 C-90.284375 95.33737793 -90.61953125 96.08100586 -90.96484375 96.84716797 C-91.82053616 98.70073861 -91.82053616 98.70073861 -91.69921875 100.7265625 C-84.10921875 104.0265625 -76.51921875 107.3265625 -68.69921875 110.7265625 C-67.39984375 108.1484375 -66.10046875 105.5703125 -64.76171875 102.9140625 C-64.3531665 102.10606201 -63.94461426 101.29806152 -63.52368164 100.46557617 C-63.20133545 99.82338135 -62.87898926 99.18118652 -62.546875 98.51953125 C-62.21695557 97.8649292 -61.88703613 97.21032715 -61.54711914 96.53588867 C-60.58088196 94.56525629 -60.58088196 94.56525629 -59.69921875 91.7265625 C-67.5771416 87.68543781 -75.40365334 83.85452144 -83.69921875 80.7265625 Z M1.30078125 82.7265625 C-2.65921875 91.6365625 -2.65921875 91.6365625 -6.69921875 100.7265625 C-4.15471763 103.27106362 -3.06943113 104.21339799 0.0234375 105.55078125 C0.72662109 105.85693359 1.42980469 106.16308594 2.15429688 106.47851562 C2.88326172 106.78724609 3.61222656 107.09597656 4.36328125 107.4140625 C5.4625293 107.89456055 5.4625293 107.89456055 6.58398438 108.38476562 C10.30634526 110.11401022 10.30634526 110.11401022 14.30078125 110.7265625 C15.16735123 107.97992546 16.01929911 105.2301382 16.86328125 102.4765625 C17.11013672 101.69925781 17.35699219 100.92195313 17.61132812 100.12109375 C17.84013672 99.36699219 18.06894531 98.61289063 18.3046875 97.8359375 C18.51939697 97.14467773 18.73410645 96.45341797 18.95532227 95.74121094 C19.36505698 93.35171917 19.2258464 91.9678632 18.30078125 89.7265625 C15.81063039 88.28009942 13.48949124 87.10658453 10.86328125 85.9765625 C9.82204102 85.50283203 9.82204102 85.50283203 8.75976562 85.01953125 C5.17066217 83.31131676 5.17066217 83.31131676 1.30078125 82.7265625 Z M-47.69921875 97.7265625 C-49.01417417 100.32951526 -50.32626861 102.93384283 -51.63671875 105.5390625 C-52.00990234 106.27705078 -52.38308594 107.01503906 -52.76757812 107.77539062 C-53.12529297 108.48759766 -53.48300781 109.19980469 -53.8515625 109.93359375 C-54.18148193 110.5881958 -54.51140137 111.24279785 -54.85131836 111.91723633 C-55.81755554 113.88786871 -55.81755554 113.88786871 -56.69921875 116.7265625 C-53.10233976 118.4299254 -49.49567956 120.11146839 -45.88671875 121.7890625 C-44.86255859 122.27439453 -43.83839844 122.75972656 -42.78320312 123.25976562 C-41.80029297 123.71416016 -40.81738281 124.16855469 -39.8046875 124.63671875 C-38.89871826 125.06090088 -37.99274902 125.48508301 -37.05932617 125.92211914 C-34.59460239 127.02801608 -34.59460239 127.02801608 -31.69921875 125.7265625 C-30.33418513 123.08710777 -29.14440377 120.52500523 -28.01171875 117.7890625 C-27.5312207 116.6762793 -27.5312207 116.6762793 -27.04101562 115.54101562 C-25.31293518 111.76804665 -25.31293518 111.76804665 -24.69921875 107.7265625 C-28.15455189 106.05362243 -31.61395868 104.38928487 -35.07421875 102.7265625 C-36.0590625 102.24960938 -37.04390625 101.77265625 -38.05859375 101.28125 C-38.99960937 100.83007812 -39.940625 100.37890625 -40.91015625 99.9140625 C-41.77946777 99.49511719 -42.6487793 99.07617188 -43.54443359 98.64453125 C-45.61552181 97.59591894 -45.61552181 97.59591894 -47.69921875 97.7265625 Z M-124.69921875 99.7265625 C-125.90184808 103.3344505 -125.83168989 106.29875012 -125.82421875 110.1015625 C-125.82679688 111.40867187 -125.829375 112.71578125 -125.83203125 114.0625 C-125.78820312 115.27164063 -125.744375 116.48078125 -125.69921875 117.7265625 C-125.67601562 118.64695312 -125.6528125 119.56734375 -125.62890625 120.515625 C-124.79727569 123.1593926 -124.79727569 123.1593926 -121.13671875 124.5390625 C-120.00234375 124.9309375 -118.86796875 125.3228125 -117.69921875 125.7265625 C-116.35987159 122.77091542 -115.02877628 119.8116247 -113.69921875 116.8515625 C-113.31765625 116.00980469 -112.93609375 115.16804688 -112.54296875 114.30078125 C-112.18203125 113.49511719 -111.82109375 112.68945312 -111.44921875 111.859375 C-110.94648438 110.74393311 -110.94648438 110.74393311 -110.43359375 109.60595703 C-109.57790134 107.75238639 -109.57790134 107.75238639 -109.69921875 105.7265625 C-111.82204544 104.72195719 -113.94754896 103.72300648 -116.07421875 102.7265625 C-117.25757813 102.1696875 -118.4409375 101.6128125 -119.66015625 101.0390625 C-122.4535045 99.59440209 -122.4535045 99.59440209 -124.69921875 99.7265625 Z M-97.69921875 111.7265625 C-99.04199607 114.4929159 -100.37177103 117.26532461 -101.69921875 120.0390625 C-102.08078125 120.82474609 -102.46234375 121.61042969 -102.85546875 122.41992188 C-103.21640625 123.17724609 -103.57734375 123.93457031 -103.94921875 124.71484375 C-104.45195312 125.75958862 -104.45195312 125.75958862 -104.96484375 126.82543945 C-105.87938641 128.85330188 -105.87938641 128.85330188 -105.69921875 131.7265625 C-98.43921875 135.0265625 -91.17921875 138.3265625 -83.69921875 141.7265625 C-80.61222506 138.63956881 -79.2834291 136.21124531 -77.44921875 132.2890625 C-76.9078125 131.15597656 -76.36640625 130.02289063 -75.80859375 128.85546875 C-74.66174105 125.62085955 -74.36717267 124.76978128 -75.69921875 121.7265625 C-77.75331697 120.25387119 -77.75331697 120.25387119 -80.35546875 119.1484375 C-81.76505859 118.49101562 -81.76505859 118.49101562 -83.203125 117.8203125 C-84.19183594 117.376875 -85.18054688 116.9334375 -86.19921875 116.4765625 C-87.18792969 116.01765625 -88.17664063 115.55875 -89.1953125 115.0859375 C-93.29153607 112.8311183 -93.29153607 112.8311183 -97.69921875 111.7265625 Z M-12.69921875 113.7265625 C-14.06943669 116.48973873 -15.41752051 119.26314728 -16.76171875 122.0390625 C-17.15166016 122.82474609 -17.54160156 123.61042969 -17.94335938 124.41992188 C-18.30751953 125.17724609 -18.67167969 125.93457031 -19.046875 126.71484375 C-19.5574646 127.75958862 -19.5574646 127.75958862 -20.07836914 128.82543945 C-20.96823826 130.91135294 -20.96823826 130.91135294 -19.69921875 133.7265625 C-17.24850346 135.09229524 -14.87720885 136.27755482 -12.32421875 137.4140625 C-11.29554688 137.89456055 -11.29554688 137.89456055 -10.24609375 138.38476562 C-7.24220893 139.75521502 -5.03694959 140.7265625 -1.69921875 140.7265625 C-0.35042676 139.26788383 -0.35042676 139.26788383 0.78125 137.296875 C1.22275391 136.58402344 1.66425781 135.87117188 2.11914062 135.13671875 C2.57095703 134.38261719 3.02277344 133.62851563 3.48828125 132.8515625 C3.95169922 132.10519531 4.41511719 131.35882813 4.89257812 130.58984375 C7.40016655 126.91171419 7.40016655 126.91171419 8.30078125 122.7265625 C5.17876119 121.22030133 2.05269726 119.72263007 -1.07421875 118.2265625 C-1.96367187 117.79730469 -2.853125 117.36804688 -3.76953125 116.92578125 C-4.6203125 116.51972656 -5.47109375 116.11367187 -6.34765625 115.6953125 C-7.13317871 115.31826172 -7.91870117 114.94121094 -8.72802734 114.55273438 C-10.65042155 113.59771419 -10.65042155 113.59771419 -12.69921875 113.7265625 Z M-62.69921875 128.7265625 C-64.03879796 131.51527427 -65.3698031 134.30799312 -66.69921875 137.1015625 C-67.08078125 137.895625 -67.46234375 138.6896875 -67.85546875 139.5078125 C-68.21640625 140.26835937 -68.57734375 141.02890625 -68.94921875 141.8125 C-69.284375 142.5142334 -69.61953125 143.2159668 -69.96484375 143.93896484 C-70.82588539 145.71279698 -70.82588539 145.71279698 -70.69921875 147.7265625 C-67.07699664 149.39931552 -63.45100215 151.06372501 -59.82421875 152.7265625 C-58.79167969 153.20351562 -57.75914062 153.68046875 -56.6953125 154.171875 C-55.70917969 154.62304688 -54.72304688 155.07421875 -53.70703125 155.5390625 C-52.7958252 155.95800781 -51.88461914 156.37695312 -50.94580078 156.80859375 C-48.79513253 157.85264548 -48.79513253 157.85264548 -46.69921875 157.7265625 C-45.35963954 154.93785073 -44.0286344 152.14513188 -42.69921875 149.3515625 C-42.31765625 148.5575 -41.93609375 147.7634375 -41.54296875 146.9453125 C-41.18203125 146.18476563 -40.82109375 145.42421875 -40.44921875 144.640625 C-40.1140625 143.9388916 -39.77890625 143.2371582 -39.43359375 142.51416016 C-38.57255211 140.74032802 -38.57255211 140.74032802 -38.69921875 138.7265625 C-42.1321797 137.05042522 -45.57128758 135.38730553 -49.01171875 133.7265625 C-49.98818359 133.24960938 -50.96464844 132.77265625 -51.97070312 132.28125 C-53.37739258 131.60449219 -53.37739258 131.60449219 -54.8125 130.9140625 C-55.67657471 130.49511719 -56.54064941 130.07617188 -57.4309082 129.64453125 C-59.7548669 128.53899368 -59.7548669 128.53899368 -62.69921875 128.7265625 Z M-111.69921875 142.7265625 C-113.71089556 145.62842383 -115.09839765 148.22522575 -115.69921875 151.7265625 C-114.09493331 155.67741471 -111.5457778 158.58964405 -108.69921875 161.7265625 C-108.08433594 162.41363281 -107.46945312 163.10070312 -106.8359375 163.80859375 C-103.70755551 167.10345283 -100.6597979 169.46240889 -96.69921875 171.7265625 C-95.33276174 169.12820114 -93.98091206 166.52390694 -92.63671875 163.9140625 C-92.24677734 163.17607422 -91.85683594 162.43808594 -91.45507812 161.67773438 C-91.09091797 160.96552734 -90.72675781 160.25332031 -90.3515625 159.51953125 C-90.01116943 158.8649292 -89.67077637 158.21032715 -89.32006836 157.53588867 C-88.42734158 155.53050138 -88.42734158 155.53050138 -89.69921875 152.7265625 C-91.774805 151.38026352 -91.774805 151.38026352 -94.35546875 150.24609375 C-95.29519531 149.80458984 -96.23492187 149.36308594 -97.203125 148.90820312 C-98.68619141 148.23047852 -98.68619141 148.23047852 -100.19921875 147.5390625 C-101.18792969 147.07564453 -102.17664063 146.61222656 -103.1953125 146.13476562 C-107.28937031 143.85133837 -107.28937031 143.85133837 -111.69921875 142.7265625 Z M-26.69921875 144.7265625 C-28.06829291 147.30293838 -29.4195033 149.88624354 -30.76171875 152.4765625 C-31.15166016 153.20617187 -31.54160156 153.93578125 -31.94335938 154.6875 C-32.30751953 155.39648438 -32.67167969 156.10546875 -33.046875 156.8359375 C-33.38726807 157.48530273 -33.72766113 158.13466797 -34.07836914 158.80371094 C-34.85108281 161.19690515 -34.6353347 162.4113745 -33.69921875 164.7265625 C-31.45656217 166.31221021 -31.45656217 166.31221021 -28.69921875 166.7265625 C-26.40928212 165.69115359 -26.40928212 165.69115359 -24.38671875 163.7890625 C-23.6184375 163.139375 -22.85015625 162.4896875 -22.05859375 161.8203125 C-20.89070313 160.78390625 -20.89070313 160.78390625 -19.69921875 159.7265625 C-18.53132813 158.72109375 -18.53132813 158.72109375 -17.33984375 157.6953125 C-15.44437181 156.05525876 -13.56553126 154.39963284 -11.69921875 152.7265625 C-14.18913355 149.8386001 -16.85816534 148.56174823 -20.32421875 147.0390625 C-21.30648437 146.60207031 -22.28875 146.16507813 -23.30078125 145.71484375 C-25.42097107 144.66306633 -25.42097107 144.66306633 -26.69921875 144.7265625 Z M-76.69921875 159.7265625 C-79.33921875 165.3365625 -81.97921875 170.9465625 -84.69921875 176.7265625 C-78.98434865 179.58399755 -74.50110347 179.86420279 -68.13671875 179.8515625 C-66.18572266 179.85542969 -66.18572266 179.85542969 -64.1953125 179.859375 C-60.32322013 179.76571338 -60.32322013 179.76571338 -56.69921875 178.7265625 C-55.34818882 176.6545071 -55.34818882 176.6545071 -54.44921875 174.1640625 C-54.1140625 173.33777344 -53.77890625 172.51148438 -53.43359375 171.66015625 C-53.19125 171.02207031 -52.94890625 170.38398438 -52.69921875 169.7265625 C-56.32144086 168.05380948 -59.94743535 166.38939999 -63.57421875 164.7265625 C-64.60675781 164.24960938 -65.63929688 163.77265625 -66.703125 163.28125 C-67.68925781 162.83007812 -68.67539062 162.37890625 -69.69140625 161.9140625 C-70.6026123 161.49511719 -71.51381836 161.07617188 -72.45263672 160.64453125 C-74.60330497 159.60047952 -74.60330497 159.60047952 -76.69921875 159.7265625 Z " fill="#284268" transform="translate(449.69921875,55.2734375)"/>
<path d="M0 0 C5.94505183 0.14154885 9.00338897 2.96936376 13 7 C15.16326369 9.69750119 17.05144591 12.54149436 18.9375 15.4375 C20.07043576 17.13490199 21.20460666 18.83148005 22.33984375 20.52734375 C22.93265137 21.4179248 23.52545898 22.30850586 24.13623047 23.22607422 C27.36203636 28.02717542 30.6855318 32.7598858 34 37.5 C39.39615423 45.23835296 44.75108453 53.00283717 50.06640625 60.796875 C54.34119899 67.05676805 58.66522669 73.28152669 63 79.5 C69.56214736 88.91484669 76.06208679 98.37022921 82.53125 107.84912109 C89.94630967 118.70794351 97.43965323 129.51110374 104.95629883 140.29980469 C109.69253651 147.10405592 114.38880452 153.93418161 119.05712891 160.78515625 C122.71867655 166.15045825 126.42569316 171.4824931 130.14819336 176.80566406 C150.07660056 205.31516146 150.07660056 205.31516146 150.17578125 212.71875 C150.40874718 222.87924124 150.66356649 231.64053102 155 241 C155.36431688 242.32520266 155.70829569 243.65694472 156 245 C155.03900391 245.36351562 155.03900391 245.36351562 154.05859375 245.734375 C148.74615443 247.79284627 143.86664099 250.03769679 139 253 C138.62875 251.824375 138.2575 250.64875 137.875 249.4375 C130.065884 226.29937851 118.33580232 203.61460584 99.1875 187.75 C85.99521096 176.44972884 76.66757078 161.22701275 67 147 C65.82648807 145.28579578 64.65205745 143.57222 63.4765625 141.859375 C61.33216705 138.7338959 59.19305582 135.60492638 57.05859375 132.47265625 C54.98194148 129.42854085 52.88980132 126.39592112 50.78515625 123.37109375 C50.27380127 122.63431396 49.76244629 121.89753418 49.2355957 121.13842773 C48.27225637 119.75175736 47.30611455 118.36702809 46.33666992 116.98461914 C41.8275978 110.48346404 41.8275978 110.48346404 42.30322266 106.39086914 C41.84170015 101.2297692 39.07056634 97.92189147 36.1484375 93.74609375 C35.53795563 92.84995865 34.92747375 91.95382355 34.29849243 91.03053284 C32.33690779 88.15709096 30.35660472 85.29716227 28.375 82.4375 C27.09505292 80.57185561 25.81639448 78.70532644 24.5390625 76.83789062 C22.62618635 74.04209928 20.71184653 71.24741421 18.79095459 68.4571228 C13.56512112 60.86180845 8.44283092 53.20070908 3.37167358 45.50132751 C2.8257254 44.67597 2.27977722 43.85061249 1.71728516 43.00024414 C1.23909332 42.27374161 0.76090149 41.54723907 0.26821899 40.79872131 C-1.6969599 38.01149831 -2.73675994 37.08058369 -6.0625 36.0625 C-7.5165625 35.5365625 -7.5165625 35.5365625 -9 35 C-11.46334656 27.60996033 -10.88517154 18.28572885 -8.0625 11.0390625 C-5.95804362 7.00036312 -3.22560631 3.22560631 0 0 Z " fill="#C59982" transform="translate(119,62)"/>
<path d="M0 0 C0.99193359 0.88365234 0.99193359 0.88365234 2.00390625 1.78515625 C2.98037109 2.62240234 2.98037109 2.62240234 3.9765625 3.4765625 C19.9676044 18.19595097 29.35441274 41.36455522 31.00390625 62.78515625 C31.16274583 66.84865271 31.19445677 70.90631626 31.19140625 74.97265625 C31.19060059 76.08527832 31.18979492 77.19790039 31.18896484 78.34423828 C31.13140811 86.05345443 30.56410922 93.22757732 29.00390625 100.78515625 C28.89433594 101.61402344 28.78476562 102.44289063 28.671875 103.296875 C23.80914445 138.19097447 0.62099981 172.93507089 -27.04296875 193.9609375 C-47.62643941 209.000743 -73.41825565 218.10519916 -99.07666016 214.4921875 C-118.03523713 210.99647963 -134.38669439 199.97981129 -145.99609375 184.78515625 C-163.67822071 158.00193453 -167.79906914 126.30215126 -161.48779297 95.12353516 C-161.24440186 93.9660376 -161.24440186 93.9660376 -160.99609375 92.78515625 C-160.83512207 92.00962402 -160.67415039 91.2340918 -160.50830078 90.43505859 C-152.72231259 54.33230641 -130.15314859 20.48107183 -99.24609375 0.16015625 C-68.88264132 -19.18254941 -29.33962094 -24.58476525 0 0 Z M-119.44189453 32.39892578 C-133.8666392 49.22206071 -143.4591355 68.39832697 -148.99609375 89.78515625 C-149.34027344 90.86667969 -149.68445313 91.94820313 -150.0390625 93.0625 C-156.16079252 116.87478044 -153.08314311 145.29072216 -140.92333984 166.67138672 C-131.5563979 181.93465068 -117.84373855 193.81924797 -100.48828125 198.9609375 C-78.40599986 203.65482995 -56.94274772 198.43882163 -38.00390625 186.8203125 C-33.43041816 183.72578355 -29.16915905 180.39755461 -24.99609375 176.78515625 C-24.238125 176.15996094 -23.48015625 175.53476563 -22.69921875 174.890625 C-1.15324751 156.6508459 15.59050427 125.66901263 18.78417969 97.46630859 C20.99210025 70.5247713 18.93894242 43.2554919 0.76953125 21.73046875 C0.186875 21.08851562 -0.39578125 20.4465625 -0.99609375 19.78515625 C-1.599375 19.10195312 -2.20265625 18.41875 -2.82421875 17.71484375 C-13.29391397 6.52163301 -28.09281021 -0.94060856 -43.5 -1.55078125 C-73.54418893 -2.00509837 -99.2307354 9.83969548 -119.44189453 32.39892578 Z " fill="#A1BCBF" transform="translate(463.99609375,47.21484375)"/>
<path d="M0 0 C1.2375 -0.01417969 2.475 -0.02835938 3.75 -0.04296875 C7 0.1875 7 0.1875 10 2.1875 C9.278125 2.661875 8.55625 3.13625 7.8125 3.625 C2.95635567 8.04948705 -0.09852316 13.65658797 -1 20.1875 C-1.09149942 22.56110253 -1.13004323 24.93713988 -1.125 27.3125 C-1.12757812 28.53195313 -1.13015625 29.75140625 -1.1328125 31.0078125 C-1.14573533 34.21089601 -1.14573533 34.21089601 0 37.1875 C0.86625 37.39375 1.7325 37.6 2.625 37.8125 C10.45948714 41.00432809 15.22316522 51.34329707 19.7109375 58.234375 C20.32337311 59.16743469 20.93580872 60.10049438 21.56680298 61.06182861 C23.50646748 64.01804585 25.44105522 66.97753847 27.375 69.9375 C29.92228015 73.82956971 32.4724789 77.71971565 35.0234375 81.609375 C35.63101395 82.53875885 36.23859039 83.4681427 36.86457825 84.4256897 C39.49355543 88.43482659 42.13699394 92.42306833 44.91674805 96.32958984 C45.3444046 96.93111877 45.77206116 97.53264771 46.212677 98.15240479 C47.31166678 99.68313155 48.42481193 101.20366946 49.53930664 102.72314453 C51.07126138 105.30772603 51.35523966 106.38655437 51.0625 109.3125 C50.96884032 115.11939996 54.15627257 117.97158848 57.64746094 122.40722656 C60.34703687 125.9605312 62.81001653 129.6816999 65.3125 133.375 C66.43982115 135.02883878 67.56742587 136.68248431 68.6953125 138.3359375 C69.24993164 139.15030273 69.80455078 139.96466797 70.37597656 140.80371094 C74.56146092 146.9472872 78.76701538 153.07655725 83 159.1875 C83.41846191 159.79432617 83.83692383 160.40115234 84.26806641 161.02636719 C89.36871073 168.40170385 94.70383968 175.42578036 100.59765625 182.19018555 C104 186.09856629 104 186.09856629 104 187.1875 C100.535 188.1775 100.535 188.1775 97 189.1875 C96.12245809 191.39188833 96.12245809 191.39188833 96 194.1875 C97.98 197.1575 97.98 197.1575 100 200.1875 C87.13 213.0575 74.26 225.9275 61 239.1875 C52.73135748 232.57258598 48.32053827 223.76320474 44.625 214 C44.386604 213.3719043 44.14820801 212.74380859 43.90258789 212.09667969 C40.73684381 203.24768755 39.68502853 194.6782989 39.8125 185.3125 C39.8134668 183.92804688 39.8134668 183.92804688 39.81445312 182.515625 C39.84027581 178.55614607 39.90479178 175.01444703 41 171.1875 C46.55464816 172.08511425 51.94837098 173.08977363 57.3125 174.8125 C60.99171939 175.96481513 64.10886207 176.67389224 68 176.1875 C70.23727979 174.3081372 70.23727979 174.3081372 70.625 171.375 C70.3822752 168.17762439 70.3822752 168.17762439 68.39990234 167.0769043 C67.71879395 166.72539307 67.03768555 166.37388184 66.3359375 166.01171875 C61.46337276 163.12129652 58.99149694 159.53529635 56 154.8125 C54.87644564 153.10581825 53.75137654 151.40013298 52.625 149.6953125 C52.03847656 148.79844727 51.45195312 147.90158203 50.84765625 146.97753906 C47.65289601 142.15331601 44.31959648 137.42626368 41 132.6875 C35.60311678 124.94966102 30.24891018 117.18465508 24.93359375 109.390625 C20.65880101 103.13073195 16.33477331 96.90597331 12 90.6875 C5.45526656 81.29763741 -1.0270834 71.8672014 -7.47851562 62.41308594 C-10.44101428 58.07962352 -13.41979556 53.75732635 -16.3996582 49.43579102 C-17.22031853 48.24414071 -18.03918006 47.05124896 -18.85595703 45.85693359 C-19.95746167 44.24957364 -21.07031048 42.6500057 -22.18359375 41.05078125 C-26.67264791 33.97448727 -26.75498369 27.42707507 -26 19.1875 C-23.6385971 10.96726504 -17.06858373 5.54255159 -10 1.1875 C-6.50953395 0.02401132 -3.67722983 0.01915224 0 0 Z " fill="#9E7B6A" transform="translate(111,59.8125)"/>
<path d="M0 0 C2.96154998 1.33372417 5.03976794 2.79157925 7.32830811 5.08779907 C7.96486832 5.72160995 8.60142853 6.35542084 9.25727844 7.00843811 C9.94420273 7.70255295 10.63112701 8.39666779 11.33886719 9.11181641 C12.07096909 9.84362625 12.80307098 10.5754361 13.55735779 11.329422 C15.97530109 13.74875829 18.38608369 16.17510113 20.796875 18.6015625 C22.47224029 20.28065802 24.14804778 21.95931243 25.82427979 23.63754272 C30.23455502 28.05545362 34.63879113 32.47933781 39.04180908 36.90447998 C43.5359692 41.41909987 48.03579738 45.92806233 52.53515625 50.4375 C61.36233696 59.28612946 70.18314998 68.14107775 79 77 C78.05572146 78.1083714 77.11047289 79.21591642 76.16482544 80.32312012 C75.63854616 80.93997429 75.11226688 81.55682846 74.57003975 82.19237518 C71.01304765 86.2876264 67.17840434 90.12517502 63.36767578 93.98242188 C62.36362363 95.00322465 61.36499369 96.02938622 60.37158203 97.06054688 C58.923648 98.56295013 57.46020309 100.04849524 55.9921875 101.53125 C54.69837158 102.85479492 54.69837158 102.85479492 53.37841797 104.20507812 C51 106 51 106 48.85498047 105.89306641 C46.06229374 104.54854837 43.72911305 102.73118871 41.25 100.875 C23.97238625 88.50346693 3.59207279 83.77525404 -17.4375 83.9375 C-18.55060547 83.94201172 -19.66371094 83.94652344 -20.81054688 83.95117188 C-23.54042101 83.96288807 -26.27018174 83.97929301 -29 84 C-29.38305262 63.46412327 -29.38305262 63.46412327 -27 54 C-26.74347656 52.86691406 -26.48695312 51.73382813 -26.22265625 50.56640625 C-21.66756648 31.77910466 -12.94077942 14.4276514 0 0 Z " fill="#DD8959" transform="translate(46,268)"/>
<path d="M0 0 C5.00619949 4.19529182 9.70815221 8.56871152 14.31225586 13.19873047 C15.3525444 14.23879997 15.3525444 14.23879997 16.41384888 15.29988098 C18.6832284 17.56995171 20.94905495 19.8435333 23.21484375 22.1171875 C24.79645764 23.70066839 26.37829389 25.28392721 27.96034241 26.86697388 C32.10696645 31.01740092 36.25057751 35.1708232 40.39355469 39.32489014 C44.62838222 43.5699796 48.8660712 47.8122105 53.10351562 52.0546875 C61.40513655 60.36700662 69.70357522 68.68249489 78 77 C64.97933375 93.79263603 38.16880768 104.11710969 17.58984375 106.765625 C9.73500142 107.27845475 1.86609154 107.14116615 -6 107 C-6.0093457 106.175 -6.01869141 105.35 -6.02832031 104.5 C-6.11240298 82.40656199 -6.11240298 82.40656199 -11 61 C-11.3609375 59.95714844 -11.721875 58.91429687 -12.09375 57.83984375 C-15.41208597 49.15163301 -20.15118351 40.38283164 -26.30859375 33.37109375 C-28 31 -28 31 -27.76771545 29.03509521 C-26.45532684 25.5561555 -23.61275409 23.25057819 -20.99609375 20.703125 C-20.39821548 20.10949158 -19.80033722 19.51585815 -19.18434143 18.90423584 C-17.27565898 17.01232805 -15.3568046 15.13112501 -13.4375 13.25 C-12.14059164 11.96813998 -10.84435922 10.6855957 -9.54882812 9.40234375 C-6.37367043 6.26023928 -3.18935054 3.12769461 0 0 Z " fill="#CD7A51" transform="translate(133,354)"/>
<path d="M0 0 C1.59811523 0.00676758 1.59811523 0.00676758 3.22851562 0.01367188 C5.83990291 0.02538213 8.45117124 0.04178276 11.0625 0.0625 C11.04678955 0.77680176 11.0310791 1.49110352 11.01489258 2.22705078 C10.45664409 21.38095562 10.45664409 21.38095562 14.0625 40.0625 C14.59037109 41.78919922 14.59037109 41.78919922 15.12890625 43.55078125 C18.87041362 54.84939263 23.92383037 65.23222656 31.875 74.16015625 C33.0625 76.0625 33.0625 76.0625 32.79872131 77.99810791 C31.54550623 81.51216987 28.68058302 83.80673382 26.05859375 86.359375 C25.46071548 86.95300842 24.86283722 87.54664185 24.24684143 88.15826416 C22.33815898 90.05017195 20.4193046 91.93137499 18.5 93.8125 C17.20309164 95.09436002 15.90685922 96.3769043 14.61132812 97.66015625 C11.43617043 100.80226072 8.25185054 103.93480539 5.0625 107.0625 C0.05630051 102.86720818 -4.64565221 98.49378848 -9.24975586 93.86376953 C-10.2900444 92.82370003 -10.2900444 92.82370003 -11.35134888 91.76261902 C-13.6207284 89.49254829 -15.88655495 87.2189667 -18.15234375 84.9453125 C-19.73395764 83.36183161 -21.31579389 81.77857279 -22.89784241 80.19552612 C-27.04446645 76.04509908 -31.18807751 71.8916768 -35.33105469 67.73760986 C-39.56588222 63.4925204 -43.8035712 59.2502895 -48.04101562 55.0078125 C-56.34263655 46.69549338 -64.64107522 38.38000511 -72.9375 30.0625 C-69.80159618 20.65478855 -52.37171426 13.53044682 -43.9765625 9.33203125 C-29.85475708 2.68206586 -15.51808646 -0.12522354 0 0 Z " fill="#CB754C" transform="translate(128.9375,229.9375)"/>
<path d="M0 0 C0.49918945 0.38599365 0.99837891 0.7719873 1.51269531 1.16967773 C25.17386584 19.22880044 48.72513641 23.88443697 78 23 C78.7949945 53.12145814 72.24366649 82.20191888 51 105 C50.01 105.66 49.02 106.32 48 107 C22.59 81.59 -2.82 56.18 -29 30 C-25.1819498 25.5456081 -21.51309612 21.39223603 -17.3828125 17.28515625 C-16.88079315 16.78455185 -16.3787738 16.28394745 -15.86154175 15.76817322 C-14.28506329 14.19721402 -12.70511427 12.62980123 -11.125 11.0625 C-10.04403726 9.98656273 -8.96330617 8.91039269 -7.8828125 7.83398438 C-5.25787359 5.21996708 -2.62981372 2.60911404 0 0 Z " fill="#B96747" transform="translate(171,316)"/>
<path d="M0 0 C10.57779572 -0.20255353 20.93052066 -0.05670249 31.44482422 1.14794922 C40.06932307 2.09456056 48.71429155 2.54014039 57.375 3 C68.13662291 3.5747622 78.85918861 4.25072504 89.58544922 5.3203125 C96.3288908 5.98192328 103.06693211 6.36632339 109.83984375 6.57055664 C117.38294764 6.86552427 121.69124244 8.13833002 126.875 13.6875 C129.86560845 16.80794025 132.83520389 19.82090213 136.125 22.625 C140.27427874 26.18999255 144.4182352 29.85620295 148 34 C148 34.66 148 35.32 148 36 C142.80766866 38.37600898 137.59824678 40.70734295 132.36889648 43.00073242 C130.59573998 43.78551925 128.82767035 44.58191213 127.06518555 45.39038086 C124.51846493 46.55609776 121.95586819 47.67771165 119.38671875 48.79296875 C118.61228928 49.15843307 117.8378598 49.5238974 117.03996277 49.9004364 C110.29084136 52.74729088 105.71510221 51.45860283 99 49 C98.05715652 48.67461746 97.11431305 48.34923492 96.14289856 48.01399231 C93.08186435 46.93808306 90.04268093 45.81298032 87.00390625 44.67578125 C85.30607498 44.0471669 85.30607498 44.0471669 83.57394409 43.40585327 C80.53010327 42.27822532 77.487762 41.14666211 74.44599533 40.01345444 C71.27987929 38.83516477 68.11175533 37.66230471 64.94360352 36.48950195 C64.30882678 36.25451209 63.67405005 36.01952223 63.02003765 35.77741146 C61.73359657 35.30120707 60.44714553 34.82502958 59.16068459 34.34887886 C57.22372329 33.63176134 55.28697748 32.91406433 53.3502655 32.1962738 C41.06382874 27.64430743 28.75436918 23.15639268 16.4375 18.6875 C15.48513458 18.34175934 14.53276917 17.99601868 13.55154419 17.63980103 C8.36831997 15.75814333 3.1845081 13.87811723 -2 12 C-1.34 8.04 -0.68 4.08 0 0 Z " fill="#D1DFF2" transform="translate(319,358)"/>
<path d="M0 0 C0.74383942 -0.01443649 1.48767883 -0.02887299 2.25405884 -0.04374695 C9.10068799 -0.04911473 13.00452564 1.98869775 18.1796875 6.2265625 C19.41442546 7.17869478 20.65160413 8.1276666 21.890625 9.07421875 C25.35982925 11.74439975 28.77756325 14.47152816 32.1796875 17.2265625 C28.0725587 21.77993869 23.50495364 24.69154871 18.2421875 27.7890625 C16.66990996 28.72675386 15.09828183 29.66553509 13.52734375 30.60546875 C12.78242676 31.04906738 12.03750977 31.49266602 11.27001953 31.94970703 C9.40816359 33.08700049 7.60071095 34.27190744 5.80078125 35.50390625 C1.86511782 38.09053452 -1.02003759 38.36316697 -5.6328125 38.3515625 C-7.15841797 38.35542969 -7.15841797 38.35542969 -8.71484375 38.359375 C-11.8203125 38.2265625 -11.8203125 38.2265625 -14.36547852 37.76098633 C-18.96737451 37.04912495 -23.5567494 36.80626059 -28.203125 36.54296875 C-30.27994949 36.41864603 -32.35677235 36.29429614 -34.43359375 36.16992188 C-37.66676018 35.98015012 -40.89999844 35.79168945 -44.13330078 35.60424805 C-55.71141691 34.92881321 -67.2498004 34.15773761 -78.78451538 32.93986511 C-86.70192635 32.10993653 -94.62483831 31.5781347 -102.5703125 31.1015625 C-103.97267763 31.01466728 -105.37502147 30.92742784 -106.77734375 30.83984375 C-110.12480928 30.63207003 -113.47243939 30.42764179 -116.8203125 30.2265625 C-114.82401409 17.60298619 -114.82401409 17.60298619 -113.1953125 11.9765625 C-112.80472656 10.60757812 -112.80472656 10.60757812 -112.40625 9.2109375 C-112.11621094 8.22867187 -112.11621094 8.22867187 -111.8203125 7.2265625 C-105.21812378 6.433322 -98.64698052 5.930113 -92.0078125 5.578125 C-89.87808653 5.46014902 -87.74836673 5.34206172 -85.61865234 5.22387695 C-84.50947449 5.16318024 -83.40029663 5.10248352 -82.25750732 5.03994751 C-60.5723413 3.85165438 -60.5723413 3.85165438 -38.90625 2.36328125 C-37.52593597 2.25892761 -37.52593597 2.25892761 -36.11773682 2.15246582 C-31.85870386 1.82725248 -27.60083145 1.49090463 -23.34375 1.14111328 C-15.56352781 0.51758091 -7.80642563 0.08166799 0 0 Z " fill="#BFCFE3" transform="translate(438.8203125,315.7734375)"/>
<path d="M0 0 C4.19753717 0.59871156 7.96759474 1.56433921 11.953125 3.00268555 C13.1125914 3.41837799 14.2720578 3.83407043 15.46665955 4.26235962 C16.72781172 4.72037281 17.98892406 5.17849571 19.25 5.63671875 C20.57382623 6.11349395 21.89780943 6.58983352 23.22193909 7.06576538 C26.75481998 8.33722848 30.28528828 9.61525572 33.81505203 10.89534378 C35.99898106 11.68713058 38.18335479 12.47767744 40.3678894 13.26779175 C46.1806238 15.37022014 51.9931565 17.47318943 57.80345154 19.58235168 C65.06617385 22.21828971 72.33339655 24.83977999 79.6144104 27.4249115 C83.14456305 28.67960477 86.67056722 29.94563528 90.19555664 31.2147522 C91.75652102 31.77382942 93.31932365 32.32780414 94.8840332 32.87631226 C108.17331852 37.54117075 114.42005505 42.48177017 122.25 54.125 C123.46317304 55.89868969 124.67670164 57.67213625 125.890625 59.4453125 C126.41688477 60.22406738 126.94314453 61.00282227 127.48535156 61.80517578 C128.50945477 63.28916802 129.5814018 64.74107785 130.69433594 66.15966797 C132 68 132 68 132 70 C128.77975611 71.0303319 125.5478168 72.01812669 122.3125 73 C121.41982422 73.28617187 120.52714844 73.57234375 119.60742188 73.8671875 C108.17713148 77.28407146 99.1787188 77.3626458 88.56410217 71.66119385 C86.55361535 70.54088874 84.55833907 69.39616207 82.5625 68.25 C81.14466528 67.46257782 79.72537302 66.6777748 78.3046875 65.89550781 C75.48424729 64.33756415 72.67233994 62.76585258 69.86767578 61.1796875 C65.64791776 58.794916 61.3923754 56.47913185 57.12915039 54.1730957 C54.50568632 52.75307787 51.88878586 51.32162146 49.2734375 49.88671875 C43.56769821 46.75939039 37.84727235 43.65944917 32.125 40.5625 C31.14402344 40.03148682 30.16304688 39.50047363 29.15234375 38.95336914 C27.14750987 37.86823642 25.14262644 36.78319523 23.13769531 35.69824219 C17.59099031 32.69615068 12.04558137 29.69166645 6.5 26.6875 C4.46875543 25.58722956 2.43750595 24.48696817 0.40625 23.38671875 C-1.0625 22.59114583 -2.53125 21.79557292 -4 21 C-3.54157677 15.48115817 -3.01026199 10.20871458 -1.4375 4.875 C-1.03337891 3.47894531 -1.03337891 3.47894531 -0.62109375 2.0546875 C-0.41613281 1.37664062 -0.21117187 0.69859375 0 0 Z " fill="#BFCFE3" transform="translate(314,382)"/>
<path d="M0 0 C6.5355207 4.41555333 10.791488 10.63766349 14.28515625 17.625 C15.97321648 27.00311238 15.47250363 36.59874384 10.55859375 44.9375 C5.61881498 51.91130532 -0.92820374 58.24433069 -9.4453125 60.3046875 C-19.99037227 62.03937266 -29.02910376 61.07756844 -37.81640625 54.8671875 C-45.54082574 48.5099219 -50.40981581 40.37004085 -51.390625 30.3046875 C-51.65637623 20.70966936 -48.92955086 13.06682625 -42.9140625 5.56640625 C-30.83501646 -6.88759909 -14.78650508 -8.58744397 0 0 Z " fill="#F0CB6C" transform="translate(287.15234375,420.25)"/>
<path d="M0 0 C5.55464816 0.89761425 10.94837098 1.90227363 16.3125 3.625 C19.99171939 4.77731513 23.10886207 5.48639224 27 5 C27.66 4.34 28.32 3.68 29 3 C33.61819535 3.30064201 37.44610459 5.58517537 41.4375 7.75 C42.08009766 8.08515625 42.72269531 8.4203125 43.38476562 8.765625 C47.71721555 11.0879941 51.43416899 13.59899939 55 17 C55.125 19.9375 55.125 19.9375 55 23 C56.98 25.97 56.98 25.97 59 29 C46.13 41.87 33.26 54.74 20 68 C11.73135748 61.38508598 7.32053827 52.57570474 3.625 42.8125 C3.386604 42.1844043 3.14820801 41.55630859 2.90258789 40.90917969 C-0.26315619 32.06018755 -1.31497147 23.4907989 -1.1875 14.125 C-1.18685547 13.20203125 -1.18621094 12.2790625 -1.18554688 11.328125 C-1.15972419 7.36864607 -1.09520822 3.82694703 0 0 Z " fill="#BD6643" transform="translate(152,231)"/>
<path d="M0 0 C2.39950388 1.59966925 4.69774109 3.26051549 7 5 C5.58098338 8.22745524 3.87144235 10.37258107 1.37646484 12.85058594 C0.63584808 13.59105164 -0.10476868 14.33151733 -0.86782837 15.09442139 C-1.66683563 15.88310608 -2.4658429 16.67179077 -3.2890625 17.484375 C-4.10748627 18.29996887 -4.92591003 19.11556274 -5.76913452 19.95587158 C-8.38309973 22.55864562 -11.00393505 25.15437762 -13.625 27.75 C-15.39889454 29.5138634 -17.17233766 31.2781809 -18.9453125 33.04296875 C-23.29165142 37.36726136 -27.64365081 41.6857933 -32 46 C-40.10400133 43.29866622 -46.4812385 29.77007419 -50.25 22.375 C-53.34185924 16.06387191 -55.73763271 9.52257769 -58 2.875 C-58.30325195 1.98603027 -58.60650391 1.09706055 -58.91894531 0.18115234 C-60.38583979 -4.34450152 -61.37932696 -8.1793865 -61 -13 C-40.5570796 -18.75596969 -17.35947586 -10.54263876 0 0 Z " fill="#BF795B" transform="translate(80,377)"/>
<path d="M0 0 C6.51866897 5.27536576 6.51866897 5.27536576 8.4921875 8.171875 C9.0787915 9.03159912 9.0787915 9.03159912 9.67724609 9.90869141 C10.07250488 10.51632324 10.46776367 11.12395508 10.875 11.75 C11.29990723 12.39759277 11.72481445 13.04518555 12.16259766 13.71240234 C20.85350586 27.32220214 27.89783309 42.74303808 29 59 C7.08694827 62.50039658 -13.38539279 58.02517456 -32.06640625 46.03125 C-36.32331768 42.88686472 -36.32331768 42.88686472 -38 41 C-38 38 -38 38 -36.55737305 36.1966095 C-35.88230713 35.52820541 -35.20724121 34.85980133 -34.51171875 34.17114258 C-33.37053589 33.03029961 -33.37053589 33.03029961 -32.20629883 31.8664093 C-31.37509521 31.05068954 -30.5438916 30.23496979 -29.6875 29.39453125 C-28.84405029 28.55532639 -28.00060059 27.71612152 -27.1315918 26.85148621 C-24.42799842 24.1647262 -21.71417532 21.48856565 -19 18.8125 C-17.1685891 16.99612983 -15.33785091 15.1790811 -13.5078125 13.36132812 C-9.01299342 8.8996402 -4.50972499 4.44661823 0 0 Z " fill="#AB593D" transform="translate(219,268)"/>
<path d="M0 0 C10.43925454 7.97132534 18.08676736 25.10968743 20 38 C20.23482429 43.1697921 20.18938169 48.32759958 20.125 53.5 C20.11495069 54.90884781 20.10582829 56.31770255 20.09765625 57.7265625 C20.07419969 61.1512205 20.04137384 64.57551939 20 68 C-0.86754445 65.18054351 -20.01157204 56.83231216 -36 43 C-36.99 42.34 -37.98 41.68 -39 41 C-37.58098338 37.77254476 -35.87144235 35.62741893 -33.37646484 33.14941406 C-32.63584808 32.40894836 -31.89523132 31.66848267 -31.13217163 30.90557861 C-30.33316437 30.11689392 -29.5341571 29.32820923 -28.7109375 28.515625 C-27.89251373 27.70003113 -27.07408997 26.88443726 -26.23086548 26.04412842 C-23.61690027 23.44135438 -20.99606495 20.84562238 -18.375 18.25 C-16.60110546 16.4861366 -14.82766234 14.7218191 -13.0546875 12.95703125 C-8.70834858 8.63273864 -4.35634919 4.3142067 0 0 Z " fill="#D7815B" transform="translate(95,392)"/>
<path d="M0 0 C3.85027991 1.78200687 6.2799142 4.07675405 9.25 7.125 C10.14203125 8.03507812 11.0340625 8.94515625 11.953125 9.8828125 C12.62859375 10.58148438 13.3040625 11.28015625 14 12 C13.49210937 12.969375 12.98421875 13.93875 12.4609375 14.9375 C1.00917579 37.09246924 -4.24288241 58.01511958 -5 83 C-12.92 83.33 -20.84 83.66 -29 84 C-29.29618262 63.11912526 -29.29618262 63.11912526 -27 54 C-26.74347656 52.86691406 -26.48695312 51.73382813 -26.22265625 50.56640625 C-21.66756648 31.77910466 -12.94077942 14.4276514 0 0 Z " fill="#B07152" transform="translate(46,268)"/>
<path d="M0 0 C-0.68299492 5.12728354 -1.58796349 10.16634099 -2.63671875 15.23046875 C-2.87681671 16.40175827 -2.87681671 16.40175827 -3.12176514 17.59671021 C-3.64134713 20.12745929 -4.16420043 22.6575172 -4.6875 25.1875 C-5.04762343 26.93448563 -5.40773073 28.68147459 -5.76782227 30.4284668 C-7.96310888 41.0623415 -10.17935358 51.6917907 -12.4375 62.3125 C-12.80717896 64.0617981 -12.80717896 64.0617981 -13.18432617 65.84643555 C-13.41095947 66.90386963 -13.63759277 67.96130371 -13.87109375 69.05078125 C-14.16391235 70.42230347 -14.16391235 70.42230347 -14.46264648 71.8215332 C-15 74 -15 74 -16 76 C-22.66088264 76.55507355 -27.52286138 74.80665898 -32.7421875 70.59375 C-34 69 -34 69 -33.875 65.3125 C-33.47221743 62.47959593 -32.93707263 59.72927401 -32.2890625 56.94140625 C-30.75745625 50.0188493 -29.89784252 43.45902992 -29.828125 36.3515625 C-29.81894043 35.66992035 -29.80975586 34.9882782 -29.80029297 34.28598022 C-29.7590419 30.82680552 -29.75954839 27.3744267 -29.81835938 23.91552734 C-29.75840732 12.98926579 -29.75840732 12.98926579 -25.81640625 8.25 C-18.56577471 1.44320951 -9.7738049 -0.9730558 0 0 Z " fill="#4587D0" transform="translate(290,317)"/>
<path d="M0 0 C15.97632379 0.06642962 31.51102162 8.563883 44 18 C42.39577001 21.97990588 39.61753303 24.67192316 36.625 27.640625 C35.83730225 28.43119293 35.83730225 28.43119293 35.03369141 29.23773193 C33.92661117 30.34616928 32.8170167 31.45210046 31.70507812 32.55566406 C29.99893025 34.25106301 28.30375953 35.9569161 26.609375 37.6640625 C25.53189108 38.74022558 24.45378733 39.81576851 23.375 40.890625 C22.86662598 41.40304749 22.35825195 41.91546997 21.83447266 42.44342041 C18.22994091 46 18.22994091 46 16 46 C7.91654096 31.80903858 0.07368363 16.72618445 0 0 Z " fill="#E78C60" transform="translate(43,364)"/>
<path d="M0 0 C6.25454711 1.30909126 10.19730116 9.6181183 13.50663757 14.65367126 C14.07550186 15.52979568 14.64436615 16.4059201 15.23046875 17.30859375 C16.14412956 18.7017556 16.14412956 18.7017556 17.07624817 20.12306213 C19.01380814 23.07903331 20.94476461 26.03924184 22.875 29 C24.7825186 31.91882085 26.69148749 34.83667752 28.60232544 37.75332642 C29.84845998 39.65606936 31.09252056 41.5601723 32.33444214 43.46566772 C35.17398362 47.80727413 38.04595493 52.10936443 41.06494141 56.32861328 C41.58212234 57.055569 42.09930328 57.78252472 42.63215637 58.5315094 C43.58567858 59.86165849 44.55090652 61.18353323 45.53031921 62.49473572 C48.26721872 66.31495365 49.31179148 68.86212859 48.6875 73.5625 C47.5625 75.4375 47.5625 75.4375 45.6875 76.5625 C42.78710938 76.89086914 42.78710938 76.89086914 39.6875 76.5625 C37.86132812 74.92749023 37.86132812 74.92749023 36.21875 72.43359375 C35.54070312 71.4266748 34.86265625 70.41975586 34.1640625 69.38232422 C33.77959961 68.7889325 33.39513672 68.19554077 32.99902344 67.58416748 C31.50644718 65.28341342 29.98471773 63.00334915 28.4609375 60.72314453 C24.67520401 55.04200467 20.93049134 49.33435329 17.1875 43.625 C15.25981909 40.68994256 13.33139439 37.75537746 11.40209961 34.82138062 C10.16611729 32.93936246 8.93250952 31.05578247 7.70141602 29.17056274 C5.18735349 25.3260044 2.66955304 21.49609948 0 17.75732422 C-0.7321875 16.72236816 -1.464375 15.68741211 -2.21875 14.62109375 C-2.83041016 13.78763428 -3.44207031 12.9541748 -4.07226562 12.09545898 C-5.72151037 8.72716878 -5.73819477 6.26085976 -5.3125 2.5625 C-2.3125 0.5625 -2.3125 0.5625 0 0 Z " fill="#2A4368" transform="translate(113.3125,97.4375)"/>
<path d="M0 0 C1.6254308 0.14095064 3.25034051 0.28792087 4.875 0.4375 C5.77992188 0.51871094 6.68484375 0.59992188 7.6171875 0.68359375 C10 1 10 1 12 2 C11.48392221 10.95810087 9.76802368 19.55506478 7.83984375 28.29296875 C7.52681336 29.73443819 7.21436949 31.17603511 6.90248108 32.61775208 C6.08796306 36.3754016 5.26559504 40.13128892 4.44146729 43.88684082 C3.59872155 47.73405626 2.7635672 51.58291854 1.92773438 55.43164062 C0.29249682 62.95604416 -1.35175441 70.47843305 -3 78 C-7.29 77.34 -11.58 76.68 -16 76 C-15.3021903 67.84490827 -13.613214 59.95529931 -11.875 51.97265625 C-11.56462758 50.53306221 -11.25457441 49.09339931 -10.94482422 47.65367126 C-10.29870501 44.65513668 -9.6495563 41.65728004 -8.99804688 38.65991211 C-8.16251402 34.8152738 -7.33344051 30.96927749 -6.50643921 27.12279606 C-5.86858538 24.15844818 -5.2279898 21.19469835 -4.58648682 18.23113823 C-4.27957859 16.81228258 -3.97338197 15.39327281 -3.66790771 13.97410774 C-3.24224306 11.999163 -2.81262528 10.02507152 -2.3828125 8.05102539 C-2.13934082 6.92789444 -1.89586914 5.80476349 -1.64501953 4.64759827 C-1 2 -1 2 0 0 Z " fill="#5DA5E9" transform="translate(302,320)"/>
<path d="M0 0 C3.94949704 0.62816498 7.19892028 1.8645529 10.8125 3.5625 C11.78832031 4.01753906 12.76414062 4.47257812 13.76953125 4.94140625 C14.50558594 5.29074219 15.24164063 5.64007813 16 6 C13.59753401 14.14270915 10.04804825 21.64528412 6.41992188 29.29589844 C5.36543968 31.52016602 4.31888321 33.74803537 3.2734375 35.9765625 C2.60722425 37.39083868 1.94057379 38.804909 1.2734375 40.21875 C0.95990326 40.88531616 0.64636902 41.55188232 0.32333374 42.23864746 C-1.88352725 46.88352725 -1.88352725 46.88352725 -3 48 C-5.08135137 48.0999519 -7.16625528 48.12967207 -9.25 48.125 C-10.95929688 48.12886719 -10.95929688 48.12886719 -12.703125 48.1328125 C-15.60044376 48.01609587 -18.18608964 47.66645245 -21 47 C-19.14321011 41.05785173 -16.96726314 35.43569028 -14.27734375 29.82421875 C-13.93119522 29.09177444 -13.58504669 28.35933014 -13.22840881 27.60469055 C-12.13621575 25.29665964 -11.03695626 22.99207832 -9.9375 20.6875 C-9.19680503 19.12456716 -8.4565669 17.56141773 -7.71679688 15.99804688 C-2.10087543 4.14554235 -2.10087543 4.14554235 0 0 Z " fill="#778E90" transform="translate(334,263)"/>
<path d="M0 0 C-1.63195312 0.72703125 -1.63195312 0.72703125 -3.296875 1.46875 C-12.46811716 5.62350384 -20.87085497 10.00637783 -29 16 C-30.25490234 16.92039063 -30.25490234 16.92039063 -31.53515625 17.859375 C-39.24418536 23.77248133 -47.58021463 30.87032194 -53 39 C-56.45201639 37.52278578 -58.64961936 35.56205999 -61.25 32.875 C-61.95640625 32.15054688 -62.6628125 31.42609375 -63.390625 30.6796875 C-63.92171875 30.12539063 -64.4528125 29.57109375 -65 29 C-61.86409618 19.59228855 -44.43421426 12.46794682 -36.0390625 8.26953125 C-26.30116643 3.68395101 -10.76513904 -3.09388346 0 0 Z " fill="#A76449" transform="translate(121,231)"/>
<path d="M0 0 C1.375 1.3984375 1.375 1.3984375 3 3.375 C15.69804611 18.18504145 29.4357667 27.83377205 47 36 C47 36.99 47 37.98 47 39 C26.40160585 36.95426907 6.5759215 27.47543416 -9 14 C-9.99 13.34 -10.98 12.68 -12 12 C-10.53033642 8.60140297 -8.61962486 6.35036291 -6 3.75 C-5.29875 3.04359375 -4.5975 2.3371875 -3.875 1.609375 C-2 0 -2 0 0 0 Z " fill="#AF6A4F" transform="translate(68,421)"/>
<path d="M0 0 C4.41643265 0.4376645 7.55565491 2.29187934 11.3125 4.5625 C12.91544922 5.52349609 12.91544922 5.52349609 14.55078125 6.50390625 C15.35902344 6.99761719 16.16726563 7.49132812 17 8 C15.61130416 11.30003823 14.15555933 12.91378765 11.2265625 14.9453125 C10.4840625 15.46480469 9.7415625 15.98429687 8.9765625 16.51953125 C8.20054687 17.04933594 7.42453125 17.57914062 6.625 18.125 C5.85671875 18.66253906 5.0884375 19.20007813 4.296875 19.75390625 C-3.2300066 24.97584314 -8.57208018 27.43815726 -18 26 C-20.90465553 24.46281168 -23.12486082 22.71366973 -25 20 C-25 19.01 -25 18.02 -25 17 C-22.81274414 15.20654297 -22.81274414 15.20654297 -19.78515625 13.2421875 C-18.70685547 12.53449219 -17.62855469 11.82679688 -16.51757812 11.09765625 C-15.36610518 10.35642932 -14.21440968 9.61554803 -13.0625 8.875 C-11.91407304 8.12728491 -10.76627786 7.37859851 -9.61914062 6.62890625 C-7.52168211 5.25898409 -5.42111729 3.89379931 -3.31665039 2.53466797 C-1.13099445 1.19732196 -1.13099445 1.19732196 0 0 Z " fill="#C49882" transform="translate(369,449)"/>
<path d="M0 0 C3.92806524 3.8266023 7.55773167 7.83670429 11.125 12 C11.91197266 12.90492188 11.91197266 12.90492188 12.71484375 13.828125 C15.49719305 17.06832925 17.93342876 20.23741512 20 24 C17.03 25.65 14.06 27.3 11 29 C10.62875 27.824375 10.2575 26.64875 9.875 25.4375 C7.57071013 18.50257976 4.74834631 11.7675157 2 5 C1.3321935 3.33378972 0.66502052 1.66732418 0 0 Z " fill="#9C7A6B" transform="translate(247,286)"/>
<path d="M0 0 C2.54425853 1.2449341 5.08534361 2.49573888 7.625 3.75 C8.33785156 4.09804688 9.05070312 4.44609375 9.78515625 4.8046875 C14.08963907 6.93718358 18.06441288 9.2438475 22 12 C18.99502268 15.35170548 16.03891843 17.06906502 12 19 C9.99239214 16.21373218 7.99524047 13.42013417 6 10.625 C5.42765625 9.8309375 4.8553125 9.036875 4.265625 8.21875 C3.45351563 7.07792969 3.45351563 7.07792969 2.625 5.9140625 C2.12226563 5.2123291 1.61953125 4.5105957 1.1015625 3.78759766 C0 2 0 2 0 0 Z " fill="#A77E6D" transform="translate(336,430)"/>
<path d="M0 0 C2.4375 2.0625 2.4375 2.0625 4 5 C3.9375 8.6875 3.9375 8.6875 3 12 C0 14 0 14 -2.4375 13.9375 C-5.8856982 12.67596407 -7.09446105 11.10532273 -9 8 C-9.48921715 5.0646971 -9.44442256 3.71601412 -7.875 1.1875 C-5.05536176 -0.59827089 -3.26541798 -0.53312947 0 0 Z " fill="#2D4468" transform="translate(105,81)"/>
</svg>
