<?xml version="1.0" encoding="UTF-8"?>
<svg version="1.1" xmlns="http://www.w3.org/2000/svg" width="170" height="177">
<path d="M0 0 C56.1 0 112.2 0 170 0 C170 58.41 170 116.82 170 177 C113.9 177 57.8 177 0 177 C0 118.59 0 60.18 0 0 Z " fill="#FDFDFD" transform="translate(0,0)"/>
<path d="M0 0 C0.99 0.825 1.98 1.65 3 2.5 C5.26952506 1.41949846 7.02941486 0.47438061 8.9375 -1.1875 C11 -2.5 11 -2.5 13.6875 -2.25 C16 -1.5 16 -1.5 17 -0.5 C17.60039355 3.7716385 17.89523951 8.07694027 18.25 12.375 C18.36601562 13.58542969 18.48203125 14.79585937 18.6015625 16.04296875 C18.74464844 17.78126953 18.74464844 17.78126953 18.890625 19.5546875 C19.03032715 21.15546143 19.03032715 21.15546143 19.17285156 22.78857422 C19 25.5 19 25.5 17.86035156 27.36035156 C15.24859207 28.96031132 13.39090067 28.79558009 10.34375 28.6796875 C9.23902344 28.6384375 8.13429687 28.5971875 6.99609375 28.5546875 C5.84238281 28.49539062 4.68867188 28.43609375 3.5 28.375 C2.34628906 28.33890625 1.19257813 28.3028125 0.00390625 28.265625 C-8.47806798 27.88952813 -8.47806798 27.88952813 -10.85742188 26.11376953 C-12 24.5 -12 24.5 -11.9375 22.0625 C-10.83851148 19.05859806 -9.31055655 17.66148838 -7 15.5 C-7 14.84 -7 14.18 -7 13.5 C-20.56715619 2.70609016 -37.87300294 -2.11248636 -55 -0.5 C-72.3455902 1.96364908 -87.33379362 10.38499401 -98.12890625 24.23046875 C-108.11784359 39.18151319 -112.49744569 55.85024285 -109.34765625 73.6328125 C-105.8526604 90.35385115 -96.86761169 104.88011658 -82.5625 114.4375 C-66.16089594 124.01678442 -49.2881641 127.17179759 -30.640625 122.65625 C-12.3812576 116.85713761 0.22157864 106.1729312 9.203125 89.23046875 C14.91615656 77.39937728 17.56376688 62.38658102 14 49.5 C13.87794671 46.82459184 13.95532687 44.18038762 14 41.5 C17.65170466 39.89614957 20.84712488 38.5 24.875 38.5 C27 39.5 27 39.5 28.25 41.6875 C29.99628354 48.23606329 30.18294827 54.51343643 30.1875 61.25 C30.19974609 62.1884375 30.21199219 63.126875 30.22460938 64.09375 C30.26765066 84.86834362 21.06804923 103.55138733 7 118.5 C-9.58236225 134.47332724 -31.03662196 140.11903614 -53.5390625 139.765625 C-73.16833509 139.0706629 -91.41433147 129.47016858 -105 115.5 C-121.00836758 97.7047657 -125.96325439 76.59171438 -125.16601562 53.22949219 C-124.02377629 34.44973368 -114.25547081 18.28900263 -101 5.5 C-100.30648437 4.77554687 -99.61296875 4.05109375 -98.8984375 3.3046875 C-72.5133501 -22.6729082 -28.53906074 -21.20331626 0 0 Z " fill="#26333F" transform="translate(131,21.5)"/>
<path d="M0 0 C2.75 0.5625 2.75 0.5625 3.91235352 1.95874023 C7.47234245 7.85791377 10.49584444 13.95999517 13.4375 20.1875 C14.16549805 21.7034375 14.16549805 21.7034375 14.90820312 23.25 C17.14469489 27.95125993 19.28733739 32.55010064 20.75 37.5625 C22.97959864 36.77203336 25.20868334 35.98016606 27.4375 35.1875 C28.67886719 34.74664062 29.92023438 34.30578125 31.19921875 33.8515625 C33.32043483 33.08148406 35.42823237 32.26962693 37.5 31.375 C40.51379456 30.2866853 42.67872445 30.84824987 45.75 31.5625 C46.4375 33.875 46.4375 33.875 46.75 36.5625 C43.42679452 40.8898644 37.76156017 42.27839561 32.875 44.25 C31.88113281 44.66572266 30.88726562 45.08144531 29.86328125 45.50976562 C28.90035156 45.90228516 27.93742187 46.29480469 26.9453125 46.69921875 C25.63071045 47.23615356 25.63071045 47.23615356 24.28955078 47.78393555 C21.63731197 48.59704741 19.50675221 48.7100837 16.75 48.5625 C11.17340563 38.19559897 5.7517289 27.75415067 0.5625 17.1875 C0.06903076 16.20773193 -0.42443848 15.22796387 -0.93286133 14.21850586 C-1.38169678 13.29303955 -1.83053223 12.36757324 -2.29296875 11.4140625 C-2.89661255 10.18937256 -2.89661255 10.18937256 -3.51245117 8.93994141 C-4.39897318 6.08229448 -4.10992775 4.39949516 -3.25 1.5625 C-2.25 0.5625 -2.25 0.5625 0 0 Z " fill="#D6454F" transform="translate(64.25,39.4375)"/>
<path d="M0 0 C1.41038581 -0.00135459 2.82077115 -0.00330162 4.2311554 -0.00579834 C7.16481032 -0.00871727 10.09834204 -0.00456114 13.03198242 0.00488281 C16.7285133 0.01622404 20.42475428 0.00956088 24.12127495 -0.00202179 C39.77476978 -0.04335216 55.25637618 0.18561469 70.80078125 2.265625 C70.80078125 2.925625 70.80078125 3.585625 70.80078125 4.265625 C55.01419449 6.05098253 39.3966382 6.5799781 23.5144043 6.52636719 C19.73925766 6.51562778 15.96458565 6.52634091 12.18945312 6.5390625 C-2.05863372 6.54604395 -16.04962204 5.9617607 -30.19921875 4.265625 C-30.19921875 3.605625 -30.19921875 2.945625 -30.19921875 2.265625 C-20.06390979 0.68582726 -10.27408622 -0.03190944 0 0 Z " fill="#D2DAE1" transform="translate(63.19921875,168.734375)"/>
<path d="M0 0 C1.65 0 3.3 0 5 0 C5 3.63 5 7.26 5 11 C3.35 11 1.7 11 0 11 C0 7.37 0 3.74 0 0 Z " fill="#3A434C" transform="translate(81,130)"/>
<path d="M0 0 C3.63 0 7.26 0 11 0 C11 1.65 11 3.3 11 5 C7.37 5 3.74 5 0 5 C0 3.35 0 1.7 0 0 Z " fill="#38414C" transform="translate(130,81)"/>
<path d="M0 0 C3.63 0 7.26 0 11 0 C11 1.65 11 3.3 11 5 C7.37 5 3.74 5 0 5 C0 3.35 0 1.7 0 0 Z " fill="#39424C" transform="translate(26,81)"/>
<path d="M0 0 C1.65 0 3.3 0 5 0 C5 3.63 5 7.26 5 11 C3.35 11 1.7 11 0 11 C0 7.37 0 3.74 0 0 Z " fill="#3A434C" transform="translate(81,26)"/>
</svg>
