<?xml version="1.0" encoding="UTF-8"?>
<svg version="1.1" xmlns="http://www.w3.org/2000/svg" width="512" height="512">
<path d="M0 0 C0.72990646 -0.00974854 1.45981293 -0.01949707 2.21183777 -0.02954102 C18.57587221 -0.20303012 34.28520097 0.00841481 50.21484375 4.23828125 C51.30998291 4.52711182 51.30998291 4.52711182 52.42724609 4.82177734 C57.10262957 6.09688193 61.65470063 7.59873294 66.21484375 9.23828125 C66.83907227 9.46241699 67.46330078 9.68655273 68.10644531 9.91748047 C93.70586234 19.25211092 117.74490552 35.22868233 135.21484375 56.23828125 C136.21064453 57.3675 136.21064453 57.3675 137.2265625 58.51953125 C168.0287654 94.35405096 177.97587875 139.16880288 175.01269531 185.39160156 C174.48425483 190.77371805 173.50190225 195.98944158 172.21484375 201.23828125 C171.91682861 202.48424072 171.91682861 202.48424072 171.61279297 203.75537109 C165.47415753 228.71915521 153.55767014 249.86609826 139.53515625 271.171875 C136.39204526 275.95038878 133.32187357 280.77151312 130.27734375 285.61328125 C129.28781234 287.18492852 128.2982283 288.75654266 127.30859375 290.328125 C126.80714844 291.12460449 126.30570312 291.92108398 125.7890625 292.74169922 C116.38650138 307.65339122 106.85535706 322.47942603 97.21484375 337.23828125 C102.25878502 338.37758082 107.30780558 339.46881698 112.375 340.5 C149.08027243 348.03215292 187.24211433 358.21637857 216.21484375 383.23828125 C216.98828125 383.9034375 217.76171875 384.56859375 218.55859375 385.25390625 C227.48490979 393.50769163 234.8591763 405.05875339 235.55078125 417.4375 C235.90155191 434.7651871 231.11413832 446.19890047 219.08984375 458.80078125 C183.70782247 493.58936798 124.35372803 503.43726888 77.21484375 509.23828125 C76.04163574 509.3892627 74.86842773 509.54024414 73.65966797 509.69580078 C31.24150974 514.93100684 -14.4158041 514.79720907 -56.78515625 509.23828125 C-57.46572083 509.15106812 -58.1462854 509.06385498 -58.84747314 508.97399902 C-95.09956512 504.32064251 -131.63550408 497.11084198 -164.78515625 481.23828125 C-165.94096191 480.68720703 -165.94096191 480.68720703 -167.12011719 480.125 C-185.17533027 471.37938545 -203.41240701 459.11968515 -211.78515625 440.23828125 C-212.29175781 439.21927734 -212.29175781 439.21927734 -212.80859375 438.1796875 C-216.6227048 429.20427939 -216.27365533 416.44062764 -213.22265625 407.30078125 C-206.18806605 391.30197367 -194.32566628 380.33946982 -179.78515625 371.23828125 C-179.04031982 370.76841797 -178.2954834 370.29855469 -177.52807617 369.81445312 C-149.00762563 352.21857638 -114.54150228 344.05650604 -81.78515625 338.78125 C-78.87291553 338.3991484 -78.87291553 338.3991484 -76.78515625 337.23828125 C-77.20700195 336.58045654 -77.62884766 335.92263184 -78.06347656 335.24487305 C-85.52487752 323.60642356 -92.97791609 311.96345685 -100.34912109 300.26757812 C-104.10439473 294.31067584 -107.87878451 288.36614713 -111.66015625 282.42578125 C-112.24120117 281.51151367 -112.82224609 280.59724609 -113.42089844 279.65527344 C-116.43234088 274.91968468 -119.45682885 270.19321792 -122.50390625 265.48046875 C-140.20155519 238.051928 -154.64899806 208.79634609 -155.0234375 175.35546875 C-155.0380603 174.26279945 -155.0380603 174.26279945 -155.05297852 173.14805603 C-155.22690896 156.78217956 -154.91067394 141.18512329 -150.78515625 125.23828125 C-150.59791992 124.48111816 -150.41068359 123.72395508 -150.21777344 122.94384766 C-147.52264162 112.22616024 -143.59438161 102.17601665 -138.78515625 92.23828125 C-138.47707031 91.60148437 -138.16898437 90.9646875 -137.8515625 90.30859375 C-131.52440578 77.44425021 -123.65868068 65.96816884 -113.87109375 55.4765625 C-111.92071242 53.38373759 -110.06884258 51.23529584 -108.22265625 49.05078125 C-104.69858627 45.04035772 -100.94215234 41.58572323 -96.78515625 38.23828125 C-96.24777832 37.80499512 -95.71040039 37.37170898 -95.15673828 36.92529297 C-84.98123022 28.80305215 -74.36761115 22.1672225 -62.78515625 16.23828125 C-61.32529297 15.48611328 -61.32529297 15.48611328 -59.8359375 14.71875 C-41.69999507 5.97017134 -20.15488029 0.22396462 0 0 Z M-43.78515625 114.23828125 C-44.378125 114.81449219 -44.97109375 115.39070313 -45.58203125 115.984375 C-59.31365877 130.06195437 -64.07734707 148.69179741 -64.02734375 167.78369141 C-63.77575353 186.88882355 -56.31765644 202.87426788 -43.41015625 216.80078125 C-42.54390625 217.60515625 -41.67765625 218.40953125 -40.78515625 219.23828125 C-40.20894531 219.83125 -39.63273437 220.42421875 -39.0390625 221.03515625 C-24.96148313 234.76678377 -6.33164009 239.53047207 12.76025391 239.48046875 C31.86538605 239.22887853 47.85083038 231.77078144 61.77734375 218.86328125 C62.58171875 217.99703125 63.38609375 217.13078125 64.21484375 216.23828125 C64.8078125 215.66207031 65.40078125 215.08585937 66.01171875 214.4921875 C79.74334627 200.41460813 84.50703457 181.78476509 84.45703125 162.69287109 C84.20544103 143.58773895 76.74734394 127.60229462 63.83984375 113.67578125 C62.97359375 112.87140625 62.10734375 112.06703125 61.21484375 111.23828125 C60.63863281 110.6453125 60.06242187 110.05234375 59.46875 109.44140625 C45.39117063 95.70977873 26.76132759 90.94609043 7.66943359 90.99609375 C-12.31015877 91.25919949 -30.15705307 99.56186244 -43.78515625 114.23828125 Z " fill="#E61E14" transform="translate(245.78515625,-0.23828125)"/>
<path d="M0 0 C1.72241211 1.9675293 1.72241211 1.9675293 3.27734375 4.57421875 C3.86588135 5.54053223 4.45441895 6.5068457 5.06079102 7.50244141 C5.68010498 8.55351074 6.29941895 9.60458008 6.9375 10.6875 C8.27763726 12.89774726 9.61880537 15.10736977 10.9609375 17.31640625 C11.63608398 18.43805176 12.31123047 19.55969727 13.00683594 20.71533203 C15.95070736 25.56673406 19.00124129 30.34712734 22.0625 35.125 C23.21769121 36.93604275 24.37263884 38.7472409 25.52734375 40.55859375 C26.0982373 41.45304199 26.66913086 42.34749023 27.25732422 43.26904297 C30.2165244 47.90642224 33.17104011 52.5467815 36.125 57.1875 C36.70773682 58.10289551 37.29047363 59.01829102 37.89086914 59.96142578 C41.60580634 65.80015119 45.30744876 71.64709691 49 77.5 C50.47020673 79.82774471 51.94063859 82.15534706 53.41113281 84.48291016 C54.53653389 86.26577511 55.66076635 88.04937797 56.78417969 89.83349609 C58.64459016 92.78686117 60.50947325 95.73736467 62.375 98.6875 C62.94605469 99.59628906 63.51710937 100.50507813 64.10546875 101.44140625 C69.9141936 111.26116997 69.9141936 111.26116997 78 119 C80.76464349 119.43166896 80.76464349 119.43166896 83.8125 119.4375 C84.82957031 119.47746094 85.84664062 119.51742187 86.89453125 119.55859375 C91.97146416 118.64538443 94.61322734 115.88619337 97.55786133 111.88110352 C99.26525894 109.3084019 100.8905897 106.69758712 102.5 104.0625 C103.73931291 102.07405018 104.97890399 100.08577371 106.21875 98.09765625 C106.84652344 97.0833252 107.47429687 96.06899414 108.12109375 95.02392578 C111.04131433 90.32410092 114.02186633 85.66325187 117 81 C118.16437883 79.17077423 119.32844031 77.34134642 120.4921875 75.51171875 C122.85067786 71.80542555 125.21015336 68.09976197 127.5703125 64.39453125 C133.54701987 55.01005214 139.5110957 45.61797893 145.44604492 36.20703125 C150.00774908 28.97767719 154.59773066 21.76642077 159.19335938 14.55859375 C162.48813606 9.38821078 165.75877547 4.20413434 169 -1 C199.17168273 1.67987381 229.54444192 10.31111523 257 23 C257.96534668 23.43844238 257.96534668 23.43844238 258.95019531 23.88574219 C272.14782286 29.92977318 283.62104322 37.82311141 294 48 C294.63550781 48.61101562 295.27101563 49.22203125 295.92578125 49.8515625 C306.15235769 60.50897032 309.51586058 73.04191467 309.2734375 87.375 C308.67418581 101.94690239 300.23311488 112.66971496 289.984375 122.34765625 C253.68226969 154.61091477 197.51694843 164.27552439 151 170 C149.82679199 170.15098145 148.65358398 170.30196289 147.44482422 170.45751953 C105.02666599 175.69272559 59.36935215 175.55892782 17 170 C16.31943542 169.91278687 15.63887085 169.82557373 14.93768311 169.73571777 C-21.31440887 165.08236126 -57.85034783 157.87256073 -91 142 C-91.77053711 141.63261719 -92.54107422 141.26523437 -93.33496094 140.88671875 C-111.39017402 132.1411042 -129.62725076 119.8814039 -138 101 C-138.33773437 100.32066406 -138.67546875 99.64132812 -139.0234375 98.94140625 C-142.83754855 89.96599814 -142.48849908 77.20234639 -139.4375 68.0625 C-132.4029098 52.06369242 -120.54051003 41.10118857 -106 32 C-104.88274536 31.29520508 -104.88274536 31.29520508 -103.74291992 30.57617188 C-81.32280037 16.74393386 -26.6605044 -8.61595824 0 0 Z " fill="#61DD55" transform="translate(172,339)"/>
<path d="M0 0 C0 30.03 0 60.06 0 91 C-8.415 91.99 -8.415 91.99 -17 93 C-29.38201301 96.77756329 -39.85362144 101.41380443 -49.22265625 110.4609375 C-51 112 -51 112 -53 112 C-53.25394531 112.57105469 -53.50789063 113.14210938 -53.76953125 113.73046875 C-55.14308918 116.26392004 -56.78546953 118.14889363 -58.6875 120.3125 C-71.7998041 136.52407598 -74.26111598 155.73489727 -73 176 C-71.59740663 189.17337692 -65.04349964 202.20523298 -56.4453125 212.203125 C-55 214 -55 214 -54.0546875 216.109375 C-52.71241387 218.51552477 -51.47569946 218.86812283 -49 220 C-47.54360911 221.20672388 -46.10800487 222.43873147 -44.6875 223.6875 C-31.5238338 234.33458296 -16.58779704 237.49201845 0 239 C0 311.6 0 384.2 0 459 C-6.38255494 459 -7.03618747 458.93831413 -11.21435547 455.015625 C-14.72938162 451.04788424 -17.35307663 446.53780414 -20.0625 442 C-21.38448804 439.8353701 -22.70742559 437.67131982 -24.03125 435.5078125 C-24.69382813 434.41758789 -25.35640625 433.32736328 -26.0390625 432.20410156 C-28.98612324 427.38870998 -32.0201874 422.63057647 -35.0625 417.875 C-36.21755358 416.06386947 -37.37250146 414.25267151 -38.52734375 412.44140625 C-39.0982373 411.54695801 -39.66913086 410.65250977 -40.25732422 409.73095703 C-43.2165244 405.09357776 -46.17104011 400.4532185 -49.125 395.8125 C-49.70773682 394.89710449 -50.29047363 393.98170898 -50.89086914 393.03857422 C-54.60580601 387.19984933 -58.30756422 381.35297558 -62 375.5 C-63.47152782 373.16923468 -64.94338266 370.83867653 -66.41552734 368.50830078 C-67.53339114 366.73866555 -68.65086759 364.96878559 -69.76806641 363.19873047 C-71.61368074 360.27671127 -73.46275506 357.35690574 -75.3125 354.4375 C-75.87517578 353.54546875 -76.43785156 352.6534375 -77.01757812 351.734375 C-79.75491291 347.42041276 -82.55161802 343.17302532 -85.5 339 C-89.06359774 333.9562222 -92.39323506 328.78502311 -95.6875 323.5625 C-96.29271484 322.60730469 -96.89792969 321.65210938 -97.52148438 320.66796875 C-99.35023476 317.78026656 -101.17563183 314.8904723 -103 312 C-104.02732781 310.37368785 -105.05467063 308.74738518 -106.08203125 307.12109375 C-107.54320295 304.80743009 -109.00405743 302.49356846 -110.46411133 300.17919922 C-114.25418129 294.17330955 -118.06171607 288.1786725 -121.875 282.1875 C-122.45588379 281.27347412 -123.03676758 280.35944824 -123.63525391 279.41772461 C-126.64688097 274.68190576 -129.67151335 269.95518296 -132.71875 265.2421875 C-150.41639894 237.81364675 -164.86384181 208.55806484 -165.23828125 175.1171875 C-165.24802979 174.3887413 -165.25777832 173.6602951 -165.26782227 172.90977478 C-165.44175271 156.54389831 -165.12551769 140.94684204 -161 125 C-160.81276367 124.24283691 -160.62552734 123.48567383 -160.43261719 122.70556641 C-157.73748537 111.98787899 -153.80922536 101.9377354 -149 92 C-148.69191406 91.36320312 -148.38382813 90.72640625 -148.06640625 90.0703125 C-141.73924953 77.20596896 -133.87352443 65.72988759 -124.0859375 55.23828125 C-122.13555617 53.14545634 -120.28368633 50.99701459 -118.4375 48.8125 C-114.91343002 44.80207647 -111.15699609 41.34744198 -107 38 C-106.46262207 37.56671387 -105.92524414 37.13342773 -105.37158203 36.68701172 C-95.19607397 28.5647709 -84.5824549 21.92894125 -73 16 C-72.02675781 15.49855469 -71.05351562 14.99710938 -70.05078125 14.48046875 C-47.95401301 3.82123139 -24.32421764 0 0 0 Z " fill="#FC3018" transform="translate(256,0)"/>
<path d="M0 0 C30.17168273 2.67987381 60.54444192 11.31111523 88 24 C88.64356445 24.29229492 89.28712891 24.58458984 89.95019531 24.88574219 C103.14782286 30.92977318 114.62104322 38.82311141 125 49 C125.63550781 49.61101562 126.27101563 50.22203125 126.92578125 50.8515625 C137.15235769 61.50897032 140.51586058 74.04191467 140.2734375 88.375 C139.67418581 102.94690239 131.23311488 113.66971496 120.984375 123.34765625 C69.12080089 169.44106832 -19.00986718 174.89579366 -85 174 C-85 156.84 -85 139.68 -85 122 C-82.36 121.01 -79.72 120.02 -77 119 C-75.07991844 117.58387477 -75.07991844 117.58387477 -73.84375 115.84765625 C-73.12638672 114.92364014 -73.12638672 114.92364014 -72.39453125 113.98095703 C-69.97102808 110.53832666 -67.70197711 107.025472 -65.5 103.4375 C-64.44582774 101.74447074 -63.39111852 100.05177573 -62.3359375 98.359375 C-61.7903418 97.48087891 -61.24474609 96.60238281 -60.68261719 95.69726562 C-57.86107759 91.17428689 -54.99176841 86.6818944 -52.125 82.1875 C-50.94262194 80.33078418 -49.76033089 78.47401295 -48.578125 76.6171875 C-46.78849399 73.80756461 -44.9987391 70.99802065 -43.20898438 68.18847656 C-36.63847279 57.87313242 -30.07788196 47.55191076 -23.55395508 37.20703125 C-18.99225092 29.97767719 -14.40226934 22.76642077 -9.80664062 15.55859375 C-6.51186394 10.38821078 -3.24122453 5.20413434 0 0 Z " fill="#13C37A" transform="translate(341,338)"/>
</svg>
