<?xml version="1.0" encoding="utf-8"?>
<!-- Generator: Adobe Illustrator 26.0.1, SVG Export Plug-In . SVG Version: 6.00 Build 0)  -->
<svg version="1.1" id="Layer_1" xmlns="http://www.w3.org/2000/svg" xmlns:xlink="http://www.w3.org/1999/xlink" x="0px" y="0px"
	 viewBox="0 0 32 32" style="enable-background:new 0 0 32 32;" xml:space="preserve">
<style type="text/css">
	.st0{clip-path:url(#SVGID_00000126283014128629441720000001803100125511850635_);}
	.st1{fill:#5D378C;}
</style>
<g>
	<defs>
		<rect id="SVGID_1_" x="4.6" y="2.9" width="22.8" height="26.6"/>
	</defs>
	<clipPath id="SVGID_00000133528646632029804220000016348779896806039694_">
		<use xlink:href="#SVGID_1_"  style="overflow:visible;"/>
	</clipPath>
	<g style="clip-path:url(#SVGID_00000133528646632029804220000016348779896806039694_);">
		<path class="st1" d="M18.4,20H19l-0.9,1.9h-0.3L18.4,20z M16.4,20h1l-0.5,1.9h-0.5L16.4,20z M14.5,20h1v1.9H15L14.5,20z M12.8,20
			h0.7l0.5,1.9h-0.2L12.8,20z M19.1,17.1h1.2L19.5,19h-0.9L19.1,17.1z M16.4,17.1h1.8L17.6,19h-1.2L16.4,17.1z M13.7,17.1h1.8V19
			h-1.2L13.7,17.1z M11.5,17.1h1.2l0.5,1.9h-0.9L11.5,17.1z M16,2.9l-3,2.9l1.2,8.1l1.3,1.1v1.2h-2l-0.4-1.4l0.6-0.8l-1.2-8.1
			l-3-2.2L8.2,6.2l2.9,8l1,0.7l0.4,1.3h-1.4l-0.5-1.1l0.2-0.7l-3-8L4.6,5l8.2,16.9l-0.5,3.2c-0.1,0.4-0.1,0.8,0,1.2
			c0.3,2.1,2.3,3.5,4.4,3.1c1.6-0.3,2.9-1.5,3.1-3.1c0.1-0.4,0.1-0.8,0-1.2l-0.5-3.2L27.3,5l-3.1,1.4l-3,8l0.2,0.7l-0.5,1.1h-1.4
			l0.4-1.3l1-0.7l2.9-8l-1.3-2.6l-3,2.2L18.2,14l0.6,0.8l-0.4,1.4h-2V15l1.3-1.1l1.2-8.1L16,2.9"/>
	</g>
</g>
</svg>
