<?xml version="1.0" encoding="utf-8"?>
<!-- Generator: Adobe Illustrator 26.0.1, SVG Export Plug-In . SVG Version: 6.00 Build 0)  -->
<svg version="1.1" id="Layer_1" xmlns="http://www.w3.org/2000/svg" xmlns:xlink="http://www.w3.org/1999/xlink" x="0px" y="0px"
	 viewBox="0 0 32 32" style="enable-background:new 0 0 32 32;" xml:space="preserve">
<style type="text/css">
	.st0{fill:none;stroke:#5C378C;stroke-miterlimit:10;}
	.st1{clip-path:url(#SVGID_00000116199453855490250250000010913490386927975048_);}
	.st2{fill:#5D378C;}
</style>
<path class="st0" d="M27.5,31.7c2.3,0,4.1-1.8,4.1-4.1l0,0V4.6c0-2.3-1.8-4.1-4.1-4.1c0,0,0,0,0,0H4.5c-2.3,0-4.1,1.8-4.1,4.1v22.9
	c0,2.3,1.8,4.1,4.1,4.1l0,0H27.5"/>
<g>
	<defs>
		<rect id="SVGID_1_" x="4.5" y="2.4" width="22.8" height="26.6"/>
	</defs>
	<clipPath id="SVGID_00000134939817404480091460000001381989449424220050_">
		<use xlink:href="#SVGID_1_"  style="overflow:visible;"/>
	</clipPath>
	<g style="clip-path:url(#SVGID_00000134939817404480091460000001381989449424220050_);">
		<path class="st2" d="M18.4,19.5H19l-0.9,1.9h-0.3L18.4,19.5z M16.4,19.5h1l-0.5,1.9h-0.5L16.4,19.5z M14.4,19.5h1v1.9H15
			L14.4,19.5z M12.8,19.5h0.6l0.5,1.9h-0.3L12.8,19.5z M19.1,16.6h1.3l-0.9,1.9h-0.9L19.1,16.6z M16.4,16.6h1.8l-0.5,1.9h-1.2
			L16.4,16.6z M13.7,16.6h1.8v1.9h-1.2L13.7,16.6z M11.5,16.6h1.2l0.5,1.9h-0.9L11.5,16.6z M16,2.4l-3,2.9l1.2,8.1l1.3,1.1v1.2h-2
			l-0.4-1.4l0.6-0.8l-1.2-8.1l-3-2.2L8.2,5.7l2.9,8l1,0.7l0.4,1.3h-1.4l-0.5-1.1l0.2-0.7l-3-8L4.6,4.4l8.2,16.9l-0.5,3.2
			c-0.4,2.1,1,4,3.1,4.4s4-1,4.4-3.1c0.1-0.4,0.1-0.9,0-1.3l-0.5-3.2l8.2-16.9l-3.1,1.4l-3,8l0.2,0.7l-0.5,1.1h-1.4l0.4-1.3l1-0.7
			l2.9-8l-1.3-2.6l-3,2.2l-1.2,8.1l0.6,0.8l-0.4,1.4h-2v-1.2l1.3-1.1l1.2-8.1L16,2.4"/>
	</g>
</g>
</svg>
