<?xml version="1.0" encoding="utf-8"?>
<!-- Generator: Adobe Illustrator 26.0.1, SVG Export Plug-In . SVG Version: 6.00 Build 0)  -->
<svg version="1.1" id="Layer_1" xmlns="http://www.w3.org/2000/svg" xmlns:xlink="http://www.w3.org/1999/xlink" x="0px" y="0px"
	 viewBox="0 0 32 32" style="enable-background:new 0 0 32 32;" xml:space="preserve">
<style type="text/css">
	.st0{fill:#5B378C;}
	.st1{clip-path:url(#SVGID_00000122696286636548795690000012962920247283523237_);}
	.st2{clip-path:url(#SVGID_00000172410849491463803020000009967633144481238409_);}
	.st3{clip-path:url(#SVGID_00000026868451653572404410000005327141349787442582_);}
	.st4{clip-path:url(#SVGID_00000023256461912069712470000013890978223295818128_);}
	.st5{clip-path:url(#SVGID_00000177459238690818160460000012733715394046154881_);}
	.st6{clip-path:url(#SVGID_00000093144266509165461490000013680442285882922368_);}
	.st7{fill-rule:evenodd;clip-rule:evenodd;fill:#5B378C;}
</style>
<path class="st0" d="M14.9,3.1C14.9,3.1,14.9,3.1,14.9,3.1l0.6-0.6c0-0.1,0.1-0.2,0.1-0.3L14.8,3C14.8,3,14.8,3.1,14.9,3.1L14.9,3.1
	"/>
<path class="st0" d="M15.6,4l-1.4,1.3c0,0,0,0.1,0,0.1c0,0,0,0,0,0c0,0,0,0,0.1,0h0.1l1.4-1.2C15.6,4.1,15.6,4.1,15.6,4"/>
<path class="st0" d="M14.4,4.2l1.1-1c0,0,0-0.1,0-0.1c0-0.1,0-0.2,0-0.3L14.2,4c-0.1,0.1-0.1,0.1,0,0.2c0,0,0,0,0,0
	C14.2,4.2,14.2,4.2,14.4,4.2L14.4,4.2"/>
<path class="st0" d="M16.7,5.3l-1.3,1.1c-0.1,0.1-0.1,0.1,0,0.2c0,0,0,0,0,0c0,0,0.1,0,0.1,0c0,0,0.1,0,0.1,0l1.3-1.2L16.7,5.3"/>
<path class="st0" d="M17.7,6.4c0,0,0,0.1,0,0.1h0.1c0,0,0,0,0,0l1.1-1c-0.1,0.1-0.2,0.1-0.4,0.1L17.7,6.4"/>
<path class="st0" d="M18,5.7h-0.2l-1.1,1c0,0,0,0.1,0,0.1c0,0,0,0,0,0h0.1h0.1L18,5.7L18,5.7"/>
<g>
	<defs>
		<rect id="SVGID_1_" x="5.1" y="7.3" width="4.2" height="4.5"/>
	</defs>
	<clipPath id="SVGID_00000026852003046885327890000015410727819192782738_">
		<use xlink:href="#SVGID_1_"  style="overflow:visible;"/>
	</clipPath>
	<g style="clip-path:url(#SVGID_00000026852003046885327890000015410727819192782738_);">
		<path class="st0" d="M6.4,11.5l2.8-1.9c0-1.1-0.9-2-2.1-2s-2,0.9-2,2.1C5.1,10.4,5.6,11.2,6.4,11.5"/>
	</g>
</g>
<g>
	<defs>
		<rect id="SVGID_00000013188778901943665750000013358560779707878034_" x="5.3" y="5.5" width="8.6" height="25.2"/>
	</defs>
	<clipPath id="SVGID_00000032641854908810548890000013400472213235893671_">
		<use xlink:href="#SVGID_00000013188778901943665750000013358560779707878034_"  style="overflow:visible;"/>
	</clipPath>
	<g style="clip-path:url(#SVGID_00000032641854908810548890000013400472213235893671_);">
		<path class="st0" d="M10.8,11.8l-2,0.4l1.7-1.1c0.1,0,0.1-0.1,0.2-0.2l0.9-1.3L10.8,11.8z M13,7.9c-0.1,0-0.2,0-0.2,0l0.5-0.7
			c0.3-0.4,0.2-0.9-0.2-1.1c0,0,0,0,0,0c-0.4-0.3-0.9-0.2-1.1,0.2L9.4,9.8l-3.6,2.5c-0.3,0.2-0.4,0.5-0.3,0.8l0,0
			c0,0,0.2,6.8,0.2,7.1c0,0.1,0,0.2,0.1,0.3l0,0c0,0.1,0.1,0.2,0.1,0.2l2.6,3.9l2,5.5c0.1,0.4,0.5,0.7,0.9,0.7c0.1,0,0.2,0,0.3-0.1
			c0.5-0.2,0.8-0.8,0.6-1.3l-2-5.6c0-0.1-0.1-0.1-0.1-0.2l-2.1-3.1l0.4-0.1l2.4,1.7l-0.3,1.6l1.3,3.6c0-0.1,0.1-0.2,0.1-0.2l1-5.2
			c0.1-0.4-0.1-0.8-0.4-1l-3.1-2.2l0,0v-4.9l2.2-0.4c0.3-0.1,0.5-0.2,0.6-0.5L13.5,9C13.7,8.5,13.4,8.1,13,7.9"/>
	</g>
</g>
<path class="st0" d="M16.2,2.5l0.1-0.2l0.1-0.1c-0.1-0.1-0.2-0.3-0.2-0.5C16.1,1.8,16,1.9,15.9,2c0,0,0,0.1,0,0.1
	C16,2.3,16.1,2.4,16.2,2.5"/>
<path class="st0" d="M16,2.8c-0.1-0.1-0.2-0.2-0.3-0.3c-0.1,0.2-0.1,0.4-0.1,0.6c0.1,0,0.2,0,0.3,0.1L16,2.8"/>
<g>
	<defs>
		<rect id="SVGID_00000088117560118992780130000004482922261668882365_" x="16.1" y="0.8" width="2.3" height="1.1"/>
	</defs>
	<clipPath id="SVGID_00000010308593930505793920000011463036369438081926_">
		<use xlink:href="#SVGID_00000088117560118992780130000004482922261668882365_"  style="overflow:visible;"/>
	</clipPath>
	<g style="clip-path:url(#SVGID_00000010308593930505793920000011463036369438081926_);">
		<path class="st0" d="M18,0.8c-0.6,0-1.1,0.2-1.6,0.6c0,0.2,0,0.4,0.1,0.5C16.9,1.4,17.4,1,18,0.8"/>
	</g>
</g>
<g>
	<defs>
		<rect id="SVGID_00000166661747718143068010000005233095868106228153_" x="16.6" y="0.8" width="3.6" height="1.6"/>
	</defs>
	<clipPath id="SVGID_00000090264605664178318370000009269585255693510803_">
		<use xlink:href="#SVGID_00000166661747718143068010000005233095868106228153_"  style="overflow:visible;"/>
	</clipPath>
	<g style="clip-path:url(#SVGID_00000090264605664178318370000009269585255693510803_);">
		<path class="st0" d="M16.8,2c0.4,0.2,0.8,0.2,1.2,0.1c0.2,0,0.3,0,0.5-0.1C19,1.9,19.6,1.9,20.1,2c-0.2-0.4-0.6-0.7-1-0.9
			C19,1,18.9,1,18.8,0.9C18,1,17.3,1.4,16.8,2"/>
	</g>
</g>
<path class="st0" d="M15.7,3.3c0,0.2,0.1,0.4,0.1,0.6c0-0.2,0-0.4,0-0.5C15.8,3.4,15.7,3.4,15.7,3.3"/>
<g>
	<defs>
		<rect id="SVGID_00000036932959931811604910000007633433614186136766_" x="16.1" y="1.9" width="4.3" height="2.7"/>
	</defs>
	<clipPath id="SVGID_00000127756908242801261780000007839661785359603072_">
		<use xlink:href="#SVGID_00000036932959931811604910000007633433614186136766_"  style="overflow:visible;"/>
	</clipPath>
	<g style="clip-path:url(#SVGID_00000127756908242801261780000007839661785359603072_);">
		<path class="st0" d="M20.3,2.4c-0.5-0.2-1.1-0.2-1.7,0l-0.6,0c-0.1,0-0.3,0-0.5,0c-0.3,0-0.6,0-0.9-0.2l-0.1,0.1l-0.2,0.3
			c0.6,0.4,1.3,0.8,2,1.1C18.9,4,19.5,4.1,20,4.2l0,0C20.3,3.7,20.4,3,20.3,2.4"/>
	</g>
</g>
<path class="st0" d="M16.3,3c0,0.1-0.1,0.2-0.1,0.3c0.3,0.3,0.5,0.6,0.7,0.9C17,4.3,17,4.4,17.1,4.5c0.3,0.5,0.7,0.8,1.2,1
	c0.7-0.1,1.3-0.4,1.7-1c-0.5-0.1-1.1-0.3-1.6-0.5C17.6,3.8,16.9,3.4,16.3,3"/>
<path class="st0" d="M16.9,5.2c0.2,0.1,0.4,0.2,0.7,0.2c-0.3-0.2-0.5-0.5-0.8-0.8l-0.2-0.3c-0.2-0.3-0.3-0.5-0.5-0.7
	c0,0.4,0,0.8,0.2,1.1C16.5,4.9,16.7,5.1,16.9,5.2"/>
<g>
	<defs>
		<rect id="SVGID_00000084494842247398272140000007309652663201986226_" x="14.5" y="10" width="12.5" height="11.6"/>
	</defs>
	<clipPath id="SVGID_00000044893054200462105310000014902999061882923189_">
		<use xlink:href="#SVGID_00000084494842247398272140000007309652663201986226_"  style="overflow:visible;"/>
	</clipPath>
	<g style="clip-path:url(#SVGID_00000044893054200462105310000014902999061882923189_);">
		<path class="st7" d="M15.2,11.2c1.8,3.1,2.6,6.6,2.6,10.2c0,0.1,0.1,0.1,0.1,0.1c0,0,0.1,0,0.1,0c0,0,0.1,0,0.1-0.1l0.8-1.4
			l0.8,1.4l0,0l0,0l0,0h0.1h0.1l0,0l0,0l0,0l0.9-1.6l0.9,1.5l0,0l0,0l0,0l0,0c0,0,0,0,0.1,0c0,0,0,0,0.1,0l0,0l0,0l0,0l0,0l1-1.4
			l0.8,1.5l0,0l0,0h0.1l0,0l0,0l0,0c0,0,0,0,0,0c0,0,0,0,0-0.1l0,0c0-0.4,0-0.8,0-1.2c0.1-1.2,0.2-2.3,0.5-3.5
			c0.2-0.8,0.4-1.5,0.6-2.3c0.1-0.3,0.2-0.7,0.4-1s0.2-0.6,0.4-0.9s0.2-0.5,0.3-0.7s0.2-0.4,0.4-0.6l0,0c0.3,0,0.6-0.2,0.7-0.5
			c0-0.3-0.2-0.6-0.5-0.7c-0.1,0-0.1,0-0.2,0H15.1c-0.3,0-0.6,0.2-0.7,0.5s0.2,0.6,0.5,0.7C15,11.3,15,11.3,15.2,11.2L15.2,11.2z
			 M19,19.7l0.8,1.3l0.9-1.5l-0.8-1.4L19,19.7z M21,19.6l0.8,1.4l0.8-1.4l-0.8-1.5L21,19.6z M17.8,18.3c0.1,0.4,0.1,0.9,0.1,1.3
			s0,0.9,0.1,1.3l0,0l0.7-1.2L17.8,18.3L17.8,18.3z M23.7,18.2l-0.9,1.5l0.6,1.1C23.6,19.9,23.6,19.1,23.7,18.2z M17.9,17.9l0.9,1.6
			l0.9-1.5l-0.9-1.6L17.9,17.9z M21.9,17.9l0.8,1.5l0.9-1.6l-0.9-1.5L21.9,17.9z M20,17.9l0.8,1.4l0.8-1.4l-0.8-1.4L20,17.9z
			 M18.9,16l0.9,1.6l0.8-1.4l-0.9-1.6L18.9,16z M17.7,17.6l0.9-1.6l-0.9-1.5l-0.5,0.9l0,0c0.1,0.3,0.1,0.6,0.2,0.9
			S17.6,17.2,17.7,17.6L17.7,17.6z M21,16.2l0.8,1.4l0.9-1.6l-0.8-1.4L21,16.2z M24.4,15.5l-0.5-0.9L23,16l0.9,1.5l0,0
			c0-0.3,0.1-0.7,0.2-1S24.2,15.8,24.4,15.5z M20,14.4l0.8,1.6l0.9-1.6l-0.9-1.5L20,14.4z M18,14.3l0.9,1.5l0.8-1.4l-0.8-1.5
			L18,14.3z M22,14.4l0.8,1.4l0.8-1.5l-0.8-1.4L22,14.4z M25,13.2l-0.3-0.4l-0.9,1.5l0.5,0.8C24.5,14.5,24.8,13.9,25,13.2z
			 M17.1,15.1l0.5-0.8l-0.8-1.5l-0.2,0.4C16.7,13.8,16.9,14.4,17.1,15.1L17.1,15.1z M21.7,11.2L21,12.6l0.9,1.5l0.8-1.5l-0.8-1.5
			L21.7,11.2z M19.7,11.2l-0.8,1.4l0.9,1.5l0.9-1.5l-0.8-1.4H19.7z M17.8,11.2l-0.9,1.4l0.8,1.4l0.8-1.4L17.8,11.2L17.8,11.2z
			 M23.8,11.2L23,12.6l0.8,1.4l0.9-1.5L23.8,11.2L23.8,11.2z M16.4,12.9l0.2-0.4l-0.8-1.4h-0.3C15.8,11.7,16.1,12.3,16.4,12.9
			L16.4,12.9z M26,11.2h-0.3l-0.8,1.3l0.2,0.4C25.4,12.3,25.7,11.7,26,11.2z M22.1,11.2l0.7,1.2l0.7-1.2H22.1z M16.1,11.2l0.7,1.1
			l0.7-1.1H16.1z M18.1,11.2l0.6,1.1l0.6-1.1H18.1z M20.1,11.2l0.6,1.1l0.6-1.1H20.1z M24.1,11.2l0.6,1.1l0.6-1.1H24.1z"/>
	</g>
</g>
</svg>
