<?xml version="1.0" encoding="utf-8"?>
<!-- Generator: Adobe Illustrator 26.0.1, SVG Export Plug-In . SVG Version: 6.00 Build 0)  -->
<svg version="1.1" id="Layer_1" xmlns="http://www.w3.org/2000/svg" xmlns:xlink="http://www.w3.org/1999/xlink" x="0px" y="0px"
	 viewBox="0 0 32 32" style="enable-background:new 0 0 32 32;" xml:space="preserve">
<style type="text/css">
	.st0{fill:none;stroke:#5A378C;stroke-miterlimit:10;}
	.st1{fill:#5B378C;}
	.st2{clip-path:url(#SVGID_00000078734984597070261810000014284386704457300362_);}
	.st3{clip-path:url(#SVGID_00000129207317355395546620000010020127341822003360_);}
	.st4{clip-path:url(#SVGID_00000068653731849216601270000010677322307947720093_);}
	.st5{clip-path:url(#SVGID_00000073680488158976667630000007721634946038432645_);}
	.st6{clip-path:url(#SVGID_00000109733635686519853500000002938859767800514986_);}
	.st7{clip-path:url(#SVGID_00000111881491355161446830000010326295467388087222_);}
	.st8{fill-rule:evenodd;clip-rule:evenodd;fill:#5B378C;}
</style>
<path class="st0" d="M27.6,31.6c2.3,0,4.1-1.8,4.1-4.1l0,0V4.5c0-2.3-1.8-4.1-4.1-4.1c0,0,0,0,0,0H4.7c-2.3,0-4.1,1.8-4.1,4.1v22.9
	c0,2.3,1.8,4.1,4.1,4.1l0,0H27.6"/>
<path class="st1" d="M15.6,4.3C15.6,4.3,15.6,4.3,15.6,4.3l0.6-0.5c0-0.1,0.1-0.2,0.1-0.3l-0.7,0.7C15.5,4.3,15.5,4.3,15.6,4.3
	L15.6,4.3"/>
<path class="st1" d="M16.2,5.2l-1.3,1.2c0,0,0,0.1,0,0.1c0,0,0,0,0.1,0h0.1l1.3-1.2C16.3,5.3,16.3,5.2,16.2,5.2"/>
<path class="st1" d="M15.1,5.4l1-0.9c0,0,0-0.1,0-0.1c0-0.1,0-0.2,0-0.2l-1.2,1.1c-0.1,0-0.1,0.1,0,0.2c0,0,0,0,0,0
	C14.9,5.4,15,5.4,15.1,5.4C15,5.4,15.1,5.4,15.1,5.4"/>
<path class="st1" d="M17.2,6.4l-1.2,1.1c0,0.1,0,0.1,0,0.2c0,0,0.1,0,0.1,0c0,0,0.1,0,0.1,0l1.2-1.2L17.2,6.4"/>
<path class="st1" d="M18.2,7.4C18.1,7.4,18.1,7.5,18.2,7.4c0,0.1,0,0.1,0,0.1c0,0,0,0,0.1,0c0,0,0,0,0,0l1-1L19,6.7L18.2,7.4"/>
<path class="st1" d="M18.5,6.7h-0.2l-1,0.9c0,0,0,0.1,0,0.1h0.1h0.1L18.5,6.7L18.5,6.7"/>
<g>
	<defs>
		<rect id="SVGID_1_" x="6.5" y="8.3" width="3.9" height="4.2"/>
	</defs>
	<clipPath id="SVGID_00000097485203357929821660000000456126005113697452_">
		<use xlink:href="#SVGID_1_"  style="overflow:visible;"/>
	</clipPath>
	<g style="clip-path:url(#SVGID_00000097485203357929821660000000456126005113697452_);">
		<path class="st1" d="M7.7,12.1l2.6-1.8c0-1.1-0.9-1.9-1.9-1.9c-1.1,0-1.9,0.9-1.9,1.9C6.5,11.1,7,11.9,7.7,12.1"/>
	</g>
</g>
<g>
	<defs>
		<rect id="SVGID_00000105399329856508157690000004323659474532467600_" x="6.6" y="6.6" width="8" height="23.4"/>
	</defs>
	<clipPath id="SVGID_00000059308802155036407820000014544500486833174456_">
		<use xlink:href="#SVGID_00000105399329856508157690000004323659474532467600_"  style="overflow:visible;"/>
	</clipPath>
	<g style="clip-path:url(#SVGID_00000059308802155036407820000014544500486833174456_);">
		<path class="st1" d="M11.7,12.4l-1.8,0.3l1.5-1.1c0.1,0,0.1-0.1,0.2-0.2l0.9-1.2L11.7,12.4z M13.8,8.8c-0.1,0-0.1,0-0.2,0L14,8.2
			c0.2-0.3,0.1-0.8-0.2-1c-0.3-0.2-0.8-0.1-1,0.2l-2.3,3.2l-3.4,2.3c-0.2,0.2-0.4,0.5-0.3,0.8l0,0c0,0,0.3,6.3,0.3,6.6
			c0,0.1,0,0.2,0.1,0.3l0,0c0,0.1,0.1,0.1,0.1,0.2l2.4,3.6l1.9,5.1c0.1,0.4,0.5,0.6,0.9,0.6c0.1,0,0.2,0,0.3-0.1
			c0.5-0.2,0.7-0.7,0.6-1.2c0,0,0,0,0,0l-1.9-5.2c0-0.1-0.1-0.1-0.1-0.2l-1.9-2.9l0.3-0.1l2.2,1.6l-0.3,1.5l1.2,3.4
			c0-0.1,0.1-0.2,0.1-0.2l0.9-4.9c0.1-0.4-0.1-0.7-0.4-0.9l-2.9-2.1l0,0v-4.6l2.1-0.4c0.3,0,0.5-0.2,0.6-0.5l1.3-3.6
			C14.4,9.4,14.2,9,13.8,8.8"/>
	</g>
</g>
<path class="st1" d="M16.7,4c-0.1-0.1-0.2-0.2-0.3-0.3c-0.1,0.2-0.1,0.4-0.1,0.5c0.1,0,0.2,0,0.2,0.1C16.6,4.2,16.6,4.1,16.7,4"/>
<path class="st1" d="M16.8,3.8l0.1-0.2L17,3.5c-0.1-0.1-0.2-0.3-0.2-0.4c-0.1,0.1-0.2,0.2-0.2,0.3c0,0,0,0.1,0,0.1
	C16.6,3.6,16.7,3.7,16.8,3.8"/>
<g>
	<defs>
		<rect id="SVGID_00000016054154200044313650000011141366970739975353_" x="16.8" y="2.2" width="2.1" height="1"/>
	</defs>
	<clipPath id="SVGID_00000082329829712225438630000000251944007978191491_">
		<use xlink:href="#SVGID_00000016054154200044313650000011141366970739975353_"  style="overflow:visible;"/>
	</clipPath>
	<g style="clip-path:url(#SVGID_00000082329829712225438630000000251944007978191491_);">
		<path class="st1" d="M18.5,2.2c-0.6,0-1.1,0.2-1.5,0.5c0,0.2,0,0.3,0.1,0.5C17.5,2.8,17.9,2.5,18.5,2.2"/>
	</g>
</g>
<g>
	<defs>
		<rect id="SVGID_00000162333982301235002250000012283349238645889966_" x="17.2" y="2.2" width="3.4" height="1.5"/>
	</defs>
	<clipPath id="SVGID_00000127755653812585464500000017982697077936384701_">
		<use xlink:href="#SVGID_00000162333982301235002250000012283349238645889966_"  style="overflow:visible;"/>
	</clipPath>
	<g style="clip-path:url(#SVGID_00000127755653812585464500000017982697077936384701_);">
		<path class="st1" d="M17.4,3.4c0.4,0.1,0.7,0.1,1.1,0.1c0.1,0,0.3,0,0.5-0.1c0.5-0.1,1-0.1,1.5,0c-0.2-0.4-0.5-0.7-0.9-0.9
			c-0.1-0.1-0.2-0.1-0.3-0.1C18.5,2.4,17.8,2.8,17.4,3.4"/>
	</g>
</g>
<path class="st1" d="M16.3,4.6c0,0.2,0.1,0.4,0.1,0.6c0-0.2,0-0.3,0-0.5C16.4,4.6,16.3,4.6,16.3,4.6"/>
<g>
	<defs>
		<rect id="SVGID_00000155113674296241019220000011545742883505371027_" x="16.8" y="3.2" width="4" height="2.5"/>
	</defs>
	<clipPath id="SVGID_00000087401601167074359800000003567091471670072192_">
		<use xlink:href="#SVGID_00000155113674296241019220000011545742883505371027_"  style="overflow:visible;"/>
	</clipPath>
	<g style="clip-path:url(#SVGID_00000087401601167074359800000003567091471670072192_);">
		<path class="st1" d="M20.6,3.7c-0.5-0.2-1.1-0.2-1.6,0l-0.5,0.1c-0.1,0-0.3,0-0.5,0c-0.3,0-0.5,0-0.8-0.2l-0.1,0.1
			C17.1,3.8,17,3.9,17,4c0.6,0.4,1.2,0.7,1.9,1c0.5,0.2,1,0.4,1.5,0.4l0,0C20.7,4.9,20.8,4.3,20.6,3.7"/>
	</g>
</g>
<path class="st1" d="M16.9,4.2c0,0.1-0.1,0.2-0.1,0.3C17,4.7,17.3,5,17.4,5.3l0.2,0.3c0.2,0.4,0.6,0.7,1.1,0.9
	c0.6-0.1,1.2-0.4,1.5-0.9c-0.5-0.1-1-0.2-1.5-0.4C18.1,5,17.5,4.6,16.9,4.2"/>
<path class="st1" d="M17.5,6.3c0.2,0.1,0.4,0.2,0.6,0.2c-0.3-0.2-0.5-0.5-0.7-0.8l-0.2-0.3c-0.1-0.2-0.3-0.5-0.5-0.7
	c0,0.4,0,0.7,0.2,1.1C17.1,6.1,17.3,6.2,17.5,6.3"/>
<g>
	<defs>
		<rect id="SVGID_00000181069869196458992020000007529128543811069612_" x="15.2" y="10.7" width="11.7" height="10.8"/>
	</defs>
	<clipPath id="SVGID_00000034090111848265850820000003850381658889327278_">
		<use xlink:href="#SVGID_00000181069869196458992020000007529128543811069612_"  style="overflow:visible;"/>
	</clipPath>
	<g style="clip-path:url(#SVGID_00000034090111848265850820000003850381658889327278_);">
		<path class="st8" d="M15.9,11.9c1.6,2.9,2.5,6.1,2.4,9.4c0,0.1,0.1,0.1,0.1,0.1c0,0,0.1,0,0.1,0c0,0,0.1,0,0.1-0.1l0.7-1.3
			l0.8,1.3l0,0l0,0c0,0,0.1,0,0.1,0l0,0l0,0l0,0l0.8-1.5l0.8,1.4l0,0l0,0l0,0h0.1l0,0l0,0l0,0l1-1.3l0.8,1.4l0,0l0,0h0.1l0,0l0,0
			l0,0h0c0,0,0,0,0-0.1l0,0c0-0.4,0-0.7,0-1.1c0.1-1.1,0.3-2.1,0.6-3.2c0.1-0.7,0.3-1.4,0.6-2.1c0.1-0.3,0.2-0.6,0.3-0.9
			s0.2-0.6,0.4-0.8s0.2-0.4,0.3-0.6s0.2-0.4,0.3-0.6l0,0c0.3,0,0.5-0.3,0.5-0.6c0-0.3-0.2-0.5-0.5-0.5H15.8c-0.3,0-0.6,0.2-0.6,0.5
			s0.2,0.6,0.5,0.6C15.7,11.9,15.7,11.9,15.9,11.9L15.9,11.9z M19.4,19.9l0.7,1.2l0.8-1.4l-0.7-1.3L19.4,19.9z M21.2,19.7L22,21
			l0.7-1.3l-0.8-1.4L21.2,19.7z M18.3,18.5c0,0.4,0.1,0.8,0.1,1.2s0,0.8,0.1,1.2l0,0l0.6-1.1L18.3,18.5L18.3,18.5z M23.8,18.4
			L23,19.8l0.6,1.1C23.6,20,23.7,19.2,23.8,18.4L23.8,18.4z M18.4,18.1l0.9,1.5l0.8-1.4l-0.9-1.5L18.4,18.1z M22.1,18.1l0.8,1.4
			l0.9-1.5l-0.8-1.4L22.1,18.1z M20.3,18.1l0.7,1.3l0.7-1.3l-0.7-1.3L20.3,18.1z M19.3,16.4l0.9,1.5l0.8-1.3l-0.8-1.5L19.3,16.4z
			 M18.2,17.9l0.8-1.5L18.2,15l-0.5,0.8l0,0c0.1,0.3,0.1,0.5,0.2,0.8S18.1,17.4,18.2,17.9L18.2,17.9z M21.2,16.6l0.7,1.3l0.8-1.5
			L22,15.1L21.2,16.6z M24.3,15.9L23.9,15l-0.8,1.4l0.8,1.4l0,0c0-0.3,0.1-0.6,0.2-0.9S24.2,16.2,24.3,15.9L24.3,15.9z M20.2,14.9
			l0.8,1.5l0.8-1.5l-0.8-1.4L20.2,14.9z M18.4,14.8l0.8,1.4l0.8-1.4l-0.8-1.4L18.4,14.8z M22.2,14.9l0.7,1.3l0.8-1.4L23,13.5
			L22.2,14.9z M25,13.8l-0.2-0.4L24,14.8l0.4,0.8C24.6,14.9,24.8,14.3,25,13.8z M17.7,15.5l0.4-0.7l-0.8-1.4l-0.2,0.4
			C17.3,14.3,17.5,14.9,17.7,15.5z M22,11.9l-0.7,1.3l0.7,1.4l0.8-1.4L22,11.9z M20.1,11.9l-0.8,1.3l0.8,1.4l0.8-1.4l-0.7-1.3H20.1z
			 M18.3,11.9l-0.8,1.3l0.8,1.4l0.7-1.4L18.3,11.9L18.3,11.9z M23.9,11.9l-0.8,1.4l0.8,1.3l0.8-1.4L23.9,11.9L23.9,11.9z M17,13.5
			l0.2-0.3l-0.8-1.3h-0.3C16.5,12.4,16.8,12.9,17,13.5z M26,11.9h-0.3L25,13.1l0.2,0.4C25.4,12.9,25.7,12.4,26,11.9z M22.4,11.9
			L23,13l0.6-1.1L22.4,11.9z M16.7,11.9l0.6,1.1l0.6-1.1H16.7z M18.6,11.9l0.6,1.1l0.6-1.1H18.6z M20.5,11.9l0.6,1l0.6-1H20.5z
			 M24.2,11.9l0.6,1l0.6-1H24.2z"/>
	</g>
</g>
</svg>
