<?xml version="1.0" encoding="utf-8"?>
<!-- Generator: Adobe Illustrator 26.0.1, SVG Export Plug-In . SVG Version: 6.00 Build 0)  -->
<svg version="1.1" id="Layer_1" xmlns="http://www.w3.org/2000/svg" xmlns:xlink="http://www.w3.org/1999/xlink" x="0px" y="0px"
	 viewBox="0 0 32 32" style="enable-background:new 0 0 32 32;" xml:space="preserve">
<style type="text/css">
	.st0{fill:none;stroke:#58378C;stroke-miterlimit:10;}
	.st1{fill:#59378C;}
</style>
<path class="st0" d="M27.5,31.7c2.3,0,4.1-1.8,4.1-4.1l0,0V4.7c0-2.3-1.8-4.1-4.1-4.1c0,0,0,0,0,0H4.5c-2.3,0-4.1,1.8-4.1,4.1v22.9
	c0,2.3,1.8,4.1,4.1,4.1l0,0H27.5"/>
<path class="st1" d="M5,18V9.4c0.1-0.6-0.4-1.1-1-1.2c-0.6-0.1-1.1,0.4-1.2,1c0,0.1,0,0.1,0,0.2v14c-0.1,0.6,0.4,1.1,1,1.2
	s1.1-0.4,1.2-1c0-0.1,0-0.1,0-0.2v-2l22,0v2c0,0.6,0.5,1.1,1.1,1.1s1.1-0.5,1.1-1.1c0,0,0,0,0,0V18H5z"/>
<path class="st1" d="M29.2,17.1H12.8V13c0-1.2,1-2.1,2.1-2.1c0,0,0,0,0,0h9.9c2.4,0,4.3,1.9,4.3,4.3c0,0,0,0,0,0L29.2,17.1z"/>
<path class="st1" d="M11.6,14c0,0.2,0,0.3-0.1,0.5c0,0.2-0.1,0.3-0.1,0.5c-0.1,0.2-0.1,0.3-0.2,0.4c-0.1,0.1-0.2,0.3-0.3,0.4
	c-0.1,0.1-0.3,0.2-0.4,0.3c-0.1,0.1-0.3,0.2-0.4,0.2c-0.2,0.1-0.3,0.1-0.5,0.1c-0.3,0.1-0.7,0.1-1,0c-0.2,0-0.4-0.1-0.5-0.2
	c-0.3-0.1-0.6-0.3-0.8-0.6c-0.2-0.2-0.4-0.5-0.6-0.9c-0.1-0.2-0.1-0.3-0.2-0.5c0-0.2,0-0.3-0.1-0.5c0-0.2,0-0.3,0.1-0.5
	c0-0.2,0.1-0.3,0.2-0.5c0.1-0.2,0.1-0.3,0.2-0.4c0.1-0.1,0.2-0.3,0.3-0.4c0.2-0.2,0.5-0.4,0.8-0.6c0.2-0.1,0.3-0.1,0.5-0.1
	c0.3-0.1,0.7-0.1,1,0c0.2,0,0.3,0.1,0.5,0.1c0.2,0.1,0.3,0.1,0.4,0.2c0.3,0.2,0.5,0.4,0.7,0.7c0.1,0.1,0.2,0.3,0.2,0.4
	c0.1,0.2,0.1,0.3,0.1,0.5C11.6,13.7,11.6,13.8,11.6,14z"/>
</svg>
