<?xml version="1.0" encoding="utf-8"?>
<!-- Generator: Adobe Illustrator 26.0.1, SVG Export Plug-In . SVG Version: 6.00 Build 0)  -->
<svg version="1.1" id="Layer_1" xmlns="http://www.w3.org/2000/svg" xmlns:xlink="http://www.w3.org/1999/xlink" x="0px" y="0px"
	 viewBox="0 0 32 32" style="enable-background:new 0 0 32 32;" xml:space="preserve">
<style type="text/css">
	.st0{fill:#57378C;}
</style>
<path class="st0" d="M3.3,15.3V5.4c0-0.7-0.6-1.2-1.2-1.2S0.8,4.8,0.8,5.4c0,0,0,0,0,0v16.2c0,0.7,0.6,1.2,1.2,1.2
	c0.7,0,1.2-0.6,1.2-1.2v-2.3l25.4-0.1v2.3c0,0.7,0.6,1.2,1.2,1.2s1.2-0.6,1.2-1.2c0,0,0,0,0,0v-6.3L3.3,15.3z"/>
<path class="st0" d="M31.2,14.3H12.3V9.6c0-1.3,1.1-2.4,2.4-2.4h11.4c2.7,0,4.9,2.2,4.9,4.9V14.3z"/>
<path class="st0" d="M11,10.7c0,0.2,0,0.4-0.1,0.6c0,0.2-0.1,0.4-0.2,0.6c-0.1,0.2-0.2,0.4-0.3,0.5c-0.2,0.3-0.5,0.6-0.8,0.8
	c-0.2,0.1-0.3,0.2-0.5,0.3c-0.2,0.1-0.4,0.1-0.6,0.2c-0.2,0-0.4,0-0.6,0.1c-0.2,0-0.4,0-0.6-0.1c-0.4-0.1-0.8-0.2-1.1-0.5
	C6,13,5.7,12.7,5.5,12.4c-0.1-0.2-0.2-0.3-0.3-0.5C5.1,11.7,5,11.5,5,11.3c-0.1-0.4-0.1-0.8,0-1.2c0-0.2,0.1-0.4,0.2-0.6
	C5.2,9.4,5.3,9.2,5.4,9c0.2-0.3,0.5-0.6,0.8-0.8C6.6,7.9,7,7.8,7.3,7.7c0.2,0,0.4,0,0.6,0c0.2,0,0.4,0,0.6,0c0.2,0,0.4,0.1,0.6,0.2
	C9.3,8,9.4,8.1,9.6,8.2c0.3,0.2,0.6,0.5,0.8,0.8c0.1,0.2,0.2,0.3,0.3,0.5c0.1,0.2,0.1,0.4,0.2,0.6C10.9,10.3,11,10.5,11,10.7z"/>
</svg>
