<?xml version="1.0" encoding="utf-8"?>
<!-- Generator: Adobe Illustrator 26.0.1, SVG Export Plug-In . SVG Version: 6.00 Build 0)  -->
<svg version="1.1" id="Layer_1" xmlns="http://www.w3.org/2000/svg" xmlns:xlink="http://www.w3.org/1999/xlink" x="0px" y="0px"
	 viewBox="0 0 32 32" style="enable-background:new 0 0 32 32;" xml:space="preserve">
<style type="text/css">
	.st0{clip-path:url(#SVGID_00000091012618514010819670000015563922869999301781_);}
	.st1{fill:#55378C;}
	.st2{clip-path:url(#SVGID_00000163776046898136759540000003719439050297439883_);}
</style>
<g>
	<defs>
		<rect id="SVGID_1_" x="3" y="2.2" width="16.7" height="23.2"/>
	</defs>
	<clipPath id="SVGID_00000169545356008759225030000004637183410651111823_">
		<use xlink:href="#SVGID_1_"  style="overflow:visible;"/>
	</clipPath>
	<g style="clip-path:url(#SVGID_00000169545356008759225030000004637183410651111823_);">
		<path class="st1" d="M11.3,2.2C6.7,2.2,3,5.9,3,10.4c0,0,0,0,0,0c0,8.3,8.2,15.1,8.2,15.1s8.2-6.8,8.2-15
			C19.5,5.9,15.9,2.2,11.3,2.2C11.3,2.2,11.3,2.2,11.3,2.2z M11.3,16.9c-3.5,0-6.3-2.8-6.3-6.3c0-3.5,2.8-6.3,6.3-6.3
			c3.5,0,6.3,2.8,6.3,6.3C17.6,14.1,14.8,16.9,11.3,16.9C11.3,16.9,11.3,16.9,11.3,16.9z"/>
	</g>
</g>
<path class="st1" d="M24.4,20.4L24.4,20.4l0.2,0.1c0.1,0.1,0.2,0.1,0.4,0.1h0.1h0.1c0.1,0,0.1-0.1,0.2-0.1c0.2-0.1,0.3-0.4,0.3-0.6
	c0-0.1,0-0.2-0.1-0.3v-0.1c0-0.1-0.1-0.1-0.2-0.2l-0.2-0.1h-0.1H25c-0.1,0-0.2,0-0.4,0.1l-0.1,0.1l0,0c-0.1,0.1-0.2,0.2-0.2,0.3
	c0,0.1,0,0.2,0,0.2C24.2,20.1,24.3,20.2,24.4,20.4C24.3,20.3,24.4,20.4,24.4,20.4z"/>
<g>
	<defs>
		<rect id="SVGID_00000114064084389616564580000015994072770400230812_" x="14.6" y="11.5" width="14.4" height="13.9"/>
	</defs>
	<clipPath id="SVGID_00000049941297180478567030000015483231051514982812_">
		<use xlink:href="#SVGID_00000114064084389616564580000015994072770400230812_"  style="overflow:visible;"/>
	</clipPath>
	<g style="clip-path:url(#SVGID_00000049941297180478567030000015483231051514982812_);">
		<path class="st1" d="M28.9,16c-0.1-0.5-0.5-0.8-1-0.8h-1.3c-0.4,0-0.8,0.2-0.9,0.6l0,0.1L24.1,13c-0.3-0.6-0.8-1-1.5-1.1l-0.9-0.1
			l-1.1-0.1c0,0.4-0.1,0.7-0.1,1.1l1.1,0.1c0.3,0,0.6,0.1,0.9,0.1c0.4,0.1,0.7,0.4,0.9,0.7l1.6,3.2c0.1,0.1,0.1,0.2,0,0.3
			c-0.1,0.1-0.2,0.2-0.3,0.2H19c-0.7,1.5-1.6,2.9-2.6,4.2H22c0.2,0,0.3,0.2,0.3,0.4c0,0.2-0.2,0.3-0.3,0.3l0,0h-6
			c-0.4,0.5-0.8,0.9-1.1,1.3h10.7c0.2,0,0.3,0.2,0.3,0.3s-0.2,0.3-0.3,0.3h-1.3v0.3c0,0.5,0.4,0.9,0.9,0.9l0,0H27
			c0.5,0,0.9-0.4,0.9-0.9l0,0V20c0-0.7-0.3-1.4-0.7-2l-0.3-0.4l1.4-0.4C28.7,17,29,16.5,28.9,16z M24.9,18.4c0.8,0,1.4,0.6,1.4,1.4
			c0,0.8-0.6,1.4-1.4,1.4c-0.8,0-1.4-0.6-1.4-1.4C23.4,19.1,24.1,18.4,24.9,18.4C24.9,18.4,24.9,18.4,24.9,18.4L24.9,18.4z"/>
	</g>
</g>
<path class="st1" d="M12.1,6.4H9.3v8.4h1.5v-3.4H12c1.7,0,2.9-0.9,2.9-2.6c0-1.4-1.1-2.5-2.4-2.5C12.4,6.4,12.2,6.4,12.1,6.4z
	 M12,7.7c0.8,0,1.4,0.4,1.4,1.3s-0.5,1.3-1.5,1.3h-1.1V7.7H12z"/>
</svg>
