<?xml version="1.0" encoding="utf-8"?>
<!-- Generator: Adobe Illustrator 26.0.1, SVG Export Plug-In . SVG Version: 6.00 Build 0)  -->
<svg version="1.1" id="Layer_1" xmlns="http://www.w3.org/2000/svg" xmlns:xlink="http://www.w3.org/1999/xlink" x="0px" y="0px"
	 viewBox="0 0 32 32" style="enable-background:new 0 0 32 32;" xml:space="preserve">
<style type="text/css">
	.st0{fill:#57378C;}
	.st1{clip-path:url(#SVGID_00000094585898495982860790000014032424772129588665_);}
	.st2{clip-path:url(#SVGID_00000134240094213312326980000001973052207872487836_);}
	.st3{clip-path:url(#SVGID_00000000223650582226441620000011116300821998753710_);}
</style>
<g>
	<path class="st0" d="M10.6,29.6l-0.8-0.4l0.5-3.9H8.4l0.5,3.9L8,29.6c-0.2,0.1-0.2,0.2-0.2,0.4c0,0.2,0.2,0.4,0.4,0.4l0,0h2.2
		c0.2,0,0.4-0.2,0.4-0.4l0,0C10.9,29.8,10.8,29.7,10.6,29.6z"/>
</g>
<path class="st0" d="M5.2,15.5v3.1h1v-3.1H5.2z"/>
<path class="st0" d="M13.5,13.4h-0.6c-0.5,0-1,0.2-1.4,0.6l-0.7,0.7L10.2,14c-0.4-0.4-0.9-0.6-1.4-0.6H8.2l0.1-1H5.2
	c-0.6,0-1-0.4-1-1V7.2c0-0.6,0.4-1,1-1h3.8l0.2-2.1h-6v20.6h11.3V4.1h-1.9L13.5,13.4z M7.2,18.5c0,0.6-0.4,1-1,1h-1
	c-0.6,0-1-0.4-1-1v-3.1c0-0.6,0.4-1,1-1h1c0.6,0,1,0.4,1,1V18.5z"/>
<path class="st0" d="M10.3,9.3h1v3.5c0.3-0.2,0.6-0.3,1-0.4l-0.9-8.9c0-0.3-0.3-0.5-0.5-0.5h-0.2c-0.3,0-0.5,0.2-0.5,0.5l-0.9,8.9
	c0.4,0.1,0.7,0.2,1,0.4L10.3,9.3z"/>
<path class="st0" d="M5.2,11.3h3.2l0.4-4.1H5.2V11.3z"/>
<g>
	<defs>
		<rect id="SVGID_1_" x="1" y="1" width="1.2" height="29.9"/>
	</defs>
	<use xlink:href="#SVGID_1_"  style="overflow:visible;fill:#57378C;"/>
	<clipPath id="SVGID_00000144321350615101414070000013539987932321202837_">
		<use xlink:href="#SVGID_1_"  style="overflow:visible;"/>
	</clipPath>
	<g style="clip-path:url(#SVGID_00000144321350615101414070000013539987932321202837_);">
		<path class="st0" d="M1,1v29.9h1V1H1z"/>
	</g>
</g>
<path class="st0" d="M6.8,25.8l0.5,3l-1.9,0.5c-0.2,0-0.3,0.2-0.3,0.4c0,0.2,0.2,0.4,0.3,0.4c0,0,0,0,0,0h1.8
	c0.1-0.3,0.4-0.6,0.7-0.8l0.2-0.1l-0.4-3.3H6.8z"/>
<path class="st0" d="M17.5,24.7h11.3V4.1H17.5V24.7z M18.5,7.2c0-0.6,0.4-1,1-1h7.2c0.6,0,1,0.4,1,1v4.1c0,0.6-0.4,1-1,1h-7.1
	c-0.6,0-1-0.4-1-1L18.5,7.2z M18.5,15.5c0-0.6,0.4-1,1-1h1c0.6,0,1,0.4,1,1v3.1c0,0.6-0.4,1-1,1h-1c-0.6,0-1-0.4-1-1V15.5z"/>
<g>
	<defs>
		<rect id="SVGID_00000056421095086446750930000012625275367474102160_" x="15" y="1" width="1.8" height="29.9"/>
	</defs>
	<use xlink:href="#SVGID_00000056421095086446750930000012625275367474102160_"  style="overflow:visible;fill:#57378C;"/>
	<clipPath id="SVGID_00000037658646937540945570000017686706472526526364_">
		<use xlink:href="#SVGID_00000056421095086446750930000012625275367474102160_"  style="overflow:visible;"/>
	</clipPath>
	<g style="clip-path:url(#SVGID_00000037658646937540945570000017686706472526526364_);">
		<path class="st0" d="M15.5,1v29.9h1V1H15.5z"/>
	</g>
</g>
<g>
	<defs>
		<rect id="SVGID_00000093869408446432405180000007826264519504256152_" x="29.7" y="1" width="1.3" height="29.9"/>
	</defs>
	<use xlink:href="#SVGID_00000093869408446432405180000007826264519504256152_"  style="overflow:visible;fill:#57378C;"/>
	<clipPath id="SVGID_00000138573598255399708180000005715227922768594329_">
		<use xlink:href="#SVGID_00000093869408446432405180000007826264519504256152_"  style="overflow:visible;"/>
	</clipPath>
	<g style="clip-path:url(#SVGID_00000138573598255399708180000005715227922768594329_);">
		<path class="st0" d="M30.9,1h-1v29.9h1V1z"/>
	</g>
</g>
<path class="st0" d="M20.6,18.5v-3.1h-1v3.1H20.6z"/>
<path class="st0" d="M26.8,11.3V7.2h-7.2v4.1H26.8z"/>
</svg>
