<?xml version="1.0" encoding="utf-8"?>
<!-- Generator: Adobe Illustrator 26.0.1, SVG Export Plug-In . SVG Version: 6.00 Build 0)  -->
<svg version="1.1" id="Layer_1" xmlns="http://www.w3.org/2000/svg" xmlns:xlink="http://www.w3.org/1999/xlink" x="0px" y="0px"
	 viewBox="0 0 32 32" style="enable-background:new 0 0 32 32;" xml:space="preserve">
<style type="text/css">
	.st0{clip-path:url(#SVGID_00000135683511286154870470000006180751934042965167_);}
	.st1{fill:#55378C;}
	.st2{clip-path:url(#SVGID_00000148654316881672052680000018336824365471124369_);}
	.st3{clip-path:url(#SVGID_00000108999998410610575700000006712468686109568953_);}
	.st4{clip-path:url(#SVGID_00000179621693102021564700000000493821195176202647_);}
	.st5{fill:none;stroke:#54378C;stroke-miterlimit:10;}
</style>
<g>
	<defs>
		<rect id="SVGID_1_" x="9.6" y="23.8" width="2.7" height="4.5"/>
	</defs>
	<clipPath id="SVGID_00000089555352447351731750000006660324322075238320_">
		<use xlink:href="#SVGID_1_"  style="overflow:visible;"/>
	</clipPath>
	<g style="clip-path:url(#SVGID_00000089555352447351731750000006660324322075238320_);">
		<path class="st1" d="M12,27.5l-0.7-0.3l0.4-3.2h-1.6l0.4,3.2l-0.7,0.3c-0.1,0.1-0.2,0.2-0.2,0.3c0,0.2,0.2,0.4,0.4,0.4l0,0h1.8
			c0.2,0,0.4-0.2,0.4-0.4C12.2,27.7,12.1,27.6,12,27.5z"/>
	</g>
</g>
<path class="st1" d="M7.1,15.4V18H8v-2.6H7.1z"/>
<path class="st1" d="M14,13.7h-0.5c-0.4,0-0.8,0.2-1.1,0.5l-0.6,0.6l-0.6-0.6c-0.3-0.3-0.7-0.5-1.2-0.5H9.6l0.1-0.9H7.1
	c-0.5,0-0.8-0.4-0.8-0.8V8.6c0-0.5,0.4-0.8,0.8-0.8h3.1L10.4,6h-5v17h9.4V6h-1.6L14,13.7z M8.8,18c0,0.5-0.4,0.9-0.8,0.9
	c0,0,0,0,0,0H7.1c-0.5,0-0.8-0.4-0.8-0.9l0,0v-2.6c0-0.5,0.4-0.9,0.8-0.9c0,0,0,0,0,0H8c0.5,0,0.9,0.4,0.9,0.8v0L8.8,18z"/>
<path class="st1" d="M11.4,10.3h0.9v2.9c0.2-0.2,0.5-0.3,0.8-0.3l-0.7-7.3c0-0.2-0.2-0.4-0.4-0.4h-0.2c-0.2,0-0.4,0.2-0.4,0.4
	l-0.7,7.3c0.3,0.1,0.6,0.2,0.8,0.3V10.3z"/>
<path class="st1" d="M7.1,12h2.7l0.3-3.4h-3L7.1,12z"/>
<g>
	<defs>
		<rect id="SVGID_00000121274904138967385420000001254668860552002205_" x="3.7" y="3.5" width="0.9" height="24.8"/>
	</defs>
	<clipPath id="SVGID_00000118396771475771896960000017718852312351487904_">
		<use xlink:href="#SVGID_00000121274904138967385420000001254668860552002205_"  style="overflow:visible;"/>
	</clipPath>
	<g style="clip-path:url(#SVGID_00000118396771475771896960000017718852312351487904_);">
		<path class="st1" d="M3.7,3.5v24.7h0.8V3.5H3.7z"/>
	</g>
</g>
<path class="st1" d="M8.5,23.9l0.4,2.5l-1.5,0.4c-0.2,0-0.2,0.2-0.2,0.4c0,0.1,0.1,0.2,0.3,0.2h1.5c0.1-0.3,0.3-0.5,0.6-0.6l0.1-0.1
	l-0.3-2.7H8.5z"/>
<path class="st1" d="M17.4,23.1h9.4V6h-9.4V23.1z M18.2,8.6c0-0.5,0.4-0.9,0.9-0.8h6c0.5,0,0.9,0.4,0.9,0.8l0,0V12
	c0,0.5-0.4,0.9-0.9,0.9h-6c-0.5,0-0.9-0.4-0.9-0.9V8.6z M18.2,15.4c0-0.5,0.4-0.9,0.9-0.9h0.9c0.5,0,0.9,0.4,0.9,0.8v0V18
	c0,0.5-0.4,0.9-0.9,0.9l0,0h-0.9c-0.5,0-0.9-0.4-0.9-0.9V15.4z"/>
<g>
	<defs>
		<rect id="SVGID_00000030478313542326205770000009209373215582241438_" x="15.3" y="3.5" width="1.5" height="24.8"/>
	</defs>
	<clipPath id="SVGID_00000093887097165363178830000011056516532045271466_">
		<use xlink:href="#SVGID_00000030478313542326205770000009209373215582241438_"  style="overflow:visible;"/>
	</clipPath>
	<g style="clip-path:url(#SVGID_00000093887097165363178830000011056516532045271466_);">
		<path class="st1" d="M15.6,3.5v24.7h0.9V3.5H15.6z"/>
	</g>
</g>
<g>
	<defs>
		<rect id="SVGID_00000159447982286805989000000008238144548635425152_" x="27.4" y="3.5" width="1" height="24.8"/>
	</defs>
	<clipPath id="SVGID_00000065760259857578475950000002887499668964485536_">
		<use xlink:href="#SVGID_00000159447982286805989000000008238144548635425152_"  style="overflow:visible;"/>
	</clipPath>
	<g style="clip-path:url(#SVGID_00000065760259857578475950000002887499668964485536_);">
		<path class="st1" d="M28.4,3.5h-0.9v24.7h0.9V3.5z"/>
	</g>
</g>
<path class="st1" d="M19.9,18v-2.6h-0.9V18H19.9z"/>
<path class="st1" d="M25,12V8.6h-6V12H25z"/>
<path class="st5" d="M27.5,31.6c2.3,0,4.1-1.8,4.1-4.1l0,0V4.6c0-2.3-1.8-4.1-4.1-4.1c0,0,0,0,0,0H4.5c-2.3,0-4.1,1.8-4.1,4.1v22.9
	c0,2.3,1.8,4.1,4.1,4.1l0,0H27.5"/>
</svg>
