<?xml version="1.0" encoding="utf-8"?>
<!-- Generator: Adobe Illustrator 26.0.1, SVG Export Plug-In . SVG Version: 6.00 Build 0)  -->
<svg version="1.1" id="Layer_1" xmlns="http://www.w3.org/2000/svg" xmlns:xlink="http://www.w3.org/1999/xlink" x="0px" y="0px"
	 viewBox="0 0 32 32" style="enable-background:new 0 0 32 32;" xml:space="preserve">
<style type="text/css">
	.st0{fill:none;stroke:#3A2B6C;stroke-miterlimit:10;}
	.st1{fill:#3B2B6C;}
	.st2{clip-path:url(#SVGID_00000033333207370695879440000002762405533689779357_);}
	.st3{clip-path:url(#SVGID_00000077323367727930891080000010017120258527570613_);}
	.st4{clip-path:url(#SVGID_00000027594339024896197260000002113743802726622643_);}
	.st5{clip-path:url(#SVGID_00000070839046902681390040000011971730077025083023_);}
	.st6{clip-path:url(#SVGID_00000174574350895052795710000007432897636203009448_);}
</style>
<path class="st0" d="M27.4,31.7c2.3,0,4.1-1.8,4.1-4.1c0,0,0,0,0,0V4.6c0-2.3-1.8-4.1-4.1-4.1c0,0,0,0,0,0H4.6
	c-2.3,0-4.1,1.8-4.1,4.1c0,0,0,0,0,0v22.9c0,2.3,1.8,4.1,4.1,4.1c0,0,0,0,0,0H27.4"/>
<path class="st1" d="M25,14.2c0.2-0.4,0.3-0.8,0.2-1.2c0-0.3-0.1-0.5-0.2-0.7l0,0h-0.8c-0.3,0-0.6,0-0.9,0c-0.1,0-0.3,0.1-0.4,0.1
	c0.9,0.5,1.4,1.6,1.2,2.6C24.5,14.8,24.8,14.6,25,14.2"/>
<path class="st1" d="M17.6,13.4c-0.2,0.2-0.4,0.3-0.6,0.4c-0.2,0.1-0.3,0.1-0.5,0.1c0,0.1,0,0.2,0,0.2c0.1,0.1,0.2,0.2,0.3,0.2
	c0.3,0,0.6-0.1,0.8-0.3c0.2-0.2,0.4-0.4,0.4-0.7c0-0.1,0-0.3,0-0.4l0-0.1C17.9,13.1,17.7,13.3,17.6,13.4"/>
<path class="st1" d="M23.8,15L23.8,15c0.2-0.5,0.1-1-0.1-1.4c-0.2-0.5-0.6-0.8-1-1.1l0,0c0.3,0.3,0.5,0.6,0.7,1
	c0.2,0.4,0.2,0.9,0.2,1.4L23.8,15L23.8,15"/>
<path class="st1" d="M22.1,21.1c0.2,0,0.4,0.1,0.5,0.1c0.1-0.2,0.1-0.5,0.1-0.7c-1.2-0.2-2.4,0.2-3.4,0.9c0,0.1,0.1,0.1,0.2,0.2
	c0,0,0,0,0,0c0.6-0.3,1.2-0.5,1.8-0.5C21.6,21.1,21.8,21.1,22.1,21.1"/>
<path class="st1" d="M18.5,12.9c0.2,0.2,0.4,0.3,0.6,0.5c0.4,0.2,0.7,0.3,1.1,0.5l2.7,0.9l0.4,0.1c0.1-0.4,0-0.8-0.1-1.2
	c-0.2-0.4-0.4-0.7-0.8-1c-0.2-0.1-0.4-0.1-0.6-0.1c-0.3-0.1-0.7-0.1-1-0.3L20.2,12h-0.1l-0.2-0.1c-0.7-0.3-1.4-0.7-2-1.1
	c0,0.1,0.1,0.2,0.1,0.3l0.1,0.2c0.2,0.4,0.2,0.8,0.1,1.2C18.4,12.7,18.5,12.8,18.5,12.9"/>
<path class="st1" d="M23.3,10.2c-0.2,0-0.4,0-0.6-0.1l-0.4-0.1c0,0.2,0,0.5,0,0.7c0.6-0.1,1.1-0.3,1.6-0.6
	C23.7,10.2,23.5,10.2,23.3,10.2"/>
<path class="st1" d="M23.6,7.6c0.5,0.2,0.9,0.5,1.3,0.9c0-0.1,0.1-0.1,0.1-0.2l0,0c-0.7-0.5-1.4-0.9-2.3-1.2c0,0.1-0.1,0.1-0.1,0.2
	C23,7.4,23.2,7.5,23.6,7.6L23.6,7.6"/>
<path class="st1" d="M22.3,8.6c0.1,0,0.3,0.1,0.4,0.1c0-0.1,0.1-0.3,0.2-0.4c-0.2-0.1-0.3-0.1-0.5-0.1L22.3,8.6"/>
<path class="st1" d="M22.2,8.9c-0.1,0.2-0.1,0.5,0,0.7c0.1,0.1,0.3,0.1,0.4,0.1c0-0.3,0-0.5,0-0.8C22.5,8.9,22.4,8.9,22.2,8.9
	L22.2,8.9"/>
<path class="st1" d="M23.3,26.2c-0.2,0-0.3,0.1-0.4,0.3c0,0.1,0,0.1,0,0.2c0,0.3,0.1,0.5,0.2,0.8c0,0,0,0.1,0,0.1c0,0,0,0.1,0.1,0.1
	c0,0,0,0.1,0,0.1c0.1-0.1,0.3-0.1,0.4-0.1c0.1,0,0.2,0.1,0.3,0.2c0,0,0.1,0.1,0.1,0.1c0,0,0.1,0,0.1,0c0,0,0,0,0,0l0,0L24,27.2
	c-0.1-0.3-0.2-0.6-0.2-0.9C23.6,26.3,23.4,26.2,23.3,26.2"/>
<path class="st1" d="M25.8,9l-0.3,0.4c0,0-0.1,0.1-0.1,0.1l0,0c0,0-0.1,0-0.1-0.1c-0.1-0.1-0.2-0.3-0.3-0.4c0,0.1-0.1,0.1-0.1,0.2
	l0,0c-0.1,0.1-0.1,0.2-0.2,0.3c0,0.1,0,0.2,0,0.2c0.1,0.1,0.1,0.1,0.2,0.1h0.1c0,0,0.1,0,0.1,0c0.2-0.1,0.4-0.2,0.6-0.4
	C25.8,9.2,25.9,9,26,8.8C26,8.8,25.9,8.9,25.8,9"/>
<path class="st1" d="M22.5,8c0.2,0,0.4,0.1,0.5,0.1c0.1-0.1,0.2-0.3,0.3-0.4c-0.2-0.1-0.5-0.2-0.7-0.2C22.5,7.7,22.5,7.8,22.5,8"/>
<path class="st1" d="M23.6,15.4L23.6,15.4c-0.3-0.1-0.6-0.1-0.9-0.2L20,14.3c-0.4-0.1-0.8-0.3-1.2-0.5l-0.2-0.2l0,0
	c-0.1,0.3-0.3,0.6-0.5,0.9c0,0.1,0.1,0.2,0.1,0.3c0.2,0.4,0.5,0.7,0.9,1c0.3,0.2,0.5,0.3,0.5,0.4s-0.3,0-0.6-0.2
	c-0.4-0.3-0.8-0.6-1.1-1.1c0-0.1-0.1-0.2-0.1-0.2c-0.3,0.2-0.6,0.3-0.9,0.3c0.2,0.2,0.5,0.4,0.7,0.6c0.4,0.3,0.7,0.4,0.7,0.5
	c-0.3,0-0.6-0.1-0.8-0.3c-0.3-0.2-0.6-0.4-0.9-0.7c0.1,0.2,0.1,0.3,0.2,0.5c0.1,0.3,0.3,0.5,0.6,0.7c0.2,0.1,0.3,0.3,0.5,0.4
	c0.1,0.1,0.2,0.1,0.2,0.2s-0.1,0-0.2-0.1c-0.2-0.1-0.4-0.2-0.6-0.3c-0.3-0.2-0.5-0.5-0.7-0.8c-0.2-0.3-0.4-0.7-0.5-1.1l-0.6,0.9
	c-0.1,0.1-0.1,0.1-0.1,0.2l0,0c0.2,0,0.4,0.1,0.6,0.2c0.2,0.1,0.4,0.2,0.6,0.4l0.1,0.1c0.7,0.6,1.5,1,2.3,1.3
	c0.2-0.1,0.3-0.3,0.5-0.4c0.3-0.3,0.7-0.4,1.1-0.4c0.5,0.1,0.9,0.4,1.1,0.9v0.1c0.1-0.1,0.2-0.3,0.3-0.5c0.1-0.3,0.1-0.6,0.1-0.9
	c-0.1-0.3-0.3-0.7-0.5-0.9c-0.2-0.2-0.4-0.3-0.3-0.4s0.2,0,0.5,0.2c0.2,0.1,0.3,0.2,0.4,0.4c0.1,0.2,0.2,0.4,0.3,0.6
	c0-0.2,0.1-0.3,0.1-0.5c0-0.2,0-0.3,0.1-0.3s0.1,0.1,0.1,0.3c0,0.2,0,0.4,0,0.6C23.1,16.2,23.4,15.8,23.6,15.4"/>
<path class="st1" d="M19.2,20.9c0,0.1,0,0.2,0,0.3c0,0,0,0,0,0.1c1-0.7,2.2-1.1,3.4-0.9l-0.1-0.2C22.3,20,22,20,21.8,20
	C20.8,20,19.9,20.3,19.2,20.9"/>
<path class="st1" d="M19.8,28.3c0.3-0.5,0.4-1.1,0.5-1.7c0,0,0-0.1,0-0.1c-0.1-0.3-0.2-0.6-0.4-0.9l-0.2-0.4c-0.1-0.3-0.3-0.6-0.4-1
	c-0.2-0.4-0.2-0.9-0.2-1.3l-0.4-0.1c-0.2-0.1-0.5-0.1-0.7-0.2l-0.8-0.1c-0.2,1.1-0.3,2.2-0.2,3.3v1.1c0,0.1,0,0.1,0,0.2
	c0.2,0.3,0.4,0.5,0.7,0.6c0.2,0.1,0.4,0.1,0.7,0.2c0.2,0.1,0.5,0.1,0.7,0.2C19.3,28.1,19.5,28.2,19.8,28.3"/>
<path class="st1" d="M17.7,28.1c-0.1,0.1-0.1,0.3-0.2,0.4h0c0.4,0,0.7,0,1.1-0.2l0,0l-0.4-0.1C18.1,28.2,17.9,28.1,17.7,28.1"/>
<path class="st1" d="M21,29.2c0,0.1,0,0.2,0,0.3c0.4,0.1,0.9,0.2,1.3,0.3c0.3,0,0.6,0,0.9,0c0-0.1,0.1-0.2,0.1-0.3l0-0.1l0,0
	c-0.4,0-0.7-0.2-0.8-0.5c-0.1,0.1-0.3,0.1-0.4,0.1h0c-0.2,0-0.4-0.1-0.6-0.3c-0.1-0.1-0.2-0.3-0.3-0.5l-0.1-0.2l0-0.1
	c0,0.1,0,0.2,0,0.3c0,0.2,0,0.5-0.1,0.7C21.1,29,21.1,29.1,21,29.2"/>
<path class="st1" d="M22.3,6.6c1.1,0.2,2.1,0.7,3,1.4c0,0,0.1,0.1,0.1,0.1l0,0c0,0,0.1,0,0.1,0c0.1,0.1,0.3,0.2,0.4,0.3
	c0.1-0.5,0.2-1,0.1-1.4c-0.1-1-1.1-1.7-2.1-1.6c-0.6,0.1-1.1,0.5-1.4,1C22.6,6.4,22.5,6.4,22.3,6.6l-0.2-0.1l0,0c0,0,0.1,0,0.1,0.1"
	/>
<path class="st1" d="M23.6,29.6L23.6,29.6C23.6,29.6,23.6,29.7,23.6,29.6l2.3,0.1c-0.2-0.1-0.3-0.2-0.5-0.3
	c-0.3-0.1-0.6-0.3-0.8-0.6c-0.1-0.2-0.2-0.3-0.3-0.5c-0.1,0.1-0.3,0.1-0.4,0c-0.1,0-0.2-0.1-0.2-0.2c0,0-0.1-0.1-0.1-0.1
	c-0.1,0-0.2,0-0.3,0.2l-0.1,0.1c-0.1,0.1-0.2,0.2-0.3,0.3l0,0c0,0.1,0.1,0.3,0.2,0.3c0.1,0.1,0.3,0.1,0.4,0c0,0,0.1,0,0.1,0
	c0.1,0.1,0.1,0.2,0.1,0.4L23.6,29.6"/>
<path class="st1" d="M13.2,24.7c-0.2,0-0.3,0.1-0.4,0.2c-0.1,0.2-0.2,0.3-0.3,0.5l-0.5,1c0.4,0.1,0.9,0.2,1.4,0.2c0-0.1,0-0.1,0-0.2
	c0-0.1,0-0.2,0.1-0.3c0.1-0.2,0.2-0.3,0.4-0.4l0.2-0.1c0,0,0-0.1,0-0.1c-0.1-0.1-0.1-0.2-0.1-0.2c-0.1-0.1-0.1-0.2-0.2-0.4
	C13.6,24.9,13.4,24.8,13.2,24.7"/>
<path class="st1" d="M19.5,19.2c-0.1,0-0.2-0.2-0.3-1c-0.1,0.3-0.2,0.6-0.1,0.9v0.7c0.5-0.3,1-0.5,1.5-0.6c0.5-0.1,1-0.1,1.5,0
	C22,19.2,22,19.1,21.9,19l-0.7-1c-0.1-0.2-0.3-0.5-0.6-0.6c0.3,1,0.4,1.4,0.3,1.4s-0.2-0.3-0.6-1.4c-0.1,0-0.2,0.1-0.3,0.1
	c0.3,0.8,0.3,1.1,0.2,1.1s-0.2-0.2-0.5-1c-0.1,0.1-0.3,0.2-0.4,0.3C19.6,18.9,19.6,19.2,19.5,19.2"/>
<path class="st1" d="M14,10.7h0.2l-0.1-0.1l0,0l0,0c-0.1-0.1-0.1-0.3-0.1-0.4v-0.1h-0.1l0,0c-0.1,0-0.1,0.1-0.2,0.2
	c0,0.1,0,0.2,0,0.2C13.8,10.6,13.9,10.7,14,10.7"/>
<path class="st1" d="M20.7,19.6c-0.6,0.1-1.1,0.4-1.5,0.7v0.2c0,0,0,0.1,0,0.1c0.8-0.6,1.7-0.9,2.6-0.9c0.2,0,0.4,0,0.7,0.1
	c0-0.1-0.1-0.1-0.1-0.2C21.8,19.5,21.2,19.5,20.7,19.6"/>
<path class="st1" d="M14.8,26.5c-0.2-0.1-0.4-0.3-0.6-0.5c-0.1,0-0.2,0-0.2,0c-0.1,0.1-0.2,0.2-0.3,0.3c0,0.1-0.1,0.2-0.1,0.2v0.1
	c0.3,0,0.7-0.1,1-0.1L14.8,26.5"/>
<path class="st1" d="M16,21.7l0.4,0.1c0.5,0.1,1,0.2,1.7,0.3c0.3,0,0.5,0.1,0.8,0.2l0.2,0.1c0-0.1,0-0.2,0-0.3
	c-0.2-0.2-0.3-0.4-0.4-0.7c-0.1-0.3-0.1-0.6-0.1-0.8v-1.3c0-0.4,0-0.8,0.2-1.2l0,0l-0.4-0.1c-0.5-0.1-0.9-0.3-1.4-0.4
	c-0.3-0.1-0.5-0.1-0.8-0.1c-0.2,0-0.4,0-0.6,0c-0.4,0.1-0.5,0.2-0.6,0.2s0-0.1,0.1-0.1c0.1-0.1,0.3-0.2,0.4-0.2
	c0.2-0.1,0.5-0.1,0.7-0.1c0.3,0,0.6,0.1,0.8,0.1l0,0c-0.2-0.1-0.4-0.3-0.6-0.5l-0.1-0.1c-0.2-0.1-0.3-0.3-0.5-0.4
	c-0.1-0.1-0.3-0.1-0.4-0.1l0,0c-0.8,0.7-1.3,1.5-1.6,2.5c-0.3,1.1,0.2,2.2,1.2,2.8C15.3,21.5,15.6,21.6,16,21.7"/>
<path class="st1" d="M5.6,2.1l0.6,0.4c0.8,0.5,1.6,1,2.3,1.6l2.9,2.5c0.8,0.7,1.6,1.3,2.4,1.8l0.2,0.1l0.1-0.1l0,0
	c-0.5-0.4-1-0.9-1.5-1.4c-0.2-0.2-0.4-0.5-0.6-0.7c-0.8-0.8-1.6-1.5-2.5-2.1C9.4,4.1,9.2,4,9,3.8S8.6,3.5,8.4,3.3
	C7.9,3,7.5,2.7,6.9,2.4L6.1,2L6,1.9L5.6,1.7c0,0,0,0.1,0,0.1C5.6,1.9,5.6,2,5.6,2.1"/>
<path class="st1" d="M16.8,28.7c-0.1,0.4-0.1,0.7,0,1.1l0.4,0.1c-0.1-0.4-0.1-0.7,0-1.1C17.1,28.7,17,28.7,16.8,28.7"/>
<path class="st1" d="M16.8,27.6c-0.2,0.2-0.3,0.5-0.4,0.7l0.2,0.1c0.1-0.2,0.2-0.5,0.4-0.7L16.8,27.6"/>
<path class="st1" d="M16.5,26.9c-0.2-0.1-0.5-0.1-0.7-0.1c-0.2,0-0.4,0.1-0.6,0.2l-0.3,0.1c-0.4,0.1-0.9,0.2-1.4,0.2
	c0.3,0.1,0.7,0.3,1,0.4l1.1,0.4l0.6,0.2c0.1-0.3,0.3-0.6,0.5-0.9C16.5,27.2,16.5,27.1,16.5,26.9"/>
<path class="st1" d="M16.3,28.6L16.3,28.6c-0.1,0.3-0.1,0.7-0.1,1l0.3,0.1c0-0.4,0-0.7,0.1-1.1L16.3,28.6"/>
<path class="st1" d="M11.7,28.3c-0.2-0.1-0.3-0.3-0.4-0.5l-0.4,0.8c-0.2,0.2-0.2,0.5-0.2,0.8c0.1,0.2,0.3,0.4,0.5,0.4
	c0.3,0,0.6-0.1,0.8-0.3c0.2-0.2,0.4-0.4,0.6-0.7l-0.2-0.1C12.1,28.6,11.9,28.5,11.7,28.3"/>
<path class="st1" d="M14.3,27.9c-0.6-0.2-1.2-0.5-1.8-0.7c-0.2,0-0.4-0.1-0.6-0.1l-0.1,0.1c1,0.3,2.1,0.7,3,1.3
	c-1.1-0.2-2.1-0.5-3.1-1c0,0,0,0.1,0,0.1c0,0.2,0.1,0.3,0.3,0.5c0.2,0.1,0.4,0.3,0.6,0.4c1.1,0.5,2.2,0.9,3.3,1.3
	c0-0.3,0.1-0.7,0.1-1c0,0,0,0,0,0l-0.6-0.2L14.3,27.9"/>
<path class="st1" d="M21.6,27.9c0,0.1,0.1,0.1,0.1,0.2c0.1,0.1,0.2,0.3,0.3,0.4c0.1,0.1,0.2,0.2,0.3,0.2h0.1
	c-0.6-1.5-1.1-2.5-1.3-3.1s-0.3-0.9-0.3-0.9s0.2,0.2,0.5,0.8s0.7,1.6,1.4,3.1l0.1-0.1c0.1-0.1,0.2-0.2,0.3-0.3c0,0,0-0.1,0.1-0.1
	c-0.6-1.3-1-2.6-1.3-4c0.4,0.7,0.7,1.5,1,2.3c0.1-0.2,0.3-0.4,0.6-0.5c0.2,0,0.3,0,0.5,0c-0.4-1.4-0.8-2.9-1.2-4.4c0,0,0-0.1,0-0.1
	c-0.1-0.1-0.3-0.1-0.5-0.1h-0.2c0.5,1.4,0.8,2.4,0.9,3c0.1,0.3,0.2,0.6,0.1,0.9c0,0-0.1-0.2-0.3-0.8s-0.5-1.6-1-3h-0.2l-0.5,0.1
	c0,0.6,0.1,1.2,0.3,1.7c0.1,0.4,0.1,0.5,0.1,0.5s-0.1-0.1-0.3-0.5c-0.2-0.6-0.3-1.1-0.4-1.7c-0.2,0-0.4,0.1-0.5,0.1
	c0.2,1,0.3,1.6,0.4,2.1s0.1,0.6,0.1,0.6s-0.1-0.1-0.3-0.6c-0.2-0.7-0.4-1.3-0.5-2c-0.1,0-0.2,0.1-0.2,0.1c0,0.2,0,0.4,0,0.6
	c0,0,0,0.1,0,0.1c-0.1,0.4,0,0.9,0.2,1.3c0.1,0.3,0.2,0.6,0.4,0.9c0,0.1,0.1,0.3,0.2,0.4s0.1,0.3,0.2,0.5l0.3,0.5
	c0.2,0.3,0.3,0.6,0.4,0.9C21.3,27.4,21.5,27.6,21.6,27.9"/>
<g>
	<defs>
		<rect id="SVGID_1_" x="20.6" y="29.4" width="5.6" height="0.9"/>
	</defs>
	<clipPath id="SVGID_00000042723572717014363160000006712308599478497981_">
		<use xlink:href="#SVGID_1_"  style="overflow:visible;"/>
	</clipPath>
	<g style="clip-path:url(#SVGID_00000042723572717014363160000006712308599478497981_);">
		<path class="st1" d="M26.2,30h-2.8h-0.6c-0.2,0-0.4,0-0.5,0c-0.4,0-0.9-0.1-1.3-0.2c0,0.1,0,0.3,0,0.4c0,0.1,0.1,0.1,0.4,0.2h1.9
			h1.8c0.3,0,0.6,0,0.8-0.1C26.1,30.1,26.2,30,26.2,30L26.2,30"/>
	</g>
</g>
<g>
	<defs>
		<rect id="SVGID_00000025430329161858008080000002419111181478354081_" x="4.7" y="2.3" width="9.6" height="6.8"/>
	</defs>
	<clipPath id="SVGID_00000139287963441803365280000003453335760350682500_">
		<use xlink:href="#SVGID_00000025430329161858008080000002419111181478354081_"  style="overflow:visible;"/>
	</clipPath>
	<g style="clip-path:url(#SVGID_00000139287963441803365280000003453335760350682500_);">
		<path class="st1" d="M13.7,9c0-0.1,0.1-0.1,0.2-0.2l-0.1-0.1c-0.8-0.6-1.7-1.2-2.4-1.8L8.4,4.3C7.7,3.7,6.9,3.2,6.1,2.7L5.5,2.3
			C5.2,2.4,5,2.6,4.8,2.8c2.8,1.9,5.7,4,8.6,6.2C13.5,8.9,13.6,8.9,13.7,9"/>
	</g>
</g>
<g>
	<defs>
		<rect id="SVGID_00000139275061814993311670000001453916479544073345_" x="17.3" y="28.2" width="3.4" height="2"/>
	</defs>
	<clipPath id="SVGID_00000106849343628500071730000001098724723318652816_">
		<use xlink:href="#SVGID_00000139275061814993311670000001453916479544073345_"  style="overflow:visible;"/>
	</clipPath>
	<g style="clip-path:url(#SVGID_00000106849343628500071730000001098724723318652816_);">
		<path class="st1" d="M20.2,29.4c-0.1,0.1-0.2,0.2-0.4,0.3c-0.2,0.1-0.3,0.1-0.5,0.2c-0.2,0.1-0.5,0.1-0.7,0.1
			c-0.4,0-0.5,0-0.5-0.1s0.1-0.1,0.5-0.1c0.2,0,0.4-0.1,0.6-0.2c0.1,0,0.3-0.1,0.4-0.2c0.1-0.1,0.2-0.2,0.3-0.3L19.8,29
			c-0.2,0.2-0.5,0.3-0.8,0.4c-0.2,0.1-0.4,0.1-0.6,0.1c-0.3,0-0.5,0-0.5-0.1s0.1-0.1,0.4-0.1c0.1,0,0.3-0.1,0.6-0.2
			c0.2-0.1,0.4-0.2,0.6-0.3c-0.1-0.1-0.3-0.2-0.5-0.3c-0.1,0.1-0.2,0.1-0.3,0.1c-0.4,0.1-0.7,0.2-1.1,0.2h-0.2
			c-0.1,0.4-0.1,0.8,0,1.1l0.5,0c0.8,0.2,1.6,0.2,2.5,0c0,0,0-0.1,0-0.1C20.3,29.7,20.3,29.6,20.2,29.4"/>
	</g>
</g>
<path class="st1" d="M17.2,27.9c-0.1,0.2-0.2,0.4-0.3,0.6l0.4,0.1c0-0.2,0.1-0.3,0.2-0.5L17.2,27.9"/>
<path class="st1" d="M23,9.1h-0.1c-0.1,0.3-0.1,0.5-0.1,0.8c0.4,0.1,0.8,0,1.2-0.1C23.8,9.5,23.4,9.3,23,9.1"/>
<path class="st1" d="M22,8.2c-0.1,0-0.3,0-0.5,0c0,0.1,0,0.2,0,0.4h0.4L22,8.2"/>
<path class="st1" d="M22.4,7h-0.2l0,0c-0.1,0.1-0.2,0.1-0.2,0.2h0.3L22.4,7"/>
<path class="st1" d="M22.1,7.9c0-0.1,0.1-0.3,0.1-0.4h-0.4c-0.1,0.1-0.2,0.3-0.2,0.5L22.1,7.9L22.1,7.9"/>
<path class="st1" d="M25.6,8.8c0.1-0.1,0.1-0.2,0.2-0.2c-0.1-0.1-0.2-0.1-0.3-0.2c-0.1,0-0.1,0.1-0.2,0.1l0,0c0,0-0.1,0.1-0.1,0.1
	c0,0,0,0.1,0,0.1l0.2,0.3L25.6,8.8"/>
<path class="st1" d="M24.4,9.7c0-0.1,0-0.2,0-0.3C24,9,23.6,8.6,23.1,8.4C23,8.6,23,8.7,22.9,8.8l0.2,0.1C23.6,9.1,24,9.3,24.4,9.7
	L24.4,9.7"/>
<path class="st1" d="M24.6,9L24.6,9c0.1-0.1,0.1-0.1,0.1-0.2c-0.4-0.4-0.8-0.7-1.2-0.9c-0.1,0.1-0.2,0.2-0.3,0.4
	c0.5,0.2,0.9,0.5,1.3,0.9L24.6,9"/>
<path class="st1" d="M17.8,10.2c0.4,0.3,0.9,0.5,1.3,0.8c-0.1-0.3-0.1-0.6,0-0.9c0.1-0.2,0.1-0.3,0.2-0.5c0.1-0.1,0.1-0.1,0.1-0.1
	s0,0.1,0,0.2c-0.1,0.2-0.1,0.3-0.1,0.5c-0.1,0.2-0.1,0.5,0,0.7c0.1,0.1,0.2,0.3,0.3,0.4l0,0c0-0.1,0-0.1,0-0.2c0-0.2,0-0.5,0.1-0.7
	c0.1-0.4,0.3-0.6,0.3-0.6s0,0.2-0.1,0.6c0,0.2,0,0.4,0,0.6c0,0.2,0.1,0.3,0.2,0.4l0.7,0.3c0.3,0.1,0.6,0.2,1,0.3
	c0.2,0,0.4,0.1,0.6,0.1c0.2-0.2,0.5-0.3,0.9-0.4c0.3,0,0.7,0,1,0h0.6c-0.1-0.1-0.1-0.2-0.2-0.3l-0.1-0.1c-0.1-0.1-0.2-0.3-0.3-0.4
	c-0.1,0.1-0.1,0.2-0.2,0.3c-0.2,0.2-0.4,0.3-0.4,0.3s0.1-0.2,0.3-0.4c0.1-0.1,0.2-0.3,0.2-0.4c-0.2,0.2-0.3,0.4-0.5,0.5
	c-0.2,0.2-0.4,0.3-0.6,0.4c-0.4,0.2-0.7,0.1-0.7,0.1s0.2-0.1,0.6-0.3c0.4-0.2,0.7-0.5,1-0.9c-0.6,0.3-1.2,0.5-1.8,0.6l0,0
	c0,0-0.1,0-0.1,0c0,0-0.1-0.1-0.1-0.1c0-0.4,0-0.7,0-1.1l0,0c-0.4-0.2-0.6-0.6-0.7-1c-0.9-0.4-2-0.4-2.9,0.1
	c-0.3,0.1-0.5,0.3-0.6,0.5c0.1,0.2,0.1,0.4,0.1,0.6C17.8,10.1,17.8,10.1,17.8,10.2"/>
<path class="st1" d="M16.8,10.3c-0.2,0.1-0.4,0.2-0.6,0.4c-0.4,0.2-0.7,0.6-0.9,1.1c0,0.5,0.2,0.9,0.5,1.2c0.1,0.2,0.3,0.3,0.4,0.4
	c0.1,0.1,0.3,0.1,0.5,0c0.2-0.1,0.3-0.2,0.4-0.3l0,0c0,0-0.1-0.1-0.1-0.1c0-0.1,0-0.1,0-0.2c0-0.1,0.1-0.1,0.1-0.1s0,0.1,0,0.1
	c0,0,0,0.1,0,0.1c0,0,0.1,0.1,0.1,0.1c0.1,0,0.1-0.1,0.1-0.1l0.2-0.2l0-0.1c0,0,0-0.1,0-0.1c0-0.1,0-0.1,0-0.2c0,0,0,0,0-0.1
	c-0.1-0.1-0.3-0.1-0.5,0.1s-0.3,0.2-0.5,0.3s-0.4,0.3-0.5,0.3s0.1-0.2,0.3-0.5c0.1-0.1,0.3-0.3,0.4-0.4c0.1-0.1,0.2-0.2,0.4-0.2
	c0.1,0,0.2,0,0.2,0l0,0c0-0.1-0.1-0.2-0.1-0.4c-0.4,0-0.7,0.2-1,0.4c-0.2,0.2-0.3,0.4-0.4,0.3s0-0.2,0.2-0.5c0.3-0.3,0.6-0.5,1-0.6
	L17.4,11l0,0L17.2,11c-0.1,0-0.2,0.1-0.4,0.2c-0.2,0.1-0.4,0.3-0.5,0.5c-0.3,0.3-0.5,0.4-0.6,0.4s0.1-0.2,0.4-0.6
	c0.2-0.2,0.3-0.4,0.5-0.5c0.1-0.1,0.3-0.2,0.4-0.2l0.2-0.1l0,0c0-0.1,0-0.2-0.1-0.4h-0.1C17,10.3,16.8,10.3,16.8,10.3"/>
<path class="st1" d="M21.9,8.8c-0.1,0-0.2,0-0.3,0c0,0.2,0.1,0.4,0.2,0.5C21.8,9.2,21.8,9,21.9,8.8"/>
<path class="st1" d="M14.1,10C14.1,10,14.1,10.1,14.1,10c0,0,0.1-0.1,0.1-0.2c0.1-0.2,0.3-0.4,0.4-0.6C15,9,15.3,8.9,15.3,8.9
	s-0.2,0.2-0.4,0.4c-0.1,0.2-0.3,0.4-0.4,0.6c-0.1,0.2-0.1,0.4-0.1,0.6c0.1-0.2,0.2-0.3,0.3-0.5c0.1-0.2,0.3-0.3,0.5-0.4
	c0.3-0.2,0.5-0.3,0.5-0.2s-0.1,0.2-0.4,0.4c-0.1,0.1-0.3,0.3-0.4,0.4c0,0.1-0.1,0.2-0.1,0.2l0.1-0.1c0.2-0.3,0.5-0.5,0.9-0.6
	c0.2-0.1,0.4-0.1,0.4-0.1S16,9.8,15.8,9.9c-0.3,0.2-0.5,0.4-0.8,0.6c-0.1,0.1-0.2,0.3-0.3,0.4c0.1,0,0.1,0,0.2,0h0.1
	c0.2-0.3,0.5-0.5,0.8-0.7c0.2-0.2,0.5-0.4,0.8-0.5c0.2-0.1,0.4-0.1,0.6-0.1c0,0,0-0.1,0-0.1l0,0c-0.2-0.4-0.5-0.8-0.9-0.9
	c-0.6-0.2-1.3-0.1-1.8,0.3c-0.2,0.1-0.3,0.2-0.4,0.4C14.1,9.6,14.1,9.8,14.1,10"/>
<g>
	<defs>
		<rect id="SVGID_00000059283863018036593430000011896039945973203102_" x="4.7" y="1.5" width="0.9" height="1.1"/>
	</defs>
	<clipPath id="SVGID_00000063627109619498866710000006639275059585977222_">
		<use xlink:href="#SVGID_00000059283863018036593430000011896039945973203102_"  style="overflow:visible;"/>
	</clipPath>
	<g style="clip-path:url(#SVGID_00000063627109619498866710000006639275059585977222_);">
		<path class="st1" d="M5.3,1.9c0,0,0-0.1,0-0.1C5,2,4.8,2.2,4.7,2.5c0.2-0.2,0.4-0.3,0.7-0.5C5.4,2,5.4,1.9,5.3,1.9"/>
	</g>
</g>
<g>
	<defs>
		<rect id="SVGID_00000170964401945110862040000002894328881508289183_" x="10.5" y="1.5" width="2.3" height="1.6"/>
	</defs>
	<clipPath id="SVGID_00000163751669328191457800000018250804750740216224_">
		<use xlink:href="#SVGID_00000170964401945110862040000002894328881508289183_"  style="overflow:visible;"/>
	</clipPath>
	<g style="clip-path:url(#SVGID_00000163751669328191457800000018250804750740216224_);">
		<path class="st1" d="M10.9,2.7c0.2,0.1,0.4,0.2,0.6,0.2c0.2,0,0.4,0,0.6-0.1l0,0c0.2-0.1,0.3-0.2,0.3-0.3c0.1-0.2,0-0.5-0.2-0.7
			c-0.2-0.2-0.4-0.3-0.6-0.3c-0.2,0-0.4,0.1-0.6,0.2c-0.2,0.1-0.3,0.3-0.4,0.6C10.6,2.4,10.7,2.6,10.9,2.7"/>
	</g>
</g>
</svg>
