<?xml version="1.0" encoding="utf-8"?>
<!-- Generator: Adobe Illustrator 26.0.1, SVG Export Plug-In . SVG Version: 6.00 Build 0)  -->
<svg version="1.1" id="Layer_1" xmlns="http://www.w3.org/2000/svg" xmlns:xlink="http://www.w3.org/1999/xlink" x="0px" y="0px"
	 viewBox="0 0 32 32" style="enable-background:new 0 0 32 32;" xml:space="preserve">
<style type="text/css">
	.st0{fill:#3B2B6C;}
	.st1{clip-path:url(#SVGID_00000127022074170170263910000008016502675147788711_);}
	.st2{clip-path:url(#SVGID_00000177479917112612512120000013213515229314485414_);}
</style>
<path class="st0" d="M24.2,15.6c0.2-0.4,0.3-0.8,0.2-1.3c0-0.3-0.1-0.5-0.2-0.8l0,0h-0.8c-0.3,0-0.6,0-1,0c-0.1,0-0.3,0.1-0.4,0.1
	c0.5,0.3,0.8,0.7,1.1,1.2c0.2,0.5,0.3,1.1,0.2,1.6C23.7,16.3,24,16,24.2,15.6"/>
<path class="st0" d="M16.2,14.8c-0.2,0.2-0.4,0.3-0.6,0.4c-0.2,0.1-0.3,0.1-0.5,0.1c0,0.1,0,0.2,0.1,0.2c0.1,0.1,0.2,0.2,0.3,0.2
	c0.3,0,0.6-0.1,0.9-0.3c0.2-0.2,0.4-0.4,0.5-0.7c0-0.1,0-0.3,0-0.4l-0.1-0.1C16.5,14.5,16.4,14.7,16.2,14.8"/>
<path class="st0" d="M22.9,16.4L22.9,16.4c0.2-0.5,0.1-1-0.1-1.5c-0.2-0.5-0.6-0.9-1.1-1.1l0,0c0.3,0.3,0.6,0.6,0.8,1
	c0.2,0.5,0.2,1,0.2,1.5h0.2H23"/>
<path class="st0" d="M21,23c0.2,0,0.4,0.1,0.6,0.2c0.1-0.2,0.1-0.5,0.1-0.8c-1.3-0.2-2.6,0.2-3.6,1c0,0.1,0.1,0.1,0.2,0.2l0.1,0
	c0.6-0.3,1.3-0.5,1.9-0.6C20.5,23,20.8,23,21,23"/>
<path class="st0" d="M17.2,14.2c0.2,0.2,0.4,0.4,0.6,0.5c0.4,0.2,0.8,0.4,1.2,0.5l2.9,1l0.4,0.1c0.1-0.4,0-0.9-0.2-1.3
	c-0.2-0.4-0.5-0.8-0.8-1.1c-0.2-0.1-0.4-0.1-0.7-0.1c-0.4-0.1-0.8-0.2-1.1-0.3l-0.5-0.2H19l0,0L18.8,13c-0.7-0.4-1.5-0.8-2.1-1.2
	l0.1,0.4c0,0.1,0.1,0.2,0.1,0.2c0.2,0.4,0.3,0.9,0.1,1.4C17.1,13.9,17.2,14,17.2,14.2"/>
<path class="st0" d="M22.3,11.3c-0.2,0-0.4,0-0.6-0.1c-0.2,0-0.3-0.1-0.5-0.1c0,0.2,0,0.5,0,0.8c0.6-0.1,1.2-0.3,1.7-0.6
	C22.8,11.3,22.5,11.3,22.3,11.3"/>
<path class="st0" d="M22.7,8.5c0.5,0.3,1,0.6,1.4,1c0-0.1,0.1-0.2,0.1-0.2l0,0c-0.7-0.6-1.5-1-2.4-1.3c0,0.1-0.1,0.2-0.1,0.2
	c0.3,0.1,0.6,0.2,0.9,0.3C22.6,8.6,22.6,8.6,22.7,8.5"/>
<path class="st0" d="M21.3,9.6l0.5,0.1c0-0.1,0.1-0.3,0.2-0.4c-0.2-0.1-0.4-0.1-0.5-0.1L21.3,9.6"/>
<path class="st0" d="M21.2,9.9c-0.1,0.3-0.1,0.5,0,0.8c0.1,0.1,0.3,0.1,0.4,0.1c0-0.3,0-0.6,0.1-0.9C21.5,9.9,21.4,9.9,21.2,9.9
	L21.2,9.9"/>
<path class="st0" d="M22.3,28.5c-0.2,0-0.4,0.2-0.4,0.3c0,0.1,0,0.1,0,0.2c0,0.3,0.1,0.6,0.2,0.8l0.1,0.1l0.1,0.1c0,0,0,0.1,0,0.1
	c0.1-0.1,0.3-0.1,0.4-0.1c0.1,0,0.2,0.1,0.3,0.2c0,0,0.1,0.1,0.1,0.1c0,0,0.1,0,0.1,0c0,0,0,0,0-0.1l0,0l-0.2-0.8
	c-0.1-0.3-0.2-0.6-0.3-0.9C22.7,28.5,22.5,28.5,22.3,28.5"/>
<path class="st0" d="M25.1,10l-0.3,0.4c0,0-0.1,0-0.1,0l0,0c0,0-0.1,0-0.1-0.1c-0.1-0.1-0.2-0.2-0.3-0.4l-0.1,0.2l0,0
	c-0.1,0.1-0.1,0.2-0.2,0.3c0,0.1,0,0.2,0,0.2c0.1,0.1,0.1,0.1,0.2,0.1h0.1h0.1c0.3-0.1,0.5-0.2,0.6-0.5c0.1-0.2,0.2-0.4,0.3-0.7
	l-0.1,0.2"/>
<path class="st0" d="M21.5,8.9C21.7,9,21.9,9,22,9.1c0.1-0.1,0.2-0.3,0.3-0.4c-0.2-0.1-0.5-0.2-0.7-0.2C21.5,8.6,21.5,8.8,21.5,8.9"
	/>
<path class="st0" d="M22.7,16.9L22.7,16.9c-0.3-0.1-0.6-0.2-1-0.3l-2.9-1c-0.4-0.1-0.9-0.3-1.3-0.5L17.3,15l0,0
	c-0.1,0.4-0.3,0.7-0.6,0.9l0.1,0.3c0.3,0.4,0.6,0.8,1,1.1c0.3,0.2,0.5,0.4,0.5,0.4s-0.3,0-0.6-0.2c-0.5-0.3-0.9-0.7-1.1-1.1
	l-0.1-0.2c-0.3,0.2-0.6,0.3-0.9,0.3c0.2,0.2,0.5,0.5,0.7,0.7c0.5,0.3,0.8,0.5,0.7,0.5c-0.3,0-0.6-0.1-0.9-0.3
	c-0.4-0.2-0.7-0.5-1-0.8c0.1,0.2,0.2,0.4,0.3,0.6c0.2,0.3,0.4,0.6,0.6,0.8c0.2,0.2,0.4,0.3,0.6,0.4c0.1,0.1,0.2,0.2,0.2,0.2
	s-0.1,0-0.3-0.1c-0.2-0.1-0.4-0.2-0.6-0.4c-0.3-0.2-0.6-0.5-0.8-0.8c-0.2-0.4-0.4-0.8-0.5-1.2L14,17c-0.1,0.1-0.1,0.1-0.1,0.2l0,0
	c0.2,0,0.5,0.1,0.7,0.2c0.2,0.1,0.4,0.3,0.6,0.4l0.1,0.1c0.7,0.6,1.6,1,2.4,1.3c0.2-0.2,0.3-0.3,0.5-0.4c0.3-0.3,0.7-0.4,1.2-0.4
	c0.5,0.1,0.9,0.5,1.1,0.9v0.1c0.1-0.2,0.2-0.3,0.3-0.5c0.1-0.3,0.2-0.7,0.1-1c-0.1-0.4-0.3-0.7-0.6-0.9c-0.2-0.2-0.4-0.3-0.4-0.4
	s0.2,0,0.5,0.2c0.2,0.1,0.3,0.2,0.5,0.4c0.1,0.2,0.2,0.4,0.3,0.6c0.1-0.2,0.1-0.4,0.1-0.5s0-0.4,0.1-0.4s0.1,0.1,0.1,0.4
	c0,0.2,0,0.4,0,0.7C22.1,17.7,22.5,17.3,22.7,16.9"/>
<path class="st0" d="M17.9,22.8c0,0.1,0,0.2,0,0.3c0,0,0,0,0,0.1c1.1-0.8,2.4-1.1,3.7-1l-0.1-0.2c-0.3-0.1-0.6-0.1-0.9-0.1
	C19.7,21.8,18.7,22.1,17.9,22.8"/>
<path class="st0" d="M18.6,30.7c0.3-0.6,0.5-1.2,0.5-1.9c0,0,0-0.1,0-0.1c-0.1-0.3-0.2-0.7-0.4-1l-0.2-0.4c-0.2-0.3-0.3-0.7-0.4-1
	c-0.2-0.4-0.3-0.9-0.2-1.4l-0.4-0.1c-0.3-0.1-0.5-0.2-0.8-0.2l-0.8-0.1c-0.2,1.2-0.3,2.3-0.2,3.5v1.2c0,0,0,0.1,0,0.1
	c0.2,0.3,0.4,0.5,0.7,0.6c0.2,0.1,0.5,0.2,0.7,0.2c0.3,0.1,0.5,0.1,0.8,0.2C18.1,30.4,18.3,30.5,18.6,30.7"/>
<path class="st0" d="M21.3,7.4c1.2,0.3,2.3,0.8,3.2,1.6c0,0,0.1,0.1,0.1,0.1l0,0c0,0,0.1,0,0.1,0c0.1,0.1,0.3,0.2,0.5,0.3
	c0.1-0.5,0.2-1,0.2-1.6c-0.1-1.1-1.1-1.9-2.2-1.8c-0.7,0.1-1.3,0.5-1.6,1.1C21.6,7.3,21.5,7.4,21.3,7.4l-0.1-0.1L21.3,7.4
	C21.3,7.4,21.3,7.4,21.3,7.4"/>
<path class="st0" d="M11.6,26.9c-0.2,0-0.3,0.1-0.4,0.2c-0.1,0.2-0.3,0.3-0.3,0.5l-0.6,1.1c0.5,0.2,1,0.2,1.4,0.3c0-0.1,0-0.1,0-0.2
	c0-0.1,0-0.2,0.1-0.3c0.1-0.2,0.2-0.4,0.4-0.5c0.1,0,0.1,0,0.2-0.1l-0.1-0.1c0-0.1-0.1-0.2-0.1-0.3c-0.1-0.1-0.1-0.3-0.2-0.4
	C11.9,27,11.7,26.9,11.6,26.9"/>
<path class="st0" d="M18.3,21c-0.1,0-0.2-0.2-0.4-1c-0.1,0.3-0.2,0.7-0.1,1v0.8c0.5-0.3,1-0.6,1.6-0.7c0.5-0.1,1-0.1,1.6,0l-0.2-0.2
	l-0.7-1.1c-0.1-0.3-0.4-0.5-0.6-0.6c0.3,1.1,0.4,1.5,0.3,1.5s-0.2-0.3-0.6-1.5c-0.1,0-0.2,0.1-0.3,0.1c0.3,0.9,0.3,1.2,0.3,1.2
	s-0.2-0.2-0.5-1c-0.1,0.1-0.3,0.2-0.4,0.3C18.4,20.7,18.4,21,18.3,21"/>
<path class="st0" d="M12.3,11.9h0.2l-0.1-0.1l0,0l0,0c-0.1-0.1-0.1-0.3-0.1-0.4v-0.1h-0.1l0,0c-0.1,0-0.2,0.1-0.2,0.2
	c0,0.1,0,0.2,0,0.3C12.1,11.8,12.3,11.8,12.3,11.9"/>
<path class="st0" d="M19.5,21.4c-0.6,0.1-1.2,0.4-1.7,0.8v0.2c0,0,0,0.1,0,0.1c0.8-0.6,1.8-1,2.8-0.9c0.2,0,0.5,0,0.7,0.1
	c0-0.1-0.1-0.2-0.1-0.2C20.7,21.2,20.1,21.2,19.5,21.4"/>
<path class="st0" d="M13.3,28.8c-0.2-0.2-0.4-0.3-0.6-0.5c-0.1,0-0.2,0-0.3,0.1c-0.1,0.1-0.2,0.2-0.3,0.3c0,0.1-0.1,0.2-0.1,0.3
	c0,0,0,0.1,0,0.1c0.3,0,0.7-0.1,1-0.2L13.3,28.8"/>
<path class="st0" d="M14.5,23.6l0.4,0.1c0.5,0.1,1.1,0.2,1.8,0.3c0.3,0,0.6,0.1,0.9,0.2l0.2,0.1c0-0.1,0-0.2,0-0.3
	c-0.2-0.2-0.4-0.5-0.4-0.8c-0.1-0.3-0.1-0.6-0.1-0.9V21c0-0.4,0-0.9,0.2-1.3l0,0l-0.4-0.1c-0.5-0.2-1-0.3-1.5-0.4
	c-0.3-0.1-0.6-0.1-0.8-0.2c-0.2,0-0.5,0-0.7,0c-0.4,0.1-0.6,0.2-0.6,0.2s0-0.1,0.1-0.2c0.1-0.1,0.3-0.2,0.4-0.3
	c0.2-0.1,0.5-0.1,0.8-0.1c0.3,0,0.6,0.1,0.9,0.1l0,0c-0.2-0.2-0.5-0.3-0.7-0.5l-0.1-0.1c-0.2-0.1-0.4-0.3-0.6-0.4
	c-0.1-0.1-0.3-0.1-0.4-0.2v0c-0.8,0.7-1.4,1.6-1.7,2.6c-0.1,0.4-0.1,0.7,0,1.1c0.1,0.8,0.6,1.5,1.3,1.9
	C13.8,23.4,14.2,23.6,14.5,23.6"/>
<path class="st0" d="M3.4,2.6L4.1,3C5,3.5,5.8,4.1,6.6,4.8l3.1,2.7c0.8,0.7,1.8,1.4,2.6,2l0.2,0.1l0.1-0.1l0,0C12,9.1,11.4,8.6,11,8
	c-0.2-0.2-0.4-0.5-0.6-0.7C9.5,6.4,8.6,5.7,7.7,5C7.4,4.8,7.2,4.7,7,4.5S6.5,4.1,6.3,4c-0.5-0.3-1-0.6-1.6-1
	C4.5,2.8,4.2,2.7,3.9,2.5L3.8,2.4L3.4,2.2c0,0.1,0,0.1,0,0.2C3.4,2.4,3.4,2.5,3.4,2.6"/>
<path class="st0" d="M20.5,30.2l0.1,0.2c0.1,0.1,0.2,0.3,0.3,0.4c0.1,0.1,0.2,0.2,0.3,0.2h0.1c-0.7-1.6-1.1-2.6-1.4-3.3
	s-0.3-0.9-0.3-1s0.2,0.2,0.5,0.9s0.8,1.7,1.5,3.3l0.1-0.1c0.1-0.1,0.2-0.2,0.3-0.3c0,0,0,0,0.1-0.1c-1.1-3.2-1.4-4.2-1.4-4.3
	c0.4,0.8,0.8,1.6,1,2.5c0.1-0.3,0.3-0.4,0.6-0.5c0.2,0,0.3,0,0.5,0c-0.4-1.5-0.9-3.1-1.3-4.7c0,0,0-0.1,0-0.1
	c-0.2-0.1-0.3-0.1-0.5-0.1h-0.2c0.5,1.5,0.8,2.6,1,3.2s0.2,0.9,0.2,1s-0.1-0.2-0.4-0.9s-0.5-1.7-1.1-3.3h-0.2l-0.5,0.1
	c0,0.6,0.1,1.2,0.3,1.8c0.1,0.4,0.1,0.5,0.1,0.6s-0.1-0.1-0.3-0.5c-0.2-0.6-0.4-1.2-0.4-1.8c-0.2,0-0.4,0.1-0.5,0.2
	c0.2,1.1,0.4,1.8,0.5,2.2s0.1,0.6,0.1,0.7s-0.1-0.1-0.3-0.6c-0.2-0.7-0.4-1.4-0.5-2.1l-0.3,0.1c0,0.2,0,0.4,0,0.6c0,0,0,0.1,0,0.1
	c0,0.5,0,1,0.2,1.4c0.1,0.3,0.3,0.6,0.4,1c0.1,0.1,0.1,0.3,0.2,0.4s0.1,0.4,0.2,0.5l0.3,0.5c0.2,0.3,0.3,0.7,0.4,1
	C20.2,29.8,20.4,30.1,20.5,30.2"/>
<g>
	<defs>
		<rect id="SVGID_1_" x="2.4" y="2.8" width="10.3" height="7.3"/>
	</defs>
	<clipPath id="SVGID_00000134950167367973406680000000358018612110977470_">
		<use xlink:href="#SVGID_1_"  style="overflow:visible;"/>
	</clipPath>
	<g style="clip-path:url(#SVGID_00000134950167367973406680000000358018612110977470_);">
		<path class="st0" d="M12.1,10c0.1-0.1,0.1-0.1,0.2-0.2l-0.1-0.1c-0.8-0.6-1.8-1.2-2.6-2L6.4,5C5.6,4.4,4.8,3.8,3.9,3.3L3.3,2.9
			C3,3,2.8,3.2,2.6,3.3c3,2,6.1,4.2,9.2,6.6C11.9,9.9,12,9.9,12.1,10"/>
	</g>
</g>
<path class="st0" d="M22.1,10.1l-0.1-0.1c-0.1,0.3-0.1,0.5-0.1,0.8c0.4,0.1,0.9,0,1.3-0.1C22.8,10.5,22.5,10.3,22.1,10.1"/>
<path class="st0" d="M21,9.1c-0.2,0-0.3,0-0.5,0c0,0.1,0,0.3,0,0.4h0.4L21,9.1"/>
<path class="st0" d="M21.4,7.8h-0.2l0,0C21.2,7.9,21.1,8,21,8.1h0.3C21.3,8,21.4,7.9,21.4,7.8"/>
<path class="st0" d="M21.1,8.8c0-0.1,0.1-0.3,0.1-0.5h-0.4c-0.1,0.2-0.2,0.3-0.2,0.5L21.1,8.8L21.1,8.8"/>
<path class="st0" d="M24.9,9.8l0.2-0.3c-0.1-0.1-0.2-0.1-0.3-0.2c-0.1,0-0.1,0.1-0.2,0.1l0,0c0,0-0.1,0.1-0.1,0.1l-0.1,0.1
	c0.1,0.1,0.2,0.2,0.3,0.3L24.9,9.8"/>
<path class="st0" d="M23.5,10.7c0-0.1,0-0.2,0-0.3c-0.4-0.4-0.8-0.8-1.4-1C22.1,9.5,22,9.7,22,9.8l0.2,0.1
	C22.6,10.1,23.1,10.4,23.5,10.7L23.5,10.7"/>
<path class="st0" d="M23.8,10L23.8,10L24,9.7c-0.4-0.4-0.9-0.7-1.4-0.9c-0.1,0.1-0.2,0.3-0.3,0.4c0.5,0.2,1,0.6,1.4,1L23.8,10"/>
<path class="st0" d="M16.5,11.3c0.5,0.3,1,0.6,1.4,0.9c-0.1-0.3-0.1-0.6,0-0.9c0.1-0.2,0.2-0.4,0.3-0.5c0.1-0.1,0.1-0.2,0.2-0.1
	s0,0.1,0,0.2s-0.1,0.3-0.2,0.5c-0.1,0.2-0.1,0.5,0,0.8c0.1,0.2,0.2,0.3,0.3,0.4l0,0v-0.2c0-0.3,0-0.5,0.1-0.8
	c0.1-0.4,0.3-0.6,0.3-0.6s0,0.3-0.1,0.6c0,0.2,0,0.4,0,0.7c0,0.2,0.1,0.3,0.2,0.5l0.7,0.4c0.3,0.1,0.7,0.2,1,0.3l0.7,0.1
	c0.3-0.2,0.6-0.3,0.9-0.4c0.3,0,0.7,0,1,0h0.6l-0.2-0.3l-0.1-0.1c-0.1-0.1-0.2-0.3-0.3-0.4c-0.1,0.1-0.1,0.2-0.2,0.3
	c-0.2,0.3-0.4,0.3-0.5,0.3s0.1-0.2,0.3-0.4c0.1-0.1,0.2-0.3,0.2-0.5c-0.2,0.2-0.3,0.4-0.5,0.6c-0.2,0.2-0.4,0.3-0.7,0.4
	c-0.4,0.2-0.7,0.1-0.7,0.1s0.2-0.1,0.6-0.3c0.4-0.3,0.8-0.6,1.1-0.9c-0.6,0.3-1.2,0.5-1.9,0.6l0,0c-0.1,0-0.2-0.1-0.2-0.2
	c0-0.4,0-0.8,0-1.2l0,0c-0.4-0.2-0.6-0.6-0.7-1.1c-1-0.4-2.1-0.3-3.1,0.2c-0.3,0.1-0.5,0.3-0.6,0.5C16.4,10.8,16.4,11,16.5,11.3
	C16.4,11.2,16.4,11.3,16.5,11.3"/>
<path class="st0" d="M15.4,11.4c-0.2,0.1-0.5,0.2-0.6,0.4c-0.4,0.3-0.8,0.7-0.9,1.2c0,0.5,0.2,1,0.6,1.3c0.1,0.2,0.3,0.3,0.5,0.4
	c0.2,0.1,0.3,0.1,0.5,0c0.2-0.1,0.3-0.2,0.5-0.3l0,0c0,0-0.1-0.1-0.1-0.1c0-0.1,0-0.2,0-0.2c0-0.1,0.1-0.1,0.1-0.1s0,0.1,0,0.2
	c0,0,0,0.1,0,0.1c0,0,0.1,0.1,0.1,0.1s0.1-0.1,0.2-0.1c0.1-0.1,0.2-0.1,0.2-0.2h0.1c0,0,0-0.1,0-0.1c0-0.1,0-0.1,0-0.2v-0.1
	c-0.1-0.1-0.3-0.1-0.5,0.1s-0.4,0.2-0.5,0.4s-0.4,0.4-0.5,0.3s0.1-0.2,0.3-0.5c0.1-0.2,0.3-0.3,0.5-0.4c0.1-0.1,0.2-0.2,0.4-0.2
	c0.1,0,0.2,0,0.3,0l0,0c0-0.1-0.1-0.2-0.1-0.4c-0.4,0.1-0.7,0.2-1,0.4c-0.2,0.2-0.4,0.4-0.4,0.4s0-0.2,0.3-0.5
	c0.3-0.3,0.6-0.5,1-0.6L16,12.2l0,0l-0.2,0.1c-0.1,0-0.3,0.1-0.4,0.2c-0.2,0.2-0.4,0.4-0.6,0.5c-0.3,0.3-0.6,0.5-0.6,0.4
	s0.1-0.2,0.4-0.6c0.2-0.2,0.4-0.4,0.6-0.6c0.1-0.1,0.3-0.2,0.5-0.2l0.2-0.1l0,0c0-0.1-0.1-0.3-0.1-0.4h-0.1c-0.1,0-0.3,0-0.4,0.1"/>
<path class="st0" d="M20.8,9.8h-0.4c0,0.2,0.1,0.4,0.2,0.6C20.7,10.2,20.8,10,20.8,9.8"/>
<path class="st0" d="M12.5,11.1C12.5,11.1,12.5,11.2,12.5,11.1c0,0,0.1-0.1,0.1-0.2c0.1-0.2,0.3-0.4,0.5-0.6
	c0.4-0.3,0.6-0.4,0.6-0.3s-0.2,0.2-0.5,0.5c-0.2,0.2-0.3,0.4-0.4,0.6c-0.1,0.2-0.2,0.4-0.1,0.7c0.1-0.2,0.2-0.4,0.3-0.5
	c0.1-0.2,0.3-0.3,0.5-0.4c0.3-0.2,0.5-0.3,0.6-0.2s-0.1,0.2-0.4,0.4c-0.2,0.1-0.3,0.3-0.4,0.5c-0.1,0.1-0.1,0.2-0.1,0.2l0.1-0.1
	c0.3-0.3,0.6-0.5,0.9-0.7c0.3-0.1,0.4-0.2,0.5-0.1s-0.1,0.2-0.3,0.3c-0.3,0.2-0.6,0.4-0.8,0.7c-0.1,0.1-0.2,0.3-0.3,0.4
	c0.1,0,0.1,0,0.2,0h0.1c0.2-0.3,0.5-0.6,0.8-0.8c0.2-0.2,0.5-0.4,0.8-0.5c0.2-0.1,0.4-0.1,0.7-0.1c0-0.1,0-0.1,0-0.1l0,0
	c-0.2-0.5-0.5-0.8-1-1c-0.7-0.2-1.4-0.1-1.9,0.4c-0.2,0.1-0.3,0.3-0.4,0.4C12.5,10.7,12.5,10.9,12.5,11.1"/>
<g>
	<defs>
		<rect id="SVGID_00000072995719235817300440000007656074505683717560_" x="8.6" y="2" width="2.4" height="1.7"/>
	</defs>
	<clipPath id="SVGID_00000117647425546282724750000001328604317348386456_">
		<use xlink:href="#SVGID_00000072995719235817300440000007656074505683717560_"  style="overflow:visible;"/>
	</clipPath>
	<g style="clip-path:url(#SVGID_00000117647425546282724750000001328604317348386456_);">
		<path class="st0" d="M9,3.3c0.2,0.1,0.4,0.2,0.6,0.2c0.2,0,0.5,0,0.7-0.1l0,0c0.2-0.1,0.3-0.2,0.3-0.4c0-0.3,0-0.5-0.2-0.8
			C10.3,2.1,10.1,2,9.8,2C9.6,2,9.4,2.1,9.2,2.2C9,2.3,8.8,2.6,8.8,2.8C8.8,3,8.9,3.2,9,3.3"/>
	</g>
</g>
</svg>
