<?xml version="1.0" encoding="utf-8"?>
<!-- Generator: Adobe Illustrator 26.0.1, SVG Export Plug-In . SVG Version: 6.00 Build 0)  -->
<svg version="1.1" id="Layer_1" xmlns="http://www.w3.org/2000/svg" xmlns:xlink="http://www.w3.org/1999/xlink" x="0px" y="0px"
	 viewBox="0 0 32 32" style="enable-background:new 0 0 32 32;" xml:space="preserve">
<style type="text/css">
	.st0{fill:#3B2B6C;}
</style>
<path class="st0" d="M10.2,4.2c-0.8,0.9-1,2.2-0.6,3.3C10.3,8.8,12,9.4,13,9.6v18.5c0,0.8,0.7,1.4,1.5,1.4s1.4-0.6,1.4-1.4V17.6h0.6
	v10.5c0,0.8,0.7,1.4,1.5,1.4s1.4-0.6,1.4-1.4V10.6c0.5,1.1,1,3.3,0.7,7.4c0,0.5,0.3,0.9,0.8,1l0,0l0,0c0.5,0,0.9-0.4,0.9-0.9
	c0.3-4.9-0.3-8.1-1.8-9.6c-0.4-0.4-1-0.7-1.6-0.8c0,0,0,0-0.1,0H14c-0.7,0-2.3-0.4-2.6-1.1c-0.2-0.4,0.1-1.1,0.5-1.6L10.2,4.2z"/>
<path class="st0" d="M17.7,6.8c-1.2,0.8-2.8,0.4-3.6-0.8c0.1,0,0.2,0,0.3,0c0.2,0,0.4,0,0.6-0.1c0,0,0,0,0,0c0,0,0,0.3,0.1,0.4
	c0.1,0.2,0.3,0.2,0.3,0.2c0.1,0,0.1,0,0.2,0c0,0,0.1,0,0.2,0c0,0,0.1,0,0.2,0c0.3-0.1,0.5-0.3,0.6-0.6c0.3-0.5,0.1-1.2-0.3-1.4
	c-0.1,0-0.1,0-0.2,0h0c-0.1,0-0.3,0-0.4,0c-0.1,0-0.1,0-0.2,0.1c0,0,0,0,0-0.1c0-0.1,0-0.2-0.1-0.3c-0.1-0.2-0.2-0.4-0.4-0.5
	c0,0-0.1-0.1-0.1-0.1c0,0-0.1-0.1-0.1-0.1c-0.2-0.2-0.5-0.3-0.7-0.3c0.2-0.3,0.5-0.6,0.8-0.8c1.2-0.8,2.8-0.4,3.6,0.8
	S18.9,6,17.7,6.8z"/>
<path class="st0" d="M13.2,5.4c0.1,0.1,0.3,0.1,0.4,0.2c0.2,0.1,0.3,0.1,0.4,0.1c0.1,0,0.2,0,0.4,0c0.1,0,0.2,0,0.3-0.1
	c0.1,0,0.1-0.1,0.2-0.1l0.5,0.2L15.9,5l-0.5-0.2c0,0-0.1-0.2-0.1-0.2c0,0,0-0.2,0-0.2c0-0.1-0.1-0.1-0.1-0.2C15.1,4.1,15.1,4,15,3.9
	c-0.1-0.1-0.2-0.2-0.3-0.3c-0.1-0.1-0.3-0.2-0.4-0.2L9.9,1.2c-0.2-0.1-0.5,0-0.6,0.2L8.7,2.5C8.6,2.8,8.6,3,8.9,3.2L13.2,5.4z"/>
</svg>
