<?xml version="1.0" encoding="utf-8"?>
<!-- Generator: Adobe Illustrator 26.0.1, SVG Export Plug-In . SVG Version: 6.00 Build 0)  -->
<svg version="1.1" id="Layer_1" xmlns="http://www.w3.org/2000/svg" xmlns:xlink="http://www.w3.org/1999/xlink" x="0px" y="0px"
	 viewBox="0 0 32 32" style="enable-background:new 0 0 32 32;" xml:space="preserve">
<style type="text/css">
	.st0{fill:#392B6C;}
	.st1{fill:none;stroke:#382B6C;stroke-miterlimit:10;}
	.st2{clip-path:url(#SVGID_00000070096577095802747940000007672561376346108346_);}
	.st3{clip-path:url(#SVGID_00000053513884894467900290000017350076063835214013_);}
</style>
<g>
	<g>
		<g>
			<path class="st0" d="M5.2,15.2h2v0.6H6v0.8h1.2v0.6H6v1.4H5.2V15.2z"/>
			<path class="st0" d="M8.6,15.2v3.4H7.8v-3.4H8.6z"/>
			<path class="st0" d="M9.3,15.2c0.3,0,0.6-0.1,1-0.1c0.5,0,0.9,0.1,1.1,0.3c0.2,0.2,0.3,0.4,0.3,0.7c0,0.4-0.3,0.7-0.6,0.8v0
				c0.2,0.1,0.4,0.3,0.5,0.6c0.1,0.4,0.2,0.8,0.3,0.9H11c-0.1-0.1-0.1-0.4-0.2-0.8c-0.1-0.4-0.2-0.5-0.5-0.5h-0.2v1.3H9.3V15.2z
				 M10.1,16.7h0.3c0.4,0,0.6-0.2,0.6-0.5c0-0.3-0.2-0.5-0.6-0.5c-0.2,0-0.3,0-0.3,0V16.7z"/>
			<path class="st0" d="M12.3,17.8c0.2,0.1,0.5,0.2,0.8,0.2c0.4,0,0.6-0.2,0.6-0.4c0-0.2-0.2-0.3-0.6-0.5c-0.6-0.2-0.9-0.5-0.9-1
				c0-0.6,0.5-1,1.3-1c0.4,0,0.6,0.1,0.8,0.2l-0.2,0.6c-0.1-0.1-0.4-0.1-0.7-0.1c-0.3,0-0.5,0.2-0.5,0.3c0,0.2,0.2,0.3,0.6,0.5
				c0.6,0.2,0.9,0.6,0.9,1c0,0.6-0.5,1-1.4,1c-0.4,0-0.7-0.1-0.9-0.2L12.3,17.8z"/>
			<path class="st0" d="M15.6,15.8h-0.9v-0.6h2.6v0.6h-0.9v2.7h-0.8V15.8z"/>
			<path class="st0" d="M19.4,17.7l-0.2,0.8h-0.8l1-3.4h1l1,3.4h-0.8l-0.2-0.8H19.4z M20.3,17.1l-0.2-0.7c-0.1-0.2-0.1-0.5-0.2-0.7
				h0c0,0.2-0.1,0.5-0.2,0.7l-0.2,0.7H20.3z"/>
			<path class="st0" d="M22.7,15.2v3.4h-0.8v-3.4H22.7z"/>
			<path class="st0" d="M23.4,15.2c0.3,0,0.6-0.1,1-0.1c0.6,0,1,0.1,1.3,0.3c0.4,0.3,0.6,0.7,0.6,1.3c0,0.7-0.2,1.1-0.6,1.4
				c-0.3,0.3-0.9,0.4-1.5,0.4c-0.4,0-0.6,0-0.8,0V15.2z M24.2,18c0.1,0,0.2,0,0.2,0c0.6,0,1.1-0.4,1.1-1.2c0-0.7-0.4-1.1-1-1.1
				c-0.1,0-0.2,0-0.3,0V18z"/>
		</g>
	</g>
	<path class="st1" d="M27.5,31.6c2.3,0,4.1-1.8,4.1-4.1l0,0V4.5c0-2.3-1.8-4.1-4.1-4.1c0,0,0,0,0,0H4.5c-2.3,0-4.1,1.8-4.1,4.1v22.9
		c0,2.3,1.8,4.1,4.1,4.1l0,0H27.5"/>
	<g>
		<defs>
			<rect id="SVGID_1_" x="12.7" y="8.5" width="6.5" height="5.3"/>
		</defs>
		<clipPath id="SVGID_00000137852402123298378120000000583733931274191784_">
			<use xlink:href="#SVGID_1_"  style="overflow:visible;"/>
		</clipPath>
		<g style="clip-path:url(#SVGID_00000137852402123298378120000000583733931274191784_);">
			<path class="st0" d="M18.1,9.6h-1V9c0-0.3-0.2-0.5-0.5-0.5h-1.5c-0.3,0-0.5,0.2-0.5,0.5v0.5h-1c-0.4,0-0.7,0.3-0.7,0.7
				c0,0,0,0,0,0V13c0,0.4,0.3,0.7,0.7,0.7c0,0,0,0,0,0h4.5c0.4,0,0.7-0.3,0.8-0.7v-2.7C18.8,9.9,18.5,9.6,18.1,9.6z M15.1,9
				C15.1,9,15.2,9,15.1,9L16.6,9c0,0,0.1,0,0.1,0.1v0.5h-1.5L15.1,9z M17,12h-0.7v0.7h-0.9V12h-0.7v-0.8h0.7v-0.7h0.8v0.7H17L17,12z
				"/>
		</g>
	</g>
	<g>
		<defs>
			<rect id="SVGID_00000152231439268872766230000015781499779014056335_" x="1.6" y="12" width="28.7" height="8.9"/>
		</defs>
		<clipPath id="SVGID_00000088123024874829479780000005644847072959244985_">
			<use xlink:href="#SVGID_00000152231439268872766230000015781499779014056335_"  style="overflow:visible;"/>
		</clipPath>
		<g style="clip-path:url(#SVGID_00000088123024874829479780000005644847072959244985_);">
			<path class="st0" d="M21.3,12.7c0,0.2,0.2,0.4,0.4,0.4l0,0h7.9v7H2.3v-7h7.9c0.2,0,0.4-0.2,0.4-0.4c0-0.2-0.2-0.4-0.4-0.4H1.6
				v8.5h28.6v-8.5h-8.6C21.4,12.3,21.3,12.5,21.3,12.7z"/>
		</g>
	</g>
</g>
</svg>
