<?xml version="1.0" encoding="utf-8"?>
<!-- Generator: Adobe Illustrator 26.0.1, SVG Export Plug-In . SVG Version: 6.00 Build 0)  -->
<svg version="1.1" id="Layer_1" xmlns="http://www.w3.org/2000/svg" xmlns:xlink="http://www.w3.org/1999/xlink" x="0px" y="0px"
	 viewBox="0 0 32 32" style="enable-background:new 0 0 32 32;" xml:space="preserve">
<style type="text/css">
	.st0{fill:#3B2B6C;}
	.st1{fill:none;}
	.st2{fill-rule:evenodd;clip-rule:evenodd;fill:#3B2B6C;}
</style>
<path class="st0" d="M29,22.1l-4.5-2.9L24,18.4c-0.2,1.2-1,1.6-1.8,2.4c0.1,0.2,0.2,0.4,0.5,0.5l4.8,3.1c0.7,0.5,1.5,0.2,1.9-0.4
	C29.8,23.4,29.6,22.5,29,22.1z"/>
<path class="st0" d="M12.2,15.5l0.2-0.1l0.5-0.3l2.7-1.5c0,0.1,0.1,0.2,0.1,0.2l1,1.9c0.1,0,0.2,0.1,0.2,0.2l-3.4,1.9
	c-0.7,0.4-1.5,0.1-1.9-0.5c-0.1-0.1-0.2-0.3-0.2-0.6c0-0.5,0.3-0.9,0.4-1"/>
<g>
	<path class="st0" d="M23.2,16.7l-2-3.8H24l1.7,2.4c0.5,0.6,1.3,0.8,1.9,0.3c0.6-0.5,0.8-1.3,0.3-1.9l-2.1-3
		c-0.2-0.4-0.7-0.6-1.1-0.6h-6.5c-1.5,0-2.7,1.7-1.9,3.2l1,1.9c1.1,2.2,1.7,3.2,1.8,3.5l-2.7,2.6c-0.2,0.2-0.4,0.6-0.4,1v4
		c0,0.8,0.6,1.4,1.4,1.4s1.4-0.6,1.4-1.4V23l3.6-3.5C23.3,18.9,23.6,17.7,23.2,16.7z"/>
</g>
<path class="st1" d="M10.6,14l0.3,0.6l0,0.1l0,0l0.3,0.6 M7.5,11L7.5,11L7.5,11L7.5,11z M10.6,12.7c0,0,0,0.1,0.1,0.2L10.6,12.7z"/>
<path class="st0" d="M15.4,10.2c1.3,0,2.4-1.1,2.4-2.4s-1.1-2.4-2.4-2.4S13,6.5,13,7.8S14.1,10.2,15.4,10.2z"/>
<line class="st1" x1="9.4" y1="7.2" x2="9.4" y2="7.2"/>
<line class="st1" x1="6.1" y1="9.7" x2="6.1" y2="9.5"/>
<line class="st1" x1="6.1" y1="10.4" x2="6.1" y2="10.4"/>
<line class="st1" x1="6.1" y1="7.7" x2="6.1" y2="7.7"/>
<line class="st1" x1="7.8" y1="7.2" x2="7.7" y2="7.2"/>
<path class="st1" d="M8.2,11.1L8.2,11.1C8.1,11.1,8.2,11.1,8.2,11.1L8.2,11.1z M7.5,11l-0.1,0.1c0.1,0,0.1,0,0.2,0L7.5,11z M7.5,9.9
	L7.5,9.9L7.5,9.9L7.5,9.9z M6.9,10.8L6.9,10.8L6.9,10.8C6.9,10.9,6.9,10.9,6.9,10.8L6.9,10.8z"/>
<circle class="st0" cx="3.1" cy="11.9" r="1.1"/>
<rect x="4.3" y="4.6" class="st1" width="6.5" height="9"/>
<path class="st2" d="M11,13.2L10.8,13l0-0.1c0,0,0,0,0,0l-0.1,0c-0.5-1.2-0.5-2.8-0.5-3.5c0,0,0-0.1,0-0.1c0-0.1,0-0.1,0-0.2
	c0,0,0,0,0,0c0-0.7-0.2-1.6-0.7-2.3c0,0,0,0,0,0C9.1,6,8.4,5.4,7.6,5.1C7.5,5.1,7.4,5.1,7.3,5C6.9,4.9,6.4,4.9,6,5
	C5.8,5.1,5.7,5.2,5.5,5.3c-0.6,0.4-0.9,1-1,1.7c0,0.1,0,0.1,0,0.1c0,0.2,0,0.5,0,0.8C4.6,8.4,4.8,9,5.1,9.6c0,0,0,0,0,0
	c0.5,0.8,1.2,1.4,1.9,1.7c0,0,0,0,0,0c0.1,0,0.1,0,0.2,0.1c0.1,0,0.2,0.1,0.3,0.2c0,0,0.1,0,0.1,0c0.7,0.3,1.8,0.9,2.4,1.7l-0.1,0
	c0,0,0,0,0,0.1l0.1,0.1l0,0c0,0,0,0,0,0l0.3,0.5l0.6,1l0,0l0,0l0.4,0.6c0.2-0.3,0.4-0.4,0.7-0.5L11,13.2z M10.1,9L9.9,9L9.8,8.7
	L10,8.6C10,8.7,10.1,8.9,10.1,9z M8,10.8l0.3-0.2L8.5,11l-0.3,0.2L8,10.8z M8.2,11.2L8.2,11.2C8.2,11.3,8.2,11.3,8.2,11.2L8.2,11.2z
	 M6.7,5.6L6.4,5.7L6.2,5.4l0.3-0.2L6.7,5.6z M6.5,5.1L6.5,5.1L6.5,5.1L6.5,5.1z M8.6,9.4L8.4,9.1l0.3-0.2l0.2,0.3L8.6,9.4z M9,9.2
	l0.2,0.3L8.9,9.7L8.7,9.4L9,9.2z M7.1,7.8L6.9,7.5l0.3-0.2l0.2,0.3L7.1,7.8z M7.5,7.7L7.7,8L7.4,8.1L7.2,7.8L7.5,7.7z M7.1,7.8
	L6.8,8L6.6,7.7l0.3-0.2L7.1,7.8z M6.5,7.6L6.4,7.3l0.3-0.2l0.2,0.3L6.5,7.6z M6.3,7.3L6.1,7l0.3-0.2l0.2,0.3L6.3,7.3z M6.5,7.7
	L6.2,7.9L6,7.6l0.3-0.2L6.5,7.7z M6.5,7.8L6.7,8L6.4,8.2L6.2,7.9L6.5,7.8z M6.7,8.1l0.2,0.3L6.6,8.6L6.4,8.3L6.7,8.1z M6.8,8.1
	l0.3-0.2l0.2,0.3L7,8.4L6.8,8.1z M7.3,8.3l0.2,0.3L7.2,8.7L7,8.4L7.3,8.3z M7.4,8.2L7.7,8l0.2,0.3L7.6,8.5L7.4,8.2z M8,8.3L7.8,8
	l0.3-0.2l0.2,0.3L8,8.3z M8.3,8.2l0.2,0.3L8.2,8.6L8,8.3L8.3,8.2z M7.9,8.4l0.2,0.3L7.8,8.9L7.6,8.6L7.9,8.4z M8.2,8.7L8.3,9L8,9.2
	L7.9,8.9L8.2,8.7z M8.2,8.7l0.3-0.2l0.2,0.3L8.4,9L8.2,8.7z M8.6,8.5l0.3-0.2l0.2,0.3L8.8,8.8L8.6,8.5z M8.5,8.4L8.4,8.1l0.3-0.2
	l0.2,0.3L8.5,8.4z M8.3,8L8.1,7.8l0.3-0.2l0.2,0.3L8.3,8z M8.1,7.7L7.9,7.4l0.3-0.2l0.2,0.3L8.1,7.7z M8,7.7L7.7,7.9L7.5,7.6
	l0.3-0.2L8,7.7z M7.5,7.6L7.3,7.3l0.3-0.2l0.2,0.3L7.5,7.6z M7.3,7.2L7.1,6.9l0.3-0.2L7.6,7L7.3,7.2z M7.2,7.2L6.9,7.4L6.7,7.1
	L7,6.9L7.2,7.2z M6.7,7.1L6.5,6.8l0.3-0.2L7,6.9L6.7,7.1z M6.5,6.7L6.3,6.4l0.3-0.2l0.2,0.3L6.5,6.7z M6.4,6.7L6.1,6.9L5.9,6.6
	l0.3-0.2L6.4,6.7z M6,7L5.7,7.1L5.5,6.9l0.3-0.2L6,7z M6.1,7l0.2,0.3L6,7.5L5.8,7.2L6.1,7z M6.1,7.9L5.8,8.1L5.6,7.8l0.3-0.2
	L6.1,7.9z M6.2,8l0.2,0.3L6,8.5L5.9,8.2L6.2,8z M6.4,8.3l0.2,0.3L6.3,8.8L6.1,8.5L6.4,8.3z M6.6,8.7L6.8,9L6.5,9.2L6.3,8.9L6.6,8.7z
	 M6.7,8.7L7,8.5l0.2,0.3L6.9,9L6.7,8.7z M7.2,8.8l0.2,0.3L7.1,9.3L6.9,9L7.2,8.8z M7.3,8.8l0.3-0.2l0.2,0.3L7.5,9.1L7.3,8.8z M7.8,9
	L8,9.3L7.7,9.5L7.5,9.2L7.8,9z M8,9.3l0.2,0.3L7.9,9.8L7.7,9.5L8,9.3z M8.1,9.3l0.3-0.2l0.2,0.3L8.3,9.6L8.1,9.3z M8.6,9.5l0.2,0.3
	L8.5,10L8.3,9.7L8.6,9.5z M8.8,9.8L9,10.1l-0.3,0.2L8.5,10L8.8,9.8z M8.9,9.8l0.3-0.2l0.2,0.3l-0.3,0.2L8.9,9.8z M9,9.2L9.3,9
	l0.2,0.3L9.2,9.5L9,9.2z M9,9.1L8.8,8.8l0.3-0.2L9.3,9L9,9.1z M8.9,8.3l0.3-0.2l0.2,0.3L9.1,8.5L8.9,8.3z M8.9,8.2L8.7,7.9L9,7.7
	L9.2,8L8.9,8.2z M8.7,7.8L8.5,7.5l0.3-0.2L9,7.6L8.7,7.8z M8.5,7.5L8.3,7.2L8.6,7l0.2,0.3L8.5,7.5z M8.2,7.1L8,6.8l0.3-0.2l0.2,0.3
	L8.2,7.1z M8.2,7.1L7.9,7.3L7.7,7L8,6.8L8.2,7.1z M7.6,7L7.4,6.7l0.3-0.2l0.2,0.3L7.6,7z M7.4,6.6L7.2,6.3l0.3-0.2l0.2,0.3L7.4,6.6z
	 M7.3,6.6L7,6.8L6.9,6.5l0.3-0.2L7.3,6.6z M6.8,6.5L6.6,6.2L6.9,6l0.2,0.3L6.8,6.5z M6.6,6.1L6.4,5.8l0.3-0.2l0.2,0.3L6.6,6.1z
	 M6.5,6.1L6.2,6.3L6,6l0.3-0.2L6.5,6.1z M6.2,6.4L5.9,6.6L5.7,6.3L6,6.1L6.2,6.4z M5.8,6.6L5.5,6.8L5.3,6.5l0.3-0.2L5.8,6.6z
	 M5.7,7.2L5.4,7.4L5.2,7.1l0.3-0.2L5.7,7.2z M5.7,7.3l0.2,0.3L5.6,7.7L5.4,7.4L5.7,7.3z M5.8,8.1L5.5,8.3L5.3,8l0.3-0.2L5.8,8.1z
	 M5.8,8.2L6,8.5L5.7,8.7L5.5,8.4L5.8,8.2z M6,8.6l0.2,0.3L5.9,9.1L5.7,8.8L6,8.6z M6.2,8.9l0.2,0.3L6.1,9.4L6,9.1L6.2,8.9z M6.5,9.3
	l0.2,0.3L6.4,9.8L6.2,9.5L6.5,9.3z M6.5,9.3l0.3-0.2L7,9.4L6.7,9.6L6.5,9.3z M7.1,9.4l0.2,0.3L7,9.9L6.8,9.6L7.1,9.4z M7.1,9.4
	l0.3-0.2l0.2,0.3L7.3,9.7L7.1,9.4z M7.7,9.6l0.2,0.3L7.5,10L7.4,9.8L7.7,9.6z M7.9,9.9l0.2,0.3l-0.3,0.2l-0.2-0.3L7.9,9.9z M8,9.9
	l0.3-0.2L8.4,10l-0.3,0.2L8,9.9z M8.5,10.1l0.2,0.3l-0.3,0.2l-0.2-0.3L8.5,10.1z M8.7,10.4l0.2,0.3l-0.3,0.2l-0.2-0.3L8.7,10.4z
	 M8.8,10.4l0.3-0.2l0.2,0.3L9,10.7L8.8,10.4z M9.1,10.2L9.4,10l0.2,0.3l-0.3,0.2L9.1,10.2z M9.3,9.6l0.3-0.2l0.2,0.3L9.5,9.9
	L9.3,9.6z M9.4,9l0.3-0.2l0.2,0.3L9.6,9.3L9.4,9z M9.4,8.9L9.2,8.6l0.3-0.2l0.2,0.3L9.4,8.9z M9.3,8l0.3-0.2l0.2,0.3L9.5,8.3L9.3,8z
	 M9.3,8L9.1,7.7l0.3-0.2l0.2,0.3L9.3,8z M9,7.6L8.9,7.3l0.3-0.2l0.2,0.3L9,7.6z M8.8,7.2L8.6,6.9l0.3-0.2L9.1,7L8.8,7.2z M8.6,6.9
	L8.4,6.6l0.3-0.2l0.2,0.3L8.6,6.9z M8.4,6.5L8.2,6.2L8.5,6l0.2,0.3L8.4,6.5z M8.3,6.5L8,6.7L7.8,6.4l0.3-0.2L8.3,6.5z M7.8,6.4
	L7.6,6.1l0.3-0.2l0.2,0.3L7.8,6.4z M7.5,6L7.4,5.7l0.3-0.2l0.2,0.3L7.5,6z M7.5,6L7.2,6.2L7,5.9l0.3-0.2L7.5,6z M7,5.9L6.8,5.6
	l0.3-0.2l0.2,0.3L7,5.9z M7,5.2c0.1,0,0.1,0,0.2,0L7.1,5.3L7,5.2z M7,5.3L6.7,5.5L6.5,5.2l0.1-0.1c0.1,0,0.2,0,0.2,0L7,5.3z
	 M6.1,5.4L6,5.2c0.1,0,0.2-0.1,0.4-0.1l0,0L6.1,5.4z M6.3,5.8L6,6L5.8,5.7l0.3-0.2L6.3,5.8z M5.9,6L5.6,6.2L5.4,5.9l0.3-0.2L5.9,6z
	 M5.6,6.2L5.3,6.4L5.1,6.1l0.3-0.2L5.6,6.2z M5.4,6.8L5.1,7L5,6.7l0.3-0.2L5.4,6.8z M5.3,7.4L5,7.6L4.8,7.3l0.3-0.2L5.3,7.4z
	 M5.3,7.5l0.2,0.3L5.2,8L5,7.7L5.3,7.5z M5.4,8.4L5.1,8.6L4.9,8.3l0.3-0.2L5.4,8.4z M5.4,8.4l0.2,0.3L5.3,8.9L5.1,8.6L5.4,8.4z
	 M5.7,8.8l0.2,0.3L5.5,9.3L5.4,9L5.7,8.8z M5.9,9.2l0.2,0.3L5.8,9.6L5.6,9.3L5.9,9.2z M6.1,9.5l0.2,0.3L6,10L5.8,9.7L6.1,9.5z
	 M6.3,9.9l0.2,0.3l-0.3,0.2L6,10.1L6.3,9.9z M6.4,9.8l0.3-0.2L6.9,10l-0.3,0.2L6.4,9.8z M6.9,10l0.2,0.3l-0.3,0.2l-0.2-0.3L6.9,10z
	 M7,10l0.3-0.2l0.2,0.3l-0.3,0.2L7,10z M7.5,10.2l0.2,0.3l-0.3,0.2l-0.2-0.3L7.5,10.2z M7.7,10.5l0.2,0.3L7.6,11l-0.2-0.3L7.7,10.5z
	 M7.8,10.5l0.3-0.2l0.2,0.3L8,10.8L7.8,10.5z M8.6,11l0.1,0.2c-0.1,0-0.2,0.1-0.4,0.1l0,0L8.6,11z M8.6,11l0.3-0.2L9.1,11
	c-0.1,0.1-0.2,0.1-0.3,0.2L8.6,11z M9,10.7l0.3-0.2l0.1,0.2c-0.1,0.1-0.2,0.2-0.3,0.2L9,10.7z M9.4,10.5l0.3-0.2l0,0
	c-0.1,0.1-0.1,0.2-0.2,0.3L9.4,10.5z M9.7,10.2L9.5,9.9l0.3-0.2l0.1,0.2c0,0.1-0.1,0.2-0.1,0.2L9.7,10.2z M9.9,9.7L10,9.6
	c0,0.1,0,0.1,0,0.2L9.9,9.7z M9.8,9.6L9.6,9.3l0.3-0.2L10,9.3c0,0,0,0.1,0,0.1c0,0,0,0.1,0,0.1L9.8,9.6z M10,9.1L10,9.1
	C10.1,9.1,10.1,9.1,10,9.1C10,9.1,10,9.1,10,9.1L10,9.1z M10,8.5L9.7,8.7L9.5,8.4l0.3-0.2L10,8.5L10,8.5z M10,8.3L9.9,8.2l0,0
	C10,8.2,10,8.2,10,8.3z M9.9,8.1L9.9,8.1L9.7,7.8l0.1-0.1C9.9,7.8,9.9,7.9,9.9,8.1z M9.8,7.6L9.6,7.7L9.4,7.4l0.2-0.1
	C9.7,7.4,9.7,7.5,9.8,7.6z M9.6,7.2L9.4,7.4L9.2,7.1l0.2-0.1C9.5,7,9.6,7.1,9.6,7.2z M9.2,6.6c0.1,0.1,0.1,0.2,0.2,0.3L9.2,7L9,6.7
	L9.2,6.6z M9.1,6.5L9,6.6L8.8,6.3l0.1-0.1C9,6.3,9.1,6.4,9.1,6.5z M8.9,6.2L8.7,6.3L8.5,6l0.1,0C8.7,6,8.8,6.1,8.9,6.2z M8.5,5.9
	L8.5,5.9L8.4,5.8C8.5,5.8,8.5,5.9,8.5,5.9z M8.2,5.7L8.4,6L8.1,6.1L7.9,5.8L8.2,5.7L8.2,5.7z M8.2,5.6L7.9,5.8L7.7,5.5l0.1-0.1
	C7.9,5.5,8.1,5.5,8.2,5.6z M7.7,5.4L7.7,5.4l-0.1,0C7.7,5.3,7.7,5.4,7.7,5.4z M7.5,5.3l0.1,0.2L7.3,5.6L7.1,5.3l0.2-0.1
	C7.4,5.2,7.4,5.3,7.5,5.3z M6,5.2l0.1,0.2L5.8,5.6L5.6,5.4C5.7,5.3,5.8,5.3,6,5.2z M5.6,5.4l0.1,0.2L5.4,5.8L5.3,5.7
	C5.4,5.6,5.5,5.5,5.6,5.4z M5.2,5.7l0.1,0.2L5,6.1l0,0C5.1,5.9,5.2,5.8,5.2,5.7z M5,6.1L5,6.1L5,6.1C5,6.1,5,6.1,5,6.1z M4.9,6.3
	L5,6.2l0.2,0.3L4.9,6.6L4.8,6.5C4.8,6.4,4.9,6.3,4.9,6.3z M4.8,6.6l0.1,0.1L4.7,6.8C4.7,6.7,4.7,6.6,4.8,6.6z M4.7,6.9l0.2-0.1
	l0.2,0.3L4.8,7.2L4.7,7.1C4.7,7,4.7,6.9,4.7,6.9z M4.7,7.2L4.7,7.2l0,0.1C4.7,7.3,4.7,7.2,4.7,7.2z M4.6,7.4L4.6,7.4l0.3,0.2
	L4.7,7.8C4.7,7.7,4.6,7.5,4.6,7.4z M4.7,7.9L5,7.7L5.2,8L4.9,8.2L4.7,7.9L4.7,7.9z M4.7,8.1l0.1,0.1l0,0C4.7,8.2,4.7,8.2,4.7,8.1z
	 M4.8,8.3L4.8,8.3L5,8.6L4.9,8.7C4.8,8.6,4.8,8.5,4.8,8.3z M4.9,8.8l0.2-0.1L5.3,9L5.1,9.1C5,9,5,8.9,4.9,8.8z M5.1,9.2L5.3,9
	l0.2,0.3L5.3,9.5C5.2,9.4,5.1,9.3,5.1,9.2z M5.5,9.8C5.4,9.7,5.4,9.6,5.3,9.5l0.2-0.1l0.2,0.3L5.5,9.8z M5.6,9.9l0.2-0.1L5.9,10
	l-0.2,0.1C5.7,10.1,5.6,10,5.6,9.9z M5.8,10.2L6,10.1l0.2,0.3l-0.1,0C6,10.4,5.9,10.3,5.8,10.2z M6.2,10.5L6.2,10.5l0.1,0.1
	C6.2,10.6,6.2,10.5,6.2,10.5z M6.4,10.7l-0.2-0.3l0.3-0.2l0.2,0.3L6.4,10.7L6.4,10.7z M6.5,10.8l0.3-0.2L7,10.9L6.9,11
	C6.8,10.9,6.6,10.9,6.5,10.8z M7,11L7,11L7,11L7,11C7,11,7,11,7,11z M7,10.9l-0.2-0.3l0.3-0.2l0.2,0.3L7,10.9z M7.4,11.2
	c-0.1,0-0.1,0-0.2-0.1l-0.1-0.2l0.3-0.2L7.6,11L7.4,11.2C7.4,11.2,7.4,11.2,7.4,11.2z M7.5,11.2l0.1-0.1l0.1,0.1
	C7.6,11.2,7.5,11.2,7.5,11.2z M7.7,11.1L8,10.9l0.2,0.3L8,11.3c-0.1,0-0.2,0-0.2,0L7.7,11.1z M10.3,13.1
	C10.3,13.1,10.3,13.1,10.3,13.1c-0.7-0.8-1.6-1.3-2.3-1.7c0.4,0,0.8-0.1,1.2-0.3c0,0,0,0,0,0c0.4-0.2,0.6-0.5,0.8-0.9
	c0,0.8,0.1,1.9,0.5,2.8c0,0,0,0,0,0.1L10.3,13.1z"/>
</svg>
