<?xml version="1.0" encoding="utf-8"?>
<!-- Generator: Adobe Illustrator 26.0.1, SVG Export Plug-In . SVG Version: 6.00 Build 0)  -->
<svg version="1.1" id="Layer_1" xmlns="http://www.w3.org/2000/svg" xmlns:xlink="http://www.w3.org/1999/xlink" x="0px" y="0px"
	 viewBox="0 0 32 32" style="enable-background:new 0 0 32 32;" xml:space="preserve">
<style type="text/css">
	.st0{fill:#3B2B6C;}
</style>
<path class="st0" d="M19.7,13.8c0.3,1.6-0.8,3.2-2.4,3.5c-1.6,0.3-3.2-0.8-3.5-2.4c-0.1-0.4-0.1-0.7,0-1.1c0.3-1.6,1.9-2.7,3.5-2.4
	C18.5,11.6,19.5,12.6,19.7,13.8z"/>
<path class="st0" d="M20.7,10.4c0,0.3-0.2,0.5-0.4,0.6c-0.3,0-0.5-0.1-0.6-0.4c0,0,0,0,0,0c0-0.3,0.2-0.5,0.4-0.6
	C20.4,9.9,20.6,10.1,20.7,10.4z"/>
<path class="st0" d="M10.1,6c0,0.3-0.2,0.5-0.4,0.6c-0.3,0-0.5-0.1-0.6-0.4c0,0,0,0,0,0c0-0.3,0.2-0.5,0.4-0.6
	C9.8,5.5,10,5.7,10.1,6z"/>
<path class="st0" d="M9.3,6.8c0,0.3-0.2,0.5-0.5,0.5c-0.3,0-0.5-0.2-0.5-0.5c0,0,0,0,0,0c0-0.3,0.2-0.5,0.5-0.5
	C9,6.3,9.3,6.5,9.3,6.8C9.3,6.8,9.3,6.8,9.3,6.8z"/>
<path class="st0" d="M8.5,7.7c0,0.3-0.2,0.5-0.5,0.5c0,0,0,0,0,0c-0.3,0-0.5-0.2-0.5-0.5c0,0,0,0,0,0c0-0.3,0.2-0.5,0.5-0.5
	c0,0,0,0,0,0C8.3,7.2,8.5,7.4,8.5,7.7z"/>
<path class="st0" d="M11.5,6.6c0.1,0.3-0.1,0.5-0.4,0.6c0,0,0,0-0.1,0c-0.3,0-0.5-0.1-0.6-0.4c0,0,0,0,0,0c0-0.3,0.2-0.5,0.4-0.6
	C11.2,6.1,11.4,6.3,11.5,6.6z"/>
<path class="st0" d="M10.7,7.4c0,0.3-0.2,0.5-0.4,0.5c0,0,0,0,0,0C9.9,8,9.7,7.8,9.7,7.5C9.7,7.2,9.9,7,10.1,7
	C10.4,6.9,10.7,7.1,10.7,7.4z"/>
<circle class="st0" cx="9.4" cy="8.3" r="0.5"/>
<path class="st0" d="M9.1,9.1c0,0.3-0.2,0.5-0.5,0.5c0,0,0,0,0,0C8.3,9.5,8,9.3,8.1,9c0,0,0,0,0,0c0-0.3,0.3-0.5,0.5-0.5
	c0,0,0,0,0,0C8.9,8.6,9.1,8.8,9.1,9.1C9.1,9.1,9.1,9.1,9.1,9.1z"/>
<path class="st0" d="M13,7.2c0,0.3-0.1,0.5-0.4,0.6c0,0,0,0,0,0c-0.3,0.1-0.6-0.1-0.6-0.3c-0.1-0.3,0.1-0.6,0.3-0.6c0,0,0.1,0,0.1,0
	C12.7,6.8,13,6.9,13,7.2z"/>
<path class="st0" d="M12,8.3c0,0.3-0.2,0.5-0.5,0.5c-0.3,0-0.5-0.2-0.5-0.5c0,0,0,0,0,0c0-0.3,0.2-0.5,0.4-0.5c0,0,0,0,0,0
	C11.7,7.8,12,8,12,8.3C12,8.3,12,8.3,12,8.3z"/>
<circle class="st0" cx="10.5" cy="9.4" r="0.5"/>
<path class="st0" d="M9.9,10.4c0,0.3-0.3,0.5-0.5,0.5s-0.5-0.3-0.5-0.5c0-0.3,0.3-0.5,0.5-0.5C9.8,9.9,10,10.1,9.9,10.4
	C9.9,10.4,9.9,10.4,9.9,10.4z"/>
<path class="st0" d="M14.7,7.9c0,0.3-0.2,0.5-0.4,0.6c-0.3,0-0.5-0.1-0.6-0.4c0,0,0,0,0,0c0-0.3,0.1-0.5,0.4-0.6
	C14.4,7.4,14.7,7.6,14.7,7.9z"/>
<path class="st0" d="M13.4,9.2c0,0.3-0.2,0.5-0.5,0.5c-0.3,0-0.5-0.2-0.5-0.5c0,0,0,0,0,0c0-0.3,0.2-0.5,0.5-0.5c0,0,0,0,0,0
	C13.2,8.7,13.4,8.9,13.4,9.2z"/>
<circle class="st0" cx="11.6" cy="10.5" r="0.5"/>
<path class="st0" d="M10.9,11.9c0,0.3-0.3,0.5-0.5,0.5c-0.3,0-0.5-0.3-0.5-0.5c0,0,0,0,0,0c0-0.3,0.3-0.5,0.5-0.5
	C10.7,11.3,10.9,11.6,10.9,11.9z"/>
<path class="st0" d="M16.5,8.6c0.1,0.3-0.1,0.6-0.3,0.6c-0.3,0.1-0.6-0.1-0.6-0.3c0,0,0-0.1,0-0.1c0-0.3,0.2-0.5,0.5-0.5
	C16.3,8.3,16.5,8.4,16.5,8.6z"/>
<path class="st0" d="M15,10.2c0,0.3-0.2,0.5-0.5,0.5c-0.3,0-0.5-0.2-0.5-0.5c0-0.3,0.2-0.5,0.4-0.5c0,0,0,0,0,0
	C14.7,9.7,15,9.9,15,10.2z"/>
<circle class="st0" cx="12.9" cy="11.8" r="0.5"/>
<path class="st0" d="M11.9,13.4c0,0.3-0.3,0.5-0.5,0.5c0,0,0,0,0,0c-0.3,0-0.5-0.2-0.5-0.5c0,0,0,0,0,0c0-0.3,0.3-0.5,0.5-0.5
	C11.7,12.9,11.9,13.1,11.9,13.4z"/>
<path class="st0" d="M18.5,9.5c0,0.3-0.1,0.5-0.4,0.6c-0.3,0-0.5-0.1-0.6-0.4l0,0c-0.1-0.3,0.1-0.5,0.4-0.6c0,0,0,0,0.1,0
	C18.3,9,18.5,9.2,18.5,9.5C18.5,9.4,18.5,9.5,18.5,9.5z"/>
<path class="st0" d="M13,15.1c0,0.3-0.3,0.5-0.5,0.5S12,15.3,12,15.1s0.3-0.5,0.5-0.5S13,14.9,13,15.1z"/>
<path class="st0" d="M8.8,5.5C8.8,5.7,8.7,6,8.4,6C8.1,6,7.9,5.9,7.8,5.6c0,0,0,0,0,0C7.8,5.3,8,5,8.3,5c0,0,0,0,0,0
	C8.5,5,8.8,5.1,8.8,5.5C8.8,5.4,8.8,5.4,8.8,5.5z"/>
<path class="st0" d="M7.7,8.5C7.6,8.8,7.4,9,7.1,9c0,0,0,0-0.1,0C6.8,9,6.6,8.7,6.7,8.4C6.7,8.2,7,8,7.2,8C7.5,8,7.7,8.3,7.7,8.5z"
	/>
<path class="st0" d="M8.3,10c0,0.3-0.3,0.5-0.6,0.4c0,0,0,0,0,0c-0.3,0-0.5-0.3-0.4-0.6c0-0.3,0.3-0.5,0.6-0.4
	C8.1,9.4,8.3,9.7,8.3,10C8.3,10,8.3,10,8.3,10z"/>
<path class="st0" d="M8.9,11.5c0,0.3-0.3,0.5-0.6,0.4c-0.3,0-0.5-0.3-0.4-0.6s0.3-0.5,0.6-0.4C8.7,11,8.9,11.2,8.9,11.5
	C8.9,11.5,8.9,11.5,8.9,11.5z"/>
<path class="st0" d="M9.6,13.2c0,0.3-0.3,0.5-0.6,0.4c0,0,0,0,0,0c-0.3-0.1-0.5-0.3-0.4-0.6c0-0.3,0.3-0.5,0.6-0.4c0,0,0,0,0,0
	C9.4,12.6,9.6,12.9,9.6,13.2C9.6,13.2,9.6,13.2,9.6,13.2z"/>
<path class="st0" d="M10.3,15c0,0.3-0.3,0.5-0.6,0.4c-0.3-0.1-0.5-0.3-0.4-0.6c0-0.3,0.3-0.5,0.6-0.4C10.2,14.5,10.4,14.7,10.3,15
	C10.3,15,10.3,15,10.3,15z"/>
<path class="st0" d="M11.2,17c0,0.3-0.3,0.5-0.6,0.4c-0.3,0-0.5-0.3-0.4-0.6c0,0,0,0,0,0c0-0.3,0.3-0.5,0.6-0.4c0,0,0,0,0,0
	C11,16.5,11.2,16.7,11.2,17z"/>
<path class="st0" d="M7.1,7.3c0,0.3-0.3,0.5-0.5,0.4c0,0,0,0,0,0c-0.3,0-0.5-0.3-0.4-0.6c0-0.3,0.3-0.5,0.6-0.4C7,6.8,7.2,7,7.1,7.3
	C7.1,7.3,7.1,7.3,7.1,7.3z"/>
<path class="st0" d="M8,6.4c0,0.3-0.2,0.5-0.5,0.5C7.2,6.9,7,6.8,6.9,6.5C6.8,6.2,7,5.9,7.3,5.9c0.1,0,0.1,0,0.2,0
	C7.8,5.9,8,6.1,8,6.4z"/>
<polygon class="st0" points="7.9,4.4 5.5,6.8 4.9,6.2 5.1,5.2 4.5,4.6 5.7,3.4 6.3,4 7.3,3.8 "/>
<path class="st0" d="M25.9,11.3l-6,6H14c-0.5,0-0.9,0.2-1.2,0.5L8.5,22c-0.2,0.2-0.3,0.5-0.3,0.8c0,0.7,0.6,1.4,1.3,1.4c0,0,0,0,0,0
	h3.6v4H21v-8.6l6.6-6.6c0.5-0.5,0.5-1.2,0-1.7C27.2,10.8,26.4,10.8,25.9,11.3z M16.6,24.2c0,0.3-0.3,0.6-0.6,0.6c0,0,0,0,0,0h-1.4
	c-0.3,0-0.6-0.3-0.6-0.6c0.7,0.1,1.4-0.4,1.5-1.1c0.1-0.7-0.4-1.4-1.1-1.5c-0.1,0-0.2,0-0.3,0c0-0.3,0.3-0.5,0.6-0.5H16
	c0.3,0,0.6,0.3,0.6,0.6L16.6,24.2z"/>
<path class="st0" d="M6.6,7.7c-0.3,0-0.5-0.3-0.4-0.6c0-0.3,0.3-0.5,0.6-0.4C7,6.8,7.2,7,7.1,7.3c0,0,0,0,0,0
	C7.1,7.5,6.9,7.7,6.6,7.7C6.6,7.7,6.6,7.7,6.6,7.7z"/>
<path class="st0" d="M7.1,9C6.8,9,6.6,8.7,6.7,8.4C6.7,8.2,7,8,7.2,8c0.3,0,0.5,0.3,0.4,0.6c0,0,0,0,0,0C7.6,8.8,7.4,9,7.1,9
	C7.1,9,7.1,9,7.1,9z"/>
<path class="st0" d="M7.5,6.9C7.2,6.9,6.9,6.8,6.9,6.5C6.8,6.2,7,5.9,7.3,5.9c0.1,0,0.1,0,0.2,0c0.3,0.1,0.5,0.3,0.4,0.6
	C7.8,6.7,7.7,6.8,7.5,6.9z"/>
<polygon class="st0" points="7.9,4.4 5.5,6.8 4.9,6.2 5.1,5.2 4.5,4.6 5.7,3.4 6.3,4 7.3,3.8 "/>
<path class="st0" d="M7.7,10.4c-0.3,0-0.5-0.3-0.4-0.6c0-0.3,0.3-0.5,0.6-0.4c0.3,0,0.5,0.3,0.4,0.6c0,0,0,0,0,0.1
	C8.2,10.3,7.9,10.4,7.7,10.4z"/>
<path class="st0" d="M7.5,7.6c0-0.3,0.2-0.5,0.5-0.5c0,0,0,0,0,0c0.3,0,0.5,0.3,0.5,0.5c0,0.3-0.2,0.5-0.5,0.5c0,0,0,0,0,0
	C7.7,8.1,7.5,7.9,7.5,7.6C7.5,7.7,7.5,7.6,7.5,7.6z"/>
<path class="st0" d="M8.3,5c0.3,0,0.5,0.2,0.6,0.4S8.7,6,8.4,6C8.1,6,7.9,5.9,7.8,5.6c0,0,0,0,0,0C7.8,5.3,8,5,8.3,5
	C8.3,5,8.3,5,8.3,5z"/>
<path class="st0" d="M8.3,11.9c-0.3,0-0.5-0.3-0.4-0.6s0.3-0.5,0.6-0.4c0.3,0,0.5,0.3,0.4,0.6c0,0,0,0,0,0C8.9,11.8,8.6,12,8.3,11.9
	z"/>
<path class="st0" d="M9.3,6.8c0,0.3-0.2,0.5-0.5,0.5c-0.3,0-0.5-0.2-0.5-0.5c0,0,0,0,0,0c0-0.3,0.2-0.5,0.5-0.5
	C9,6.3,9.3,6.5,9.3,6.8C9.3,6.8,9.3,6.8,9.3,6.8z"/>
<path class="st0" d="M8.1,9c0-0.3,0.3-0.5,0.5-0.5c0,0,0,0,0,0c0.3,0,0.5,0.3,0.5,0.5c0,0,0,0,0,0c0,0.3-0.2,0.5-0.5,0.5
	c0,0,0,0,0,0C8.3,9.5,8,9.3,8.1,9z"/>
<circle class="st0" cx="9.4" cy="8.3" r="0.5"/>
<path class="st0" d="M9.2,12.6c0.3,0,0.5,0.3,0.4,0.6c0,0.3-0.3,0.5-0.6,0.4c0,0,0,0,0,0c-0.3-0.1-0.5-0.3-0.4-0.6
	C8.7,12.7,8.9,12.6,9.2,12.6z"/>
<path class="st0" d="M8.9,10.4c0-0.3,0.3-0.5,0.5-0.5c0.3,0,0.5,0.2,0.5,0.5c0,0,0,0,0,0c0,0.3-0.3,0.5-0.5,0.5S8.9,10.6,8.9,10.4z"
	/>
<path class="st0" d="M9.1,6.1c0-0.3,0.2-0.5,0.4-0.6c0.3,0,0.5,0.2,0.6,0.4c0,0.3-0.2,0.5-0.4,0.6C9.4,6.6,9.1,6.4,9.1,6.1
	C9.1,6.1,9.1,6.1,9.1,6.1z"/>
<path class="st0" d="M9.3,14.8c0-0.3,0.3-0.5,0.6-0.4c0.3,0.1,0.4,0.4,0.3,0.6c-0.1,0.2-0.3,0.4-0.5,0.4C9.5,15.3,9.3,15.1,9.3,14.8
	z"/>
<circle class="st0" cx="10.5" cy="9.4" r="0.5"/>
<path class="st0" d="M10.1,7c0.3,0,0.5,0.2,0.5,0.5S10.5,8,10.2,8C9.9,8,9.7,7.8,9.7,7.5C9.7,7.3,9.9,7,10.1,7C10.1,7,10.1,7,10.1,7
	z"/>
<path class="st0" d="M9.9,11.8c0-0.3,0.3-0.5,0.5-0.5c0.3,0,0.5,0.3,0.5,0.5c0,0.3-0.3,0.5-0.5,0.5C10.1,12.3,9.9,12.1,9.9,11.8
	C9.9,11.8,9.9,11.8,9.9,11.8z"/>
<path class="st0" d="M10.2,16.9c0-0.3,0.3-0.5,0.6-0.4c0,0,0,0,0,0c0.3,0,0.5,0.3,0.4,0.6c0,0.3-0.3,0.5-0.6,0.4
	C10.3,17.4,10.1,17.2,10.2,16.9C10.2,16.9,10.2,16.9,10.2,16.9z"/>
<path class="st0" d="M10.5,6.7c0-0.3,0.2-0.5,0.4-0.6c0.3,0,0.5,0.2,0.6,0.4c0.1,0.3-0.1,0.5-0.4,0.6c0,0,0,0-0.1,0
	C10.8,7.2,10.5,7,10.5,6.7C10.5,6.7,10.5,6.7,10.5,6.7z"/>
<circle class="st0" cx="11.6" cy="10.5" r="0.5"/>
<path class="st0" d="M11.3,13.9c-0.3,0-0.5-0.2-0.5-0.5c0,0,0,0,0,0c0-0.3,0.3-0.5,0.5-0.5c0.3,0,0.5,0.3,0.5,0.5
	C11.9,13.7,11.6,13.9,11.3,13.9C11.3,13.9,11.3,13.9,11.3,13.9z"/>
<path class="st0" d="M11.5,7.8C11.7,7.8,12,8,12,8.3c0,0,0,0,0,0c0,0.3-0.2,0.5-0.5,0.5c-0.3,0-0.5-0.2-0.5-0.5c0,0,0,0,0,0
	C11,8.1,11.2,7.9,11.5,7.8C11.4,7.8,11.5,7.8,11.5,7.8z"/>
<path class="st0" d="M12,15.1c0-0.3,0.3-0.5,0.5-0.5s0.5,0.3,0.5,0.5s-0.3,0.5-0.5,0.5S12,15.3,12,15.1z"/>
<path class="st0" d="M12,7.4c0-0.3,0.2-0.5,0.4-0.6c0.3,0,0.5,0.2,0.6,0.4c0,0.3-0.1,0.5-0.4,0.6c0,0,0,0,0,0
	C12.3,7.8,12.1,7.6,12,7.4z"/>
<circle class="st0" cx="12.9" cy="11.8" r="0.5"/>
<path class="st0" d="M12.9,8.8c0.3,0,0.5,0.2,0.5,0.5c0,0.3-0.2,0.5-0.5,0.5c-0.3,0-0.5-0.2-0.5-0.5c0,0,0,0,0,0
	C12.4,9,12.6,8.8,12.9,8.8C12.9,8.8,12.9,8.8,12.9,8.8z"/>
<path class="st0" d="M13.7,8.1c0-0.3,0.1-0.5,0.4-0.6c0.3,0,0.5,0.2,0.6,0.4c0,0.3-0.2,0.5-0.4,0.6C14,8.5,13.8,8.3,13.7,8.1
	C13.7,8.1,13.7,8.1,13.7,8.1z"/>
<path class="st0" d="M14.4,9.8c0.3,0,0.5,0.2,0.5,0.5c0,0.3-0.2,0.5-0.5,0.5c-0.3,0-0.5-0.2-0.5-0.5C14,10,14.1,9.8,14.4,9.8
	C14.4,9.8,14.4,9.8,14.4,9.8z"/>
<path class="st0" d="M15.5,8.8c0-0.3,0.2-0.5,0.5-0.5c0.2,0,0.4,0.1,0.5,0.4c0.1,0.3-0.1,0.6-0.3,0.6c-0.3,0.1-0.6-0.1-0.6-0.3
	C15.5,8.9,15.5,8.8,15.5,8.8z"/>
<path class="st0" d="M17.6,9.6c-0.1-0.3,0.1-0.5,0.4-0.6c0,0,0,0,0.1,0c0.3,0,0.5,0.1,0.6,0.4c0,0,0,0,0,0c0,0.3-0.1,0.5-0.4,0.6
	C17.9,10,17.6,9.9,17.6,9.6L17.6,9.6L17.6,9.6z"/>
<path class="st0" d="M16.8,10.9c1.7,0,3,1.3,3.1,2.9s-1.3,3-2.9,3.1c-1.7,0-3-1.3-3.1-2.9c0,0,0-0.1,0-0.1
	C13.8,12.2,15.1,10.9,16.8,10.9z"/>
<path class="st0" d="M19.7,10.5c0-0.3,0.2-0.5,0.4-0.6c0.3,0,0.5,0.2,0.6,0.4c0,0.3-0.2,0.5-0.4,0.6C20,11,19.7,10.8,19.7,10.5
	C19.7,10.5,19.7,10.5,19.7,10.5z"/>
</svg>
