<?xml version="1.0" encoding="utf-8"?>
<!-- Generator: Adobe Illustrator 26.0.1, SVG Export Plug-In . SVG Version: 6.00 Build 0)  -->
<svg version="1.1" id="Layer_1" xmlns="http://www.w3.org/2000/svg" xmlns:xlink="http://www.w3.org/1999/xlink" x="0px" y="0px"
	 viewBox="0 0 32 32" style="enable-background:new 0 0 32 32;" xml:space="preserve">
<style type="text/css">
	.st0{fill:#392B6C;}
	.st1{clip-path:url(#SVGID_00000089545650518951568250000007590758508826185880_);}
	.st2{clip-path:url(#SVGID_00000078024688167625847940000007297907166950793122_);}
	.st3{clip-path:url(#SVGID_00000017489116664690586090000004537381834833525411_);}
	.st4{clip-path:url(#SVGID_00000111183612969545492180000015584807286723041664_);}
	.st5{clip-path:url(#SVGID_00000018958529591593536430000000372002181608940442_);}
</style>
<ellipse class="st0" cx="19.8" cy="4.5" rx="2.7" ry="2.7"/>
<path class="st0" d="M15.4,9.1c0-0.6,0.4-1.2,1.1-1.2h0.1c0.6,0,1.1,0.5,1.2,1.1c0,0.5,0.2,0.9,0.3,1.4l0,0c0.7-0.9,0.8-2.3,0-2.9
	c-0.1-0.1-0.2-0.1-0.3-0.2l-0.1-0.1c-0.2-0.1-5.6-2-9.3,2.2c-0.3,0.4-0.3,0.9,0.1,1.3c0,0,0,0,0,0c0.2,0.1,0.4,0.2,0.6,0.2
	c0.3,0,0.5-0.1,0.7-0.3c1.1-1.3,2.8-2.1,4.5-2.1c-1.3,1.5-2.2,3.3-2.6,5.2c-0.3,0.9,0.1,1.9,0.9,2.5l0.7,4.1l-1.1,0.3
	c0.1,0.1,0.2,0.2,0.2,0.3c0.1,0.2,0.1,0.4,0,0.5c-0.2,0.4-0.2,0.9-0.1,1.3c0.1,0.2,0.1,0.3,0.3,0.5l0.2,0.2l2.5-0.7
	c0.7-0.2,1.1-0.9,1-1.6L16,18.9l1.5,1.5v3.1c0.1-0.1,0.3-0.1,0.4-0.1c0.2,0,0.4,0.1,0.5,0.2c0.4,0.3,0.8,0.4,1.3,0.4
	c0.2,0,0.3,0,0.5-0.1l0.2-0.1v-4.1c0-0.4-0.1-0.7-0.4-1l-4.2-4.2c0.3-0.7,0.6-1.4,1-2c-0.1-0.1-0.2-0.3-0.3-0.4
	C15.9,11.2,15.6,10.2,15.4,9.1z"/>
<path class="st0" d="M17.5,9c0-0.5-0.4-0.9-0.9-0.9c-0.5,0-0.9,0.4-0.9,0.9c0,0,0,0.1,0,0.1c0.1,1,0.4,2,0.9,2.9
	c1,1.9,3.1,3.1,5.3,3.1l0,0c0.5-0.1,0.9-0.5,0.8-1c0-0.4-0.4-0.8-0.8-0.8C17.9,13.2,17.5,9.1,17.5,9z"/>
<path class="st0" d="M18.3,23.8c-0.5-0.4-0.8,0.2-0.8,0.4l-0.2,3.1c0,0.2,0,0.3,0.1,0.5l0.1,0.3c0.1,0.1,0.2,0.2,0.4,0.2h3.8
	c0.2,0,0.3,0,0.5-0.1l0.3-0.1c0.1-0.1,0.2-0.2,0.3-0.3c0.1-0.1,0.1-0.3,0-0.4c-0.1-0.1-0.2-0.2-0.4-0.3l-0.9-0.3
	c-0.1-0.1-0.3-0.2-0.4-0.4c-0.3,0.3-0.6,0.6-1,0.7L20,26.8c0.4-0.1,0.7-0.4,0.9-0.7c-0.1-0.1-0.2-0.2-0.2-0.4v-0.1
	c-0.2,0.2-0.5,0.4-0.7,0.5L19.8,26c0.3-0.2,0.6-0.4,0.8-0.6c-0.1-0.5,0-1-0.1-1.1C19.7,24.6,18.8,24.4,18.3,23.8z"/>
<g>
	<defs>
		<rect id="SVGID_1_" x="16.4" y="28.2" width="1.8" height="1.7"/>
	</defs>
	<clipPath id="SVGID_00000124120501457828836750000008775435037849457280_">
		<use xlink:href="#SVGID_1_"  style="overflow:visible;"/>
	</clipPath>
	<g style="clip-path:url(#SVGID_00000124120501457828836750000008775435037849457280_);">
		<path class="st0" d="M17.4,28.5c-0.4,0-0.7,0.3-0.7,0.7c0,0.4,0.3,0.7,0.7,0.7c0.4,0,0.7-0.3,0.7-0.7c0,0,0,0,0,0
			c0-0.2-0.1-0.4-0.3-0.5C17.7,28.6,17.6,28.5,17.4,28.5L17.4,28.5z M17.4,29.5c-0.2,0-0.3-0.1-0.3-0.3c0-0.2,0.1-0.3,0.3-0.3
			c0.2,0,0.3,0.1,0.3,0.3c0,0,0,0,0,0C17.7,29.4,17.6,29.5,17.4,29.5L17.4,29.5z"/>
	</g>
</g>
<g>
	<defs>
		<rect id="SVGID_00000020370284073857790040000006929124031561695423_" x="18.1" y="28.2" width="1.8" height="1.7"/>
	</defs>
	<clipPath id="SVGID_00000071558800729098914650000011187273506911259070_">
		<use xlink:href="#SVGID_00000020370284073857790040000006929124031561695423_"  style="overflow:visible;"/>
	</clipPath>
	<g style="clip-path:url(#SVGID_00000071558800729098914650000011187273506911259070_);">
		<path class="st0" d="M18.7,28.6c-0.3,0.2-0.4,0.7-0.1,1c0.2,0.3,0.7,0.4,1,0.1c0.2-0.1,0.3-0.3,0.3-0.5c0-0.2-0.1-0.4-0.3-0.5
			C19.3,28.5,19,28.5,18.7,28.6z M19.1,29.5c-0.2,0-0.3-0.1-0.3-0.3c0-0.2,0.1-0.3,0.3-0.3c0.2,0,0.3,0.1,0.3,0.3c0,0,0,0,0,0
			C19.4,29.4,19.3,29.5,19.1,29.5z"/>
	</g>
</g>
<g>
	<defs>
		<rect id="SVGID_00000009579190166236263120000017215801596013038467_" x="19.9" y="28.2" width="1.8" height="1.7"/>
	</defs>
	<clipPath id="SVGID_00000090256087949299264980000006985427333986748311_">
		<use xlink:href="#SVGID_00000009579190166236263120000017215801596013038467_"  style="overflow:visible;"/>
	</clipPath>
	<g style="clip-path:url(#SVGID_00000090256087949299264980000006985427333986748311_);">
		<path class="st0" d="M20.4,28.6c-0.3,0.2-0.4,0.7-0.1,1c0.2,0.3,0.7,0.4,1,0.1c0.2-0.1,0.3-0.3,0.3-0.5c0-0.2-0.1-0.4-0.3-0.5
			c-0.1-0.1-0.3-0.1-0.4-0.1C20.7,28.5,20.5,28.6,20.4,28.6z M20.8,29.5c-0.2,0-0.3-0.2-0.3-0.4c0-0.1,0.1-0.2,0.3-0.3
			c0.2,0,0.3,0.1,0.4,0.3s-0.1,0.3-0.3,0.4C20.9,29.5,20.9,29.5,20.8,29.5z"/>
	</g>
</g>
<g>
	<defs>
		<rect id="SVGID_00000183220966800054233920000008829124671199588528_" x="21.6" y="28.2" width="1.5" height="1.7"/>
	</defs>
	<clipPath id="SVGID_00000121241195090952523310000016842551173926719158_">
		<use xlink:href="#SVGID_00000183220966800054233920000008829124671199588528_"  style="overflow:visible;"/>
	</clipPath>
	<g style="clip-path:url(#SVGID_00000121241195090952523310000016842551173926719158_);">
		<path class="st0" d="M22.5,28.5c-0.4,0-0.7,0.3-0.7,0.7c0,0.4,0.3,0.7,0.7,0.7c0.4,0,0.7-0.3,0.7-0.7c0,0,0,0,0,0
			C23.2,28.8,22.9,28.5,22.5,28.5C22.6,28.5,22.6,28.5,22.5,28.5z M22.5,29.5c-0.2,0-0.3-0.2-0.3-0.4c0-0.1,0.1-0.2,0.3-0.3
			c0.2,0,0.3,0.2,0.3,0.4C22.8,29.4,22.7,29.5,22.5,29.5z"/>
	</g>
</g>
<path class="st0" d="M12.4,23.4c-0.5-0.6-0.7-1.4-0.3-2.1c0.2-0.6-0.5-0.6-0.6-0.6l-3,0.8c-0.2,0-0.3,0.1-0.4,0.2l-0.2,0.2
	c-0.1,0.1-0.1,0.3-0.1,0.4L9,25.9c0.1,0.1,0.1,0.3,0.3,0.4l0.2,0.2c0.1,0.1,0.3,0.2,0.4,0.2c0.1,0,0.3-0.1,0.4-0.2
	c0.1-0.1,0.1-0.3,0.1-0.4v-0.9c0-0.2,0.1-0.3,0.2-0.5c-0.4-0.1-0.7-0.4-1-0.7l0.3-0.2c0.2,0.3,0.6,0.5,0.9,0.6
	c0.1-0.1,0.2-0.2,0.3-0.3l0-0.1c-0.3-0.1-0.5-0.3-0.8-0.5l0.2-0.2c0.3,0.2,0.6,0.4,0.9,0.5C11.9,23.5,12.4,23.5,12.4,23.4z"/>
<g>
	<defs>
		<rect id="SVGID_00000044860865936693772720000016945121019786123171_" x="6" y="21.2" width="1.5" height="1.8"/>
	</defs>
	<clipPath id="SVGID_00000151534046986656432120000012043540676779448239_">
		<use xlink:href="#SVGID_00000044860865936693772720000016945121019786123171_"  style="overflow:visible;"/>
	</clipPath>
	<g style="clip-path:url(#SVGID_00000151534046986656432120000012043540676779448239_);">
		<path class="st0" d="M7.4,22L7.4,22c-0.1-0.3-0.5-0.5-0.9-0.4c0,0,0,0,0,0c-0.3,0.1-0.5,0.5-0.4,0.8c0,0,0,0,0,0
			C6.3,22.8,6.7,23,7,22.9c0,0,0,0,0,0C7.4,22.8,7.6,22.4,7.4,22C7.5,22,7.5,22,7.4,22z M6.9,22.5c-0.2,0.1-0.3,0-0.4-0.2
			c0,0,0,0,0,0c-0.1-0.2,0-0.3,0.2-0.4s0.3,0,0.4,0.2C7.2,22.3,7.1,22.4,6.9,22.5C6.9,22.5,6.9,22.5,6.9,22.5z"/>
	</g>
</g>
<path class="st0" d="M8,23.6C7.9,23.2,7.6,23,7.2,23s-0.6,0.4-0.6,0.8c0,0.1,0,0.1,0.1,0.2c0.1,0.3,0.5,0.5,0.9,0.4c0,0,0,0,0,0
	C7.8,24.3,7.9,24.2,8,24C8,23.9,8,23.7,8,23.6z M7.5,24.1c-0.2,0.1-0.3,0-0.4-0.2c-0.1-0.2,0-0.3,0.2-0.4c0.2-0.1,0.3,0,0.4,0.2
	S7.6,24,7.5,24.1z"/>
<path class="st0" d="M8.6,25.2c0-0.1-0.1-0.3-0.3-0.4c-0.2-0.1-0.4-0.1-0.6-0.1c-0.4,0.1-0.5,0.5-0.4,0.9c0.1,0.4,0.5,0.5,0.9,0.4
	C8.5,25.9,8.7,25.6,8.6,25.2C8.6,25.2,8.6,25.2,8.6,25.2z M8,25.7c-0.2,0.1-0.3,0-0.4-0.2c-0.1-0.2,0-0.3,0.2-0.4c0,0,0,0,0,0
	c0.2-0.1,0.3,0,0.4,0.2C8.2,25.5,8.2,25.7,8,25.7z"/>
<path class="st0" d="M8.2,26.4c-0.4,0.1-0.5,0.5-0.4,0.9c0.1,0.4,0.5,0.5,0.9,0.4c0.4-0.1,0.5-0.5,0.4-0.9C9,26.5,8.6,26.3,8.2,26.4
	C8.3,26.4,8.3,26.4,8.2,26.4z M8.6,27.3c-0.2,0.1-0.3,0-0.4-0.2c0-0.2,0-0.3,0.2-0.4c0.2-0.1,0.3,0,0.4,0.2
	C8.8,27.1,8.7,27.3,8.6,27.3z"/>
</svg>
