<?xml version="1.0" encoding="utf-8"?>
<!-- Generator: Adobe Illustrator 26.0.1, SVG Export Plug-In . SVG Version: 6.00 Build 0)  -->
<svg version="1.1" id="Layer_1" xmlns="http://www.w3.org/2000/svg" xmlns:xlink="http://www.w3.org/1999/xlink" x="0px" y="0px"
	 viewBox="0 0 32 32" style="enable-background:new 0 0 32 32;" xml:space="preserve">
<style type="text/css">
	.st0{fill:#392B6C;}
</style>
<g>
	<path class="st0" d="M12.3,5.8L12.3,5.8c-1-0.1-1.9,0.1-2.7,0.6C9,6.7,8.9,7.4,9.2,8c0,0,0,0,0,0c0.2,0.4,0.6,0.7,1,0.8l6.5,1.6
		l0.6,3.9c-1.1,0.1-2.1,0.3-3.1,0.6c-0.5,0.1-0.9,0.3-1.4,0.5c-0.1,0.1-0.1,0.1,0,0.2c0.5,0.1,1.2,0.4,2.1,0.6
		c1.4,0.4,2.1,0.6,2.7,0.9c1.4,0.5,1.2,0.6,2.6,1.2c1.1,0.4,2.3,0.8,2.5,0.8c0,0,0.1,0,0.1,0c0,0,0,0,0,0l-2.3-7.5L19.7,8
		c-0.1-0.2-0.1-0.4-0.3-0.6l-0.2-0.2c-1.1-0.4-2.3-0.7-3.7-1C14.4,6,13.3,5.9,12.3,5.8z"/>
	<path class="st0" d="M30.4,16.5L30.4,16.5c-0.9,0.9-2,1.6-3.2,2.1c-1,0.4-2.1,0.7-3.1,0.7c-1,0-2-0.1-3-0.4
		c-0.3-0.1-0.6-0.2-0.9-0.3l-2.6-1c-1.2-0.4-2.1-0.7-2.6-0.9c-0.7-0.2-1.4-0.4-2.2-0.5c-0.5-0.1-1.1-0.1-1.6,0
		c-0.5,0.1-1,0.1-1.5,0.3c-0.8,0.2-1.6,0.6-2.3,1.1c-0.3,0.2-0.6,0.5-0.8,0.9c0.9-0.4,1.5-0.6,1.7-0.7c0.4-0.1,0.8-0.3,1.3-0.3
		c1-0.2,2-0.2,3.1,0c0.5,0.1,0.9,0.2,1.4,0.4l3.6,1.6c0.5,0.2,1,0.4,1.6,0.6c1.3,0.4,2.6,0.6,4,0.6c1.4,0,2.8-0.4,4.1-1.1
		C28.4,18.8,29.5,17.7,30.4,16.5"/>
	<path class="st0" d="M11.3,18.2L11.3,18.2c-1,0-1.9,0.2-2.8,0.6C8.3,18.9,8,19,7.8,19.1l-2.5,1.5c-0.4,0.2-0.7,0.4-1.1,0.6
		c-0.3,0.1-0.6,0.2-0.8,0.2c-0.4,0.1-0.8,0.1-1.3,0.1c-0.1,0-0.1,0-0.1,0.1H1.9C2.3,21.9,2.8,22,3.3,22c0.6,0,1.1,0,1.6-0.2l0.6-0.2
		l0.4-0.2l2.5-1.2l0.4-0.2c0.6-0.2,1.2-0.3,1.8-0.4h1.2c0.2,0,0.5,0,0.7,0.1l0.6,0.2l3,1c0.5,0.1,1,0.3,1.6,0.4
		c0.9,0.2,1.8,0.2,2.7,0.1c0,0,0,0-0.1,0c-0.2-0.1-0.4-0.2-0.6-0.2l-1.5-0.5l-1.2-0.5l-0.7-0.3l-2.5-1.2c-0.3-0.1-0.6-0.3-0.9-0.4
		C12.4,18.3,11.9,18.2,11.3,18.2"/>
	<path class="st0" d="M29.4,14.1l-0.1,0.5c-0.4,1.9-2.2,3-4.1,2.7c-0.9-0.2-1.7-0.7-2.2-1.5c-0.2-0.2-0.3-0.5-0.4-0.8l-0.1-0.4
		c-0.1-0.3-0.1-0.6-0.1-0.9c0.1-0.9,0.5-1.8,1.2-2.4c0.7-0.6,1.6-0.9,2.5-0.8C28.1,10.5,29.5,12.1,29.4,14.1
		C29.4,14,29.4,14,29.4,14.1"/>
</g>
</svg>
