<?xml version="1.0" encoding="utf-8"?>
<!-- Generator: Adobe Illustrator 26.0.1, SVG Export Plug-In . SVG Version: 6.00 Build 0)  -->
<svg version="1.1" id="Layer_1" xmlns="http://www.w3.org/2000/svg" xmlns:xlink="http://www.w3.org/1999/xlink" x="0px" y="0px"
	 viewBox="0 0 32 32" style="enable-background:new 0 0 32 32;" xml:space="preserve">
<style type="text/css">
	.st0{fill:#372B6C;}
	.st1{clip-path:url(#SVGID_00000086691266642729320480000014022334792331753611_);}
	.st2{clip-path:url(#SVGID_00000112629175062421597530000013194816657462427048_);}
</style>
<path class="st0" d="M19.4,8.8L20.8,8c0,0,0.1,0,0.1,0H21l-0.3,0.4c-0.1,0.2-0.1,0.4,0,0.6l0.1,0.1h1.3l-0.2-0.4l0.9-1.2
	c0.1-0.2,0.2-0.4,0.1-0.6l-0.6-2.1l1,0.6c0.1,0,0.1,0.1,0.2,0.1l2.2,0.1l0,0c0.2,0,0.4-0.2,0.4-0.4c0-0.2-0.2-0.4-0.4-0.4l-2.1-0.1
	l-1.7-1.1c-0.1-0.1-0.2-0.1-0.3,0l0,0l-0.2,0.1c0,0.1-0.1,0.3-0.2,0.4c-0.2,0.3-0.5,0.5-0.8,0.5H20c-0.3,0-0.5-0.1-0.7-0.3l-1,0.8
	l-1.7-0.5c0-0.1,0.1-0.2,0.2-0.2c0.1-0.3,0.1-0.6,0-0.9c-0.2-0.5-0.7-0.7-1.2-0.5c0,0,0,0,0,0C15.1,3.5,15,4,15.2,4.5
	c0.1,0.3,0.4,0.5,0.7,0.6h0.1c0,0.2,0.1,0.4,0.3,0.4l0.3,0.1c0.1,0.2,0.1,0.3,0.1,0.3c0.1,0,0.1,0,0.2-0.1c0.1,0,0.1-0.1,0.1-0.1
	l1.3,0.4h0.1c0.1,0,0.2-0.1,0.2-0.1l1-0.9L20.2,7l-1.6,1c-0.1,0.1-0.2,0.2-0.2,0.3L18.1,9h1.2L19.4,8.8z"/>
<path class="st0" d="M20.3,4.6c0.6-0.1,0.9-0.7,0.8-1.2s-0.7-0.9-1.2-0.8c-0.5,0.1-0.9,0.7-0.8,1.2c0.1,0.5,0.6,0.9,1.2,0.8
	C20.2,4.6,20.2,4.6,20.3,4.6z"/>
<path class="st0" d="M11.6,19.5L11.6,19.5L11.6,19.5z"/>
<g>
	<defs>
		<rect id="SVGID_1_" x="3.5" y="8.9" width="25.5" height="15.4"/>
	</defs>
	<clipPath id="SVGID_00000116938237044387968840000014905235875072461741_">
		<use xlink:href="#SVGID_1_"  style="overflow:visible;"/>
	</clipPath>
	<g style="clip-path:url(#SVGID_00000116938237044387968840000014905235875072461741_);">
		<path class="st0" d="M3.5,19.5h2.3v4.4H7v-0.5l-0.6-1.7c-0.1-0.2-0.1-0.5,0-0.7c0,0,0-0.1,0-0.1l0.3-1.1l-0.6-0.6
			c-0.2-0.2-0.3-0.5-0.2-0.8c0-0.2,0.1-0.3,0.2-0.5H4.2l2.5-4.7h2.3c0-0.1,0.1-0.1,0.1-0.1v-0.2h0.1c0,0,0,0,0.1-0.1H9.2v-0.2h0.5
			l0.1-0.1l0,0v-0.2h0.5l0,0h0.1h0.1c0.1,0,0.3,0,0.4,0H11h0.2h0.2l0,0h0.1l0,0h0.5v0.2h-0.1l0.1,0.1l0,0l0.1,0.1v-0.1h0.5v0.2h-0.3
			c0,0,0,0,0.1,0.1h0.2v0.2h-0.1l0.1,0.1H16v0.6v4h-3.3l0.6,1.2l0.5,0.4h11.4v4.4h1.2v-4.4h2.3l0.1-1.4l-2.6-4.7H28v-0.3l0,0v-2
			h-3.1L24.3,10l-0.4-0.7H8.5L8.3,9.5l-0.9,1.6h-3v2.3h1.7l-2.6,4.7L3.5,19.5z M8.1,13.2v-0.2h0.5v0.2H8.1z M7.5,13.2v-0.2H8v0.2
			H7.5z M5.8,13.2v-0.2h0.5v0.2H5.8z M26.6,13.2v-0.2h0.5v0.2H26.6z M13.7,11.4h0.5v0.2h-0.5V11.4z M13.6,11.6h-0.5v-0.2h0.5V11.6z
			 M26.6,12.2h-0.5V12h0.5V12.2z M26.7,12h0.5v0.2h-0.5V12z M26,12.2h-0.5V12H26L26,12.2z M25.5,12.2H25V12h0.5L25.5,12.2z
			 M24.9,12.2h-0.5V12h0.5V12.2z M24.4,12.2h-0.5V12h0.5V12.2z M18.8,12h0.5v0.2h-0.5V12z M18.7,12.2h-0.5V12h0.5V12.2z M19.3,12
			h0.5v0.2h-0.5V12z M19.9,12h0.5v0.2h-0.5V12z M20.4,12h0.5v0.2h-0.5V12z M21,12h0.5v0.2H21V12z M21.6,12H22v0.2h-0.5V12z M22.1,12
			h0.5v0.2h-0.5V12z M22.7,12h0.5v0.2h-0.5L22.7,12z M23.2,12h0.5v0.2h-0.5V12z M23.2,11.9v-0.2h0.5v0.2H23.2z M23.2,11.9h-0.5v-0.2
			h0.5L23.2,11.9z M22.6,11.9h-0.5v-0.2h0.5V11.9z M22,11.9h-0.5v-0.2H22V11.9z M21.5,11.9H21v-0.2h0.5V11.9z M20.9,11.9h-0.5v-0.2
			h0.5V11.9z M20.4,11.9h-0.5v-0.2h0.5V11.9z M19.8,11.9h-0.5v-0.2h0.5V11.9z M19.2,11.9h-0.5v-0.2h0.5V11.9z M18.7,11.9h-0.5v-0.2
			h0.5V11.9z M18.1,11.9h-0.5v-0.2h0.5V11.9z M17.5,11.9h-0.5v-0.2h0.5V11.9z M17,11.9h-0.5v-0.2H17L17,11.9z M16.4,11.9h-0.5v-0.2
			h0.5V11.9z M15.9,11.9h-0.5v-0.2h0.5V11.9z M15.3,11.9h-0.5v-0.2h0.5V11.9z M15.3,12v0.2h-0.5V12H15.3z M15.4,12h0.5v0.2h-0.5V12z
			 M15.9,12h0.5v0.2h-0.5L15.9,12z M16.5,12H17v0.2h-0.5L16.5,12z M17.1,12h0.5v0.2h-0.5V12z M17.6,12h0.5v0.2h-0.5V12z M18.1,12.3
			v0.2h-0.5v-0.2L18.1,12.3z M18.2,12.3h0.5v0.2h-0.5V12.3z M18.7,12.3h0.5v0.2h-0.5V12.3z M19.3,12.3h0.5v0.2h-0.5V12.3z
			 M19.9,12.3h0.5v0.2h-0.5V12.3z M20.4,12.3h0.5v0.2h-0.5V12.3z M21,12.3h0.5v0.2H21V12.3z M21.6,12.3H22v0.2h-0.5V12.3z
			 M22.1,12.3h0.5v0.2h-0.5V12.3z M22.7,12.3h0.5v0.2h-0.5L22.7,12.3z M23.2,12.3h0.5v0.2h-0.5V12.3z M23.8,12.3h0.5v0.2h-0.5V12.3z
			 M24.4,12.3h0.5v0.2h-0.5V12.3z M24.9,12.3h0.5v0.2H25L24.9,12.3z M25.5,12.3H26v0.2h-0.5L25.5,12.3z M26.1,12.3h0.5v0.2h-0.5
			V12.3z M26.6,12.3h0.5v0.2h-0.5V12.3z M27.2,12.3h0.4v0.2h-0.3L27.2,12.3z M27.2,12.2V12h0.4v0.2L27.2,12.2z M27.2,11.9v-0.2h0.4
			v0.2H27.2z M27.1,11.9h-0.5v-0.2h0.5V11.9z M26.6,11.9h-0.5v-0.2h0.5V11.9z M26,11.9h-0.5v-0.2H26L26,11.9z M25.4,11.9H25v-0.2
			h0.5L25.4,11.9z M24.9,11.9h-0.5v-0.2h0.5V11.9z M24.3,11.9h-0.5v-0.2h0.5V11.9z M23.7,11.6h-0.5v-0.2h0.5V11.6z M23.2,11.6h-0.5
			v-0.2h0.5L23.2,11.6z M22.6,11.6h-0.5v-0.2h0.5V11.6z M22,11.6h-0.5v-0.2H22V11.6z M21.5,11.6H21v-0.2h0.5V11.6z M20.9,11.6h-0.5
			v-0.2h0.5V11.6z M20.4,11.6h-0.5v-0.2h0.5V11.6z M19.8,11.6h-0.5v-0.2h0.5V11.6z M19.2,11.6h-0.5v-0.2h0.5V11.6z M18.7,11.6h-0.5
			v-0.2h0.5V11.6z M18.1,11.6h-0.5v-0.2h0.5V11.6z M17.5,11.6h-0.5v-0.2h0.5V11.6z M17,11.6h-0.5v-0.2H17L17,11.6z M16.4,11.6h-0.5
			v-0.2h0.5V11.6z M15.9,11.6h-0.5v-0.2h0.5V11.6z M15.3,11.6h-0.5v-0.2h0.5V11.6z M14.7,11.6h-0.5v-0.2h0.5V11.6z M14.2,11.7v0.2
			h-0.5v-0.2H14.2z M14.2,11.7h0.5v0.2h-0.5V11.7z M14.7,12v0.2h-0.5V12H14.7z M14.7,12.3v0.2h-0.5v-0.2L14.7,12.3z M14.8,12.3h0.5
			v0.2h-0.5V12.3z M15.4,12.3h0.5v0.2h-0.5V12.3z M15.9,12.3h0.5v0.2h-0.5V12.3z M16.5,12.3H17v0.2h-0.5L16.5,12.3z M17.1,12.3h0.5
			v0.2h-0.5V12.3z M17.5,12.6v0.2h-0.5v-0.2H17.5z M17.6,12.6h0.5v0.2h-0.5V12.6z M18.2,12.6h0.5v0.2h-0.5V12.6z M18.7,12.6h0.5v0.2
			h-0.5V12.6z M19.3,12.6h0.5v0.2h-0.5V12.6z M19.9,12.6h0.5v0.2h-0.5V12.6z M20.4,12.6h0.5v0.2h-0.5V12.6z M21,12.6h0.5v0.2H21
			L21,12.6z M21.6,12.6H22v0.2h-0.5V12.6z M22.1,12.6h0.5v0.2h-0.5V12.6z M22.7,12.6h0.5v0.2h-0.5L22.7,12.6z M23.2,12.6h0.5v0.2
			h-0.5V12.6z M23.8,12.6h0.5v0.2h-0.5V12.6z M24.4,12.6h0.5v0.2h-0.5V12.6z M24.9,12.6h0.5v0.2H25L24.9,12.6z M25.5,12.6H26v0.2
			h-0.5L25.5,12.6z M26.1,12.6h0.5v0.2h-0.5V12.6z M26.6,12.9v0.2h-0.5v-0.2H26.6z M26.6,12.9v-0.2h0.5v0.2H26.6z M27.2,12.6h0.4
			v0.2h-0.3L27.2,12.6z M27.5,11.6h-0.3v-0.2h0.4L27.5,11.6z M27.1,11.6h-0.5v-0.2h0.5V11.6z M26.6,11.6h-0.5v-0.2h0.5V11.6z
			 M26,11.6h-0.5v-0.2H26L26,11.6z M25.4,11.6H25v-0.2h0.5L25.4,11.6z M24.9,11.6h-0.5v-0.2h0.5V11.6z M24.3,11.6h-0.5v-0.2h0.5
			V11.6z M8.5,11.4v0.2H8.1v-0.2H8.5z M8,11.6H7.5v-0.2H8V11.6z M6.9,11.9H6.4v-0.2h0.5L6.9,11.9z M6.9,11.7h0.5v0.2H6.9L6.9,11.7z
			 M6.8,12v0.2H6.4V12H6.8z M6.3,11.9H5.8v-0.2h0.5V11.9z M6.3,12v0.2H5.8V12H6.3z M5.7,12.2H5.2V12h0.5L5.7,12.2z M5.2,12.2H4.8V12
			h0.3L5.2,12.2z M5.2,12.3v0.2H4.8v-0.2L5.2,12.3z M5.2,12.3h0.5v0.2H5.2V12.3z M5.8,12.3h0.5v0.2H5.8L5.8,12.3z M6.4,12.3h0.5v0.2
			H6.4L6.4,12.3z M6.9,12.3h0.5v0.2H6.9V12.3z M6.9,12.2V12h0.5v0.2H6.9z M7.5,11.7H8v0.2H7.5V11.7z M7.4,11.6H6.9v-0.2h0.5
			L7.4,11.6z M6.8,11.6H6.4v-0.2h0.5L6.8,11.6z M6.3,11.6H5.8v-0.2h0.5L6.3,11.6z M5.7,11.6H5.2v-0.2h0.5V11.6z M5.7,11.7v0.2H5.2
			v-0.2H5.7z M5.2,11.9H4.8v-0.2h0.3L5.2,11.9z M4.8,12.6h0.3v0.2H4.8L4.8,12.6z M5.2,12.6h0.5v0.2H5.2L5.2,12.6z M5.7,12.9v0.2H5.2
			v-0.2H5.7z M5.8,12.9v-0.2h0.5v0.2H5.8z M6.4,12.6h0.5v0.2H6.4L6.4,12.6z M6.9,12.6h0.5v0.2H6.9V12.6z M7.4,12.9v0.2H6.9v-0.2H7.4
			z M7.5,12.9v-0.2H8v0.2H7.5z M7.5,12.6v-0.2H8v0.2L7.5,12.6z M7.5,12.2V12H8v0.2H7.5z M8.1,12h0.5v0.2H8.1V12z M8.1,11.9v-0.2h0.5
			v0.2H8.1z M8.6,11.7h0.5v0.2H8.6V11.7z M8.6,11.6v-0.2h0.5v0.2H8.6z M9.2,11.4h0.5v0.2H9.2V11.4z M9.7,11.4h0.5v0.2H9.7L9.7,11.4z
			 M10.3,11.4h0.5v0.2h-0.5V11.4z M10.9,11.4h0.5v0.2h-0.5V11.4z M11.4,11.4h0.5v0.2h-0.5V11.4z M12,11.4h0.5v0.2H12L12,11.4z
			 M12.6,11.4h0.5v0.2h-0.5V11.4z M13.1,11.7v0.2h-0.5v-0.2H13.1z M13.1,11.7h0.5v0.2h-0.5V11.7z M13.6,12v0.2h-0.5V12L13.6,12z
			 M13.7,12h0.5v0.2h-0.5V12z M14.2,12.3v0.2h-0.5v-0.3L14.2,12.3z M14.2,12.6v0.2h-0.5v-0.2H14.2z M14.2,12.6h0.5v0.2h-0.5V12.6z
			 M14.8,12.6h0.5v0.2h-0.5V12.6z M15.4,12.6h0.5v0.2h-0.5V12.6z M15.9,12.6h0.5v0.2h-0.5V12.6z M16.5,12.6H17v0.2h-0.5V12.6z
			 M17,12.9v0.2h-0.5v-0.2H17z M17.1,12.9h0.5v0.2h-0.5V12.9z M17.6,12.9h0.5v0.2h-0.5V12.9z M18.2,12.9h0.5v0.2h-0.5V12.9z
			 M18.7,12.9h0.5v0.2h-0.5V12.9z M19.3,12.9h0.5v0.2h-0.5V12.9z M19.9,12.9h0.5v0.2h-0.5V12.9z M20.4,12.9h0.5v0.2h-0.5V12.9z
			 M21,12.9h0.5v0.2H21L21,12.9z M21.6,12.9h0.5v0.2h-0.5V12.9z M22.1,12.9h0.5v0.2h-0.5V12.9z M22.7,12.9h0.5v0.2h-0.5L22.7,12.9z
			 M23.3,12.9h0.5v0.2h-0.5V12.9z M23.8,12.9h0.5v0.2h-0.5V12.9z M24.4,12.9h0.5v0.2h-0.5V12.9z M24.9,12.9h0.5v0.2H25L24.9,12.9z
			 M25.5,12.9H26v0.2h-0.5L25.5,12.9z M27.2,13.2v-0.2h0.4v0.2H27.2z M5.2,11.4v0.2H4.8v-0.2H5.2z M4.9,12.9h0.3v0.2H4.8L4.9,12.9z
			 M6.4,13.2v-0.2h0.5v0.2H6.4z M8.1,12.9v-0.2h0.5v0.2H8.1z M8.1,12.6v-0.3h0.5v0.2L8.1,12.6z M8.7,12.3h0.5v0.2H8.6L8.7,12.3z
			 M8.7,12.2V12h0.5v0.2L8.7,12.2z M9.2,12h0.5v0.2H9.2V12z M9.2,11.9v-0.2h0.5v0.2H9.2z M9.7,11.7h0.5v0.2H9.7L9.7,11.7z
			 M10.3,11.7h0.5v0.2h-0.5V11.7z M10.9,11.7h0.5v0.2h-0.5V11.7z M11.4,11.7h0.5v0.2h-0.5V11.7z M12,11.7h0.5v0.2H12L12,11.7z
			 M12.5,12v0.2H12V12H12.5z M12.6,12h0.5v0.2h-0.5V12z M13.1,12.3v0.2h-0.5v-0.2L13.1,12.3z M13.1,12.3h0.5v0.2h-0.5V12.3z
			 M13.6,12.6v0.2h-0.5v-0.2H13.6z M13.6,12.9v0.2h-0.5v-0.2H13.6z M13.7,12.9h0.5v0.2h-0.5V12.9z M14.3,12.9h0.5v0.2h-0.5V12.9z
			 M14.8,12.9h0.5v0.2h-0.5V12.9z M15.4,12.9h0.5v0.2h-0.5V12.9z M15.9,12.9h0.5v0.2h-0.5L15.9,12.9z M9.1,13.2H8.6v-0.2h0.5
			L9.1,13.2z M9.1,12.9H8.6v-0.2h0.5L9.1,12.9z M9.7,12.6H9.2v-0.2h0.5L9.7,12.6z M9.7,12.2V12h0.5v0.2H9.7z M10.3,12.2V12h0.5v0.2
			H10.3z M10.9,12.2V12h0.5v0.2H10.9z M11.4,12.2V12h0.5v0.2H11.4z M12,12.6v-0.2h0.5v0.2L12,12.6z M12.6,12.6h0.5v0.2h-0.5V12.6z
			 M12.6,12.9h0.5v0.2h-0.5V12.9z M16.4,17.9v-4v-0.6h9.2l2.5,4.7L16.4,17.9z M23.5,9.4l0.3,0.6l0.6,1.1h-8.2V9.4L23.5,9.4z
			 M8.3,10.3l0.5-0.9h7.2v1.8H7.9L8.3,10.3z"/>
	</g>
</g>
<path class="st0" d="M12.1,13.3c0.1,0.1,0.1,0.2,0.2,0.3c0.1,0.2,0.1,0.4,0.1,0.6c0,0.1,0,0.2,0,0.3c0,0.1,0,0.2-0.1,0.3
	c0,0.1-0.1,0.2-0.1,0.3c-0.1,0.1-0.1,0.2-0.2,0.3c-0.1,0.1-0.2,0.2-0.2,0.2c-0.1,0.1-0.2,0.1-0.3,0.2l-0.3,0.1c-0.1,0-0.2,0-0.3,0
	c-0.1,0-0.2,0-0.3,0c-0.1,0-0.2-0.1-0.3-0.1c-0.1,0-0.2-0.1-0.3-0.1c-0.1-0.1-0.2-0.1-0.3-0.2c-0.1-0.1-0.2-0.2-0.2-0.2
	c-0.1-0.1-0.1-0.2-0.2-0.3c0-0.1-0.1-0.2-0.1-0.3c0-0.1,0-0.2,0-0.3c0-0.1,0-0.2,0-0.3c0-0.1,0.1-0.2,0.1-0.3c0-0.1,0.1-0.2,0.1-0.3
	c0.1-0.1,0.1-0.2,0.2-0.2c0.1-0.1,0.2-0.1,0.2-0.2c0.1-0.1,0.2-0.1,0.3-0.2c0.1,0,0.2-0.1,0.3-0.1c0.1,0,0.2,0,0.3,0
	c0.1,0,0.2,0,0.3,0c0.1,0,0.2,0,0.3,0.1c0.1,0,0.2,0.1,0.3,0.1c0.1,0.1,0.2,0.1,0.2,0.2C12,13.1,12.1,13.2,12.1,13.3z"/>
<g>
	<defs>
		<rect id="SVGID_00000107551454924457594900000012213075176144052149_" x="4.8" y="15.4" width="13.8" height="14.3"/>
	</defs>
	<clipPath id="SVGID_00000103987511556819769400000007752473464486412423_">
		<use xlink:href="#SVGID_00000107551454924457594900000012213075176144052149_"  style="overflow:visible;"/>
	</clipPath>
	<g style="clip-path:url(#SVGID_00000103987511556819769400000007752473464486412423_);">
		<path class="st0" d="M11.9,16.8c-0.1-0.1-0.2-0.2-0.3-0.3l-0.1,0l-2.8-0.7c-0.1,0-0.2,0-0.3,0c-0.1,0-0.1,0-0.2,0.1
			c-1,0.6-1.7,1.5-2,2.7c0,0.2,0,0.4,0.1,0.5l0.7,0.8L6.7,21c0,0,0,0,0,0.1c-0.1,0.2-0.1,0.4,0,0.6L7.8,25l-2.7,3.2
			c-0.3,0.4-0.3,1,0.1,1.3c0.2,0.1,0.4,0.2,0.6,0.2c0.3,0,0.5-0.1,0.7-0.3l3-3.6c0.2-0.2,0.3-0.6,0.2-0.9l-0.8-2.4l2.3,2.7l0.9,3.9
			c0.1,0.4,0.5,0.7,0.9,0.7h0.2c0.5-0.1,0.8-0.6,0.7-1.1L13,24.5c0-0.1-0.1-0.3-0.2-0.4l-2.1-2.4l0.8-3l0.6,1.3
			c0,0.1,0.1,0.2,0.2,0.2l1.7,1.1h-0.4c0,0.1,0,0.2,0,0.2c0,0.1,0,0.2,0.1,0.2c0,0,0.4-0.1,0.8-0.2l0.2,0.1c0.1,0.1,0.2,0.1,0.3,0.1
			c0.1,0,0.2,0,0.3-0.1c0,0.1,0.1,0.1,0.1,0.2c0.4,0.3,0.9,0.4,1.4,0.3c0.9-0.1,1.5-0.8,1.4-1.4s-0.9-1-1.8-0.9
			c-0.5,0.1-0.9,0.3-1.2,0.7c0,0,0,0.1,0,0.1l-2-1.4L11.9,16.8z"/>
	</g>
</g>
<circle class="st0" cx="12.7" cy="7.6" r="0.5"/>
</svg>
