<?xml version="1.0" encoding="utf-8"?>
<!-- Generator: Adobe Illustrator 26.0.1, SVG Export Plug-In . SVG Version: 6.00 Build 0)  -->
<svg version="1.1" id="Layer_1" xmlns="http://www.w3.org/2000/svg" xmlns:xlink="http://www.w3.org/1999/xlink" x="0px" y="0px"
	 viewBox="0 0 32 32" style="enable-background:new 0 0 32 32;" xml:space="preserve">
<style type="text/css">
	.st0{clip-path:url(#SVGID_00000142170831727256223420000013057391743148834477_);}
	.st1{fill:#352B6C;}
	.st2{clip-path:url(#SVGID_00000072256495448185707860000012007702864585453957_);}
	.st3{clip-path:url(#SVGID_00000049224182693068215150000011225408086145935013_);}
	.st4{clip-path:url(#SVGID_00000158739177591855602790000006248520332881656960_);}
	.st5{fill:none;stroke:#342B6C;stroke-miterlimit:10;}
</style>
<g>
	<defs>
		<rect id="SVGID_1_" x="7.1" y="1.8" width="9.2" height="14.1"/>
	</defs>
	<clipPath id="SVGID_00000107561146533747126610000008249849985747376025_">
		<use xlink:href="#SVGID_1_"  style="overflow:visible;"/>
	</clipPath>
	<g style="clip-path:url(#SVGID_00000107561146533747126610000008249849985747376025_);">
		<path class="st1" d="M9,15.9l6.1-2.5c0.7-1.8,1-3.8,0.9-5.7c0-4.3-2-5.8-3.6-5.8S7.5,4.3,7.5,10C7.5,12.1,8,14.1,9,15.9z"/>
	</g>
</g>
<g>
	<defs>
		<rect id="SVGID_00000168817611435870821250000013109115613206710923_" x="10.8" y="22.4" width="11" height="7.3"/>
	</defs>
	<clipPath id="SVGID_00000124137719112036800700000013686562555221156506_">
		<use xlink:href="#SVGID_00000168817611435870821250000013109115613206710923_"  style="overflow:visible;"/>
	</clipPath>
	<g style="clip-path:url(#SVGID_00000124137719112036800700000013686562555221156506_);">
		<path class="st1" d="M20.4,24.9c0.5,1.1,0.8,2.3,1,3.5c0,0-0.8,1.2-4.7,1.2c-4.3,0-5.8-2.1-5.8-2.1l0.5-5
			C13.8,23.5,14.3,26.1,20.4,24.9z"/>
	</g>
</g>
<g>
	<defs>
		<rect id="SVGID_00000045601591902973337650000006665733985147580594_" x="9.4" y="14.1" width="15.1" height="6.9"/>
	</defs>
	<clipPath id="SVGID_00000142171587330734759840000000854799775507154367_">
		<use xlink:href="#SVGID_00000045601591902973337650000006665733985147580594_"  style="overflow:visible;"/>
	</clipPath>
	<g style="clip-path:url(#SVGID_00000142171587330734759840000000854799775507154367_);">
		<path class="st1" d="M15.6,14.4l-5.9,2.4c1.3,2.3,5.9,3.7,8.6,3.7c2.1,0,6.3-0.5,6.3-2.5C24.6,15.1,18,14.2,15.6,14.4z M17.4,19
			c-2.5-0.1-4.6-1-4.6-1.9s2-1.6,4.6-1.4s4.6,1,4.6,1.9S19.9,19.2,17.4,19z"/>
	</g>
</g>
<path class="st1" d="M8.1,16.8c0,3.5,3.1,7.7,8.7,7.7c3.8,0,5.9-1.8,6.6-3.9C23.5,20.6,14.4,24,8.1,16.8z"/>
<g>
	<defs>
		<rect id="SVGID_00000144301497735158190170000015426971737757483172_" x="5.3" y="1.8" width="5.9" height="14.6"/>
	</defs>
	<clipPath id="SVGID_00000046323767742969804640000008052699218944226741_">
		<use xlink:href="#SVGID_00000144301497735158190170000015426971737757483172_"  style="overflow:visible;"/>
	</clipPath>
	<g style="clip-path:url(#SVGID_00000046323767742969804640000008052699218944226741_);">
		<path class="st1" d="M6.5,10c0-5.2,2.7-7.7,4.6-8.1h-0.8c-1.6,0-4.9,2.3-4.9,8.1c0.1,5.1,2.7,6.2,2.7,6.2
			C7.1,14.3,6.5,12.2,6.5,10z"/>
	</g>
</g>
<path class="st5" d="M27.5,31.6c2.3,0,4.1-1.8,4.1-4.1l0,0V4.6c0-2.3-1.8-4.1-4.1-4.1c0,0,0,0,0,0H4.6c-2.3,0-4.1,1.8-4.1,4.1v22.9
	c0,1.1,0.4,2.1,1.2,2.9c0.8,0.8,1.8,1.2,2.9,1.2H27.5"/>
</svg>
