<?xml version="1.0" encoding="utf-8"?>
<!-- Generator: Adobe Illustrator 26.0.1, SVG Export Plug-In . SVG Version: 6.00 Build 0)  -->
<svg version="1.1" id="Layer_1" xmlns="http://www.w3.org/2000/svg" xmlns:xlink="http://www.w3.org/1999/xlink" x="0px" y="0px"
	 viewBox="0 0 32 32" style="enable-background:new 0 0 32 32;" xml:space="preserve">
<style type="text/css">
	.st0{clip-path:url(#SVGID_00000003795078112319507500000007445320580674588549_);}
	.st1{fill:#352B6C;}
	.st2{clip-path:url(#SVGID_00000113318927524465609620000016817239795712812935_);}
	.st3{clip-path:url(#SVGID_00000051349403849218875440000017732340366095057546_);}
	.st4{clip-path:url(#SVGID_00000181059562146636893810000013092665544137645953_);}
</style>
<g>
	<defs>
		<rect id="SVGID_1_" x="7.1" y="1.8" width="9.2" height="14.1"/>
	</defs>
	<clipPath id="SVGID_00000168074863365900365770000011507419682224075688_">
		<use xlink:href="#SVGID_1_"  style="overflow:visible;"/>
	</clipPath>
	<g style="clip-path:url(#SVGID_00000168074863365900365770000011507419682224075688_);">
		<path class="st1" d="M9,15.9l6.1-2.5c0.7-1.8,1-3.8,0.9-5.7c0-4.3-2-5.8-3.6-5.8S7.5,4.3,7.5,10C7.5,12.1,8,14.1,9,15.9z"/>
	</g>
</g>
<g>
	<defs>
		<rect id="SVGID_00000133515994163178122900000000764690868260530865_" x="10.8" y="22.4" width="11" height="7.3"/>
	</defs>
	<clipPath id="SVGID_00000178897471733754724910000014267173359762407557_">
		<use xlink:href="#SVGID_00000133515994163178122900000000764690868260530865_"  style="overflow:visible;"/>
	</clipPath>
	<g style="clip-path:url(#SVGID_00000178897471733754724910000014267173359762407557_);">
		<path class="st1" d="M20.4,24.9c0.5,1.1,0.8,2.3,1,3.5c0,0-0.8,1.2-4.7,1.2c-4.3,0-5.8-2.1-5.8-2.1l0.5-5
			C13.8,23.5,14.3,26.1,20.4,24.9z"/>
	</g>
</g>
<g>
	<defs>
		<rect id="SVGID_00000056408995809190420820000010846544482025298345_" x="9.4" y="14.1" width="15.1" height="6.9"/>
	</defs>
	<clipPath id="SVGID_00000183933499473048947990000016469867133671241373_">
		<use xlink:href="#SVGID_00000056408995809190420820000010846544482025298345_"  style="overflow:visible;"/>
	</clipPath>
	<g style="clip-path:url(#SVGID_00000183933499473048947990000016469867133671241373_);">
		<path class="st1" d="M15.6,14.4l-5.9,2.4c1.3,2.3,5.9,3.7,8.6,3.7c2.1,0,6.3-0.5,6.3-2.5C24.6,15.1,18,14.2,15.6,14.4z M17.4,19
			c-2.5-0.1-4.6-1-4.6-1.9s2-1.6,4.6-1.4s4.6,1,4.6,1.9S19.9,19.2,17.4,19z"/>
	</g>
</g>
<path class="st1" d="M8.1,16.8c0,3.5,3.1,7.7,8.7,7.7c3.8,0,5.9-1.8,6.6-3.9C23.5,20.6,14.4,24,8.1,16.8z"/>
<g>
	<defs>
		<rect id="SVGID_00000064312836451136419390000001469891972848261773_" x="5.3" y="1.8" width="5.9" height="14.6"/>
	</defs>
	<clipPath id="SVGID_00000036941134783867483280000011429823225426602369_">
		<use xlink:href="#SVGID_00000064312836451136419390000001469891972848261773_"  style="overflow:visible;"/>
	</clipPath>
	<g style="clip-path:url(#SVGID_00000036941134783867483280000011429823225426602369_);">
		<path class="st1" d="M6.5,10c0-5.2,2.7-7.7,4.6-8.1h-0.8c-1.6,0-4.9,2.3-4.9,8.1c0.1,5.1,2.7,6.2,2.7,6.2
			C7.1,14.3,6.5,12.2,6.5,10z"/>
	</g>
</g>
</svg>
