<?xml version="1.0" encoding="utf-8"?>
<!-- Generator: Adobe Illustrator 26.0.1, SVG Export Plug-In . SVG Version: 6.00 Build 0)  -->
<svg version="1.1" id="Layer_1" xmlns="http://www.w3.org/2000/svg" xmlns:xlink="http://www.w3.org/1999/xlink" x="0px" y="0px"
	 viewBox="0 0 32 32" style="enable-background:new 0 0 32 32;" xml:space="preserve">
<style type="text/css">
	.st0{fill:#332B6C;}
	.st1{clip-path:url(#SVGID_00000113336156114611411440000013714543296346618532_);}
</style>
<path class="st0" d="M16.5,6L16.5,6L16.5,6z"/>
<g>
	<defs>
		<rect id="SVGID_1_" x="11.6" y="5.1" width="7.9" height="25.4"/>
	</defs>
	<clipPath id="SVGID_00000064318465890318932060000003848455153635221942_">
		<use xlink:href="#SVGID_1_"  style="overflow:visible;"/>
	</clipPath>
	<g style="clip-path:url(#SVGID_00000064318465890318932060000003848455153635221942_);">
		<path class="st0" d="M19.4,10.3c0-0.4-0.1-0.9-0.1-1.4S19,8.2,18.9,7.8c0-0.1,0-0.2,0-0.3c0-0.1,0-0.1,0-0.2
			c0-0.1-0.1-0.2-0.1-0.3s-0.1-0.2-0.2-0.3c-0.1-0.1-0.2-0.1-0.3-0.2l0,0c-0.1-0.1-0.2-0.2-0.4-0.3c-0.1-0.1-0.2-0.2-0.3-0.3h-0.1
			l0,0l0,0L17.3,6c0,0.2,0.2,0.3,0.2,0.4c-0.2-0.2-0.5-0.3-0.7-0.4l0,0l0,0c0,0-0.1,0.1-0.1,0.2c-0.1,0-0.1,0-0.2,0
			c0,0.1,0,0.2,0,0.2c0,0,0.1,0.1,0.1,0.1l0,0c0,0-0.1,0.1-0.1,0.1c0.2,0.1,0.3,0.1,0.5,0.1c0.5,0.1,0.9,0.4,1.3,0.7
			c0.1,0.8,0.1,1.5,0.1,2.3c0,0.2,0,0.5-0.1,0.7c-0.2,0.2-0.3,0.4-0.5,0.5l0,0l0,0l0,0c-0.3,0.2-0.5,0.5-0.8,0.7
			c-0.2,0.1-0.5,0.2-0.7,0.2V12h-0.1l0,0c-0.1,0-0.3,0-0.4-0.1c-0.1-0.1-0.2-0.2-0.3-0.4c0-0.2,0.1-0.4,0.1-0.6
			c-0.1,0-0.1-0.1-0.1-0.2c-0.1-0.1-0.2-0.2-0.2-0.3c-0.1-0.1-0.2-0.3-0.2-0.4l0,0l0,0c-0.1,0-0.3,0-0.4,0C14.4,10,14.3,10,14.1,10
			C14,9.8,14,9.7,14,9.6l0,0V9.5c0.4-0.7,0.7-1.4,1-2.1l0,0C15,7.2,15,7,15.1,6.8c0.3-0.1,0.5-0.2,0.8-0.3l0,0
			c0.2-0.1,0.5-0.1,0.6-0.2l0,0l0.1-0.1l0,0c0,0,0.1-0.1,0.1-0.1V6c-0.4,0-0.8,0.1-1.2,0.2c-0.1-0.1-0.4-0.1-0.5-0.2
			c-0.2-0.2-0.4-0.4-0.6-0.6c0,0.3,0.1,0.7,0.3,0.9v0.2c-0.3,0.3-0.7,0.6-0.9,1l0,0c-0.2,0.2-0.4,0.5-0.5,0.7
			c-0.1,0.1-0.2,0.3-0.3,0.5C13,9.1,13,9.5,13,9.9c0,0.7,0.1,1.4,0.2,2.1l0,0c0.1,0.5,0,1,0.1,1.4c0.2,0.3,0.3,0.7,0.4,1.1
			c0.2,0.4,0.4,0.8,0.6,1.1l0,0v0.1c0,0.1,0.1,0.1,0.1,0.2l0.1,0.2c0,0.2,0.1,0.5,0,0.7s0,0.5,0,0.7l0.1,0.1
			c-0.1,0.1-0.1,0.3-0.1,0.4l0,0c0,0.6-0.1,1.1-0.1,1.6c0,0.2,0,0.4,0,0.6h0.1c0,1,0.1,2.1,0,3.2l0,0v0.2c0,0,0,0.1,0,0.1
			c-0.1,0.1-0.3,0.3-0.5,0.3L13.7,24l-0.1,0c-0.1,0-0.3,0-0.5-0.1c0,0-0.1,0.1-0.1,0.1l0,0c-0.2,0.3-0.4,0.6-0.5,0.9
			c-0.1,0.2-0.3,0.4-0.5,0.5l0,0l0,0c-0.1,0.1-0.2,0.2-0.2,0.3c0,0.1,0,0.2-0.1,0.3V26l0,0c0,0.3,0,0.6,0,0.9
			c0.2,0.2,0.4,0.3,0.6,0.4c0.1-0.1,0.2-0.3,0.3-0.4c0.1-0.2,0.2-0.4,0.3-0.5c0.1-0.2,0.2-0.4,0.4-0.5c0.1-0.1,0.1-0.2,0.2-0.4
			c0.1,0,0.1-0.1,0.1-0.1c0.6-0.1,1.3,0.1,1.9-0.1c0.2-0.1,0.3-0.3,0.4-0.5c0.1-0.1,0.2-0.2,0.2-0.3v-0.8c0-0.5,0-1,0-1.4
			c0.1-0.3,0.1-0.5,0.2-0.8l0,0c0-0.1,0.1-0.2,0.1-0.4l0,0c0.1,0.6,0.2,1.2,0.4,1.7c0.1,0.3,0.2,0.7,0.2,1c0.1,0.6-0.6,0.9-0.9,1.4
			c-0.3,0.6-0.6,1.1-1.1,1.5l0,0c-0.2,0.1-0.5,0.1-0.8,0.1c-0.2,0.1-0.5,0.2-0.7,0.3c0,0.1,0.1,0.3,0.1,0.4c0.1,0.1,0.1,0.2,0.1,0.3
			l0,0V28l0,0c0,0.9-0.2,1.7,0.7,2.3c0.1-0.1,0.3-0.1,0.4-0.2c0-0.1,0.1-0.2,0.1-0.3c0-0.5,0.1-1,0.2-1.5c0.1-0.1,0.3-0.2,0.4-0.2
			c-0.1,0-0.2-0.1-0.3-0.2c0.1-0.1,0.2-0.2,0.3-0.3c0.2-0.1,0.3-0.3,0.5-0.5l0,0c0,0,0.1-0.1,0.1-0.1l0,0c0.7-0.7,1.5-1.2,2.4-1.7
			c0.1-0.2,0.1-0.4,0.2-0.6c0.1-0.2,0.1-0.5,0.2-0.7c-0.1-0.4,0-0.9-0.1-1.3s0-1,0-1.5c-0.1-0.3-0.1-0.6-0.1-0.9l0,0
			c-0.2-0.9-0.4-1.9-0.7-2.8l0,0c-0.1-0.2-0.1-0.4-0.2-0.6c0-0.4-0.1-0.8-0.1-1.2s-0.3-0.8-0.4-1.2s0.1-0.7,0.1-0.9
			c-0.1,0-0.1-0.2-0.1-0.3c0.1-0.2,0.3-0.4,0.5-0.5l0,0c0.3-0.3,0.6-0.6,0.8-1c0.2-0.1,0.3-0.4,0.5-0.6s0.1-0.2,0.1-0.3
			S19.3,10.5,19.4,10.3C19.4,10.4,19.4,10.3,19.4,10.3z"/>
	</g>
</g>
<path class="st0" d="M15.2,4.1c0,0.1,0.1,0.2,0.1,0.3c0.4,0.7,1.3,1,2,0.6c0.1-0.1,0.2-0.2,0.3-0.2c0.1-0.2,0.2-0.4,0.3-0.6
	C18,3.8,18,3.5,17.8,3.2c-0.3-0.7-1.1-1.1-1.8-0.8C15.3,2.7,15,3.4,15.2,4.1z"/>
</svg>
