<?xml version="1.0" encoding="utf-8"?>
<!-- Generator: Adobe Illustrator 26.0.1, SVG Export Plug-In . SVG Version: 6.00 Build 0)  -->
<svg version="1.1" id="Layer_1" xmlns="http://www.w3.org/2000/svg" xmlns:xlink="http://www.w3.org/1999/xlink" x="0px" y="0px"
	 viewBox="0 0 32 32" style="enable-background:new 0 0 32 32;" xml:space="preserve">
<style type="text/css">
	.st0{fill:none;stroke:#322B6C;stroke-miterlimit:10;}
	.st1{clip-path:url(#SVGID_00000178202844761204347390000010963452168813851827_);}
	.st2{fill:#332B6C;}
	.st3{clip-path:url(#SVGID_00000152263269589607650790000016558172384960226437_);}
	.st4{clip-path:url(#SVGID_00000047049378294659195530000011351454735018699439_);}
	.st5{clip-path:url(#SVGID_00000167384333606371835380000005811645085656736675_);}
	.st6{clip-path:url(#SVGID_00000049223238334932461930000006177855146373841300_);}
</style>
<path class="st0" d="M27.4,31.6c1.1,0,2.1-0.4,2.9-1.2c0.8-0.8,1.2-1.8,1.2-2.9V4.6c0-1.1-0.4-2.1-1.2-2.9c-0.8-0.8-1.8-1.2-2.9-1.2
	H4.7c-2.3,0-4.1,1.8-4.1,4.1v22.9c0,1.1,0.4,2.1,1.2,2.9c0.8,0.8,1.8,1.2,2.9,1.2H27.4"/>
<g>
	<defs>
		<rect id="SVGID_1_" x="8" y="22.7" width="11.8" height="6.8"/>
	</defs>
	<clipPath id="SVGID_00000155835208265523867210000005340576107683491723_">
		<use xlink:href="#SVGID_1_"  style="overflow:visible;"/>
	</clipPath>
	<g style="clip-path:url(#SVGID_00000155835208265523867210000005340576107683491723_);">
		<path class="st2" d="M8,23v1.1c0,0.1,0.1,0.1,0.1,0.1c0,0,0,0,0,0h2.3c0.4,0,0.8,0.3,0.8,0.8v4.3c0,0.1,0.1,0.1,0.1,0.1
			c0,0,0,0,0,0h6.1c0.1,0,0.1-0.1,0.1-0.1v0v-2.2c0-0.7,0.4-1.3,1-1.6c0.6-0.3,1-0.9,1-1.6V23H8z"/>
	</g>
</g>
<g>
	<defs>
		<rect id="SVGID_00000100358915142791633050000005959705414016945079_" x="8" y="14.3" width="3.4" height="8.4"/>
	</defs>
	<clipPath id="SVGID_00000005245256251448461070000001238296171020927875_">
		<use xlink:href="#SVGID_00000100358915142791633050000005959705414016945079_"  style="overflow:visible;"/>
	</clipPath>
	<g style="clip-path:url(#SVGID_00000005245256251448461070000001238296171020927875_);">
		<path class="st2" d="M8,14.7h3.1v8H8V14.7z"/>
	</g>
</g>
<g>
	<defs>
		<rect id="SVGID_00000073681422527463727600000009011256416197619901_" x="8" y="13.4" width="3.4" height="1.3"/>
	</defs>
	<clipPath id="SVGID_00000151516772887497477550000007242398381883421611_">
		<use xlink:href="#SVGID_00000073681422527463727600000009011256416197619901_"  style="overflow:visible;"/>
	</clipPath>
	<g style="clip-path:url(#SVGID_00000151516772887497477550000007242398381883421611_);">
		<path class="st2" d="M8.2,13.6h2.6c0.1,0,0.2,0.1,0.2,0.2v0.5H8v-0.5C8,13.7,8.1,13.6,8.2,13.6z"/>
	</g>
</g>
<path class="st2" d="M12.1,22.2h7.1c0.1,0,0.2,0.1,0.2,0.2v0.2h-7.6v-0.2C11.8,22.3,11.9,22.2,12.1,22.2z"/>
<path class="st2" d="M18.3,14.6l-2.4-3.5c-0.4-0.6-1.2-0.7-1.8-0.3c0,0,0,0,0,0c-0.6,0.4-0.7,1.2-0.3,1.8l2.6,3.7
	c0.4,0.6,1,1,1.8,1.2l4.3,1.2c0.7,0.2,1.4-0.2,1.6-0.9c0,0,0,0,0,0c0.2-0.7-0.2-1.4-0.9-1.6l-4.1-1.2C18.8,15.1,18.5,14.9,18.3,14.6
	z"/>
<g>
	<defs>
		<rect id="SVGID_00000084522811870986576460000012052866259098883484_" x="11.8" y="9.2" width="13.2" height="20.3"/>
	</defs>
	<clipPath id="SVGID_00000088834137865415413690000012725202754516952978_">
		<use xlink:href="#SVGID_00000084522811870986576460000012052866259098883484_"  style="overflow:visible;"/>
	</clipPath>
	<g style="clip-path:url(#SVGID_00000088834137865415413690000012725202754516952978_);">
		<path class="st2" d="M23.8,18.9c-0.1,0.1-0.3,0.2-0.5,0.2l0,0l-0.2,0.1l0,0h-0.3c-0.1,0-0.3,0-0.4-0.1l-2.5-0.7h-2.2v-0.6
			c-0.6-0.3-1.2-0.7-1.6-1.3l-2.6-3.6c-0.5-0.7-0.4-1.7,0.4-2.3c0.3-0.2,0.6-0.3,0.9-0.3c0.5,0,1,0.3,1.3,0.7l1.5,2.2v-0.9
			c0-1.5-1.2-2.7-2.7-2.8h-0.3c-1.5,0-2.7,1.2-2.7,2.8v6.9c0,1.5,1.2,2.7,2.7,2.7c0,0,0,0,0,0h6.7c0.2,0,0.3,0.1,0.3,0.3v5.6
			c-0.1,0.9,0.6,1.8,1.6,1.8c0.9,0.1,1.8-0.6,1.8-1.6c0-0.1,0-0.2,0-0.3v-6.5C25.1,20.2,24.6,19.4,23.8,18.9z"/>
	</g>
</g>
<g>
	<defs>
		<rect id="SVGID_00000181086084395370945090000002676223246016730510_" x="11.4" y="2.7" width="6.7" height="6.6"/>
	</defs>
	<clipPath id="SVGID_00000150821039393881582500000006183500544983130770_">
		<use xlink:href="#SVGID_00000181086084395370945090000002676223246016730510_"  style="overflow:visible;"/>
	</clipPath>
	<g style="clip-path:url(#SVGID_00000150821039393881582500000006183500544983130770_);">
		<path class="st2" d="M18,5.8c0,0.2,0,0.4-0.1,0.6c0,0.2-0.1,0.4-0.2,0.6c-0.1,0.2-0.2,0.4-0.3,0.5c-0.1,0.2-0.2,0.3-0.4,0.5
			c-0.1,0.1-0.3,0.3-0.5,0.4c-0.2,0.1-0.3,0.2-0.5,0.3c-0.2,0.1-0.4,0.1-0.6,0.2C15.3,9,15.1,9,14.9,9c-0.2,0-0.4,0-0.6-0.1
			c-0.2,0-0.4-0.1-0.6-0.2c-0.2-0.1-0.4-0.2-0.5-0.3c-0.2-0.1-0.3-0.2-0.5-0.4c-0.2-0.1-0.3-0.3-0.4-0.5C12.1,7.4,12,7.2,11.9,7
			c-0.1-0.2-0.1-0.4-0.2-0.6c-0.1-0.4-0.1-0.8,0-1.2c0-0.2,0.1-0.4,0.2-0.6C12,4.4,12.1,4.2,12.2,4c0.1-0.2,0.2-0.3,0.4-0.5
			c0.1-0.1,0.3-0.3,0.5-0.4c0.2-0.1,0.4-0.2,0.5-0.3c0.4-0.2,0.8-0.2,1.2-0.2c0.2,0,0.4,0,0.6,0.1c0.2,0,0.4,0.1,0.6,0.2
			c0.2,0.1,0.4,0.2,0.5,0.3c0.2,0.1,0.3,0.2,0.5,0.4c0.1,0.1,0.3,0.3,0.4,0.5c0.1,0.2,0.2,0.4,0.3,0.6c0.1,0.2,0.1,0.4,0.2,0.6
			C17.9,5.4,18,5.6,18,5.8z"/>
	</g>
</g>
</svg>
