<?xml version="1.0" encoding="utf-8"?>
<!-- Generator: Adobe Illustrator 26.0.1, SVG Export Plug-In . SVG Version: 6.00 Build 0)  -->
<svg version="1.1" id="Layer_1" xmlns="http://www.w3.org/2000/svg" xmlns:xlink="http://www.w3.org/1999/xlink" x="0px" y="0px"
	 viewBox="0 0 32 32" style="enable-background:new 0 0 32 32;" xml:space="preserve">
<style type="text/css">
	.st0{fill:#3B2B6C;}
</style>
<path class="st0" d="M9.8,4.8C9.1,5.8,8.9,7,9.3,8.1c0.6,1.3,2.3,1.9,3.4,2.1v18.5c0,0.8,0.6,1.4,1.4,1.4c0.8,0,1.4-0.6,1.4-1.4
	V18.2h0.6v10.5c0.1,0.8,0.8,1.4,1.6,1.3c0.7-0.1,1.3-0.6,1.3-1.3V11.3c0.5,1.1,0.9,3.2,0.7,7.3c0,0.5,0.4,0.9,0.9,1l0,0
	c0.5,0,0.9-0.4,0.9-0.9c0.3-4.9-0.3-8.1-1.9-9.5c-0.4-0.4-1-0.7-1.6-0.7H18h-4.4c-0.7,0-2.3-0.4-2.6-1.1c-0.2-0.4,0.1-1.1,0.5-1.6
	L9.8,4.8z"/>
<path class="st0" d="M14.7,4.6L15,5c0.1,0.1,0.1,0.2,0.1,0.3c0.2-0.1,0.4-0.2,0.6-0.1c0.5,0.2,0.7,0.8,0.5,1.3
	c-0.1,0.5-0.6,0.9-1.1,0.8c-0.3-0.1-0.6-0.4-0.6-0.7h-0.1c-0.1,0-0.2,0.1-0.3,0.1l0,0h-0.5l0,0c0.5,0.8,1.3,1.2,2.2,1.2
	c1.4,0,2.6-1.2,2.6-2.7c0-1.4-1.2-2.6-2.7-2.6c-0.8,0-1.6,0.4-2.1,1.1l0.3,0.1C14.2,4.1,14.5,4.3,14.7,4.6z"/>
<path class="st0" d="M12.8,6.1c0.3,0.1,0.6,0.2,0.9,0.2h0.5c0.1,0,0.3,0,0.4-0.1L15,6.5l0.4-0.7l-0.5-0.3c0-0.1-0.1-0.3-0.1-0.4
	l-0.3-0.4c-0.2-0.2-0.4-0.4-0.7-0.6L9.5,1.9C9.3,1.8,9,1.9,8.9,2.1L8.3,3.2c-0.1,0.2,0,0.5,0.2,0.6L12.8,6.1z"/>
</svg>
