<?xml version="1.0" encoding="utf-8"?>
<!-- Generator: Adobe Illustrator 26.0.1, SVG Export Plug-In . SVG Version: 6.00 Build 0)  -->
<svg version="1.1" id="Layer_1" xmlns="http://www.w3.org/2000/svg" xmlns:xlink="http://www.w3.org/1999/xlink" x="0px" y="0px"
	 viewBox="0 0 32.1 32.1" style="enable-background:new 0 0 32.1 32.1;" xml:space="preserve">
<style type="text/css">
	.st0{fill:none;stroke:#FFFFFF;stroke-miterlimit:10;}
	.st1{fill:none;stroke:#FFFFFF;stroke-width:0.5;stroke-miterlimit:10;}
</style>
<path class="st0" d="M27.5,31.6c2.3,0,4.1-1.8,4.1-4.1l0,0V4.6c0-2.3-1.8-4.1-4.1-4.1c0,0,0,0,0,0H4.6c-2.3,0-4.1,1.8-4.1,4.1v22.9
	c0,2.3,1.8,4.1,4.1,4.1H27.5"/>
<polygon class="st1" points="18.5,19.4 19.1,19.4 18.1,21.3 17.9,21.3 "/>
<polygon class="st1" points="16.5,19.4 17.5,19.4 16.9,21.3 16.5,21.3 "/>
<polygon class="st1" points="14.5,19.4 15.5,19.4 15.5,21.3 15.1,21.3 "/>
<polygon class="st1" points="12.9,19.4 13.5,19.4 14.1,21.3 13.8,21.3 "/>
<polygon class="st1" points="19.2,16.6 20.5,16.6 19.5,18.5 18.7,18.5 "/>
<polygon class="st1" points="16.5,16.6 18.2,16.6 17.7,18.5 16.5,18.5 "/>
<polygon class="st1" points="13.8,16.6 15.5,16.6 15.5,18.5 14.3,18.5 "/>
<polygon class="st1" points="11.5,16.6 12.8,16.6 13.3,18.5 12.4,18.5 "/>
<path class="st1" d="M16.2,2.3l-3.2,2.9l1.2,8.1l1.3,1.1v1.2h-2l-0.4-1.4l0.6-0.8l-1.2-8.1l-3-2.2L8.3,5.6l2.9,8l1,0.7l0.4,1.3h-1.4
	l-0.5-1.1l0.2-0.7l-3-8L4.7,4.4l8.2,16.9l-0.5,3.2c-0.3,2.1,1.1,4,3.2,4.3c2,0.3,3.9-1,4.3-3c0.1-0.4,0.1-0.9,0-1.3l-0.5-3.2
	l8.2-16.9l-3.1,1.4l-3,8l0.2,0.7l-0.5,1.1h-1.4l0.4-1.3l1-0.7l2.9-8l-1.3-2.6l-3,2.2l-1.2,8.1l0.6,0.8l-0.4,1.4h-2v-1.2l1.3-1.1
	L19,5.2l-2.9-2.9"/>
</svg>
