<svg xmlns="http://www.w3.org/2000/svg" xmlns:xlink="http://www.w3.org/1999/xlink" width="40" zoomAndPan="magnify" viewBox="0 0 30 30.000001" height="40" preserveAspectRatio="xMidYMid meet" version="1.0"><defs><clipPath id="817bb5a267"><path d="M 0.484375 0 L 29.515625 0 L 29.515625 29.03125 L 0.484375 29.03125 Z M 0.484375 0 " clip-rule="nonzero"/></clipPath><clipPath id="e169341599"><path d="M 6.90625 0 L 22.148438 0 L 22.148438 28 L 6.90625 28 Z M 6.90625 0 " clip-rule="nonzero"/></clipPath></defs><g clip-path="url(#817bb5a267)"><path fill="#ffffff" d="M 0.484375 0 L 29.515625 0 L 29.515625 29.03125 L 0.484375 29.03125 Z M 0.484375 0 " fill-opacity="1" fill-rule="nonzero"/><path fill="#000000" d="M 0.484375 0 L 29.515625 0 L 29.515625 29.03125 L 0.484375 29.03125 Z M 0.484375 0 " fill-opacity="1" fill-rule="nonzero"/></g><g clip-path="url(#e169341599)"><path fill="#ffffff" d="M 9.859375 3.164062 L 9.867188 3.191406 C 10.03125 3.742188 10.441406 4.589844 10.953125 4.738281 C 11.644531 4.941406 12.257812 3.847656 12.226562 3.3125 C 12.203125 2.855469 12.15625 2.6875 12.136719 2.570312 C 12.121094 2.472656 12.28125 2.40625 12.3125 2.5625 C 12.316406 2.59375 12.332031 2.65625 12.347656 2.75 C 12.382812 2.785156 12.382812 2.765625 12.417969 2.734375 C 12.695312 2.4375 12.445312 1.875 12.414062 1.886719 C 12.339844 1.921875 12.242188 2.105469 12.195312 2.210938 C 12.152344 2.304688 11.980469 2.265625 12.046875 2.121094 C 11.941406 2.089844 11.851562 2.015625 11.773438 1.902344 C 11.527344 1.542969 11.597656 1.164062 11.453125 1.09375 C 11.382812 1.058594 11.242188 1.089844 11.171875 1.125 C 10.929688 1.269531 10.695312 1.367188 10.472656 1.410156 C 9.933594 1.523438 9.75 1.277344 9.601562 1.46875 C 9.472656 1.636719 9.515625 2.042969 9.570312 2.34375 C 9.605469 2.425781 9.640625 2.5 9.683594 2.578125 C 9.691406 2.597656 9.777344 2.988281 9.859375 3.164062 Z M 8.765625 7.886719 C 8.878906 7.878906 8.886719 8.050781 8.773438 8.058594 C 8.417969 8.078125 8.160156 8.277344 7.964844 8.582031 C 7.902344 8.675781 7.757812 8.585938 7.820312 8.488281 C 8.042969 8.136719 8.351562 7.910156 8.765625 7.886719 Z M 13.714844 16.863281 C 13.699219 16.75 13.867188 16.722656 13.886719 16.835938 C 13.972656 17.359375 14.121094 17.605469 14.332031 17.574219 C 14.335938 17.574219 14.339844 17.574219 14.339844 17.574219 C 14.347656 17.511719 14.355469 17.402344 14.390625 17.359375 L 14.511719 17.203125 C 14.699219 16.941406 14.894531 16.628906 15.089844 16.257812 C 15.019531 16.171875 14.988281 16.074219 14.996094 15.96875 C 14.96875 15.894531 14.933594 15.828125 14.882812 15.769531 C 14.78125 15.648438 14.6875 15.617188 14.65625 15.589844 C 14.5625 15.503906 14.503906 15.414062 14.472656 15.328125 C 14.445312 15.242188 14.445312 15.15625 14.476562 15.074219 C 14.480469 15.050781 14.394531 14.695312 14.335938 14.691406 C 13.925781 14.675781 13.546875 14.828125 13.199219 15.03125 C 13.128906 15.074219 12.902344 14.972656 12.644531 15.097656 C 12.378906 15.230469 12.414062 15.476562 12.300781 15.464844 C 12.257812 15.660156 12.230469 15.847656 12.21875 16.015625 C 12.21875 16.023438 12.214844 16.027344 12.214844 16.035156 C 12.109375 16.554688 12.058594 16.96875 12.054688 17.277344 C 12.054688 17.789062 12.183594 17.792969 12.210938 17.867188 C 12.347656 18.25 12.625 18.632812 12.953125 18.851562 C 12.957031 18.855469 12.960938 18.859375 12.964844 18.863281 C 13.214844 19.078125 13.421875 19.296875 13.585938 19.523438 C 13.734375 19.734375 13.890625 20.015625 13.949219 20.234375 C 14.125 20.871094 14.46875 21.386719 15.019531 21.746094 C 15.023438 21.75 15.027344 21.753906 15.03125 21.753906 L 15.039062 21.765625 C 15.273438 21.839844 15.488281 21.769531 15.699219 21.628906 C 15.9375 21.472656 16.261719 21.207031 16.375 20.984375 C 16.351562 20.921875 16.332031 20.855469 16.308594 20.792969 C 15.964844 20.105469 15.683594 19.597656 15.425781 19.21875 C 14.941406 18.515625 14.695312 18.503906 14.574219 18.339844 C 14.460938 18.1875 14.378906 18.125 14.34375 17.917969 C 14.328125 17.933594 14.304688 17.945312 14.273438 17.941406 C 13.925781 17.914062 13.703125 17.621094 13.558594 17.292969 C 13.511719 17.191406 13.667969 17.121094 13.714844 17.222656 C 13.984375 17.824219 14.265625 17.738281 14.332031 17.785156 C 14.332031 17.773438 14.332031 17.761719 14.332031 17.75 C 14.023438 17.777344 13.816406 17.480469 13.714844 16.863281 Z M 10.371094 9.476562 C 10.382812 9.363281 10.554688 9.378906 10.542969 9.492188 L 10.402344 10.84375 C 10.390625 10.957031 10.21875 10.9375 10.230469 10.824219 Z M 9.691406 9.964844 C 9.699219 9.851562 9.871094 9.867188 9.863281 9.980469 L 9.746094 11.34375 C 9.738281 11.460938 9.566406 11.445312 9.574219 11.332031 Z M 8.597656 9.882812 L 8.683594 9.539062 C 8.726562 9.339844 8.761719 9.164062 8.785156 9.019531 C 8.8125 8.828125 8.96875 8.265625 9 8.160156 C 9.074219 7.925781 9.152344 7.746094 9.226562 7.621094 C 9.25 7.578125 9.292969 7.570312 9.324219 7.582031 C 9.433594 6.722656 9.285156 5.53125 8.734375 4.988281 C 8.554688 5.136719 8.351562 5.289062 8.160156 5.402344 C 7.546875 5.761719 7.382812 6.398438 7.40625 7.117188 C 7.410156 7.324219 7.386719 7.640625 7.367188 7.792969 C 7.34375 7.988281 7.308594 8.160156 7.257812 8.308594 C 7.195312 8.59375 7.15625 8.851562 7.140625 9.078125 C 7.121094 9.304688 7.125 9.503906 7.152344 9.671875 L 7.128906 10.230469 C 7.117188 10.378906 7.101562 10.503906 7.082031 10.605469 C 7.089844 11.050781 7.136719 11.398438 7.222656 11.640625 C 7.304688 11.867188 7.414062 12 7.554688 12.039062 C 7.5625 12.042969 7.570312 12.042969 7.574219 12.046875 C 7.933594 12.21875 8.257812 12.355469 8.550781 12.460938 C 8.839844 12.5625 9.09375 12.628906 9.3125 12.664062 L 9.878906 12.878906 C 9.964844 12.910156 10.042969 12.9375 10.113281 12.960938 C 10.089844 12.859375 10.105469 12.738281 10.136719 12.617188 C 10.171875 12.507812 10.335938 12.558594 10.304688 12.667969 C 10.222656 12.953125 10.332031 12.9375 10.316406 13.015625 C 10.457031 13.046875 10.550781 13.054688 10.597656 13.03125 C 10.636719 13.019531 10.761719 13.019531 10.8125 12.929688 L 10.699219 12.90625 C 10.589844 12.886719 10.625 12.714844 10.734375 12.738281 L 11.496094 12.890625 C 11.691406 12.921875 11.6875 12.867188 11.695312 12.914062 C 11.695312 12.902344 11.699219 12.894531 11.699219 12.886719 C 11.6875 12.90625 11.695312 12.875 11.539062 12.84375 L 11.027344 12.65625 C 10.957031 12.613281 10.859375 12.621094 10.789062 12.613281 C 10.710938 12.621094 10.609375 12.578125 10.613281 12.488281 C 10.621094 12.402344 10.710938 12.367188 10.808594 12.371094 C 11.21875 12.347656 11.511719 12.558594 11.878906 12.699219 C 11.984375 12.738281 12.023438 12.640625 11.878906 12.597656 L 11.363281 12.292969 C 11.210938 12.183594 11.1875 12.164062 11.007812 12.171875 C 10.714844 12.191406 10.734375 12.007812 10.832031 11.960938 C 10.875 11.941406 10.933594 11.9375 11.035156 11.949219 C 11.257812 11.96875 11.445312 12.003906 11.621094 12.101562 L 11.972656 12.28125 C 12.15625 12.382812 12.117188 12.21875 12.03125 12.164062 L 11.539062 11.871094 C 11.421875 11.796875 11.285156 11.71875 11.148438 11.738281 C 10.890625 11.773438 10.847656 11.492188 11.15625 11.515625 C 11.605469 11.542969 11.8125 11.792969 11.960938 11.808594 C 12.0625 11.820312 11.984375 11.683594 11.867188 11.617188 L 11.496094 11.402344 C 11.363281 11.328125 11.28125 11.355469 11.171875 11.367188 L 10.777344 11.433594 C 10.582031 11.476562 10.441406 11.699219 10.386719 11.898438 L 10.269531 12.320312 C 10.238281 12.429688 10.070312 12.378906 10.105469 12.269531 L 10.183594 11.972656 C 9.960938 11.894531 9.730469 11.769531 9.519531 11.628906 L 9.363281 11.492188 C 9.039062 11.21875 8.753906 11.015625 8.507812 10.886719 C 8.382812 10.828125 8.363281 10.804688 8.21875 10.757812 C 8.109375 10.722656 8.164062 10.558594 8.269531 10.59375 C 8.304688 10.605469 8.339844 10.617188 8.375 10.632812 C 8.375 10.617188 8.375 10.601562 8.378906 10.585938 C 8.386719 10.488281 8.425781 10.378906 8.5 10.253906 C 8.53125 10.128906 8.566406 10.007812 8.597656 9.882812 Z M 8.773438 9.878906 L 8.777344 9.894531 L 8.773438 9.875 L 8.769531 9.878906 Z M 9.078125 10.238281 C 9.082031 10.246094 9.082031 10.253906 9.085938 10.257812 C 9.222656 10.65625 9.359375 11.039062 9.5 11.386719 C 9.539062 11.417969 9.578125 11.453125 9.617188 11.488281 C 9.75 11.589844 10.074219 11.753906 10.234375 11.808594 C 10.316406 11.558594 10.5 11.308594 10.75 11.265625 C 11.464844 11.140625 11.328125 11.109375 11.953125 11.464844 C 12.238281 11.640625 12.234375 11.921875 12.042969 11.972656 L 12.125 12.019531 C 12.378906 12.171875 12.289062 12.507812 12.046875 12.484375 C 12.066406 12.5 12.082031 12.511719 12.09375 12.53125 C 12.191406 12.644531 12.160156 12.941406 11.871094 12.875 L 11.855469 12.980469 C 12.128906 12.871094 12.414062 12.722656 12.714844 12.527344 C 12.71875 12.523438 12.722656 12.523438 12.726562 12.519531 C 13.011719 12.367188 13.335938 12.148438 13.699219 11.863281 C 14.058594 11.578125 14.460938 11.226562 14.898438 10.808594 C 14.898438 10.808594 14.898438 10.804688 14.902344 10.804688 C 15.199219 10.335938 15.15625 9.585938 14.769531 8.558594 C 14.746094 8.617188 14.714844 8.675781 14.679688 8.734375 C 14.625 8.832031 14.476562 8.746094 14.53125 8.648438 C 14.609375 8.515625 14.726562 8.25 14.667969 8.085938 C 14.585938 7.828125 14.589844 7.605469 14.695312 7.351562 C 14.214844 6.890625 14.011719 6.175781 13.921875 5.5 C 13.847656 4.917969 13.757812 4.476562 13.53125 3.945312 C 13.527344 3.941406 13.527344 3.9375 13.527344 3.929688 C 13.5 3.808594 12.902344 3.738281 12.511719 3.707031 C 13.082031 5.617188 12.171875 5.398438 11.988281 6.292969 C 11.964844 6.398438 11.910156 6.433594 11.824219 6.417969 C 11.636719 6.378906 11.261719 5.835938 10.855469 5.695312 C 10.683594 5.644531 10.527344 5.546875 10.375 5.367188 C 10.230469 5.195312 10.09375 4.945312 9.949219 4.582031 C 9.871094 4.398438 9.828125 4.261719 9.839844 4.0625 C 9.308594 4.496094 8.996094 4.761719 8.863281 4.875 C 9.699219 5.714844 9.734375 8.019531 9.058594 8.796875 C 9.039062 8.824219 9.015625 8.847656 8.992188 8.867188 C 8.980469 8.925781 8.96875 8.984375 8.953125 9.046875 C 8.933594 9.191406 8.898438 9.367188 8.851562 9.566406 C 8.925781 9.792969 9 10.015625 9.078125 10.238281 Z M 8.933594 10.347656 C 8.839844 10.308594 8.765625 10.226562 8.707031 10.128906 L 8.652344 10.332031 C 8.578125 10.457031 8.5 10.632812 8.589844 10.734375 C 8.78125 10.835938 8.992188 10.976562 9.226562 11.160156 C 9.128906 10.902344 9.03125 10.628906 8.933594 10.347656 Z M 9.464844 8.644531 C 9.476562 8.535156 9.648438 8.550781 9.636719 8.664062 L 9.441406 10.570312 C 9.429688 10.683594 9.257812 10.667969 9.269531 10.554688 Z M 7.449219 10.605469 C 7.359375 10.671875 7.257812 10.535156 7.347656 10.46875 C 7.492188 10.359375 7.65625 10.300781 7.835938 10.292969 C 8.015625 10.285156 8.183594 10.328125 8.339844 10.417969 C 8.4375 10.480469 8.347656 10.625 8.25 10.566406 C 7.976562 10.402344 7.707031 10.414062 7.449219 10.605469 Z M 14.597656 9.09375 C 14.574219 8.984375 14.742188 8.945312 14.765625 9.054688 C 14.847656 9.414062 14.9375 9.945312 14.734375 10.179688 C 14.660156 10.265625 14.527344 10.15625 14.601562 10.070312 C 14.753906 9.894531 14.664062 9.382812 14.597656 9.09375 Z M 14.382812 10.5 C 14.445312 10.40625 14.589844 10.507812 14.523438 10.597656 C 14.039062 11.285156 13.46875 11.9375 12.816406 12.367188 C 12.722656 12.429688 12.628906 12.285156 12.722656 12.222656 C 13.355469 11.804688 13.910156 11.167969 14.382812 10.5 Z M 14.277344 9.441406 C 14.3125 9.335938 14.476562 9.390625 14.441406 9.5 C 14.105469 10.488281 13.589844 11.445312 12.773438 11.972656 C 12.679688 12.035156 12.585938 11.890625 12.679688 11.828125 C 13.460938 11.320312 13.953125 10.394531 14.277344 9.441406 Z M 11.554688 15.148438 C 11.613281 15.054688 11.761719 15.144531 11.699219 15.242188 C 11.535156 15.492188 11.371094 15.695312 11.203125 15.851562 C 11.121094 15.925781 11.003906 15.800781 11.085938 15.722656 C 11.246094 15.578125 11.398438 15.386719 11.554688 15.148438 Z M 15.746094 14.179688 C 15.835938 14.113281 15.941406 14.25 15.847656 14.320312 C 15.554688 14.539062 15.25 14.535156 14.964844 14.296875 C 14.878906 14.222656 14.992188 14.09375 15.078125 14.164062 C 15.300781 14.351562 15.511719 14.355469 15.746094 14.179688 Z M 15.691406 14.945312 C 15.757812 14.949219 15.78125 15.011719 15.765625 15.058594 C 15.835938 14.96875 15.78125 14.882812 15.777344 14.859375 C 15.765625 14.722656 15.769531 14.636719 15.828125 14.519531 C 15.980469 14.183594 16.058594 13.824219 16.0625 13.4375 C 16.066406 13.046875 15.992188 12.632812 15.839844 12.191406 C 15.765625 12.089844 15.710938 11.945312 15.667969 11.757812 C 15.636719 11.613281 15.59375 11.28125 15.59375 11.046875 C 15.59375 10.945312 15.535156 10.890625 15.417969 10.878906 C 15.414062 10.917969 15.402344 10.960938 15.375 11 L 15.375 10.996094 C 15.339844 11.058594 15.269531 11.109375 15.175781 11.144531 C 15.160156 11.148438 15.148438 11.152344 15.128906 11.15625 C 14.746094 11.257812 14.234375 11.808594 13.921875 12.210938 C 14.46875 12.128906 14.679688 11.695312 15.375 11.609375 C 15.488281 11.59375 15.507812 11.765625 15.398438 11.78125 C 14.710938 11.867188 14.519531 12.34375 13.84375 12.394531 C 13.816406 12.398438 13.796875 12.390625 13.78125 12.375 C 13.640625 12.53125 13.304688 12.871094 12.871094 13.226562 C 12.914062 13.242188 12.945312 13.296875 12.910156 13.347656 C 12.710938 13.667969 12.554688 14.027344 12.5625 14.375 C 12.566406 14.414062 12.546875 14.4375 12.523438 14.453125 C 12.546875 14.472656 12.558594 14.503906 12.546875 14.539062 C 12.492188 14.707031 12.441406 14.886719 12.394531 15.066406 C 12.675781 14.789062 13.09375 14.878906 13.136719 14.867188 C 13.175781 14.859375 13.695312 14.496094 14.34375 14.519531 C 14.546875 14.527344 14.617188 14.871094 14.652344 15.066406 C 14.664062 15.125 14.601562 15.160156 14.636719 15.273438 C 14.65625 15.332031 14.699219 15.394531 14.769531 15.457031 C 14.867188 15.511719 14.949219 15.578125 15.015625 15.65625 C 15.066406 15.71875 15.175781 15.890625 15.167969 15.964844 C 15.15625 16.125 15.273438 16.226562 15.421875 16.300781 C 15.476562 16.277344 15.53125 16.261719 15.585938 16.257812 C 15.53125 16.167969 15.429688 16.109375 15.414062 16.085938 C 15.378906 16.039062 15.386719 16 15.433594 15.964844 C 15.519531 15.902344 15.523438 15.683594 15.507812 15.617188 C 15.476562 15.550781 15.46875 15.480469 15.484375 15.40625 C 15.5 15.351562 15.570312 15.179688 15.632812 15.152344 C 15.65625 15.140625 15.679688 15.128906 15.703125 15.117188 C 15.695312 15.117188 15.6875 15.117188 15.679688 15.117188 C 15.238281 15.089844 14.835938 14.933594 14.738281 14.507812 C 14.710938 14.394531 14.878906 14.355469 14.90625 14.46875 C 14.988281 14.8125 15.328125 14.921875 15.691406 14.945312 Z M 12.90625 13.800781 C 12.800781 13.839844 12.742188 13.675781 12.847656 13.636719 C 13.425781 13.417969 13.980469 13.429688 14.453125 13.8125 C 14.539062 13.886719 14.429688 14.019531 14.34375 13.949219 C 13.921875 13.601562 13.425781 13.601562 12.90625 13.800781 Z M 9.898438 13.699219 L 9.902344 13.46875 C 9.894531 13.445312 9.773438 13.3125 9.753906 13.015625 C 9.609375 12.964844 9.453125 12.902344 9.277344 12.832031 C 9.050781 12.796875 8.789062 12.726562 8.492188 12.621094 C 8.199219 12.519531 7.867188 12.378906 7.503906 12.203125 C 7.308594 12.144531 7.160156 11.976562 7.0625 11.699219 C 6.96875 11.4375 6.917969 11.070312 6.910156 10.605469 L 6.957031 10.214844 C 6.96875 10.066406 6.976562 9.890625 6.980469 9.691406 C 6.953125 9.507812 6.949219 9.300781 6.96875 9.066406 C 6.984375 8.828125 7.027344 8.5625 7.089844 8.273438 C 7.089844 8.269531 7.089844 8.265625 7.09375 8.261719 C 7.191406 7.960938 7.242188 7.476562 7.234375 7.125 C 7.210938 6.320312 7.398438 5.664062 8.074219 5.25 C 8.320312 5.101562 8.457031 4.996094 8.679688 4.804688 C 8.710938 4.78125 9.089844 4.449219 9.90625 3.789062 C 9.851562 3.664062 9.800781 3.539062 9.757812 3.410156 C 9.644531 3.378906 9.554688 3.144531 9.511719 3.058594 C 9.421875 2.875 9.316406 2.601562 9.429688 2.457031 C 9.253906 2.066406 9.167969 1.628906 9.304688 1.234375 C 9.617188 0.359375 10.300781 0.0117188 11.355469 0.1875 C 11.65625 0.238281 11.929688 0.4375 12.105469 0.703125 C 12.273438 0.957031 12.382812 1.292969 12.441406 1.714844 C 12.515625 1.722656 12.574219 1.785156 12.605469 1.863281 C 12.753906 2.222656 12.78125 2.578125 12.542969 2.847656 C 12.488281 2.910156 12.429688 2.945312 12.371094 2.941406 C 12.386719 3.082031 12.414062 3.316406 12.390625 3.480469 C 12.417969 3.484375 12.441406 3.503906 12.457031 3.527344 C 12.828125 3.554688 13.46875 3.605469 13.644531 3.804688 C 14.714844 3.386719 15.871094 4.25 15.746094 5.40625 C 16.019531 5.53125 16.160156 5.800781 16.308594 6.089844 C 16.46875 6.40625 16.945312 6.023438 17.984375 7.148438 C 18.414062 7.085938 18.859375 7.148438 19.257812 7.339844 L 19.292969 7.359375 C 19.746094 7.152344 19.859375 7.464844 19.707031 7.632812 C 20.082031 7.949219 20.234375 8.300781 20.246094 8.3125 C 20.363281 8.371094 20.453125 8.449219 20.519531 8.546875 C 20.597656 8.65625 20.707031 8.941406 20.609375 9.0625 C 20.710938 9.273438 20.761719 9.511719 20.695312 9.734375 C 20.65625 9.871094 20.511719 9.921875 20.398438 9.878906 C 20.300781 10.226562 20.121094 10.535156 19.871094 10.796875 C 19.023438 11.675781 17.648438 11.660156 16.808594 10.851562 C 16.105469 10.171875 15.941406 9.101562 16.414062 8.246094 L 15.707031 7.886719 C 15.410156 7.808594 15.105469 7.449219 14.792969 6.816406 C 14.785156 6.808594 14.722656 6.785156 14.652344 6.714844 C 14.636719 6.8125 14.636719 6.921875 14.652344 7.046875 C 14.714844 7.125 14.78125 7.199219 14.855469 7.265625 C 14.941406 7.34375 14.804688 7.417969 14.785156 7.707031 C 14.769531 7.976562 14.882812 8.027344 14.847656 8.285156 C 15.285156 9.363281 15.382812 10.179688 15.136719 10.730469 C 15.554688 10.644531 15.765625 10.75 15.765625 11.042969 C 15.769531 11.375 15.824219 11.886719 15.988281 12.101562 C 15.992188 12.109375 15.996094 12.117188 16 12.125 C 16.289062 12.96875 16.34375 13.816406 15.980469 14.597656 C 15.875 14.828125 16.042969 14.890625 15.941406 15.101562 C 15.902344 15.183594 15.828125 15.25 15.722656 15.300781 C 15.695312 15.324219 15.621094 15.460938 15.667969 15.554688 C 15.707031 15.625 15.691406 15.902344 15.609375 16.027344 C 15.78125 16.179688 15.855469 16.390625 15.734375 16.582031 C 15.910156 16.773438 16.015625 16.984375 15.941406 17.191406 C 16.328125 17.828125 16.683594 18.476562 17.015625 19.140625 C 17.050781 19.183594 17.078125 19.230469 17.089844 19.277344 C 17.101562 19.320312 17.101562 19.363281 17.09375 19.40625 C 17.128906 19.503906 17.175781 19.585938 17.234375 19.652344 C 17.347656 19.769531 17.414062 19.773438 17.488281 19.816406 C 17.742188 19.964844 17.949219 20.128906 18.109375 20.3125 C 18.265625 20.496094 18.375 20.699219 18.441406 20.917969 L 19.179688 21.980469 C 19.394531 21.933594 19.601562 22.039062 19.765625 22.207031 L 20.277344 22.730469 C 20.574219 22.519531 20.921875 22.585938 21.25 22.765625 C 21.257812 22.769531 21.261719 22.773438 21.265625 22.777344 C 21.871094 23.289062 21.917969 23.882812 21.632812 24.625 C 21.570312 24.789062 21.527344 25.011719 21.699219 25.121094 C 21.707031 25.125 21.710938 25.128906 21.71875 25.136719 C 22.152344 25.535156 22.410156 26.089844 22.445312 26.59375 C 22.492188 27.320312 22.082031 27.863281 21.289062 27.914062 C 20.855469 27.945312 20.570312 27.417969 20.441406 27.089844 C 20.351562 26.878906 20.285156 26.671875 20.238281 26.472656 C 20.191406 26.277344 20.167969 26.089844 20.160156 25.90625 C 20.105469 25.667969 20.039062 25.464844 19.957031 25.292969 C 19.878906 25.125 19.789062 24.988281 19.683594 24.878906 C 19.554688 24.8125 19.476562 24.738281 19.449219 24.65625 C 19.417969 24.574219 19.4375 24.496094 19.496094 24.421875 C 19.273438 24.050781 18.957031 23.632812 18.613281 23.375 C 18.570312 23.355469 18.515625 23.300781 18.414062 23.25 C 17.929688 23.007812 17.546875 22.765625 17.171875 22.386719 C 17.328125 22.671875 17.503906 22.980469 17.582031 23.101562 L 17.707031 23.332031 C 17.761719 23.417969 17.828125 23.515625 17.90625 23.625 C 17.960938 23.683594 18.003906 23.691406 18.082031 23.832031 C 18.128906 23.914062 18.152344 24 18.160156 24.097656 C 18.160156 24.175781 18.179688 24.285156 18.253906 24.320312 C 18.363281 24.351562 18.464844 24.4375 18.554688 24.574219 C 18.636719 24.695312 18.710938 24.859375 18.78125 25.066406 C 19.601562 25.277344 19.027344 25.976562 19.023438 25.988281 C 19.03125 26.136719 18.980469 26.277344 18.875 26.40625 C 18.867188 26.410156 18.863281 26.417969 18.855469 26.425781 C 18.617188 26.695312 18.308594 26.777344 17.988281 26.925781 C 17.644531 27.085938 17.074219 27.46875 16.765625 27.226562 C 16.644531 27.144531 16.59375 26.917969 16.597656 26.75 C 16.601562 26.597656 16.640625 26.421875 16.710938 26.21875 C 16.652344 25.953125 16.601562 25.6875 16.558594 25.417969 C 16.398438 25.261719 16.300781 25.027344 16.273438 24.707031 C 16.269531 24.644531 16.429688 24.417969 16.132812 23.984375 C 16.0625 24.007812 15.996094 23.957031 15.933594 23.828125 C 15.886719 23.726562 15.835938 23.550781 15.789062 23.300781 C 15.730469 23.179688 15.675781 23.03125 15.617188 22.847656 C 15.550781 22.671875 15.539062 22.613281 15.382812 22.402344 C 15.316406 22.308594 15.046875 21.988281 14.917969 21.886719 C 14.632812 21.699219 14.398438 21.46875 14.210938 21.203125 C 13.746094 20.546875 13.902344 20.253906 13.445312 19.625 C 13.289062 19.410156 13.09375 19.199219 12.851562 18.992188 C 12.679688 18.875 12.527344 18.726562 12.390625 18.546875 C 12.261719 18.375 12.148438 18.171875 12.054688 17.941406 C 11.960938 17.847656 11.90625 17.683594 11.890625 17.453125 C 11.476562 17.101562 11.21875 16.726562 10.976562 16.230469 C 10.953125 16.183594 10.980469 16.105469 10.902344 15.984375 C 10.765625 15.765625 10.585938 15.855469 10.503906 15.609375 C 10.472656 15.523438 10.472656 15.421875 10.492188 15.296875 C 10.3125 15.210938 10.246094 15.003906 10.226562 14.789062 C 10.085938 14.628906 10.023438 14.4375 10.0625 14.214844 C 9.9375 14.101562 9.90625 13.875 9.898438 13.699219 Z M 10.070312 13.632812 C 10.96875 14.136719 11.972656 13.746094 12.804688 13.054688 C 13.476562 12.496094 13.75 12.148438 13.769531 12.128906 L 14.027344 11.820312 C 13.953125 11.882812 13.878906 11.941406 13.804688 12 C 13.433594 12.292969 13.101562 12.515625 12.808594 12.671875 C 12.238281 13.042969 11.710938 13.257812 11.222656 13.328125 C 10.757812 13.390625 10.328125 13.316406 9.9375 13.105469 C 9.976562 13.324219 10.078125 13.382812 10.074219 13.449219 C 10.070312 13.511719 10.070312 13.570312 10.070312 13.632812 Z M 14.863281 11.078125 C 14.996094 11.011719 15.011719 11.015625 15.121094 10.980469 C 15.175781 10.960938 15.214844 10.933594 15.230469 10.90625 C 15.234375 10.898438 15.238281 10.894531 15.242188 10.886719 C 15.171875 10.898438 15.097656 10.914062 15.011719 10.9375 C 14.960938 10.984375 14.914062 11.03125 14.863281 11.078125 Z M 12.707031 13.351562 C 11.890625 13.960938 10.949219 14.261719 10.085938 13.835938 C 10.105469 13.980469 10.148438 14.105469 10.234375 14.117188 C 10.339844 14.132812 10.324219 14.289062 10.226562 14.289062 C 10.207031 14.492188 10.304688 14.648438 10.453125 14.769531 C 10.488281 14.796875 10.492188 14.835938 10.476562 14.871094 C 10.492188 14.871094 10.507812 14.878906 10.523438 14.894531 C 10.824219 15.210938 11.535156 14.316406 11.828125 13.925781 C 11.894531 13.835938 12.03125 13.9375 11.964844 14.027344 C 11.625 14.480469 10.957031 15.328125 10.511719 15.097656 C 10.539062 15.128906 10.574219 15.148438 10.613281 15.15625 C 10.757812 15.191406 10.605469 15.371094 10.667969 15.554688 C 10.714844 15.695312 10.882812 15.632812 11.050781 15.890625 C 11.101562 15.972656 11.132812 16.066406 11.136719 16.171875 C 11.246094 16.402344 11.375 16.617188 11.523438 16.8125 C 11.632812 16.957031 11.753906 17.09375 11.886719 17.21875 C 11.890625 16.90625 11.945312 16.5 12.046875 16 C 12.058594 15.8125 12.09375 15.59375 12.148438 15.339844 C 12.207031 15.089844 12.28125 14.804688 12.378906 14.488281 C 12.386719 14.464844 12.398438 14.449219 12.414062 14.441406 C 12.402344 14.425781 12.394531 14.40625 12.390625 14.382812 C 12.382812 14.03125 12.515625 13.675781 12.707031 13.351562 Z M 15.476562 12.609375 C 15.566406 12.539062 15.667969 12.679688 15.578125 12.746094 C 15.34375 12.925781 14.941406 12.847656 14.628906 12.753906 C 14.519531 12.722656 14.566406 12.558594 14.675781 12.589844 C 14.925781 12.664062 15.296875 12.746094 15.476562 12.609375 Z M 13.4375 13.203125 C 13.328125 13.226562 13.289062 13.058594 13.398438 13.035156 C 14.058594 12.878906 14.574219 12.953125 14.953125 13.253906 C 15.101562 13.359375 15.304688 13.382812 15.476562 13.324219 C 15.585938 13.289062 15.640625 13.453125 15.535156 13.488281 C 15.292969 13.570312 15.078125 13.527344 14.859375 13.398438 C 14.855469 13.398438 14.851562 13.394531 14.847656 13.390625 C 14.515625 13.121094 14.046875 13.058594 13.4375 13.203125 Z M 12.15625 14.492188 C 12.210938 14.390625 12.363281 14.472656 12.308594 14.574219 C 12.039062 15.070312 11.664062 15.824219 11.632812 16.265625 C 11.628906 16.378906 11.457031 16.367188 11.460938 16.253906 C 11.492188 15.785156 11.875 15.015625 12.15625 14.492188 Z M 15.765625 22.742188 C 16.082031 22.8125 16.941406 22.390625 16.847656 22.148438 C 16.714844 21.886719 16.648438 21.71875 16.5 21.320312 C 16.480469 21.277344 16.464844 21.234375 16.449219 21.191406 C 16.289062 21.410156 16.023438 21.613281 15.792969 21.773438 C 15.625 21.894531 15.433594 21.964844 15.242188 21.964844 C 15.46875 22.203125 15.671875 22.472656 15.765625 22.742188 Z M 16.964844 22.371094 C 16.78125 22.667969 16.140625 22.941406 15.824219 22.921875 C 15.863281 23.042969 15.90625 23.148438 15.949219 23.234375 C 15.96875 23.269531 16.011719 23.585938 16.089844 23.757812 C 16.101562 23.78125 16.082031 23.816406 16.09375 23.808594 C 16.175781 23.71875 16.25 23.847656 16.285156 23.898438 C 16.355469 23.695312 16.503906 23.554688 16.765625 23.582031 C 16.878906 23.59375 17.011719 23.636719 17.164062 23.714844 C 17.398438 23.785156 17.578125 23.820312 17.695312 23.8125 C 17.753906 23.808594 17.789062 23.792969 17.808594 23.769531 C 17.765625 23.734375 17.601562 23.484375 17.558594 23.421875 C 17.503906 23.332031 17.460938 23.253906 17.433594 23.1875 C 17.292969 22.949219 17.164062 22.726562 17.050781 22.519531 C 17.023438 22.46875 16.996094 22.421875 16.964844 22.371094 Z M 19.316406 22.183594 C 19.542969 22.644531 19.296875 23.183594 18.835938 23.339844 C 19.152344 23.609375 19.40625 23.941406 19.640625 24.324219 C 19.914062 24.222656 20.078125 24.285156 20.269531 24.277344 C 20.648438 24.261719 20.972656 24.097656 20.824219 23.722656 C 20.769531 23.582031 20.644531 23.429688 20.464844 23.304688 C 20.304688 23.234375 20.203125 23.160156 20.152344 23.082031 C 20.101562 23 20.101562 22.921875 20.152344 22.847656 L 19.644531 22.328125 C 19.539062 22.222656 19.421875 22.144531 19.292969 22.140625 Z M 18.664062 23.203125 C 19.101562 23.140625 19.363281 22.660156 19.160156 22.253906 L 18.792969 21.722656 C 18.777344 22.101562 18.597656 22.402344 18.324219 22.703125 C 18.246094 22.789062 18.15625 22.839844 18.054688 22.863281 C 18.195312 22.945312 18.339844 23.027344 18.488281 23.097656 C 18.542969 23.125 18.601562 23.160156 18.664062 23.203125 Z M 20.300781 22.941406 C 20.246094 23.03125 20.515625 23.128906 20.558594 23.160156 C 21.324219 23.695312 21.148438 24.519531 20.121094 24.445312 C 19.988281 24.433594 19.839844 24.421875 19.65625 24.503906 C 19.605469 24.5625 19.542969 24.613281 19.773438 24.734375 C 19.863281 24.777344 20.046875 25.078125 20.113281 25.21875 C 20.199219 25.40625 20.273438 25.625 20.332031 25.875 C 20.332031 25.882812 20.332031 25.886719 20.332031 25.890625 C 20.34375 26.269531 20.449219 26.65625 20.601562 27.023438 C 20.675781 27.195312 20.785156 27.425781 20.933594 27.582031 C 21.351562 27.746094 21.84375 27.503906 21.9375 27.144531 C 22.101562 26.519531 21.796875 25.75 21.464844 25.125 C 21.410156 25.027344 21.414062 24.964844 21.410156 24.953125 C 21.269531 24.746094 21.207031 24.347656 21.199219 24.066406 L 21.199219 24.058594 C 21.210938 23.417969 20.921875 23.070312 20.300781 22.941406 Z M 21.863281 25.554688 C 22.09375 26.097656 22.238281 26.679688 22.105469 27.1875 C 22.066406 27.328125 21.988281 27.449219 21.878906 27.550781 C 22.164062 27.351562 22.300781 27.015625 22.273438 26.605469 C 22.25 26.253906 22.105469 25.875 21.863281 25.554688 Z M 20.488281 22.808594 C 20.757812 22.890625 20.96875 23.015625 21.117188 23.195312 C 21.300781 23.414062 21.386719 23.699219 21.375 24.058594 C 21.375 24.210938 21.402344 24.433594 21.449219 24.613281 C 21.457031 24.597656 21.464844 24.578125 21.46875 24.5625 C 21.613281 24.207031 21.660156 23.890625 21.605469 23.613281 C 21.554688 23.34375 21.40625 23.113281 21.160156 22.914062 C 20.984375 22.820312 20.828125 22.769531 20.6875 22.773438 C 20.605469 22.773438 20.539062 22.789062 20.488281 22.808594 Z M 18.207031 26.644531 C 17.972656 26.691406 17.730469 26.710938 17.496094 26.679688 C 17.210938 26.644531 16.953125 26.835938 16.902344 27.109375 C 17.132812 27.21875 17.691406 26.875 17.914062 26.769531 C 18.011719 26.726562 18.113281 26.683594 18.207031 26.644531 Z M 16.785156 26.917969 C 16.90625 26.644531 17.199219 26.46875 17.515625 26.507812 C 17.925781 26.558594 18.347656 26.460938 18.746094 26.289062 C 18.910156 26.089844 18.816406 25.980469 18.867188 25.910156 C 19.085938 25.621094 19.160156 25.34375 18.785156 25.25 C 18.714844 25.976562 18.210938 26.425781 17.441406 26.375 C 17.109375 26.351562 16.878906 26.511719 16.773438 26.820312 C 16.773438 26.855469 16.777344 26.886719 16.785156 26.917969 Z M 16.835938 26.398438 C 16.992188 26.257812 17.203125 26.183594 17.453125 26.203125 C 18.167969 26.25 18.597656 25.824219 18.621094 25.121094 C 18.546875 24.886719 18.382812 24.53125 18.195312 24.480469 C 18.132812 24.464844 18.054688 24.371094 18.027344 24.3125 C 17.96875 24.179688 18.007812 24.046875 17.925781 23.90625 C 17.765625 24.0625 17.351562 23.949219 17.105469 23.875 C 17.035156 23.855469 16.921875 23.769531 16.75 23.753906 C 16.511719 23.726562 16.433594 23.910156 16.410156 24.128906 C 16.429688 24.179688 16.449219 24.230469 16.460938 24.28125 C 16.496094 24.429688 16.492188 24.574219 16.449219 24.710938 C 16.476562 24.988281 16.558594 25.1875 16.695312 25.308594 C 16.710938 25.320312 16.71875 25.339844 16.722656 25.359375 C 16.769531 25.644531 16.824219 25.925781 16.886719 26.207031 C 16.894531 26.238281 16.867188 26.304688 16.835938 26.398438 Z M 17.800781 22.695312 C 17.949219 22.714844 18.097656 22.703125 18.1875 22.59375 C 18.378906 22.375 18.488281 22.230469 18.566406 22.007812 C 18.628906 21.820312 18.640625 21.628906 18.59375 21.4375 L 18.277344 20.976562 C 18.222656 20.777344 18.121094 20.59375 17.976562 20.425781 C 17.832031 20.257812 17.640625 20.105469 17.40625 19.96875 C 17.289062 19.921875 17.191406 19.855469 17.109375 19.765625 C 17.027344 19.675781 16.964844 19.566406 16.921875 19.433594 C 16.90625 19.386719 16.9375 19.375 16.921875 19.324219 C 16.910156 19.273438 16.878906 19.246094 16.867188 19.222656 C 16.546875 18.585938 16.207031 17.964844 15.835938 17.355469 C 15.8125 17.386719 15.171875 17.699219 15.046875 17.84375 C 14.949219 17.964844 14.945312 18.121094 14.773438 18.296875 C 15.464844 18.742188 16.003906 19.792969 16.464844 20.71875 L 16.8125 21.648438 C 16.996094 21.949219 17.226562 22.222656 17.503906 22.460938 C 17.601562 22.542969 17.699219 22.621094 17.800781 22.695312 Z M 14.65625 18.167969 C 14.816406 18 14.773438 17.902344 14.917969 17.734375 C 15.03125 17.597656 15.300781 17.460938 15.457031 17.375 C 15.542969 17.324219 15.628906 17.277344 15.71875 17.230469 C 15.78125 17.15625 15.804688 17.078125 15.785156 16.992188 C 15.765625 16.910156 15.710938 16.816406 15.621094 16.714844 C 15.339844 17.003906 14.972656 17.269531 14.617188 17.347656 C 14.589844 17.386719 14.5625 17.425781 14.53125 17.460938 C 14.476562 17.777344 14.5 17.988281 14.609375 18.101562 C 14.613281 18.105469 14.632812 18.132812 14.65625 18.167969 Z M 15.613281 16.433594 C 15.546875 16.414062 15.453125 16.503906 15.386719 16.472656 C 15.324219 16.445312 15.269531 16.414062 15.21875 16.378906 C 15.074219 16.65625 14.925781 16.898438 14.785156 17.113281 C 15.042969 17.003906 15.34375 16.765625 15.554688 16.53125 C 15.585938 16.496094 15.601562 16.464844 15.613281 16.433594 Z M 20.261719 9.714844 C 20.261719 9.707031 20.265625 9.695312 20.265625 9.691406 C 20.308594 9.550781 20.320312 9.167969 20.285156 9.007812 C 20.261719 8.886719 20.257812 8.828125 20.214844 8.695312 C 20.011719 8.085938 19.066406 8.230469 18.375 7.921875 C 18.3125 8 18.253906 8.078125 18.199219 8.160156 C 19.058594 8.621094 19.917969 9.257812 20.121094 10.128906 C 20.183594 9.996094 20.230469 9.859375 20.261719 9.714844 Z M 20.4375 9.707031 C 20.464844 9.734375 20.523438 9.726562 20.53125 9.683594 C 20.574219 9.515625 20.546875 9.347656 20.476562 9.1875 C 20.484375 9.363281 20.472656 9.535156 20.4375 9.707031 Z M 20.453125 8.953125 L 20.476562 8.953125 C 20.484375 8.9375 20.453125 8.753906 20.382812 8.648438 Z M 19.261719 7.539062 L 19.191406 7.5 C 18.96875 7.398438 18.710938 7.5625 18.496094 7.785156 C 18.960938 7.976562 19.558594 7.972656 19.964844 8.175781 C 19.785156 7.90625 19.550781 7.695312 19.261719 7.539062 Z M 19.566406 7.523438 C 19.621094 7.488281 19.617188 7.4375 19.492188 7.472656 C 19.515625 7.488281 19.542969 7.507812 19.566406 7.523438 Z M 16.113281 6.808594 C 16.15625 6.738281 16.246094 6.765625 16.269531 6.824219 C 16.363281 6.527344 16.28125 6.414062 16.351562 6.359375 C 16.265625 6.316406 16.191406 6.25 16.152344 6.164062 C 16.042969 5.929688 15.859375 5.617188 15.644531 5.550781 C 15.652344 5.570312 15.65625 5.59375 15.648438 5.621094 C 15.5625 5.863281 15.40625 6.046875 15.175781 6.160156 C 15.074219 6.210938 14.996094 6.058594 15.097656 6.007812 C 15.285156 5.914062 15.417969 5.765625 15.484375 5.5625 C 15.5 5.515625 15.542969 5.5 15.578125 5.507812 C 15.570312 5.488281 15.566406 5.46875 15.566406 5.449219 C 15.726562 4.40625 14.691406 3.589844 13.722656 3.957031 C 13.929688 4.464844 14.023438 4.929688 14.09375 5.484375 C 14.152344 5.953125 14.28125 6.421875 14.472656 6.773438 C 14.496094 6.472656 14.621094 6.273438 14.855469 6.167969 C 14.960938 6.121094 15.03125 6.28125 14.925781 6.324219 C 14.832031 6.367188 14.761719 6.433594 14.714844 6.523438 C 14.8125 6.667969 14.90625 6.65625 14.933594 6.714844 C 15.230469 7.324219 15.503906 7.660156 15.757812 7.71875 L 16.503906 8.097656 C 16.808594 7.636719 17.265625 7.316406 17.785156 7.1875 C 17.433594 6.824219 17 6.492188 16.546875 6.421875 C 16.527344 6.421875 16.507812 6.417969 16.492188 6.414062 C 16.492188 6.414062 16.492188 6.417969 16.492188 6.421875 C 16.515625 6.890625 16.285156 7.332031 15.882812 7.570312 C 15.785156 7.628906 15.695312 7.480469 15.792969 7.421875 C 15.976562 7.3125 16.113281 7.164062 16.207031 6.976562 C 16.023438 7.203125 15.707031 7.289062 15.425781 7.179688 C 15.320312 7.136719 15.386719 6.976562 15.492188 7.019531 C 15.605469 7.066406 15.722656 7.070312 15.839844 7.027344 C 15.960938 6.988281 16.050781 6.914062 16.113281 6.808594 Z M 17.972656 7.324219 L 17.949219 7.328125 C 18.046875 7.5 18.179688 7.621094 18.332031 7.707031 C 18.472656 7.554688 18.628906 7.425781 18.789062 7.355469 C 18.519531 7.289062 18.246094 7.277344 17.972656 7.324219 Z M 17.179688 10.933594 C 17.003906 10.246094 17.296875 9.402344 17.695312 8.664062 C 17.015625 8.441406 16.617188 9.085938 16.367188 9.738281 C 16.480469 10.234375 16.777344 10.65625 17.179688 10.933594 Z M 17.777344 8.511719 C 17.832031 8.414062 17.890625 8.320312 17.949219 8.226562 C 17.496094 8.011719 17.019531 7.921875 16.628906 8.21875 C 16.425781 8.539062 16.308594 8.921875 16.316406 9.328125 C 16.316406 9.355469 16.320312 9.378906 16.320312 9.40625 C 16.609375 8.777344 17.074219 8.253906 17.777344 8.511719 Z M 18.042969 8.078125 C 18.097656 7.996094 18.15625 7.917969 18.21875 7.839844 C 18.039062 7.734375 17.886719 7.585938 17.777344 7.371094 C 17.433594 7.464844 17.125 7.652344 16.882812 7.898438 C 17.25 7.792969 17.652344 7.890625 18.042969 8.078125 Z M 18.105469 8.304688 C 18.046875 8.394531 17.992188 8.484375 17.941406 8.574219 C 18.304688 8.761719 18.464844 9.246094 18.5625 9.695312 C 18.734375 10.507812 18.859375 11.007812 18.910156 11.195312 C 19.359375 11.054688 19.738281 10.757812 19.988281 10.375 C 19.902344 9.449219 18.984375 8.773438 18.105469 8.304688 Z M 17.859375 8.726562 C 17.441406 9.496094 17.125 10.402344 17.410156 11.070312 C 17.703125 11.21875 18.015625 11.292969 18.347656 11.285156 C 18.480469 11.285156 18.613281 11.269531 18.742188 11.238281 C 18.695312 11.050781 18.566406 10.542969 18.390625 9.730469 C 18.3125 9.355469 18.167969 8.878906 17.859375 8.726562 Z M 9.261719 7.949219 L 9.113281 8.386719 C 9.171875 8.257812 9.222656 8.109375 9.261719 7.949219 Z M 11.582031 13.074219 C 11.546875 13.070312 11.511719 13.066406 11.472656 13.0625 L 10.984375 12.964844 C 10.949219 13.070312 10.867188 13.136719 10.761719 13.171875 C 11.035156 13.191406 11.3125 13.152344 11.582031 13.074219 Z M 11.699219 12.886719 C 11.703125 12.882812 11.699219 12.886719 11.699219 12.890625 Z M 10.019531 4.011719 C 9.988281 4.222656 10.035156 4.332031 10.109375 4.515625 C 10.300781 4.996094 10.5 5.402344 10.90625 5.53125 C 11.296875 5.660156 11.636719 6.097656 11.824219 6.230469 C 12.039062 5.285156 12.894531 5.5625 12.339844 3.730469 C 12.070312 4.632812 10.988281 5.78125 10.019531 4.011719 Z M 12.128906 1.960938 C 12.171875 1.890625 12.21875 1.824219 12.273438 1.777344 C 12.195312 1.136719 11.949219 0.476562 11.328125 0.355469 C 10.367188 0.199219 9.746094 0.507812 9.46875 1.292969 C 9.453125 1.332031 9.441406 1.375 9.433594 1.414062 C 9.507812 1.273438 9.640625 1.191406 9.863281 1.226562 C 9.867188 1.226562 9.871094 1.230469 9.875 1.230469 C 10.28125 1.34375 10.703125 1.203125 11.089844 0.976562 L 11.296875 0.914062 C 11.542969 0.875 11.679688 1.003906 11.714844 1.238281 C 11.761719 1.511719 11.882812 1.917969 12.128906 1.960938 Z M 12.128906 1.960938 " fill-opacity="1" fill-rule="nonzero"/></g></svg>