<?xml version="1.0" encoding="utf-8"?>
<!-- Generator: Adobe Illustrator 26.0.1, SVG Export Plug-In . SVG Version: 6.00 Build 0)  -->
<svg version="1.1" id="Layer_1" xmlns="http://www.w3.org/2000/svg" xmlns:xlink="http://www.w3.org/1999/xlink" x="0px" y="0px"
	 viewBox="0 0 32 32" style="enable-background:new 0 0 32 32;" xml:space="preserve">
<style type="text/css">
	.st0{fill:#FFFFFF;}
	.st1{fill:none;stroke:#FFFFFF;stroke-width:0.25;stroke-miterlimit:10;}
	.st2{fill-rule:evenodd;clip-rule:evenodd;fill:#FFFFFF;}
</style>
<path class="st0" d="M16,3.2"/>
<g>
	<path class="st1" d="M7.3,11.6l2.8-1.9c0-1.1-0.9-2-2.1-2S6,8.6,6,9.8c0,0.8,0.4,1.6,1.2,1.9L7.3,11.6z"/>
</g>
<g>
	<path class="st1" d="M11.9,11.9l-2,0.4l1.7-1.1c0.1,0,0.1-0.1,0.2-0.2l0.9-1.2L11.9,11.9z M14.1,8c-0.1,0-0.2,0-0.2,0l0.5-0.7
		c0.3-0.4,0.2-0.9-0.2-1.1l0,0c-0.4-0.3-0.9-0.2-1.1,0.2l-2.6,3.5l-3.6,2.5c-0.3,0.2-0.4,0.5-0.3,0.8l0,0c0,0,0.2,6.8,0.2,7.1
		c0,0.1,0,0.2,0.1,0.3l0,0c0,0.1,0.1,0.2,0.1,0.2l2.6,3.9l2,5.5c0.1,0.4,0.5,0.7,0.9,0.7c0.1,0,0.2,0,0.3-0.1
		c0.5-0.2,0.8-0.8,0.6-1.3l-2-5.6c0-0.1-0.1-0.1-0.1-0.2l-2.1-3.1l0.4-0.1l2.4,1.7l-0.3,1.6l1.4,3.4c0-0.1,0,0,0,0l1-5.2
		c0.1-0.4-0.1-0.8-0.4-1l-3.1-2.2l0,0v-4.9l2.2-0.4c0.3-0.1,0.5-0.2,0.6-0.5l1.2-3.9c0.1-0.4,0.1-0.8-0.3-1L14.1,8z"/>
</g>
<line class="st1" x1="12.5" y1="10.1" x2="13.9" y2="8"/>
<path class="st0" d="M21.5,3.1c0-0.6-0.3-1.2-0.8-1.6S19.6,0.9,19,0.9s-1.2,0.3-1.6,0.8s-0.6,1.1-0.6,1.7s0.3,1.2,0.8,1.6
	s1.1,0.6,1.7,0.6s1.2-0.3,1.6-0.8C21.4,4.3,21.5,3.7,21.5,3.1z M19.9,1.2c0.2,0.1,0.5,0.2,0.7,0.4C20.8,1.8,21,2,21.1,2.2
	c-0.5,0-1,0.2-1.5,0.4C19.2,2.8,18.7,3,18.4,3c-0.1,0-0.2,0-0.3,0C18,3,18,3,18,3c0.1-0.2,0.2-0.4,0.3-0.5c0.2-0.4,0.5-0.8,0.8-1
	C19.3,1.2,19.6,1.1,19.9,1.2z M17.5,2.2c0-0.3,0.1-0.5,0.3-0.7c0.3-0.2,0.7-0.4,1.1-0.4c0.2,0,0.3,0,0.5,0c-0.2,0.1-0.3,0.2-0.5,0.3
	c-0.3,0.3-0.6,0.6-0.8,1.1C18,2.7,17.9,2.8,17.8,3l-0.1-0.1l0,0C17.5,2.7,17.5,2.4,17.5,2.2z M17.1,4.2c0.1-0.1,0.3,0,0.4,0.1
	c0,0.2,0,0.4,0.1,0.6C17.3,4.7,17.2,4.4,17.1,4.2z M17.6,3.8c0,0.1,0,0.2-0.1,0.3C17.3,4,17.2,4,17,4c-0.1-0.2-0.1-0.4-0.1-0.6
	c0-0.1,0-0.2,0-0.3c0.1,0.1,0.2,0.2,0.3,0.3C17.3,3.5,17.4,3.6,17.6,3.8C17.6,3.7,17.6,3.7,17.6,3.8z M17.2,3.3
	c-0.1-0.1-0.3-0.2-0.3-0.4c0.1-0.4,0.2-0.8,0.5-1.1l0,0c0,0.1-0.1,0.2-0.1,0.4c0,0.3,0.1,0.6,0.3,0.8l0,0c0,0,0.1,0.1,0.2,0.1
	c-0.1,0.2-0.1,0.3-0.2,0.5C17.5,3.5,17.4,3.4,17.2,3.3z M19.3,5.5c-0.5,0-1-0.1-1.4-0.4c-0.1-0.2-0.2-0.5-0.2-0.8
	c0.1,0.1,0.2,0.1,0.3,0.2c0.1,0.1,0.2,0.2,0.3,0.3c0.2,0.2,0.5,0.4,0.9,0.6C19.3,5.4,19.4,5.5,19.3,5.5C19.3,5.5,19.3,5.5,19.3,5.5z
	 M20.8,4.7c-0.3,0.3-0.6,0.5-1,0.7c-0.2,0-0.4,0-0.6-0.1c-0.3-0.2-0.7-0.4-0.9-0.6c-0.1-0.1-0.2-0.2-0.3-0.3
	c-0.1-0.1-0.2-0.2-0.4-0.2c0-0.1,0-0.2,0.1-0.4l0,0c0.6,0.3,1.3,0.5,2,0.6c0.6,0.1,1.1,0,1.4-0.1C21,4.4,20.9,4.6,20.8,4.7z M21.2,4
	c-0.3,0.2-0.8,0.2-1.5,0.2c-0.6-0.1-1.3-0.3-2-0.6c0-0.2,0.1-0.3,0.2-0.5H18c0.1,0,0.3,0.1,0.4,0c0.4-0.1,0.8-0.2,1.3-0.4
	s1-0.4,1.5-0.4c0.1,0.2,0.2,0.5,0.2,0.7C21.4,3.4,21.3,3.7,21.2,4z"/>
<g>
	<path class="st2" d="M26.1,10.5h-8.3c-0.2,0-0.4,0.2-0.4,0.4s0.2,0.4,0.4,0.4h0.1c0.2,0.3,1.8,3,1.9,7.4c0,0.1,0,0.1,0.1,0.1H20
		c0,0,0,0,0.1,0l0.6-1l0.6,1l0,0l0,0l0,0l0,0l0,0l0,0l0,0l0,0l0,0l0,0l0,0l0,0l0,0l0,0l0,0l0,0l0.6-1.1l0.6,1.1l0,0l0,0l0,0l0,0l0,0
		l0,0l0,0l0,0l0,0l0,0l0,0l0,0l0,0l0,0l0,0l0,0l0,0l0,0l0,0l0,0l0,0l0,0l0,0l0,0l0,0l0,0l0,0l0.6-1l0.6,1.1l0,0l0,0l0,0l0,0l0,0l0,0
		l0,0l0,0l0,0l0,0l0,0l0,0c0-0.3,0-0.6,0-0.9c0-0.9,0.2-1.7,0.3-2.5c0.1-0.6,0.3-1.1,0.5-1.7c0.1-0.2,0.2-0.5,0.3-0.7
		c0.1-0.2,0.2-0.4,0.3-0.6c0.1-0.2,0.2-0.3,0.3-0.5c0.1-0.1,0.2-0.3,0.2-0.4l0,0l0,0c0.2,0,0.4-0.2,0.4-0.4
		C26.6,10.7,26.4,10.5,26.1,10.5z M18.2,11.4h0.2l0.6,1l-0.2,0.2C18.5,12,18.3,11.6,18.2,11.4z M24.8,12.4l-0.6,1.1l-0.6-1l0.6-1.1
		l0,0L24.8,12.4z M24.5,11.4h0.9L25,12.2L24.5,11.4z M21.3,13.9l0.6,1.2l-0.6,1L20.7,15L21.3,13.9z M20.6,14.8L20,13.7l0.6-1.1
		l0.6,1.1L20.6,14.8z M21.4,13.7l0.6-1.1l0.6,1.1L22,14.9L21.4,13.7z M22.8,13.9l0.6,1l-0.7,1.2l-0.6-1L22.8,13.9z M22.9,13.7
		l0.6-1.1l0.6,1l-0.6,1.1L22.9,13.7z M23.5,12.3L23,11.4h1L23.5,12.3z M23.4,12.5l-0.6,1.1l-0.6-1.1l0.6-1l0,0L23.4,12.5z M22,12.2
		l-0.5-0.8h0.9L22,12.2z M21.9,12.4l-0.6,1.1l-0.6-1.1l0.6-1h0.1L21.9,12.4z M20.5,12.2L20,11.4h1L20.5,12.2z M20.4,12.4l-0.6,1.1
		l-0.6-1.1l0.6-1l0,0L20.4,12.4z M19.1,12.2l-0.5-0.8h1L19.1,12.2z M18.9,12.9l0.2-0.3l0.6,1.1l-0.3,0.6
		C19.2,13.7,19.1,13.3,18.9,12.9z M19.8,16.1L19.8,16.1c-0.1-0.3-0.1-0.6-0.2-0.9c0-0.2-0.1-0.4-0.2-0.7l0,0l0.4-0.6l0.6,1.1
		L19.8,16.1z M20,18.5L20,18.5c0-0.3,0-0.6,0-1c0-0.3-0.1-0.6-0.1-1l0,0l0.6,1.1L20,18.5z M20.6,17.4l-0.7-1.2l0.6-1.1l0.7,1.2
		L20.6,17.4z M21.3,18.6l-0.6-1l0.6-1.1l0.6,1L21.3,18.6z M22,17.3l-0.6-1l0.6-1l0.6,1L22,17.3z M22.8,18.6l-0.6-1.1l0.6-1l0.6,1.1
		L22.8,18.6z M22.8,16.3l0.7-1.2l0.6,1.1l-0.7,1.2L22.8,16.3z M24,18.4l-0.5-0.8l0.6-1.1C24.1,17.1,24.1,17.7,24,18.4z M24.6,14.5
		c-0.1,0.3-0.1,0.5-0.2,0.8c-0.1,0.2-0.1,0.5-0.1,0.7l0,0l-0.7-1.1l0.6-1.1L24.6,14.5L24.6,14.5z M24.7,14.3l-0.3-0.6l0.6-1.1
		l0.2,0.3C25,13.3,24.8,13.7,24.7,14.3z M25.2,12.7L25,12.4l0.6-1h0.2C25.7,11.7,25.5,12.1,25.2,12.7z M26.2,11.1h-0.1h-8.2
		c-0.1,0-0.2-0.1-0.2-0.2v-0.1h0.1H26c0.1,0,0.2,0.1,0.2,0.2C26.3,11,26.3,11,26.2,11.1z"/>
</g>
<path class="st0" d="M16.6,2.6c0,0.1,0,0.2,0,0.2l-0.9,0.8l0,0c0,0,0,0-0.1,0V3.5L16.6,2.6z"/>
<path class="st0" d="M16.8,4.3l-1.3,1.2l0,0c0,0,0,0-0.1,0V5.4l1.4-1.3C16.7,4.2,16.7,4.2,16.8,4.3z"/>
<path class="st0" d="M19.1,5.9l-1.3,1.3c0,0,0,0-0.1,0c0,0,0,0-0.1,0V7.1l1.2-1.2l0,0C18.9,5.9,19,5.9,19.1,5.9z"/>
<path class="st0" d="M19.9,5.8l-1,1l0,0c0,0,0,0-0.1,0V6.7l0.9-0.8C19.7,5.8,19.8,5.8,19.9,5.8z"/>
<path class="st0" d="M16.5,3c0,0.1,0,0.3,0,0.4l-1.1,1h-0.1h-0.1c-0.1-0.1-0.1-0.2,0-0.2L16.5,3z"/>
<path class="st0" d="M18,5.6l-1.2,1.2h-0.1h-0.1c-0.1-0.1-0.1-0.2,0-0.2l1.1-1.1C17.8,5.5,17.9,5.5,18,5.6z"/>
</svg>
