<?xml version="1.0" encoding="utf-8"?>
<!-- Generator: Adobe Illustrator 26.0.1, SVG Export Plug-In . SVG Version: 6.00 Build 0)  -->
<svg version="1.1" id="Layer_1" xmlns="http://www.w3.org/2000/svg" xmlns:xlink="http://www.w3.org/1999/xlink" x="0px" y="0px"
	 viewBox="0 0 32 32" style="enable-background:new 0 0 32 32;" xml:space="preserve">
<style type="text/css">
	.st0{fill:none;stroke:#FCFCFC;stroke-width:0.75;stroke-miterlimit:10;}
	.st1{fill:none;stroke:#FFFFFF;stroke-width:0.75;stroke-miterlimit:10;}
</style>
<path class="st0" d="M5.1,17.9V9.2c0.1-0.6-0.4-1.1-1-1.2C3.4,7.9,2.9,8.4,2.8,9c0,0.1,0,0.1,0,0.2v14c-0.1,0.6,0.4,1.1,1,1.2
	s1.1-0.4,1.2-1c0-0.1,0-0.1,0-0.2v-2h22v2c0,0.6,0.5,1.1,1.1,1.1s1.1-0.5,1.1-1.1l0,0v-5.4H5.1z"/>
<path class="st1" d="M29.1,16.9H12.9v-4.1c0-1.2,1-2.1,2.1-2.1l0,0h9.9c2.4,0,4.3,1.9,4.3,4.3l0,0L29.1,16.9z"/>
<path class="st0" d="M11.7,13.8c0,0.2,0,0.3-0.1,0.5c0,0.2-0.1,0.3-0.1,0.5c-0.1,0.2-0.1,0.3-0.2,0.5c-0.1,0.1-0.2,0.3-0.3,0.4
	S10.6,16,10.6,16c-0.1,0.1-0.3,0.2-0.4,0.2c-0.2,0.1-0.3,0.1-0.5,0.1c-0.3,0.1-0.7,0.1-1,0c-0.2,0-0.4-0.1-0.5-0.2
	c-0.3-0.1-0.6-0.3-0.9-0.6c-0.2-0.2-0.4-0.5-0.6-0.9c-0.1-0.2-0.1-0.3-0.1-0.5s0-0.3-0.1-0.5c0-0.2,0-0.3,0.1-0.5
	c0-0.2,0.1-0.3,0.1-0.5c0.1-0.2,0.1-0.3,0.2-0.4c0.1-0.1,0.2-0.3,0.3-0.4c0.2-0.2,0.5-0.4,0.8-0.6c0.2-0.1,0.3-0.1,0.5-0.1
	c0.3-0.1,0.7-0.1,1,0c0.2,0,0.3,0.1,0.5,0.1c0.2,0.1,0.3,0.1,0.4,0.2c0.3,0.2,0.5,0.4,0.7,0.7c0.1,0.1,0.2,0.3,0.2,0.4
	c0.1,0.2,0.1,0.3,0.1,0.5C11.7,13.5,11.7,13.8,11.7,13.8z"/>
</svg>
