<?xml version="1.0" encoding="utf-8"?>
<!-- Generator: Adobe Illustrator 26.0.1, SVG Export Plug-In . SVG Version: 6.00 Build 0)  -->
<svg version="1.1" id="Layer_1" xmlns="http://www.w3.org/2000/svg" xmlns:xlink="http://www.w3.org/1999/xlink" x="0px" y="0px"
	 viewBox="0 0 32 32" style="enable-background:new 0 0 32 32;" xml:space="preserve">
<style type="text/css">
	.st0{fill:none;stroke:#FDFDFF;stroke-miterlimit:10;}
	.st1{fill:none;stroke:#FAFAFC;stroke-width:0.5;stroke-miterlimit:10;}
	.st2{display:none;fill:none;stroke:#252F64;stroke-width:0.75;stroke-miterlimit:10;}
	.st3{fill:#FFFFFF;}
	.st4{fill:none;stroke:#FFFFFF;stroke-width:0.5;stroke-miterlimit:10;}
</style>
<path class="st0" d="M27.5,31.6c2.3,0,4.1-1.8,4.1-4.1v-23c0-1.1-0.4-2.1-1.2-2.9c-0.8-0.8-1.8-1.2-2.9-1.2h-23
	c-2.3,0-4.1,1.8-4.1,4.1v22.9c0,2.3,1.8,4.1,4.1,4.1l0,0h23"/>
<path class="st1" d="M10.9,4.3c-4.5,0-8.2,3.7-8.2,8.2c0,8.3,8.2,15.1,8.2,15.1s8.2-6.8,8.2-15.1C19.2,8.1,15.5,4.3,10.9,4.3z
	 M10.9,19.1c-3.5,0-6.3-2.8-6.3-6.3s2.8-6.3,6.3-6.3s6.3,2.8,6.3,6.3l0,0C17.2,16.2,14.4,19.1,10.9,19.1z"/>
<path class="st2" d="M28.6,18.2c-0.1-0.5-0.5-0.8-1-0.8h-1.3c-0.4,0-0.8,0.3-0.9,0.7l0,0l-1.5-3c-0.3-0.6-0.9-1-1.5-1.1
	c-0.3-0.1-0.6-0.1-0.9-0.1c-0.4,0-0.7-0.1-1.1-0.1c0,0.4-0.1,0.7-0.1,1.1c0.4,0,0.7,0,1.1,0.1c0.3,0,0.6,0.1,0.9,0.1
	c0.4,0.1,0.7,0.4,0.9,0.7l1.6,3.2c0.1,0.1,0.1,0.2,0,0.3c-0.1,0.1-0.2,0.2-0.3,0.2h-5.6c-0.7,1.5-1.3,2.4-2.3,3.7h5.3
	c0.2,0,0.2,0.7,0.2,0.8s-0.2,0.3-0.3,0.3h-6c-0.4,0.5-0.8,0.9-1.1,1.3h10.7c0.2,0,0.4,0.1,0.4,0.3s0.2,0.4-0.1,0.6l-0.3,0.1h-1.3
	l0,0c0,0.5,0.4,0.9,0.9,0.9l0,0h1.9c0.5,0,0.9-0.4,0.9-0.9l0,0v-4.7c0-0.7-0.3-1.4-0.8-2l-0.3-0.4l1.4-0.4
	C28.4,19.2,28.6,18.7,28.6,18.2z M24.6,20.6c0.8,0,1.5,0.6,1.5,1.4s-0.6,1.5-1.4,1.5s-1.5-0.6-1.5-1.4c0,0,0,0,0-0.1
	C23.1,21.2,23.9,20.6,24.6,20.6L24.6,20.6z"/>
<path class="st3" d="M11.8,8.6H8.9V17h1.5v-3.3h1.2c1.7,0,2.9-0.9,2.9-2.6c0-1.4-1.1-2.5-2.4-2.5C12,8.6,11.9,8.6,11.8,8.6z
	 M11.6,9.8c0.8,0,1.4,0.4,1.4,1.3s-0.5,1.3-1.5,1.3h-1.1V9.8H11.6z"/>
<circle class="st3" cx="24.6" cy="22.1" r="0.8"/>
<circle class="st4" cx="24.6" cy="22.1" r="1.6"/>
<g id="Layer_2_00000127743978038013259390000008441181940900270498_">
	<path class="st4" d="M20.3,13.8v1c0,0,1.9,0.1,2.2,0.4s2.4,4.3,2.4,4.3h-6c0,0-0.9,2.2-2.4,3.7h5.4v1.1l-6.1,0.1l-1.1,1.3h11v0.9
		H24c0,0,0.1,1.1,2.1,1s1.7-1,1.7-1l-0.1-5.1c0,0-0.1-1.2-1-1.9l1.7-0.5c0,0,0.6-0.8-0.3-1.4h-2c0,0-0.6,0-0.8,0.6
		c0,0-1.5-3.7-2.5-4S20.3,13.8,20.3,13.8z"/>
</g>
</svg>
