<?xml version="1.0" encoding="utf-8"?>
<!-- Generator: Adobe Illustrator 26.0.1, SVG Export Plug-In . SVG Version: 6.00 Build 0)  -->
<svg version="1.1" id="Layer_1" xmlns="http://www.w3.org/2000/svg" xmlns:xlink="http://www.w3.org/1999/xlink" x="0px" y="0px"
	 viewBox="0 0 32 32" style="enable-background:new 0 0 32 32;" xml:space="preserve">
<style type="text/css">
	.st0{fill:none;stroke:#FFFFFF;stroke-width:0.25;stroke-miterlimit:10;}
	.st1{fill:#FFFFFF;}
	.st2{fill:none;stroke:#FFFFFF;stroke-miterlimit:10;}
</style>
<g>
	<path class="st0" d="M23.4,2.9c0.1,0.1,0.3,0.2,0.5,0.2s0.4,0,0.5-0.1l0,0c0.1-0.1,0.2-0.2,0.3-0.3c0-0.2,0-0.5-0.1-0.7
		S24.3,1.7,24,1.7c-0.2,0-0.4,0.1-0.5,0.2c-0.2,0.1-0.3,0.3-0.3,0.6C23.2,2.6,23.3,2.8,23.4,2.9"/>
</g>
<g>
	<path class="st1" d="M15.4,23.4L15.4,23.4c0.2,0.2,0.4,0.4,0.6,0.5c0.5,0.4,0.9,1.1,1.6,1.2c0.5,0.1,1,0.4,1.3,0.7
		c0.4,0.4,0.1,1.1-0.2,1.5c-0.1,0.2-0.3,0.3-0.4,0.5s-0.2,0.3-0.3,0.5c-0.1,0.2-0.2,0.4-0.5,0.4c-0.3,0.1-0.6,0.1-0.8,0.1
		c-0.3,0-0.7-0.1-0.7-0.5c0-0.3,0.2-0.6,0.5-0.7h0.1c0.1,0,0.1-0.1,0-0.1c-0.2-0.1-0.5-0.3-0.7-0.4c-0.3-0.2-0.7-0.4-1-0.6
		c0,0,0,0-0.1,0c0,0.2-0.1,0.3-0.1,0.5s-0.1,0.4-0.1,0.6c-0.1,0.3-0.1,0.7-0.4,0.8c-0.1,0-0.2-0.1-0.2,0.1c-0.2,0.6-0.6,0.8-1.1,0.5
		c-0.2-0.1-0.5-0.3-0.7-0.5c-0.1-0.1-0.3-0.3-0.2-0.5c0-0.1,0.1-0.2,0.1-0.3c0-0.2,0-0.5,0.1-0.7c0-0.4,0.1-0.7,0.1-1.1
		c0-0.2,0-0.3,0.1-0.5c0-0.1-0.1-0.1-0.1-0.2c-0.4-0.4-0.9-0.8-1.2-1.3c-0.2-0.3,0.1-0.6,0.4-0.6c0.1-0.1,0.3-0.1,0.4-0.1
		c0,0,0.1,0,0.1-0.1c-0.2-0.8-0.4-1.6-0.4-2.4c-0.1-0.9-0.1-1.9,0-2.8c0-0.1,0-0.2-0.1-0.2c-0.1-0.1-0.1-0.2-0.1-0.4
		C11,16.6,11.1,16,11,15.4c0-0.7-0.4-1.3-0.7-1.9C10,13,9.7,12.4,9.8,11.8c0-0.7,0.5-1.4,1.1-1.6c0.1,0,0.1-0.1,0-0.1
		c-0.5-0.5-0.4-1.2-0.4-1.8c0-0.8,0.5-1.5,1.3-1.7s1.6,0.2,1.9,1c0,0.2,0.4,0,0.6,0.4c0,0.1,0,0.2,0,0.2c-0.1,0.2-0.2,0.3-0.4,0.5
		c-0.1,0,0,0.1,0,0.2c0,0.1,0,0.3,0,0.4c0,0.4-0.3,0.3-0.4,0.4c0,0.1-0.1,0.3-0.1,0.4v0.1c0.6,0,0.9-0.1,1.4-0.3
		c0.6-0.2,1.2-0.4,1.7-0.7c0.1-0.1,0.1-0.2,0.2-0.3c0.2-0.5,0.6-0.9,1.1-1.1c0.1,0,0.1-0.1,0.1-0.1C18,7.3,18,7,18.1,6.6
		c0.5-1.4,1-2.8,1.7-4.1c0.2-0.3,0.5-1.3,1-1.1c0.4,0.1,0.7,0.5,0.6,1c-0.3,1-0.8,2-1.2,3c-0.3,0.6-0.6,1.3-0.8,2
		c-0.1,0.2-0.2,0.5-0.3,0.7v0.1c0.1,0.2,0.1,0.3,0.1,0.5c0,0.3,0,0.5-0.1,0.8c0,0.2-0.2,0.3-0.3,0.3c-0.1,0-0.2,0-0.2,0.1
		c0,0.2,0,0.4-0.1,0.6c0,0.3,0,0.5-0.2,0.8c-0.1,0.1-0.2,0.3-0.3,0.4c-0.1,0.1-0.2,0.1-0.2,0.2c-0.1,0.5-0.1,1-0.3,1.4
		c-0.3,0.5-1.1,0.3-1.5,0.1c0.1,0.5,0.1,1.1,0.1,1.6s0.2,1,0,1.4c0,0.1,0.1,0.2,0.1,0.4c0,0.1,0,0.3,0,0.4c0,0.6,0,1.2,0,1.8
		c-0.1,0.9-0.5,1.7-0.8,2.5C15.5,22.2,15.5,22.8,15.4,23.4 M13.4,7.4L13.4,7.4c-0.4-0.9-1.6-1-2.2-0.4s-0.5,1.5-0.4,2.2
		c0,0.1,0.2,0.6,0.3,0.5c0.1-0.2,0.2-0.4,0.4-0.5C12,9.1,11,8.5,12.1,8.1c-0.1,0-0.2,0.1-0.3,0.1s-0.3,0.1-0.4,0.2c0,0,0,0-0.1,0
		C11.5,8.1,11.7,8,12,7.9s0.7-0.2,1-0.3c0.1,0,0.1,0,0-0.1c-0.2-0.5-0.8-0.7-1.3-0.6c-0.2,0-0.4,0.2-0.6,0.3
		c0.1-0.2,0.3-0.3,0.5-0.4c0.3-0.1,0.5-0.1,0.8-0.1C12.9,6.7,13.2,7,13.4,7.4 M13.5,16.5c0.5-0.2,1-0.3,1.5-0.4c0.2,0,0.5,0,0.7,0.1
		c0.1,0,0.1,0.1,0.2,0c-0.2-0.1-0.4-0.2-0.6-0.2c0,0-0.1,0-0.1-0.1c0-0.3-0.1-0.6-0.1-0.9v-0.1C15,15,15,15.1,15,15.2
		c-0.1,0.1-0.1,0.3-0.2,0.4l0,0c0-0.1,0.1-0.2,0.1-0.4c0.1-0.3,0.2-0.5,0.2-0.8c-0.1-0.7-0.3-1.3-0.5-2c-0.2,0.7-0.4,1.4-0.7,2.1
		c-0.1,0.3-0.3,0.7-0.4,1c0,0,0,0.1-0.1,0.1c0-0.3,0.2-0.5,0.3-0.8c0.2-0.6,0.3-1.1,0.4-1.7c0.1-0.3,0.1-0.5,0.2-0.8
		c0-0.1,0-0.1-0.1-0.1c-0.3,0.1-0.7,0.1-1,0.2c-0.1,0,0,0.2-0.1,0.3c-0.3,0.2-0.9,0.1-1.3,0.1c-0.4-0.1-0.8,0-1.2,0
		c0.1,0.1,0.3,0.2,0.4,0.3c0.1,0.1,0.2,0.1,0.3,0.2c-0.1,0-0.1,0-0.2,0c-0.2,0-0.5-0.1-0.7-0.2c1.1,1.9,0.7,1.8,0.9,3.8
		c0,0,0.1,0.4,0.1,0.3c0.4-0.6,0.7-1.3,0.9-2c0.1-0.2,0.1-0.3,0.2-0.5c0-0.1,0-0.3,0.1-0.4c-0.1,1-0.5,2.1-0.9,3
		C12.4,17.3,12.9,16.8,13.5,16.5 M12,21.8C12,21.8,12,21.9,12,21.8C12,21.9,12,21.9,12,21.8C12,21.9,11.9,21.9,12,21.8
		c-0.1-0.2-0.2-0.4-0.3-0.7c0-0.1-0.1-0.2-0.1-0.3c0-0.1,0-0.3-0.1-0.4l0,0c0,0.4,0.1,0.9,0.1,1.4c0.1,0.4,0.2,0.8,0.3,1.2l0,0
		c0.1,0,0.3,0,0.4,0c0.1,0,0.2-0.1,0.2-0.2c0-0.2,0-0.4,0-0.6c0-0.1,0-0.3,0-0.4s0-0.3,0.1-0.4c0.2-0.4,0.1-0.8,0.1-1.2
		c0-0.2,0.1-0.5,0.2-0.6l0.1-0.1c0-0.2,0.1-0.3,0.1-0.5c0-0.1,0-0.2,0.1-0.3c0,0.1,0,0.2,0,0.3c0,0.1,0,0.3,0,0.4c0,0,0,0.1,0.1,0.1
		c0.4-0.1,0.7-0.1,1.1,0c0.7,0.1,0.7,0.6,0.8-0.3c0.2-0.8,0.2-1.7,0.1-2.6c0-0.1-0.2,0.1-0.3,0.1c-0.4,0.3-0.8,0.6-1.3,1
		c0-0.1,0.2-0.3,0.3-0.4c0.3-0.3,0.6-0.5,0.9-0.7c-0.1,0-0.2,0-0.2,0c-0.3,0.1-0.7,0.1-1,0.2c-0.7,0.3-1.3,0.9-2.1,1
		c-0.1,0-0.1,0.1-0.1,0.2c0,0.3,0,0.7,0,1C11.6,19.9,11.8,20.9,12,21.8 M21.1,1.9c-0.1,0-0.2-0.2-0.2-0.1c-0.1,0.1-0.1,0.3-0.2,0.4
		c-0.3,0.5-0.5,1-0.7,1.5c0-0.2,0.1-0.5,0.2-0.7c0.1-0.4,0.3-0.8,0.5-1.3c-0.2,0.1-0.3,0.4-0.4,0.6c-0.4,0.7-0.7,1.4-1,2.1
		c-0.4,0.8-0.7,1.6-0.9,2.4c0,0.2-0.2,0.5-0.2,0.7c0,0.1,0.1,0.1,0.2,0.2c0.1,0,0.2,0,0.3,0c0.1,0,0.2,0.1,0.3,0.1
		c0.2-0.2,0.2-0.4,0.2-0.6c0.1-0.4,0.3-0.8,0.5-1.2c0.4-0.9,0.8-1.9,1.2-2.8C21,3,21.1,2.8,21.2,2.5C21.4,2.3,21.2,2.1,21.1,1.9
		 M12.9,11.8c0-0.1,0.3-1,0.1-1c-0.5,0-0.9,0.1-1.4,0c-0.4,0-1-0.3-1.2,0c-0.3,0.3-0.4,0.7-0.4,1.1c-0.1,0.7,0.4,0.6,0.9,0.6
		s1-0.1,1.5-0.2c0.1,0,0.3-0.1,0.4-0.1c0.1,0,0.1,0.1,0.1,0.1c0,0.2,0.1,0.3,0.1,0.5C13.1,12.6,12.8,12.1,12.9,11.8 M15.9,9.6
		c-0.4,0.2-0.8,0.3-1.2,0.4c-0.5,0.2-0.7,0.3-1,0.7c0-0.1,0.1-0.2,0.1-0.3c-0.9,0.4-0.4,0-0.7,1c0,0.1-0.2,0.6,0,0.6
		c0.3-0.1,0.6-0.2,0.8-0.3c-0.1-0.1-0.2,0-0.2-0.1c0.5,0,0.9-0.2,1.4-0.5c0.4-0.2,0.7-0.4,1-0.7c0.5-0.4,0.4-0.2,0.2-0.6
		C16.3,9.3,16.5,9.4,15.9,9.6 M18.2,9c0.2,0,0.4,0.1,0.5,0.1s0.2,0.1,0.2,0.2l0,0c0-0.1,0-0.2,0-0.3s-0.1-0.1-0.1-0.1
		c-0.3-0.1-0.6-0.2-0.9-0.3c0.1-0.1,0.3,0,0.4,0c0.2,0,0.5,0.1,0.7,0.3c0.1-0.2,0-0.4-0.2-0.4c-0.3-0.1-0.6-0.1-0.8-0.2
		c0.1,0,0.3,0,0.3,0c0.2,0,0.5,0.1,0.7,0.3c0-0.1-0.1-0.3-0.1-0.3C18.7,8,18.4,8,18.2,8c-0.6-0.1-1.1,0.4-1.3,1
		c0,0.1-0.1,0.3-0.2,0.3c0,0,0,0,0,0.1c0,0.2,0,0.4,0.2,0.6c0,0,0,0,0.1,0s0.1-0.1,0.2-0.1c0.1-0.1-0.1-0.1-0.1-0.3s0-0.4,0-0.6V8.9
		c-0.1,0.2-0.1,0.4,0,0.6c0,0.1,0,0.1,0.1,0.1s0.1,0.1,0.2,0.1c0.3-0.3,0.6-0.3,0.9-0.3c0.2,0,0.4,0,0.6,0.2H19
		c0.4-0.4-0.9-0.5-1-0.6C18.1,8.9,18.1,9,18.2,9 M12.2,10.2c0.5,0.2,0.8,0.3,1-0.3V9.8c-0.1,0-0.3,0-0.5,0c0.1-0.2,0.4,0,0.5-0.1
		c0-0.1,0.1-0.3,0-0.2s-0.2,0-0.4,0l0,0c0.2-0.2,0.5,0,0.4-0.2c0-0.1-0.3-0.8,0-0.8c0,0,0.1,0,0.1-0.1s0-0.2-0.1-0.2
		c-0.3-0.1-0.5-0.1-0.8,0c-1,0.3-0.5,0.4-0.6,1c0,0.1-0.1,0.2-0.1,0.2c-0.2,0.1-0.4,0.3-0.5,0.5c0,0-0.1,0.1,0,0.2
		c0.1,0,0.3,0,0.4,0.1c0.1,0,0.4,0.2,0.3,0c-0.1-0.1-0.3-0.2-0.4-0.3l0,0C11.8,9.9,12,10.1,12.2,10.2 M17.7,12.2v0.1l0,0V12.2
		c0-0.2,0.1-0.3,0.1-0.5v-0.1c-0.3,0-0.5-0.1-0.7-0.2H17c-0.2,0.2-0.3,0.6-0.4,0.9c0,0.2,0.4,0.4,0.5,0.5c-0.1,0-0.2-0.1-0.3-0.1
		c0.1,0.1,0.7,0.4,0.8,0.3c0.2-0.1,0.2-0.4,0.3-0.6c0-0.1,0.1-0.3,0.1-0.4C17.7,12.2,17.7,12.2,17.7,12.2 M18.1,10.9
		c-0.2,0-0.7-0.1-0.7,0c0,0.4,0.5,0.2,0.7,0.4c0.1,0,0.1-0.1,0.2-0.2c0.1-0.2,0.1-0.5,0.2-0.7c0-0.1,0.1-0.6,0-0.6
		c-0.2-0.1-0.5-0.1-0.8,0c-0.1,0.1-0.3,0.1-0.3,0.3c0.1,0,0.2-0.1,0.2-0.1c0.2,0,0.4,0,0.6,0.1c-0.2,0.1-0.8-0.2-0.8,0.1
		c0,0.1,0,0.3,0.1,0.2c0.2-0.1,0.5,0,0.7,0.1c-0.1,0.1-0.7-0.1-0.8,0c0,0.1-0.1,0.3,0,0.2C17.7,10.7,18,10.7,18.1,10.9
		C18.2,10.9,18.2,10.9,18.1,10.9 M13.5,23.5c-0.1,1-0.3,2.1-0.4,3.1c0,0.1,0,0.1,0,0.1c0.1,0,0.2,0.1,0.2,0c0.1-0.4,0.1-0.9,0.2-1.3
		c0.1-0.9,0.3-1.7,0.4-2.6c0-0.1-0.2,0-0.3-0.1c0,0-0.1,0-0.1,0.1C13.5,22.9,13.5,23.2,13.5,23.5 M13.5,26.3c0,0.1,0,0.2,0,0.3
		c0,0.1,0.1,0.1,0.2,0.1h0.1c0.1-0.9,0.3-1.7,0.4-2.6c0.1-0.3,0.1-0.6,0.1-0.8c0-0.2,0.1-0.3,0.1-0.5c0-0.1-0.2-0.1-0.2-0.1
		C14,22.7,14,22.9,14,23c0,0.2-0.1,0.4-0.1,0.6C13.8,24.5,13.6,25.4,13.5,26.3 M12.3,27.5c0,0,0.1,0,0.1-0.1s0-0.2,0-0.3
		c0-0.2,0.1-0.4,0.1-0.6c0.1-0.8,0.2-1.6,0.3-2.4c0.1-0.4,0.1-0.9,0.2-1.3l0,0c-0.1,0-0.2,0-0.2,0.1c-0.1,1-0.3,2.1-0.4,3.1
		c0,0.3-0.1,0.7-0.1,1C12.2,27.1,12.2,27.3,12.3,27.5C12.2,27.5,12.2,27.5,12.3,27.5 M12.5,28.5c0.1,0.1,0.3,0.2,0.5,0.2
		c-0.2-0.2-0.5-0.3-0.7-0.6c0.1,0,0.2,0.1,0.3,0.2c0.2,0.1,0.4,0.2,0.5,0.2s0.1,0,0.2-0.1c0.1-0.1,0.2-0.3,0.2-0.5
		c-0.1-0.2-0.3-0.4-0.6-0.4c-0.3-0.1-1.2,0.3-0.8,0.7C12.2,28.3,12.4,28.4,12.5,28.5 M13.1,23.4c-0.1,0.9-0.2,1.8-0.4,2.7
		c0,0.1,0,0.3-0.1,0.4c0,0.1,0,0.1,0.1,0.1s0.2,0.1,0.2-0.1c0.2-1,0.3-2,0.4-3c0-0.3,0.1-0.6,0.1-0.8l0,0c-0.1,0-0.2,0-0.2,0.1
		C13.1,22.9,13.1,23.2,13.1,23.4 M16.4,11.6c0,0,0.2-0.1,0.1-0.2c-0.2-0.1-0.3-0.2-0.5-0.2c-0.1,0-0.3,0.1-0.4,0.2
		c-0.2,0.1-0.3,0.2-0.5,0.2c-0.1,0,0.1,0.2,0.2,0.3c0.2,0.2,0.4,0.4,0.7,0.6l0.1,0.1c0,0.2,0,0.4,0.1,0.5
		C16.2,12.5,16.1,12,16.4,11.6 M16.9,26.4c-0.6-0.3-1.1-0.6-1.7-0.9c-0.1,0-0.3-0.2-0.4-0.1c0,0.1-0.1,0.2,0.1,0.2
		c0.4,0.2,0.8,0.4,1.1,0.7c0.3,0.2,0.6,0.4,1,0.6c0.2,0.1,0.4,0.2,0.6,0.4c0.1,0,0.1-0.1,0.1-0.1c0-0.1,0-0.1,0-0.1
		c-0.1-0.1-0.2-0.1-0.3-0.2C17.3,26.6,17.1,26.5,16.9,26.4 M13.3,27.5c0.6,0.5,0.4,0.6,0.5-0.1c0-0.1,0.1-0.3,0.1-0.4s0-0.1-0.1-0.1
		c-0.3-0.1-0.6-0.1-1-0.2c-0.1,0-0.3-0.1-0.3,0c0,0.2,0,0.3-0.1,0.5C12.5,27.5,12.9,27.1,13.3,27.5 M17.5,27.5c-0.2,0-0.4,0-0.5,0.1
		c0.1,0.1,0.2,0,0.2,0.1c-0.1,0-0.2,0-0.4,0c-0.2,0-0.2,0.1-0.5,0.2s-0.4,0.7,0,0.6c0.1,0,0.3,0,0.4-0.1c-0.1,0-0.1,0-0.2,0
		s-0.2,0-0.3-0.1c0.1,0,0.2,0,0.3,0c0.2,0,0.4,0,0.6-0.1c0.2-0.2,0.4-0.4,0.5-0.7H17.5 M14.6,22.6L14.6,22.6c0-0.1,0.1-0.4,0-0.4
		c-0.6-0.2-1.2-0.1-1.8,0c-0.1,0,0,0.2,0,0.2c0,0.1,0.2,0,0.2,0C13.5,22.3,14.1,22.4,14.6,22.6 M16.8,26c-0.1-0.1-0.2-0.2-0.2-0.3
		c-0.1-0.1-0.2-0.1-0.2-0.2c-0.4-0.2-0.8-0.5-1.2-0.7C15,24.8,15,25,15,25c0,0.1,0,0.1,0,0.1c0.8,0.4,1.5,0.9,2.2,1.3l-0.1-0.1
		C17,26.2,16.9,26.1,16.8,26 M14.6,23.1c0-0.1,0.1-0.3,0-0.3c0,0,0,0-0.1,0c-0.2,1.2-0.4,2.3-0.6,3.5c0,0.1-0.1,0.3-0.1,0.4l0,0h0.1
		C14.2,25.5,14.4,24.3,14.6,23.1 M14,19.4c-0.2-0.1-0.1,0.2-0.2,0.3c0,0.2,0,0.4-0.1,0.7c0,0.2,0,0.4-0.1,0.5c0,0.1,0,0.1,0.1,0.1
		s0.3,0.1,0.3-0.1c0-0.3,0.1-0.7,0.1-1c0-0.2,0-0.3,0-0.5C14.2,19.4,14.1,19.5,14,19.4 M14.5,19.5h-0.1c0,0.3-0.1,0.6-0.1,0.9
		c0,0.2,0,0.4-0.1,0.6c0,0.1,0.2,0.1,0.3,0.1s0-0.1,0.1-0.2c0-0.3,0.1-0.5,0.1-0.8c0-0.2,0-0.4,0.1-0.5
		C14.7,19.5,14.6,19.6,14.5,19.5 M14.6,22C14.7,22.1,14.7,22.1,14.6,22c0.1-0.1,0.1-0.2,0-0.3c-0.1,0-0.2-0.1-0.3-0.1
		c-0.5-0.1-1,0-1.5,0.1c-0.1,0,0,0.1-0.1,0.2c0,0,0,0.1,0.1,0.1s0.2-0.1,0.4-0.1C13.6,21.9,14.1,21.9,14.6,22 M15.1,26.1
		c0.3,0.2,0.6,0.3,0.9,0.5c0.1,0,0.6,0.4,0.6,0.3c0.1-0.1,0.1-0.2-0.1-0.2c-0.3-0.2-0.6-0.4-0.9-0.5c-0.2-0.1-0.4-0.2-0.6-0.4h-0.1
		v0.1C14.8,26,15,26,15.1,26.1 M13.3,20.8c0,0.1-0.1,0.3,0,0.3s0.2,0,0.2-0.1v-0.1c0-0.4,0.1-0.7,0.1-1.1c0-0.1,0-0.2,0-0.4
		c0-0.1-0.2,0-0.2,0c-0.1,0-0.1,0-0.1,0.1c0,0.2,0,0.3,0,0.5C13.4,20.3,13.4,20.5,13.3,20.8 M14.5,21.4c-0.5-0.1-1.1-0.1-1.6,0.1
		c-0.1,0-0.1,0.1-0.1,0.2s0,0,0.1,0c0.5-0.2,0.9-0.2,1.4-0.1c0.1,0,0.4,0.1,0.4,0.1c0-0.1,0-0.1,0.1-0.1s0.2,0.1,0.3,0.1
		C14.9,21.5,14.7,21.4,14.5,21.4 M13,20.2c0,0.2,0,0.4,0,0.6c0,0-0.1,0.4,0,0.3c0.1,0,0.2,0,0.2-0.1s0-0.3,0-0.4c0-0.3,0-0.7,0.1-1
		c0,0,0.1-0.2,0-0.2C13,19.6,13,20,13,20.2 M15.9,26.9c0.2,0.1,0.3,0.2,0.5,0.3h0.1c0,0,0.1-0.1,0-0.1c-0.3-0.2-0.5-0.3-0.8-0.4
		s-0.5-0.3-0.8-0.4h-0.1c0,0.2,0.2,0.2,0.3,0.3C15.3,26.6,15.6,26.8,15.9,26.9 M12.1,24.4c0.2,0.2,0.3,0,0.2-0.1
		c-0.3-0.3-0.6-0.6-0.9-0.9c0,0-0.1-0.1-0.1,0c0,0-0.2,0-0.1,0.1C11.5,23.8,11.8,24.1,12.1,24.4 M15.2,19.9
		c-0.1-0.1-0.2-0.2-0.4-0.3h-0.1c0,0.4-0.1,0.8-0.1,1.3c0,0.1,0,0.1,0,0.2v0.1c0.1,0,0.1-0.1,0.1-0.2c0.1-0.4,0.2-0.8,0.3-1.1
		c0-0.1,0.3,0.3,0.4,0.3C15.4,20.1,15.3,20,15.2,19.9 M16.7,27c0,0.1-0.1,0.2-0.1,0.3c0,0,0,0,0,0.1c0.1-0.1,0.1-0.3,0.3-0.4
		c0,0.1-0.1,0.3-0.1,0.4v0.1c0,0,0.1,0.1,0.1,0c0.1,0,0.2,0,0.3,0c0.1,0,0.1,0,0.2,0s0.2,0,0.3,0c-0.3-0.2-0.5-0.3-0.8-0.5
		C16.8,26.8,16.7,26.9,16.7,27 M14.4,27.4c0.3-1.5,0.6-3,0.8-4.5c-0.1,0.1,0,0.2-0.1,0.3c0,0.2-0.1,0.4-0.1,0.5
		c-0.1,0.6-0.2,1.2-0.3,1.8c-0.1,0.4-0.1,0.8-0.2,1.2C14.5,27,14.4,27.2,14.4,27.4C14.4,27.4,14.4,27.4,14.4,27.4 M11.9,24.6
		c0.1,0.1,0.1,0.1,0.2,0.1c0.1,0,0.1,0,0-0.1c-0.2-0.2-0.5-0.5-0.7-0.7c-0.1-0.1-0.2-0.2-0.3-0.3c0,0,0,0-0.1,0
		C10.9,23.7,11.7,24.4,11.9,24.6 M12.3,23.7c-0.1-0.1-0.3-0.3-0.4-0.4c-0.1,0-0.2,0-0.2,0l0,0c0.3,0.3,0.5,0.6,0.8,0.8
		C12.4,23.9,12.4,23.8,12.3,23.7 M16,19.2c-0.1,0.6-0.3,1.2-0.5,1.7c0.5-1,0.7-2.5,0.6-3.6C16.2,18,16.2,18.6,16,19.2 M16,24.1
		c-0.1-0.1-0.3-0.3-0.4-0.3c0.3,0.3,0.7,0.7,1,1c0.4,0.4,1,0.5,1.5,0.6c-0.3-0.2-0.6-0.2-0.9-0.4C16.7,24.9,16.3,24.5,16,24.1
		 M16.7,11.2c0-0.1,0-0.2,0-0.3s0.1-0.2,0-0.4c-0.2,0.1-0.3,0.3-0.5,0.4c0,0,0,0,0,0.1C16.4,11.1,16.5,11.2,16.7,11.2 M11.9,10.5
		c-0.3-0.1-0.7-0.3-1-0.1c0,0,0.1,0,0.2,0c0.1,0,0.2,0,0.3,0.1c0.3,0,0.6,0.2,0.8,0C12.1,10.5,12,10.5,11.9,10.5 M15.9,25.1
		c0.1,0.1,0.2,0.1,0.3,0.2l0,0c-0.2-0.2-0.5-0.4-0.7-0.6c-0.1-0.1-0.3-0.2-0.4-0.3l0,0c0,0,0,0.1,0,0.2c0,0,0.1,0,0.1,0.1
		C15.4,24.9,15.6,25,15.9,25.1 M16,14.4c0-0.2,0-0.4-0.1-0.6c0-0.1,0-0.3,0-0.4c0,0.1,0,0.3,0,0.4C15.9,14,15.9,14.2,16,14.4
		c0,0.5,0,1,0.2,1.4c0-0.2,0-0.4-0.1-0.5C16.1,15,16,14.7,16,14.4 M12.2,23.4c0.1,0.1,0.1,0.2,0.2,0.2l0,0c0-0.1,0.1-0.5,0-0.5
		c-0.2,0-0.3,0-0.5,0C12.1,23.3,12.1,23.3,12.2,23.4 M13.4,7.7c-0.2,0-0.5,0-0.7,0.1c-0.1,0-0.2,0-0.3,0.1c0.5,0,1-0.2,1.4-0.1
		c0.1,0,0.4,0,0.4,0.2v0.1C14.4,7.8,13.6,7.7,13.4,7.7 M17.5,11.5c0,0.2,0.2,0.2,0.4,0.2C18,11.5,17.6,11.3,17.5,11.5 M13.3,9
		c0-0.1,0-0.1-0.1-0.1c0,0.1,0,0.2,0.1,0.3C13.3,9.1,13.3,9.1,13.3,9 M12.3,24.7c-0.2,0.1-0.2,0.1,0,0.2
		C12.3,25,12.3,24.7,12.3,24.7L12.3,24.7 M15.2,22.8L15.2,22.8L15.2,22.8 M14.4,27.5L14.4,27.5L14.4,27.5"/>
</g>
<path class="st1" d="M12.2,14.5c0-0.2,0.1-0.3,0.1-0.5c0-0.1,0-0.3,0.1-0.4c0.1,0.1,0,0.2,0,0.3c0,0.2,0,0.4,0,0.5
	c-0.1,0.5-0.2,1-0.5,1.4c0-0.1,0-0.2,0.1-0.3C12,15.2,12.1,14.8,12.2,14.5"/>
<path class="st1" d="M13.3,17.3c0-0.1,0.1-0.2,0.1-0.3l0,0C13.4,17,13.4,17.1,13.3,17.3c0,0.3-0.1,0.7-0.1,1c0,0.2-0.1,0.3-0.1,0.5
	c0,0.1,0,0.3-0.1,0.4c-0.1-0.1,0-0.4,0-0.5C13,18.2,13.1,17.7,13.3,17.3"/>
<path class="st1" d="M12.1,19C12.2,19.9,12.1,19.4,12.1,19C12,18.6,12,18.3,12,18c0-0.1,0-0.1,0-0.2c0,0.1,0,0.2,0,0.3
	C12,18.5,12,18.8,12.1,19"/>
<path class="st1" d="M20.6,3c-0.5,1.1-1,2.2-1.5,3.2V6.1c0.1-0.3,0.2-0.7,0.4-1c0.2-0.4,0.3-0.8,0.5-1.2c0.1-0.3,0.3-0.5,0.4-0.8
	C20.6,3.1,20.6,3,20.6,3C20.7,3,20.6,3,20.6,3"/>
<path class="st1" d="M18.3,7.4L18.3,7.4L18.3,7.4L18.3,7.4"/>
<g>
	<path class="st1" d="M12.3,12.2c-0.5,0.2-1,0.2-1.5,0.2c-0.1,0-0.5,0-0.6-0.2c0.6,0.1,1.1,0,1.7-0.1c0.2,0,0.4-0.1,0.7-0.1h0.1
		C12.5,12.1,12.4,12.1,12.3,12.2"/>
</g>
<path class="st1" d="M12.8,8.9c-0.1-0.1-0.1-0.2-0.2-0.3c-0.1-0.1-0.3,0-0.4,0c0.2-0.1,0.7-0.2,0.7,0.1C12.9,8.8,12.9,8.8,12.8,8.9"
	/>
<path class="st1" d="M12.6,8.8c-0.1,0.1-0.2,0.1-0.3,0c0,0-0.1,0-0.1-0.1c0.1-0.1,0.2-0.1,0.3-0.1C12.6,8.6,12.7,8.7,12.6,8.8
	C12.7,8.8,12.7,8.8,12.6,8.8"/>
<path class="st1" d="M12.9,27.9L12.9,27.9L12.9,27.9"/>
<path class="st1" d="M13.5,26.9c0.1,0,0.2,0.1,0.3,0.1l0,0c-0.1,0.1-1-0.1-1.1-0.2C13,26.8,13.2,26.9,13.5,26.9"/>
<path class="st1" d="M11.6,10.5L11.6,10.5L11.6,10.5"/>
<path class="st1" d="M11.7,10.5L11.7,10.5L11.7,10.5"/>
<path class="st2" d="M27.5,31.6c2.3,0,4.1-1.8,4.1-4.1l0,0v-23c0-2.3-1.8-4.1-4.1-4.1l0,0h-23c-2.3,0-4.1,1.8-4.1,4.1v22.9
	c0,2.3,1.8,4.1,4.1,4.1l0,0h23"/>
</svg>
