<?xml version="1.0" encoding="utf-8"?>
<!-- Generator: Adobe Illustrator 26.0.1, SVG Export Plug-In . SVG Version: 6.00 Build 0)  -->
<svg version="1.1" id="Layer_1" xmlns="http://www.w3.org/2000/svg" xmlns:xlink="http://www.w3.org/1999/xlink" x="0px" y="0px"
	 viewBox="0 0 32 32" style="enable-background:new 0 0 32 32;" xml:space="preserve">
<style type="text/css">
	.st0{fill:none;stroke:#FAFAFC;stroke-miterlimit:10;}
	.st1{fill:none;stroke:#FFFFFF;stroke-width:0.5;stroke-miterlimit:10;}
	.st2{fill:none;stroke:#FFFFFF;stroke-width:0.5;stroke-miterlimit:9.9995;}
</style>
<path class="st0" d="M27.5,31.6c2.3,0,4.1-1.8,4.1-4.1l0,0v-23c0-2.3-1.8-4.1-4.1-4.1l0,0h-23c-2.3,0-4.1,1.8-4.1,4.1v10v12.9
	c0,2.3,1.8,4.1,4.1,4.1l0,0h23"/>
<g>
	<g>
		<polygon class="st1" points="10.3,23.7 10.3,20.6 9.5,20.6 9.5,24.4 9.9,24.4 9.9,27.1 10.7,27.1 10.7,24.4 13.8,24.4 13.8,27.1 
			14.6,27.1 14.6,24.4 15,24.4 15,20.6 14.2,20.6 14.2,23.7 		"/>
	</g>
	<path class="st1" d="M22.4,25.2c0,0.2-0.2,0.4-0.4,0.4s-0.4-0.2-0.4-0.4V25c0-0.1,0-0.2,0.1-0.2l0.3-0.5l0.3,0.5
		c0,0.1,0.1,0.1,0.1,0.2V25.2z M23,24.4c0.1,0.2,0.2,0.4,0.2,0.6v0.1c0,0.6-0.5,1.2-1.2,1.2c-0.6,0-1.2-0.5-1.2-1.2V25
		c0-0.2,0.1-0.5,0.2-0.6l1-1.3L23,24.4z"/>
	<path class="st1" d="M25.8,18.9c0,0.2-0.1,0.4-0.4,0.4S25,19.2,25,18.9v-0.2c0-0.1,0-0.2,0.1-0.2l0.3-0.5l0.4,0.5
		c0,0.1,0.1,0.1,0.1,0.2L25.8,18.9z M26.4,18.1c0.1,0.2,0.2,0.4,0.2,0.6v0.1c0,0.6-0.5,1.2-1.1,1.2s-1.2-0.4-1.2-1.1v-0.1
		c0-0.2,0-0.5,0.2-0.7l0.9-1.3L26.4,18.1z"/>
	<path class="st1" d="M25.1,13.1c0,0.2-0.1,0.4-0.4,0.4c-0.2,0-0.4-0.1-0.4-0.4v-0.2c0-0.1,0-0.2,0.1-0.2l0.3-0.5l0.4,0.5
		c0,0.1,0.1,0.1,0.1,0.2L25.1,13.1z M25.6,12.3c0.1,0.2,0.2,0.4,0.2,0.6V13c0,0.6-0.5,1.2-1.1,1.2s-1.2-0.4-1.2-1.1V13
		c0-0.2,0-0.5,0.2-0.7l0.9-1.3L25.6,12.3z"/>
	<g>
		<path class="st1" d="M21.4,19.7l-0.8,0.2l-1.2-3.3c0.1-0.1,0.2-0.2,0.3-0.3c0.2-0.3,0.2-0.6,0.2-0.9l-0.9-4c0-0.2,0.1-0.3,0.2-0.4
			l0.2-0.1c0.1-0.1,0.2-0.1,0.3,0c0.1,0,0.2,0.1,0.2,0.2c0.1,0.4,0.5,0.6,0.9,0.5l0.4-0.1l1.4,6C22.9,18.4,22.3,19.4,21.4,19.7z
			 M17.5,20.9c-0.4-1.1-1.1-2.1-2.2-2.8l-0.6-0.3l4-0.8l1.2,3.2L17.5,20.9z M13.9,13.9l0.7-0.1c0.3-0.1,0.6-0.3,0.8-0.5
			c0.2-0.3,0.2-0.6,0.1-0.9l0,0l0.5-0.2l0.3,0.3c0.2,0.2,0.5,0.3,0.8,0.3c0.1,0,0.2,0,0.2,0l1-0.2l0.7,3.1c0,0.2-0.1,0.4-0.3,0.5
			L14.4,17L13.9,13.9z M13.1,14.1l0.6,3.1l-3.1-1.8l-1-3.4c0.6-0.3,1-1,0.9-1.7C10.3,9.5,9.7,9,9,9c0-0.7,0.5-1.4,1.2-1.6l1.4-0.3
			C12,7,12.4,6.8,12.8,6.5l0.6,2.4l1.8,1.1l-1.1,0.4l0.7,2.3c0,0.1,0,0.2,0,0.3c-0.1,0.1-0.1,0.2-0.3,0.2l-0.7,0.1
			C13.3,13.2,13,13.7,13.1,14.1z M9.5,14.2c-1.7-0.7-3-2.1-3.4-3.9L6,9.9C5.8,9,6,8.1,6.4,7.3C7,6.6,7.7,6,8.6,5.8l4.3-1
			c-0.2,0.7-0.7,1.3-1.5,1.5L10,6.6C8.8,6.9,8,8.1,8.2,9.3l0.1,0.4h0.5c0.4,0,0.7,0.3,0.8,0.6c0.1,0.4-0.1,0.8-0.5,0.9l-0.5,0.2
			L9.5,14.2z M16.1,10.4V9.8l0.2-0.7c0-0.1,0.1-0.2,0.2-0.2l0.8-0.2L17.5,9c0.1,0.3,0.3,0.6,0.6,0.7c0.2,0.1,0.4,0.1,0.5,0.1
			s0.3,0,0.4-0.1l1.7-0.6c0.6-0.2,0.9-0.8,0.7-1.4l-0.1-0.5L24.9,6c0.2-0.1,0.4,0,0.5,0.2l0.7,2c0.1,0.2,0,0.4-0.2,0.5l-4.4,1.7
			l-0.8,0.3c-0.1-0.3-0.3-0.5-0.6-0.7c-0.3-0.1-0.7-0.1-1,0l-0.2,0.1c-0.5,0.2-0.7,0.8-0.6,1.3l0.1,0.2l-1,0.2c-0.1,0-0.3,0-0.4-0.1
			L16.3,11l-1,0.3l-0.2-0.8L16.1,10.4z M20.6,7.5L20.7,8c0.1,0.2-0.1,0.4-0.2,0.5l-1.7,0.6c-0.1,0-0.2,0-0.3,0
			C18.4,9,18.3,9,18.3,8.9l-0.1-0.5L20.6,7.5z M26.1,9.6c0.6-0.2,0.9-0.9,0.7-1.4l-0.7-2c-0.1-0.3-0.3-0.5-0.6-0.7
			c-0.3-0.1-0.6-0.2-0.9-0.1l-8.3,2.7c-0.3,0.1-0.6,0.4-0.7,0.7l-0.1,0.3l-1.4-0.8l-0.7-2.6c0.2-0.4,0.3-0.8,0.3-1.3V3.9L8.5,5.1
			C7.3,5.3,6.4,6,5.8,6.9S5,9,5.2,10.1l0.1,0.4c0.5,2.1,2,3.9,4.2,4.6l0.3,0.1l0.1,0.3C8.3,17,7.5,19,7.5,21.1v6.1h0.8v-6.1
			c0-1.9,0.7-3.7,2-5l4.5,2.7c1.3,0.8,2.1,2.2,2.1,3.6v4.7h0.8v-4.7c0-0.3,0-0.5-0.1-0.7l4-1.2c0.7-0.2,1.2-0.6,1.6-1.2
			c0.3-0.6,0.5-1.3,0.3-1.9l-1.4-6v-0.1L26.1,9.6z"/>
	</g>
	<rect x="11.6" y="8.4" transform="matrix(0.9158 -0.4015 0.4015 0.9158 -2.5156 5.6076)" class="st2" width="1" height="0.8"/>
</g>
</svg>
