<?xml version="1.0" encoding="utf-8"?>
<!-- Generator: Adobe Illustrator 26.0.1, SVG Export Plug-In . SVG Version: 6.00 Build 0)  -->
<svg version="1.1" id="Layer_1" xmlns="http://www.w3.org/2000/svg" xmlns:xlink="http://www.w3.org/1999/xlink" x="0px" y="0px"
	 viewBox="0 0 32 32" style="enable-background:new 0 0 32 32;" xml:space="preserve">
<style type="text/css">
	.st0{fill:#FFFFFF;}
	.st1{fill:none;stroke:#FFFFFF;stroke-width:0.5;stroke-miterlimit:10;}
	.st2{clip-path:url(#SVGID_00000069394550935693659160000016489566443444043961_);}
	.st3{fill:#4D3C24;}
	.st4{clip-path:url(#SVGID_00000048462499442258925470000011797092096220630405_);}
	.st5{fill:none;stroke:#FFFFFF;stroke-miterlimit:10;}
</style>
<g>
	<g>
		<g>
			<g>
				<path class="st0" d="M6.1,17.5h1.8V18H6.8v0.7h1.1v0.5H6.8v1.3H6.1V17.5z"/>
				<path class="st0" d="M9.2,17.5v3.1H8.5v-3.1C8.5,17.5,9.2,17.5,9.2,17.5z"/>
				<path class="st0" d="M9.8,17.5c0.3,0,0.5-0.1,0.9-0.1c0.5,0,0.8,0.1,1,0.3c0.2,0.2,0.3,0.4,0.3,0.6c0,0.4-0.3,0.6-0.5,0.7l0,0
					c0.2,0.1,0.4,0.3,0.5,0.5c0.1,0.4,0.2,0.7,0.3,0.8h-0.8c-0.1-0.1-0.1-0.4-0.2-0.7c-0.1-0.4-0.2-0.5-0.5-0.5h-0.2v1.2H9.8V17.5z
					 M10.6,18.8h0.3c0.4,0,0.5-0.2,0.5-0.5s-0.2-0.5-0.5-0.5c-0.2,0-0.3,0-0.3,0V18.8z"/>
				<path class="st0" d="M12.6,19.8c0.2,0.1,0.5,0.2,0.7,0.2c0.4,0,0.5-0.2,0.5-0.4c0-0.2-0.2-0.3-0.5-0.5c-0.5-0.2-0.8-0.5-0.8-0.9
					c0-0.5,0.5-0.9,1.2-0.9c0.4,0,0.5,0.1,0.7,0.2l-0.2,0.5C14.1,18,13.8,18,13.6,18s-0.5,0.2-0.5,0.3c0,0.2,0.2,0.3,0.5,0.5
					c0.5,0.2,0.8,0.5,0.8,0.9c0,0.5-0.5,0.9-1.3,0.9c-0.4,0-0.6-0.1-0.8-0.2L12.6,19.8z"/>
				<path class="st0" d="M15.6,18h-0.8v-0.5h2.4V18h-0.8v2.5h-0.7C15.6,20.5,15.6,18,15.6,18z"/>
				<path class="st0" d="M19,19.7l-0.2,0.7h-0.7l0.9-3.1H20l0.9,3.1h-0.7L20,19.7H19z M19.9,19.2l-0.2-0.6c-0.1-0.2-0.1-0.5-0.2-0.6
					l0,0c0,0.2-0.1,0.5-0.2,0.6l-0.2,0.6H19.9z"/>
				<path class="st0" d="M22.1,17.5v3.1h-0.7v-3.1C21.3,17.5,22.1,17.5,22.1,17.5z"/>
				<path class="st0" d="M22.7,17.5c0.3,0,0.5-0.1,0.9-0.1c0.5,0,0.9,0.1,1.2,0.3c0.4,0.3,0.5,0.6,0.5,1.2c0,0.6-0.2,1-0.5,1.3
					c-0.3,0.3-0.8,0.4-1.4,0.4c-0.4,0-0.5,0-0.7,0V17.5z M23.4,20c0.1,0,0.2,0,0.2,0c0.5,0,1-0.4,1-1.1c0-0.6-0.4-1-0.9-1
					c-0.1,0-0.2,0-0.3,0C23.4,17.9,23.4,20,23.4,20z"/>
			</g>
		</g>
		<g>
			<path class="st1" d="M17.9,12.4h-0.9v-0.5c0-0.3-0.2-0.5-0.5-0.5h-1.4c-0.3,0-0.5,0.2-0.5,0.5v0.5h-0.9c-0.4,0-0.6,0.3-0.6,0.6
				l0,0v2.6c0,0.4,0.3,0.6,0.6,0.6l0,0h4.1c0.4,0,0.6-0.3,0.7-0.6V13C18.5,12.6,18.2,12.4,17.9,12.4z M16.9,14.5h-0.6v0.6h-0.8v-0.6
				h-0.6v-0.7h0.6v-0.6h0.7v0.6h0.7V14.5z"/>
		</g>
		<g>
			<g>
				<g>
					<defs>
						<rect id="SVGID_1_" x="2.8" y="14.5" width="26.2" height="8.1"/>
					</defs>
					<clipPath id="SVGID_00000118357925000184872690000002679285368067466415_">
						<use xlink:href="#SVGID_1_"  style="overflow:visible;"/>
					</clipPath>
					<g style="clip-path:url(#SVGID_00000118357925000184872690000002679285368067466415_);">
						<path class="st3" d="M20.8,15.2c0,0.2,0.2,0.4,0.4,0.4l0,0h7.2v6.4H3.5v-6.4h7.2c0.2,0,0.4-0.2,0.4-0.4c0-0.2-0.2-0.4-0.4-0.4
							H2.8v7.7h26.1v-7.7H21C20.9,14.8,20.8,15,20.8,15.2z"/>
					</g>
				</g>
			</g>
			<g>
				<g>
					<defs>
						<rect id="SVGID_00000169546581079598538940000010885346748349798037_" x="2.8" y="14.5" width="26.2" height="8.1"/>
					</defs>
					<clipPath id="SVGID_00000161617244431085407760000003211811797505514369_">
						<use xlink:href="#SVGID_00000169546581079598538940000010885346748349798037_"  style="overflow:visible;"/>
					</clipPath>
					<g style="clip-path:url(#SVGID_00000161617244431085407760000003211811797505514369_);">
						<path class="st0" d="M20.8,15.2c0,0.2,0.2,0.4,0.4,0.4l0,0h7.2v6.4H3.5v-6.4h7.2c0.2,0,0.4-0.2,0.4-0.4c0-0.2-0.2-0.4-0.4-0.4
							H2.8v7.7h26.1v-7.7H21C20.9,14.8,20.8,15,20.8,15.2z"/>
					</g>
				</g>
			</g>
			<g>
				<g>
					<defs>
						<rect id="SVGID_00000100355310002570624020000013240780189768441023_" x="2.8" y="14.5" width="26.2" height="8.1"/>
					</defs>
					<clipPath id="SVGID_00000056394475865373245890000010842073209936494472_">
						<use xlink:href="#SVGID_00000100355310002570624020000013240780189768441023_"  style="overflow:visible;"/>
					</clipPath>
				</g>
			</g>
		</g>
		<path class="st0" d="M16.5,11.7h-1.2c-0.2,0-0.3,0.1-0.3,0.2v0.5c0,0.1,0.1,0.2,0.2,0.2h1.2c0.1,0,0.2-0.1,0.2-0.2v-0.5
			C16.7,11.8,16.6,11.7,16.5,11.7z M16.5,12.3C16.5,12.4,16.5,12.4,16.5,12.3l-1.1,0.1c-0.1,0-0.1,0-0.1-0.1V12c0-0.1,0-0.1,0.1-0.1
			h1c0.1,0,0.1,0.1,0.1,0.1V12.3z"/>
	</g>
	<g>
		<g>
			<g>
				<g>
					<defs>
						<rect id="SVGID_00000174562803314307551450000002806608326652194446_" x="2.8" y="14.5" width="26.2" height="8.1"/>
					</defs>
					<clipPath id="SVGID_00000003104296703203404120000015289917501405144462_">
						<use xlink:href="#SVGID_00000174562803314307551450000002806608326652194446_"  style="overflow:visible;"/>
					</clipPath>
				</g>
			</g>
			<g>
				<g>
					<defs>
						<rect id="SVGID_00000023965904566491287990000000040938879628211092_" x="2.8" y="14.5" width="26.2" height="8.1"/>
					</defs>
					<clipPath id="SVGID_00000098211616922213391500000000114732526425744026_">
						<use xlink:href="#SVGID_00000023965904566491287990000000040938879628211092_"  style="overflow:visible;"/>
					</clipPath>
				</g>
			</g>
			<g>
				<g>
					<defs>
						<rect id="SVGID_00000013880450006301072340000004290503965990747035_" x="2.8" y="14.5" width="26.2" height="8.1"/>
					</defs>
					<clipPath id="SVGID_00000062878169031760576350000000327926857673110691_">
						<use xlink:href="#SVGID_00000013880450006301072340000004290503965990747035_"  style="overflow:visible;"/>
					</clipPath>
				</g>
			</g>
		</g>
	</g>
	<g>
		<g>
			<g>
				<g>
					<defs>
						<rect id="SVGID_00000148654646944163806640000002594029258806076806_" x="2.8" y="14.5" width="26.2" height="8.1"/>
					</defs>
					<clipPath id="SVGID_00000091012771496155291620000009592196452486203010_">
						<use xlink:href="#SVGID_00000148654646944163806640000002594029258806076806_"  style="overflow:visible;"/>
					</clipPath>
				</g>
			</g>
			<g>
				<g>
					<defs>
						<rect id="SVGID_00000172404298135055718850000003385894874506206137_" x="2.8" y="14.5" width="26.2" height="8.1"/>
					</defs>
					<clipPath id="SVGID_00000079450574117635969440000004322914346389479831_">
						<use xlink:href="#SVGID_00000172404298135055718850000003385894874506206137_"  style="overflow:visible;"/>
					</clipPath>
				</g>
			</g>
			<g>
				<g>
					<defs>
						<rect id="SVGID_00000147177878696420653750000013359489324543674506_" x="2.8" y="14.5" width="26.2" height="8.1"/>
					</defs>
					<clipPath id="SVGID_00000011021515135537257500000011480654414695511991_">
						<use xlink:href="#SVGID_00000147177878696420653750000013359489324543674506_"  style="overflow:visible;"/>
					</clipPath>
				</g>
			</g>
		</g>
	</g>
</g>
<path class="st5" d="M27.4,31.7c2.3,0,4.1-1.8,4.1-4.1l0,0v-23c0-2.3-1.8-4.1-4.1-4.1l0,0h-23c-2.3,0-4.1,1.8-4.1,4.1v22.9
	c0,2.3,1.8,4.1,4.1,4.1l0,0h23"/>
</svg>
