<svg xmlns="http://www.w3.org/2000/svg" xmlns:xlink="http://www.w3.org/1999/xlink" width="40" zoomAndPan="magnify" viewBox="0 0 30 30.000001" height="40" preserveAspectRatio="xMidYMid meet" version="1.0"><defs><clipPath id="709a38ba6a"><path d="M 0.484375 0 L 29.515625 0 L 29.515625 29.03125 L 0.484375 29.03125 Z M 0.484375 0 " clip-rule="nonzero"/></clipPath><clipPath id="f3322dab26"><path d="M 2.613281 1.355469 L 27.292969 1.355469 L 27.292969 26.035156 L 2.613281 26.035156 Z M 2.613281 1.355469 " clip-rule="nonzero"/></clipPath></defs><g clip-path="url(#709a38ba6a)"><path fill="#ffffff" d="M 0.484375 0 L 29.515625 0 L 29.515625 29.03125 L 0.484375 29.03125 Z M 0.484375 0 " fill-opacity="1" fill-rule="nonzero"/><path fill="#000000" d="M 0.484375 0 L 29.515625 0 L 29.515625 29.03125 L 0.484375 29.03125 Z M 0.484375 0 " fill-opacity="1" fill-rule="nonzero"/></g><g clip-path="url(#f3322dab26)"><path fill="#ffffff" d="M 27.382812 7.53125 C 27.382812 4.128906 24.613281 1.355469 21.207031 1.355469 C 18.070312 1.355469 15.476562 3.707031 15.082031 6.734375 L 2.964844 6.734375 C 2.769531 6.734375 2.613281 6.890625 2.613281 7.085938 L 2.613281 25.773438 C 2.613281 25.96875 2.769531 26.125 2.964844 26.125 L 24.675781 26.125 C 24.867188 26.125 25.027344 25.96875 25.027344 25.773438 L 25.027344 12.382812 C 26.460938 11.25 27.382812 9.496094 27.382812 7.53125 Z M 11.507812 17.75 L 11.507812 17.34375 L 13.496094 17.34375 L 13.496094 17.75 Z M 13.710938 16.644531 C 13.695312 16.644531 13.679688 16.644531 13.664062 16.644531 L 11.339844 16.644531 C 11.324219 16.644531 11.308594 16.644531 11.292969 16.644531 C 10.855469 16.328125 10.566406 15.859375 10.476562 15.335938 L 14.527344 15.335938 C 14.4375 15.859375 14.144531 16.328125 13.710938 16.644531 Z M 10.808594 17.160156 C 10.808594 17.164062 10.804688 17.171875 10.804688 17.179688 L 10.804688 17.75 L 4.671875 17.75 C 4.847656 15.933594 6.386719 14.507812 8.25 14.507812 C 8.785156 14.507812 9.300781 14.621094 9.773438 14.84375 C 9.757812 14.886719 9.746094 14.933594 9.746094 14.984375 C 9.746094 15.84375 10.136719 16.636719 10.808594 17.160156 Z M 24.324219 18.453125 L 24.324219 19.382812 L 3.316406 19.382812 L 3.316406 18.453125 Z M 16.503906 14.625 L 18.351562 14.625 L 18.203125 17.75 L 16.652344 17.75 Z M 3.316406 25.421875 L 3.316406 20.085938 L 24.324219 20.085938 L 24.324219 25.421875 Z M 24.324219 17.75 L 18.90625 17.75 L 19.070312 14.292969 C 19.074219 14.195312 19.039062 14.101562 18.972656 14.03125 C 18.90625 13.960938 18.816406 13.921875 18.71875 13.921875 L 16.136719 13.921875 C 16.039062 13.921875 15.949219 13.960938 15.882812 14.03125 C 15.816406 14.101562 15.78125 14.195312 15.785156 14.292969 L 15.949219 17.75 L 14.199219 17.75 L 14.199219 17.179688 C 14.199219 17.171875 14.195312 17.164062 14.195312 17.160156 C 14.867188 16.636719 15.257812 15.84375 15.257812 14.984375 C 15.257812 14.792969 15.101562 14.632812 14.90625 14.632812 L 10.785156 14.632812 C 10.046875 14.089844 9.171875 13.804688 8.25 13.804688 C 5.996094 13.804688 4.148438 15.542969 3.96875 17.75 L 3.316406 17.75 L 3.316406 7.4375 L 15.03125 7.4375 C 15.03125 7.46875 15.03125 7.5 15.03125 7.53125 C 15.03125 10.9375 17.800781 13.707031 21.207031 13.707031 C 22.34375 13.707031 23.410156 13.398438 24.324219 12.863281 Z M 21.207031 13.007812 C 18.1875 13.007812 15.734375 10.550781 15.734375 7.53125 C 15.734375 4.515625 18.1875 2.058594 21.207031 2.058594 C 24.226562 2.058594 26.679688 4.515625 26.679688 7.53125 C 26.679688 10.550781 24.226562 13.007812 21.207031 13.007812 Z M 21.320312 3.453125 C 21.320312 3.261719 21.164062 3.101562 20.96875 3.101562 C 20.773438 3.101562 20.617188 3.261719 20.617188 3.453125 L 20.617188 4.9375 L 20.195312 4.9375 L 20.195312 3.453125 C 20.195312 3.261719 20.039062 3.101562 19.84375 3.101562 C 19.648438 3.101562 19.492188 3.261719 19.492188 3.453125 L 19.492188 4.9375 L 19.070312 4.9375 L 19.070312 3.453125 C 19.070312 3.261719 18.914062 3.101562 18.71875 3.101562 C 18.527344 3.101562 18.367188 3.261719 18.367188 3.453125 L 18.367188 5.289062 C 18.367188 5.75 18.617188 6.167969 19.007812 6.386719 L 19.007812 11.128906 C 19.007812 11.589844 19.382812 11.960938 19.84375 11.960938 C 20.304688 11.960938 20.679688 11.589844 20.679688 11.128906 L 20.679688 6.386719 C 21.070312 6.167969 21.316406 5.753906 21.320312 5.292969 C 21.320312 5.292969 21.320312 5.289062 21.320312 5.289062 C 21.320312 5.285156 21.320312 5.285156 21.320312 5.285156 Z M 20.222656 5.824219 C 20.078125 5.871094 19.976562 6.007812 19.976562 6.160156 L 19.976562 11.128906 C 19.976562 11.199219 19.917969 11.261719 19.84375 11.261719 C 19.773438 11.261719 19.710938 11.199219 19.710938 11.128906 L 19.710938 6.160156 C 19.710938 6.007812 19.613281 5.871094 19.464844 5.824219 C 19.355469 5.789062 19.265625 5.722656 19.195312 5.640625 L 20.492188 5.640625 C 20.425781 5.722656 20.332031 5.789062 20.222656 5.824219 Z M 23.695312 3.113281 C 22.582031 3.113281 21.804688 4.304688 21.804688 6.007812 C 21.804688 6.75 22.011719 7.035156 22.375 7.390625 L 22.375 11.128906 C 22.375 11.589844 22.75 11.960938 23.210938 11.960938 C 23.671875 11.960938 24.042969 11.589844 24.042969 11.128906 L 24.042969 3.464844 C 24.042969 3.273438 23.886719 3.113281 23.695312 3.113281 Z M 22.507812 6.007812 C 22.507812 4.96875 22.84375 4.160156 23.34375 3.902344 L 23.34375 7.898438 L 23.078125 7.898438 L 23.078125 7.238281 C 23.078125 7.140625 23.035156 7.046875 22.964844 6.984375 L 22.957031 6.972656 C 22.601562 6.640625 22.507812 6.554688 22.507812 6.007812 Z M 23.210938 11.261719 C 23.136719 11.261719 23.074219 11.199219 23.074219 11.128906 L 23.074219 8.605469 L 23.34375 8.605469 L 23.34375 11.128906 C 23.34375 11.199219 23.28125 11.261719 23.210938 11.261719 Z M 8.25 9.105469 C 7.050781 9.105469 6.074219 10.082031 6.074219 11.28125 C 6.074219 12.480469 7.050781 13.457031 8.25 13.457031 C 9.449219 13.457031 10.421875 12.480469 10.421875 11.28125 C 10.421875 10.082031 9.449219 9.105469 8.25 9.105469 Z M 8.25 12.753906 C 7.4375 12.753906 6.777344 12.09375 6.777344 11.28125 C 6.777344 10.46875 7.4375 9.808594 8.25 9.808594 C 9.0625 9.808594 9.722656 10.46875 9.722656 11.28125 C 9.722656 12.09375 9.0625 12.753906 8.25 12.753906 Z M 11.875 12.582031 C 11.980469 12.917969 12.113281 13.34375 11.878906 13.804688 C 11.816406 13.929688 11.695312 14 11.566406 14 C 11.511719 14 11.457031 13.988281 11.410156 13.964844 C 11.234375 13.875 11.164062 13.664062 11.25 13.492188 C 11.351562 13.289062 11.304688 13.101562 11.207031 12.785156 C 11.09375 12.421875 10.941406 11.925781 11.300781 11.410156 C 11.414062 11.25 11.632812 11.210938 11.789062 11.324219 C 11.949219 11.433594 11.988281 11.652344 11.878906 11.8125 C 11.71875 12.035156 11.769531 12.230469 11.875 12.582031 Z M 13.796875 12.582031 C 13.902344 12.917969 14.03125 13.34375 13.800781 13.804688 C 13.738281 13.929688 13.613281 14 13.484375 14 C 13.433594 14 13.378906 13.988281 13.328125 13.964844 C 13.15625 13.875 13.085938 13.664062 13.171875 13.492188 C 13.273438 13.289062 13.222656 13.101562 13.125 12.785156 C 13.015625 12.421875 12.859375 11.925781 13.222656 11.410156 C 13.332031 11.25 13.550781 11.210938 13.710938 11.324219 C 13.871094 11.433594 13.910156 11.652344 13.796875 11.8125 C 13.640625 12.035156 13.6875 12.230469 13.796875 12.582031 Z M 10.585938 20.671875 L 4.8125 20.671875 C 4.617188 20.671875 4.460938 20.828125 4.460938 21.023438 L 4.460938 24.488281 C 4.460938 24.679688 4.617188 24.839844 4.8125 24.839844 L 10.585938 24.839844 C 10.78125 24.839844 10.9375 24.679688 10.9375 24.488281 L 10.9375 21.023438 C 10.9375 20.828125 10.78125 20.671875 10.585938 20.671875 Z M 10.234375 24.136719 L 5.164062 24.136719 L 5.164062 21.375 L 10.234375 21.375 Z M 22.828125 20.671875 L 17.054688 20.671875 C 16.859375 20.671875 16.703125 20.828125 16.703125 21.023438 L 16.703125 24.488281 C 16.703125 24.679688 16.859375 24.839844 17.054688 24.839844 L 22.828125 24.839844 C 23.019531 24.839844 23.179688 24.679688 23.179688 24.488281 L 23.179688 21.023438 C 23.179688 20.828125 23.019531 20.671875 22.828125 20.671875 Z M 22.476562 24.136719 L 17.40625 24.136719 L 17.40625 21.375 L 22.476562 21.375 Z M 22.476562 24.136719 " fill-opacity="1" fill-rule="nonzero"/></g></svg>