<?xml version="1.0" encoding="utf-8"?>
<!-- Generator: Adobe Illustrator 26.0.1, SVG Export Plug-In . SVG Version: 6.00 Build 0)  -->
<svg version="1.1" id="Layer_1" xmlns="http://www.w3.org/2000/svg" xmlns:xlink="http://www.w3.org/1999/xlink" x="0px" y="0px"
	 viewBox="0 0 32 32" style="enable-background:new 0 0 32 32;" xml:space="preserve">
<style type="text/css">
	.st0{clip-path:url(#SVGID_00000106127804868668511990000012898078214798768523_);}
	.st1{fill:#392B6C;}
	.st2{clip-path:url(#SVGID_00000137102436897287760770000008108225476248442764_);}
</style>
<g>
	<defs>
		<rect id="SVGID_1_" x="17.8" y="3.4" width="5.5" height="5.3"/>
	</defs>
	<clipPath id="SVGID_00000149357268249389029460000008435991150097285049_">
		<use xlink:href="#SVGID_1_"  style="overflow:visible;"/>
	</clipPath>
	<g style="clip-path:url(#SVGID_00000149357268249389029460000008435991150097285049_);">
		<path class="st1" d="M23.1,6c0,0.2,0,0.3,0,0.5c0,0.2-0.1,0.3-0.1,0.5c-0.1,0.2-0.2,0.3-0.2,0.5c-0.1,0.1-0.2,0.3-0.3,0.4
			C22.2,8,22.1,8.1,22,8.2c-0.1,0.1-0.3,0.2-0.5,0.2c-0.2,0.1-0.3,0.1-0.5,0.1c-0.2,0-0.3,0-0.5,0.1c-0.2,0-0.3,0-0.5-0.1
			c-0.2,0-0.3-0.1-0.5-0.1c-0.2-0.1-0.3-0.1-0.5-0.2c-0.1-0.1-0.3-0.2-0.4-0.3c-0.1-0.1-0.2-0.3-0.3-0.4c-0.1-0.1-0.2-0.3-0.2-0.5
			c-0.1-0.2-0.1-0.3-0.1-0.5c-0.1-0.3-0.1-0.7,0-1c0-0.2,0.1-0.3,0.1-0.5c0.1-0.2,0.2-0.3,0.2-0.4c0.1-0.1,0.2-0.3,0.3-0.4
			C18.7,4,18.9,3.9,19,3.8c0.1-0.1,0.3-0.2,0.5-0.2c0.3-0.1,0.7-0.2,1-0.2c0.2,0,0.3,0,0.5,0c0.2,0,0.3,0.1,0.5,0.2
			c0.2,0.1,0.4,0.1,0.5,0.2c0.1,0.1,0.3,0.2,0.4,0.3c0.1,0.1,0.2,0.3,0.3,0.4C22.8,4.7,22.9,4.8,23,5c0.1,0.2,0.1,0.3,0.1,0.5
			C23.1,5.7,23.1,5.8,23.1,6z"/>
	</g>
</g>
<path class="st1" d="M28,10.4c-0.3-0.5-1-0.6-1.5-0.3l-4.3,2.8l-2.2-2c-0.1,0.4-0.2,0.7-0.4,1l-0.6,1l2.4,2.1
	c0.2,0.2,0.5,0.3,0.7,0.3c0.2,0,0.4-0.1,0.6-0.2l5-3.2C28.2,11.6,28.3,10.9,28,10.4C28,10.4,28,10.4,28,10.4z"/>
<g>
	<defs>
		<rect id="SVGID_00000025400312522405758320000005546076050109808799_" x="3.2" y="17.8" width="9.6" height="12.3"/>
	</defs>
	<clipPath id="SVGID_00000047781410757182522830000006243903951204962713_">
		<use xlink:href="#SVGID_00000025400312522405758320000005546076050109808799_"  style="overflow:visible;"/>
	</clipPath>
	<g style="clip-path:url(#SVGID_00000047781410757182522830000006243903951204962713_);">
		<path class="st1" d="M11.8,19.2c-0.5-0.3-0.9-0.7-1.2-1.2l-1.4,4.6l-5.6,5.3c-0.5,0.5-0.5,1.3,0,1.8c0,0,0,0,0,0
			C3.8,29.9,4.2,30,4.5,30c0.3,0,0.6-0.1,0.9-0.4l5.8-5.5c0.2-0.2,0.3-0.3,0.3-0.5l1.3-4h-0.1C12.4,19.5,12.1,19.3,11.8,19.2z"/>
	</g>
</g>
<path class="st1" d="M19.4,18.7l-3.8-1.5l3.4-5.7c0.6-1.1,0.3-2.4-0.8-3.1c-0.2-0.1-0.4-0.2-0.6-0.3c-0.1-0.1-0.2-0.1-0.4-0.1
	l-6.6-0.7c-0.2,0-0.4,0-0.6,0.1L5.3,9.7c-0.6,0.3-0.9,1-0.6,1.6C4.9,11.7,5.4,12,5.8,12c0.2,0,0.3,0,0.5-0.1l4.4-2.1l3.9,0.4
	l-3.1,5.2c-0.6,1.1-0.3,2.4,0.8,3.1c0.2,0.1,0.4,0.2,0.7,0.3l4.2,1.6l-3.6,5.3c-0.4,0.5-0.2,1.3,0.3,1.6c0.2,0.1,0.4,0.2,0.7,0.2
	c0.4,0,0.8-0.2,1-0.5l4.5-6.6c0.4-0.5,0.2-1.3-0.3-1.7C19.6,18.7,19.5,18.7,19.4,18.7L19.4,18.7z"/>
</svg>
