<?xml version="1.0" encoding="utf-8"?>
<!-- Generator: Adobe Illustrator 26.0.1, SVG Export Plug-In . SVG Version: 6.00 Build 0)  -->
<svg version="1.1" id="Layer_1" xmlns="http://www.w3.org/2000/svg" xmlns:xlink="http://www.w3.org/1999/xlink" x="0px" y="0px"
	 viewBox="0 0 32 32" style="enable-background:new 0 0 32 32;" xml:space="preserve">
<style type="text/css">
	.st0{fill:none;stroke:#FAFAFC;stroke-miterlimit:10;}
	.st1{fill:#FCFCFC;}
	.st2{fill:none;stroke:#FFFFFF;stroke-width:0.5;stroke-miterlimit:10;}
</style>
<path class="st0" d="M27.5,31.7c2.3,0,4.1-1.8,4.1-4.1l0,0V4.7c0-2.3-1.8-4.1-4.1-4.1l0,0H4.6c-2.3,0-4.1,1.8-4.1,4.1v22.9
	c0,2.3,1.8,4.1,4.1,4.1l0,0L27.5,31.7"/>
<g>
	<path class="st1" d="M19.4,19.8c-0.6-0.3-1.1-0.6-1.7-0.9c-0.8-0.4-1.6-0.8-2.3-1.3c-0.5-0.3-0.9-0.6-1.2-1
		c-0.5-0.7-0.6-1.4-0.2-2.2c0.2-0.5,0.5-0.9,0.8-1.2c0.5-0.6,1.1-1.1,1.7-1.6c0.1-0.1,0.3-0.2,0.4-0.4c-0.1,0-0.2,0-0.3,0
		c-0.6,0-1.2,0.1-1.8,0.1c-0.7,0-1.3,0-2,0c-0.6,0-1.2-0.1-1.8-0.2c-0.3-0.1-0.5-0.2-0.8-0.4c-0.3-0.3-0.3-0.7,0.1-0.9
		c0.2-0.1,0.4-0.2,0.7-0.2c0.6-0.1,1.3-0.3,1.9-0.4c1-0.2,2.1-0.4,3.2-0.7C16.8,8.3,17.4,8.2,18,8h0.1c-0.5-1-0.6-2.1,0-3.1
		c0.4-0.6,0.9-1.1,1.6-1.3c1.5-0.5,3.1,0.2,3.8,1.5c0.4,0.8,0.4,1.6,0.1,2.4s-0.9,1.4-1.7,1.7C22,9.4,22,9.6,22.1,9.8
		c0.1,0.3,0.2,0.7,0.4,1v0.1c0.1,0.1,0.1,0.1,0.3,0.1c0.7-0.2,1.4-0.4,2.1-0.6c0.2-0.1,0.4,0,0.4,0.2c0.2,0.5,0,0.9-0.3,1.3
		c-0.3,0.4-0.7,0.6-1.1,0.9c-0.6,0.3-1.2,0.6-1.9,0.8c-0.2,0.1-0.4,0.1-0.6,0.1s-0.4-0.1-0.5-0.3c-0.2-0.2-0.4-0.4-0.6-0.6
		c0,0,0,0-0.1-0.1c-0.5,0.8-1,1.5-1.5,2.3c0.3,0.2,0.6,0.4,0.8,0.6c0.8,0.5,1.6,1,2.4,1.5c0.3,0.2,0.5,0.4,0.7,0.6
		c0.3,0.4,0.4,0.9,0.2,1.4c-0.3,0.7-0.6,1.4-0.9,2c-0.3,0.5-0.5,1-0.8,1.5c0,0.1-0.1,0.1-0.1,0.2c0.2,0,0.3,0.1,0.5,0.1
		c0.5,0.2,1,0.4,1.3,0.8c0.2,0.2,0.3,0.5,0.3,0.7c0,0.3-0.2,0.6-0.5,0.7c-0.1,0-0.3,0.1-0.4,0.1c0,0-0.1,0-0.1,0.1
		c-0.1,0.4-0.3,0.9-0.4,1.4l0,0c0,0,0,0,0.1,0c0.3,0,0.6,0,0.9,0s0.6-0.1,0.8-0.4c0.1-0.1,0.2-0.2,0.3-0.2c0.2,0,0.4,0.3,0.3,0.5
		c0,0.1-0.1,0.2-0.2,0.2c-0.4,0.3-0.8,0.5-1.3,0.5c-2,0-4,0-6,0c-0.1,0-0.1,0-0.2,0c-0.2,0-0.3-0.2-0.3-0.3c0-0.2,0.1-0.3,0.3-0.3
		h0.1c0.3,0,0.7,0,1,0c0,0,0.1,0,0.1-0.1c0.1-0.4,0.3-0.9,0.4-1.3l0,0c-0.1,0-0.3,0-0.4,0s-0.1,0-0.2,0c-0.3,0-0.4-0.2-0.3-0.5
		c0.1-0.4,0.3-0.8,0.5-1.2C18.4,22.4,18.9,21.2,19.4,19.8C19.4,19.9,19.4,19.9,19.4,19.8z M24.8,11.2c-0.1,0-0.2,0.1-0.3,0.1
		c-0.5,0.1-1,0.3-1.5,0.4c-0.3,0.1-0.7,0-0.9-0.3C22,11.3,22,11.2,21.9,11c-0.2-0.5-0.4-1-0.6-1.5c0-0.1-0.1-0.1-0.2-0.1
		c-1,0.1-1.8-0.1-2.5-0.8c-0.1-0.1-0.1-0.1-0.2,0C17.7,8.8,17,9,16.2,9.2c-1.3,0.3-2.5,0.6-3.8,0.9c-0.4,0.1-0.9,0.2-1.3,0.3
		c-0.1,0-0.1,0-0.2,0c-0.1,0-0.1,0-0.2,0l0,0c0.2,0.1,0.3,0.1,0.5,0.1c0.6,0.1,1.2,0.2,1.9,0.2c0.6,0,1.2,0,1.8-0.1
		c0.5,0,1.1-0.1,1.6-0.1c0.3,0,0.7-0.1,1-0.1s0.4,0.2,0.4,0.4c0,0.1-0.1,0.2-0.2,0.3c-0.2,0.3-0.6,0.6-0.9,0.8
		c-0.5,0.4-0.9,0.8-1.4,1.3c-0.4,0.4-0.7,0.8-1,1.3c-0.2,0.5-0.3,1,0,1.4c0.2,0.4,0.6,0.7,1,1c1,0.6,2,1.1,3,1.6
		c0.4,0.2,0.9,0.5,1.4,0.7c0.1,0.1,0.2,0.1,0.2,0.3c0,0.1,0,0.2,0,0.3c-0.6,1.5-1.2,3.1-1.8,4.6v0.1h0.1c1.2,0,2.3,0,3.5,0
		c0.2,0,0.3,0,0.5,0s0.3-0.1,0.2-0.3c-0.1-0.2-0.2-0.3-0.4-0.4c-0.5-0.3-1-0.4-1.5-0.4c-0.2,0-0.3-0.1-0.3-0.3c0-0.1,0-0.2,0.1-0.3
		c0.5-0.9,0.9-1.8,1.4-2.7c0.2-0.4,0.4-0.9,0.6-1.3c0.1-0.3,0.1-0.6-0.2-0.8c-0.1-0.1-0.3-0.2-0.4-0.3c-1.2-0.7-2.3-1.5-3.5-2.3
		c-0.2-0.2-0.3-0.3-0.1-0.6c0.6-0.9,1.2-1.9,1.8-2.8c0.2-0.2,0.4-0.3,0.6-0.1c0.3,0.3,0.5,0.5,0.8,0.8c0.2,0.2,0.3,0.3,0.5,0.1l0,0
		c0.6-0.2,1.2-0.4,1.8-0.7c0.3-0.2,0.6-0.4,0.9-0.6C24.7,11.4,24.7,11.3,24.8,11.2z M20.8,8.8c1.3,0,2.4-1.1,2.4-2.3
		c0-1.3-1.1-2.4-2.4-2.4s-2.3,1.1-2.4,2.3C18.4,7.7,19.4,8.8,20.8,8.8z M18.7,26.7C18.7,26.7,18.7,26.8,18.7,26.7c0.8,0,1.6,0,2.4,0
		c0.1,0,0.1,0,0.1-0.1c0.1-0.3,0.2-0.7,0.3-1c0-0.1,0.1-0.3,0.1-0.4c0,0,0,0-0.1,0c-0.8,0-1.5,0-2.3,0c-0.1,0-0.1,0-0.1,0.1
		C19,25.6,19,25.8,18.9,26S18.8,26.5,18.7,26.7z"/>
	<path class="st1" d="M12.8,24.1c0-0.1,0-0.2,0-0.3c0-1.3,0.5-2.4,1.3-3.3c0.4-0.5,0.8-0.8,1.3-1.2c0.2-0.1,0.4-0.1,0.5,0
		c0.1,0.2,0.1,0.4-0.1,0.5c-0.3,0.3-0.7,0.5-1,0.8c-0.7,0.7-1.1,1.5-1.3,2.4c0,0.3-0.1,0.5-0.1,0.8c0,0.2,0,0.4-0.1,0.6
		c-0.1,0.3-0.4,0.5-0.7,0.4c-0.4-0.1-0.7-0.4-0.9-0.7c-0.3-0.4-0.4-0.9-0.5-1.3c-0.1-0.5-0.2-0.9-0.3-1.4c0-0.1,0-0.2,0.1-0.3
		c0.9-0.9,1.8-1.8,2.7-2.7c0.1-0.1,0.4-0.2,0.5,0c0.1,0.1,0.1,0.3,0,0.5c-0.4,0.4-0.8,0.8-1.2,1.2c-0.4,0.4-0.9,0.9-1.3,1.3
		l-0.1,0.1c0.1,0.7,0.3,1.4,0.6,2c0.1,0.2,0.2,0.3,0.3,0.5C12.7,24,12.8,24.1,12.8,24.1z"/>
	<path class="st1" d="M9.6,20.5c0.2,0,0.3,0.1,0.3,0.3c0,0.2,0,0.4,0.1,0.6c0.1,1.2,0.4,2.4,0.9,3.5c0.2,0.4,0.5,0.8,0.8,1.1
		c0.1,0.1,0.2,0.1,0.3,0.2c0.2,0.1,0.2,0.3,0.1,0.5c-0.1,0.2-0.3,0.2-0.5,0.1c-0.4-0.3-0.8-0.7-1.1-1.1C10,25,9.8,24.2,9.6,23.4
		s-0.3-1.7-0.4-2.5C9.2,20.6,9.3,20.5,9.6,20.5z"/>
	<path class="st1" d="M7.7,14.3c-0.8,0-1.6,0-2.4,0c-0.1,0-0.1,0-0.2,0C5,14.2,4.9,14,4.9,13.9s0.1-0.2,0.3-0.3h0.1
		c1.6,0,3.3,0,4.9,0c0.2,0,0.3,0.1,0.4,0.2c0.1,0.2-0.1,0.4-0.3,0.4h-0.1C9.3,14.3,8.5,14.3,7.7,14.3z"/>
	<path class="st1" d="M6,16.3c-0.8,0-1.6,0-2.4,0c-0.2,0-0.3-0.1-0.4-0.2c-0.1-0.2,0.1-0.4,0.3-0.4c0.1,0,0.1,0,0.2,0
		c1.6,0,3.2,0,4.8,0h0.1c0.2,0,0.3,0.2,0.3,0.4c0,0.2-0.1,0.3-0.3,0.3c-0.4,0-0.9,0-1.3,0C6.8,16.3,6.4,16.3,6,16.3z"/>
</g>
<circle class="st2" cx="8.3" cy="21.7" r="0.5"/>
<circle class="st2" cx="8.7" cy="23.4" r="0.5"/>
<circle class="st2" cx="9.2" cy="25.2" r="0.5"/>
<circle class="st2" cx="10.1" cy="26.8" r="0.5"/>
<circle class="st2" cx="17.5" cy="28.5" r="0.5"/>
<circle class="st2" cx="19.4" cy="28.5" r="0.5"/>
<circle class="st2" cx="21.3" cy="28.5" r="0.5"/>
<circle class="st2" cx="23" cy="28.5" r="0.5"/>
</svg>
