<?xml version="1.0" encoding="utf-8"?>
<!-- Generator: Adobe Illustrator 26.0.1, SVG Export Plug-In . SVG Version: 6.00 Build 0)  -->
<svg version="1.1" id="Layer_1" xmlns="http://www.w3.org/2000/svg" xmlns:xlink="http://www.w3.org/1999/xlink" x="0px" y="0px"
	 viewBox="0 0 32 32" style="enable-background:new 0 0 32 32;" xml:space="preserve">
<style type="text/css">
	.st0{fill:none;stroke:#FAFBFC;stroke-miterlimit:10;}
	.st1{fill:none;stroke:#FAFBFC;stroke-width:0.75;stroke-miterlimit:10;}
</style>
<path class="st0" d="M27.5,31.6c2.3,0,4.1-1.8,4.1-4.1v-23c0-2.3-1.8-4.1-4.1-4.1l0,0h-23c-2.3,0-4.1,1.8-4.1,4.1v22.9
	c0,1.1,0.4,2.1,1.2,2.9s1.8,1.2,2.9,1.2L27.5,31.6"/>
<g>
	<path class="st1" d="M19.1,21.9c0,0-1.1,1-7.1-1.8c0,0-2-0.9-6,2c0,0-1.7,1-3.1,0c0,0,1.7,0.3,3.7-1.5c0,0,2.5-2,4.1-1.9
		s1.3-0.1,3.3,0.8S17.1,21.7,19.1,21.9z"/>
	<path class="st1" d="M28.9,18.1c0,0-2.9,4.4-10.6,1.7s-6.2-3.2-12.2-0.9c0,0,3-4.1,7.8-2.5s8.1,3,10.2,2.9
		C26.2,19.2,28.9,18.1,28.9,18.1z"/>
	<path class="st1" d="M22,17.8l-2.2-7.2L19,6.9c-0.1-0.2-0.1-0.4-0.3-0.6l-0.2-0.2c-1.1-0.4-2.3-0.7-3.7-1c-1.1-0.2-2.2-0.3-3.2-0.4
		l0,0c-1-0.1-1.9,0.1-2.7,0.6c-0.6,0.3-0.7,1-0.4,1.6l0,0c0.2,0.4,0.6,0.7,1,0.8L16,9.3l0.6,3.9c-1.1,0.1-2.1,0.3-3.1,0.6
		c-0.5,0.1-0.6,0.2-1.1,0.4c-0.1,0.1-0.5,0.3-1.2,0.8c2.3-0.3,4,0.8,6.5,1.6c0,0,1,0.3,2.2,0.7c1.2,0.5,1.8,0.7,2.2,0.6L22,17.8z"/>
	<circle class="st1" cx="25.6" cy="14.2" r="3.3"/>
</g>
</svg>
