<svg xmlns="http://www.w3.org/2000/svg" xmlns:xlink="http://www.w3.org/1999/xlink" width="40" zoomAndPan="magnify" viewBox="0 0 30 30.000001" height="40" preserveAspectRatio="xMidYMid meet" version="1.0"><defs><clipPath id="a298b29967"><path d="M 0.484375 0 L 29.515625 0 L 29.515625 29.03125 L 0.484375 29.03125 Z M 0.484375 0 " clip-rule="nonzero"/></clipPath><clipPath id="263f076d65"><path d="M 5.316406 3 L 24.914062 3 L 24.914062 26.128906 L 5.316406 26.128906 Z M 5.316406 3 " clip-rule="nonzero"/></clipPath></defs><g clip-path="url(#a298b29967)"><path fill="#ffffff" d="M 0.484375 0 L 29.515625 0 L 29.515625 29.03125 L 0.484375 29.03125 Z M 0.484375 0 " fill-opacity="1" fill-rule="nonzero"/><path fill="#000000" d="M 0.484375 0 L 29.515625 0 L 29.515625 29.03125 L 0.484375 29.03125 Z M 0.484375 0 " fill-opacity="1" fill-rule="nonzero"/></g><g clip-path="url(#263f076d65)"><path fill="#ffffff" d="M 22.894531 12.769531 L 10.960938 12.769531 L 10.960938 5.1875 C 10.960938 4.269531 10.214844 3.523438 9.296875 3.523438 C 7.882812 3.574219 5.359375 3.050781 5.3125 5.1875 C 5.3125 5.1875 5.3125 13.855469 5.3125 13.855469 C 5.375 15.570312 6.980469 15.601562 8.292969 15.523438 L 9.011719 25.585938 C 9.03125 25.835938 9.238281 26.035156 9.492188 26.035156 L 17.511719 26.035156 C 17.761719 26.035156 17.972656 25.835938 17.992188 25.585938 L 18.265625 21.738281 C 21.347656 21.078125 23.5625 18.4375 23.664062 15.261719 C 24.667969 14.574219 24.183594 12.726562 22.894531 12.769531 Z M 22.894531 13.730469 C 23.363281 13.726562 23.363281 14.570312 22.894531 14.5625 L 10.960938 14.5625 C 10.960938 14.472656 10.960938 13.808594 10.960938 13.730469 Z M 6.277344 13.859375 L 6.277344 5.191406 C 6.277344 4.808594 6.589844 4.488281 6.980469 4.488281 L 9.300781 4.488281 C 9.683594 4.488281 10.003906 4.804688 10.003906 5.191406 L 10.003906 13.859375 C 10.011719 14.546875 9.265625 14.617188 8.746094 14.5625 C 8.121094 14.464844 6.257812 14.945312 6.277344 13.859375 Z M 17.730469 20.871094 C 17.128906 20.992188 15.648438 20.929688 15.011719 20.945312 C 14.386719 20.933594 14.386719 21.917969 15.011719 21.90625 C 15.371094 21.898438 16.957031 21.921875 17.285156 21.890625 L 17.058594 25.078125 L 9.945312 25.078125 L 9.261719 15.527344 C 9.289062 15.527344 10.449219 15.527344 10.480469 15.527344 C 10.480469 15.527344 22.691406 15.527344 22.691406 15.527344 C 22.476562 18.234375 20.457031 20.445312 17.730469 20.871094 Z M 17.730469 20.871094 " fill-opacity="1" fill-rule="nonzero"/></g></svg>