<?xml version="1.0" encoding="utf-8"?>
<!-- Generator: Adobe Illustrator 26.0.1, SVG Export Plug-In . SVG Version: 6.00 Build 0)  -->
<svg version="1.1" id="Layer_1" xmlns="http://www.w3.org/2000/svg" xmlns:xlink="http://www.w3.org/1999/xlink" x="0px" y="0px"
	 viewBox="0 0 32 32" style="enable-background:new 0 0 32 32;" xml:space="preserve">
<style type="text/css">
	.st0{fill:none;stroke:#FCFCFC;stroke-width:0.5;stroke-miterlimit:10;}
	.st1{fill:none;stroke:#FCFCFC;stroke-miterlimit:10;}
</style>
<g>
	<path class="st0" d="M9,15.9l6.1-2.5c0.7-1.8,1-3.8,0.9-5.7c0-4.3-2-5.8-3.6-5.8S7.5,4.3,7.5,10C7.5,12.1,8,14.1,9,15.9z"/>
</g>
<g>
	<path class="st0" d="M20.4,24.9c0.5,1.1,0.8,2.3,1,3.5c0,0-0.8,1.2-4.7,1.2c-4.3,0-5.8-2.1-5.8-2.1l0.5-4.5
		C13.8,24,14.3,26.1,20.4,24.9z"/>
</g>
<g>
	<path class="st0" d="M15.6,14.4l-5.9,2.4c1.3,2.3,5.9,3.7,8.6,3.7c2.1,0,6.3-0.5,6.3-2.5C24.6,15.1,18,14.2,15.6,14.4z M17.4,19
		c-2.5-0.1-4.6-1-4.6-1.9s2-1.6,4.6-1.4s4.6,1,4.6,1.9S19.9,19.2,17.4,19z"/>
</g>
<path class="st0" d="M23.5,20.6c-0.8,2.1-2.9,3.9-6.7,3.9c-5.6,0-8.8-4.2-8.8-7.7C14.3,24,23.5,20.6,23.5,20.6z"/>
<g>
	<path class="st0" d="M6.5,10c0-5.2,2.7-7.7,4.6-8.1h-0.8c-1.6,0-4.9,2.3-4.9,8.1c0.1,5.1,2.7,6.2,2.7,6.2C7.1,14.3,6.5,12.2,6.5,10
		z"/>
</g>
<path class="st1" d="M27.5,31.6c2.3,0,4.1-1.8,4.1-4.1l0,0V4.6c0-2.3-1.8-4.1-4.1-4.1l0,0H4.6c-2.3,0-4.1,1.8-4.1,4.1v22.9
	c0,1.1,0.4,2.1,1.2,2.9s1.8,1.2,2.9,1.2H27.5"/>
</svg>
