<?xml version="1.0" encoding="utf-8"?>
<!-- Generator: Adobe Illustrator 26.0.1, SVG Export Plug-In . SVG Version: 6.00 Build 0)  -->
<svg version="1.1" id="Layer_1" xmlns="http://www.w3.org/2000/svg" xmlns:xlink="http://www.w3.org/1999/xlink" x="0px" y="0px"
	 viewBox="0 0 32 32" style="enable-background:new 0 0 32 32;" xml:space="preserve">
<style type="text/css">
	.st0{fill:none;stroke:#FAFAFC;stroke-miterlimit:10;}
	.st1{fill:#252E5C;stroke:#FFFFFF;stroke-miterlimit:10;}
	.st2{fill:none;stroke:#FFFFFF;stroke-width:0.25;stroke-miterlimit:10;}
</style>
<path class="st0" d="M27.4,31.6c2.3,0,4.1-1.8,4.1-4.1l0,0v-23c0-2.3-1.8-4.1-4.1-4.1l0,0H4.5c-2.3,0-4.1,1.8-4.1,4.1v22.9
	c0,2.3,1.8,4.1,4.1,4.1h22.9"/>
<path class="st1" d="M16.5,6L16.5,6L16.5,6z"/>
<g>
	<path class="st2" d="M19.4,10.3c0-0.4-0.1-0.9-0.1-1.4S19,8.2,18.9,7.8c0-0.1,0-0.2,0-0.3c0-0.1,0-0.1,0-0.2S18.8,7.1,18.8,7
		s-0.1-0.2-0.2-0.3c-0.1-0.1-0.2-0.1-0.3-0.2l0,0c-0.1-0.1-0.2-0.2-0.4-0.3c-0.1-0.1-0.2-0.2-0.3-0.3h-0.1l0,0l0,0L17.3,6
		c0,0.2,0.2,0.3,0.2,0.4C17.3,6.2,17,6.1,16.8,6l0,0l0,0c0,0-0.1,0.1-0.1,0.2c-0.1,0-0.1,0-0.2,0c0,0.1,0,0.2,0,0.2l0.1,0.1l0,0
		l-0.1,0.1c0.2,0.1,0.3,0.1,0.5,0.1c0.5,0.1,0.9,0.4,1.3,0.7c0.1,0.8,0.1,1.5,0.1,2.3c0,0.2,0,0.5-0.1,0.7c-0.2,0.2-0.3,0.4-0.5,0.5
		l0,0l0,0l0,0c-0.3,0.2-0.5,0.5-0.8,0.7c-0.2,0.1-0.5,0.2-0.7,0.2V12h-0.1l0,0c-0.1,0-0.3,0-0.4-0.1c-0.1-0.1-0.2-0.2-0.3-0.4
		c0-0.2,0.1-0.4,0.1-0.6c-0.1,0-0.1-0.1-0.1-0.2c-0.1-0.1-0.2-0.2-0.2-0.3c-0.1-0.1-0.2-0.3-0.2-0.4l0,0l0,0c-0.1,0-0.3,0-0.4,0
		c-0.3,0-0.4,0-0.6,0C14,9.8,14,9.7,14,9.6l0,0V9.5c0.4-0.7,0.7-1.4,1-2.1l0,0c0-0.2,0-0.4,0.1-0.6c0.3-0.1,0.5-0.2,0.8-0.3l0,0
		c0.2-0.1,0.5-0.1,0.6-0.2l0,0l0.1-0.1l0,0l0.1-0.1V6c-0.4,0-0.8,0.1-1.2,0.2C15.4,6.1,15.1,6.1,15,6c-0.2-0.2-0.4-0.4-0.6-0.6
		c0,0.3,0.1,0.7,0.3,0.9v0.2c-0.3,0.3-0.7,0.6-0.9,1l0,0c-0.2,0.2-0.4,0.5-0.5,0.7c-0.1,0.1-0.2,0.3-0.3,0.5c0,0.4,0,0.8,0,1.2
		c0,0.7,0.1,1.4,0.2,2.1l0,0c0.1,0.5,0,1,0.1,1.4c0.2,0.3,0.3,0.7,0.4,1.1c0.2,0.4,0.4,0.8,0.6,1.1l0,0v0.1c0,0.1,0.1,0.1,0.1,0.2
		l0.1,0.2c0,0.2,0.1,0.5,0,0.7s0,0.5,0,0.7l0.1,0.1c-0.1,0.1-0.1,0.3-0.1,0.4l0,0c0,0.6-0.1,1.1-0.1,1.6c0,0.2,0,0.4,0,0.6h0.1
		c0,1,0.1,2.1,0,3.2l0,0v0.2v0.1C14.4,23.8,14.2,24,14,24l-0.3,0h-0.1c-0.1,0-0.3,0-0.5-0.1L13,24l0,0c-0.2,0.3-0.4,0.6-0.5,0.9
		c-0.1,0.2-0.3,0.4-0.5,0.5l0,0l0,0c-0.1,0.1-0.2,0.2-0.2,0.3c0,0.1,0,0.2-0.1,0.3v0l0,0c0,0.3,0,0.6,0,0.9c0.2,0.2,0.4,0.3,0.6,0.4
		c0.1-0.1,0.2-0.3,0.3-0.4c0.1-0.2,0.2-0.4,0.3-0.5c0.1-0.2,0.2-0.4,0.4-0.5c0.1-0.1,0.1-0.2,0.2-0.4c0.1,0,0.1-0.1,0.1-0.1
		c0.6-0.1,1.3,0.1,1.9-0.1c0.2-0.1,0.3-0.3,0.4-0.5c0.1-0.1,0.2-0.2,0.2-0.3v-0.8c0-0.5,0-1,0-1.4c0.1-0.3,0.1-0.5,0.2-0.8l0,0
		c0-0.1,0.1-0.2,0.1-0.4l0,0c0.1,0.6,0.2,1.2,0.4,1.7c0.1,0.3,0.2,0.7,0.2,1c0.1,0.6-0.6,0.9-0.9,1.4c-0.3,0.6-0.6,1.1-1.1,1.5l0,0
		c-0.2,0.1-0.5,0.1-0.8,0.1c-0.2,0.1-0.5,0.2-0.7,0.3c0,0.1,0.1,0.3,0.1,0.4c0.1,0.1,0.1,0.2,0.1,0.3l0,0V28l0,0
		c0,0.9-0.2,1.7,0.7,2.3c0.1-0.1,0.3-0.1,0.4-0.2c0-0.1,0.1-0.2,0.1-0.3c0-0.5,0.1-1,0.2-1.5c0.1-0.1,0.3-0.2,0.4-0.2
		c-0.1,0-0.2-0.1-0.3-0.2c0.1-0.1,0.2-0.2,0.3-0.3c0.2-0.1,0.3-0.3,0.5-0.5l0,0l0.1-0.1l0,0c0.7-0.7,1.5-1.2,2.4-1.7
		c0.1-0.2,0.1-0.4,0.2-0.6s0.1-0.5,0.2-0.7c-0.1-0.4,0-0.9-0.1-1.3s0-1,0-1.5c-0.1-0.3-0.1-0.6-0.1-0.9l0,0
		c-0.2-0.9-0.4-1.9-0.7-2.8l0,0c-0.1-0.2-0.1-0.4-0.2-0.6c0-0.4-0.1-0.8-0.1-1.2s-0.3-0.8-0.4-1.2s0.1-0.7,0.1-0.9
		c-0.1,0-0.1-0.2-0.1-0.3c0.1-0.2,0.3-0.4,0.5-0.5l0,0c0.3-0.3,0.6-0.6,0.8-1c0.2-0.1,0.3-0.4,0.5-0.6s0.1-0.2,0.1-0.3
		S19.3,10.5,19.4,10.3C19.4,10.4,19.4,10.3,19.4,10.3z"/>
</g>
<circle class="st2" cx="16.5" cy="3.5" r="1.2"/>
</svg>
