<?xml version="1.0" encoding="utf-8"?>
<!-- Generator: Adobe Illustrator 26.0.1, SVG Export Plug-In . SVG Version: 6.00 Build 0)  -->
<svg version="1.1" id="Layer_1" xmlns="http://www.w3.org/2000/svg" xmlns:xlink="http://www.w3.org/1999/xlink" x="0px" y="0px"
	 viewBox="0 0 32 32" style="enable-background:new 0 0 32 32;" xml:space="preserve">
<style type="text/css">
	.st0{fill:none;stroke:#FCFCFC;stroke-miterlimit:10;}
	.st1{fill:none;stroke:#FDFDFF;stroke-width:0.5;stroke-miterlimit:10;}
</style>
<path class="st0" d="M27.4,31.6c1.1,0,2.1-0.4,2.9-1.2c0.8-0.8,1.2-1.8,1.2-2.9V4.6c0-1.1-0.4-2.1-1.2-2.9c-0.8-0.8-1.8-1.2-2.9-1.2
	H4.7c-2.3,0-4.1,1.8-4.1,4.1v22.9c0,1.1,0.4,2.1,1.2,2.9s1.8,1.2,2.9,1.2H27.4"/>
<g>
	<path class="st1" d="M8,23v1.1c0,0.1,0.1,0.1,0.1,0.1l0,0h2.3c0.4,0,0.8,0.3,0.8,0.8v4.3c0,0.1,0.1,0.1,0.1,0.1l0,0h6.1
		c0.1,0,0.1-0.1,0.1-0.1l0,0v-2.2c0-0.7,0.4-1.3,1-1.6c0.6-0.3,1-0.9,1-1.6V23H8z"/>
</g>
<g>
	<path class="st1" d="M8,14.7h3.1v8H8V14.7z"/>
</g>
<g>
	<path class="st1" d="M8.2,13.2h2.6c0.1,0,0.2,0.1,0.2,0.2V14H8v-0.5C8,13.3,8.1,13.2,8.2,13.2z"/>
</g>
<path class="st1" d="M12.1,22.2h7.1c0.1,0,0.2,0.1,0.2,0.2v0.2h-7.6v-0.2C11.8,22.3,11.9,22.2,12.1,22.2z"/>
<path class="st1" d="M18.9,14.3l-2.5-3.5c-0.4-0.6-1.2-0.7-1.8-0.3l0,0c-0.6,0.4-0.7,1.2-0.3,1.8L17,16c0.4,0.6,1,1,1.8,1.2l4.3,1.2
	c0.7,0.2,1.4-0.2,1.6-0.9l0,0c0.2-0.7-0.2-1.4-0.9-1.6l-4.1-1.2C19.4,14.8,19.1,14.6,18.9,14.3z"/>
<g>
	<path class="st1" d="M24.4,18.6c-0.1,0.1-0.3,0.2-0.5,0.2l0,0l-0.2,0.1l0,0h-0.3c-0.1,0-0.3,0-0.4-0.1l-2.5-0.7h-2.2v-0.6
		c-0.6-0.3-1.2-0.7-1.6-1.3l-2.6-3.6c-0.5-0.7-0.4-1.7,0.4-2.3c0.3-0.2,0.6-0.3,0.9-0.3c0.5,0,1,0.3,1.3,0.7l1.5,2.2V12
		c0-1.5-1.2-2.7-2.7-2.8h-0.3c-1.5,0-2.7,1.2-2.7,2.8v6.9c0,1.5,1.2,2.7,2.7,2.7l0,0H22c0.2,0,0.3,0.1,0.3,0.3v5.6
		c-0.1,0.9,0.6,1.8,1.6,1.8c0.9,0.1,1.8-0.6,1.8-1.6c0-0.1,0-0.2,0-0.3v-6.5C25.7,19.9,25.2,19,24.4,18.6z"/>
</g>
<g>
	<path class="st1" d="M18.6,5.5c0,0.2,0,0.4-0.1,0.6c0,0.2-0.1,0.4-0.2,0.6S18.1,7.1,18,7.2c-0.1,0.2-0.2,0.3-0.4,0.5
		c-0.1,0.1-0.3,0.3-0.5,0.4c-0.2,0.1-0.3,0.2-0.5,0.3S16.2,8.5,16,8.6c-0.2,0-0.4,0.1-0.6,0.1c-0.2,0-0.4,0-0.6-0.1
		c-0.2,0-0.4-0.1-0.6-0.2c-0.2-0.1-0.4-0.2-0.5-0.3c-0.2-0.1-0.3-0.2-0.5-0.4c-0.2-0.1-0.3-0.3-0.4-0.5c-0.1-0.2-0.2-0.4-0.3-0.6
		S12.4,6.2,12.3,6c-0.1-0.4-0.1-0.8,0-1.2c0-0.2,0.1-0.4,0.2-0.6c0.1-0.2,0.2-0.4,0.3-0.5c0.1-0.2,0.2-0.3,0.4-0.5
		c0.1-0.1,0.3-0.3,0.5-0.4c0.2-0.1,0.4-0.2,0.5-0.3c0.4-0.2,0.8-0.2,1.2-0.2c0.2,0,0.4,0,0.6,0.1c0.2,0,0.4,0.1,0.6,0.2
		c0.2,0.1,0.4,0.2,0.5,0.3c0.2,0.1,0.3,0.2,0.5,0.4c0.1,0.1,0.3,0.3,0.4,0.5s0.2,0.4,0.3,0.5c0.1,0.2,0.1,0.4,0.2,0.6
		C18.6,5.1,18.6,5.3,18.6,5.5z"/>
</g>
</svg>
