<?xml version="1.0" encoding="utf-8"?>
<!-- Generator: Adobe Illustrator 26.0.1, SVG Export Plug-In . SVG Version: 6.00 Build 0)  -->
<svg version="1.1" id="Layer_1" xmlns="http://www.w3.org/2000/svg" xmlns:xlink="http://www.w3.org/1999/xlink" x="0px" y="0px"
	 viewBox="0 0 32 32" style="enable-background:new 0 0 32 32;" xml:space="preserve">
<style type="text/css">
	.st0{fill:none;stroke:#FFFFFF;stroke-miterlimit:10;}
	.st1{fill:none;stroke:#FFFFFF;stroke-width:0.5;stroke-miterlimit:10;}
</style>
<path class="st0" d="M27.5,31.6c2.3,0,4.1-1.8,4.1-4.1v-23c0-1.1-0.4-2.1-1.2-2.9c-0.8-0.8-1.8-1.2-2.9-1.2h-23
	c-2.3,0-4.1,1.8-4.1,4.1v22.9c0,2.3,1.8,4.1,4.1,4.1l0,0h23"/>
<g>
	<path class="st1" d="M15,18.4v0.1c0,3.4,0,6.8,0,10.3c0,0.6-0.3,1.1-0.8,1.4c-1,0.4-2-0.2-2-1.2c0-0.1,0-0.2,0-0.3c0-6,0-12,0-18.1
		c0-0.2,0-0.2-0.2-0.2c-0.7-0.2-1.4-0.4-2.1-0.8C9.4,9.3,9,8.9,8.8,8.4s-0.3-1-0.2-1.5C8.8,6.3,9,5.7,9.4,5.2C9.9,5.4,10.5,5.7,11,6
		c-0.1,0.2-0.2,0.4-0.4,0.6c-0.1,0.1-0.1,0.2-0.1,0.4c-0.1,0.4,0,0.7,0.3,0.9c0.4,0.3,0.8,0.5,1.2,0.6c0.5,0.2,1,0.2,1.5,0.2
		c1.3,0,2.5,0,3.8,0c0.6,0,1.2,0.2,1.7,0.6c0.5,0.4,0.9,1,1.2,1.6c0.3,0.8,0.5,1.6,0.7,2.4c0.3,1.6,0.3,3.2,0.2,4.8
		c0,0.3,0,0.6-0.1,1c-0.1,0.5-0.5,0.8-1,0.8s-0.8-0.4-0.8-1s0-1.2,0.1-1.8c0-0.9,0-1.9-0.1-2.8c-0.1-0.9-0.3-1.7-0.6-2.6v-0.1l0,0
		c0,0.1,0,0.1,0,0.1c0,5.7,0,11.4,0,17.1c0,0.6-0.3,1.1-0.8,1.3c-1,0.4-2-0.3-2-1.2c0-0.1,0-0.1,0-0.2c0-3.4,0-6.8,0-10.2
		c0,0,0-0.1,0-0.2C15.4,18.4,15.2,18.4,15,18.4z"/>
	<path class="st1" d="M14.9,5.5c-0.1,0.2-0.2,0.5-0.4,0.7c-0.1-0.1-0.3-0.1-0.4-0.2H14c-0.1,0-0.1,0-0.2,0.1c-0.6,0-1.1,0-1.7-0.3
		c-1.3-0.7-2.7-1.4-4-2.1c0,0-0.1,0-0.1-0.1C7.8,3.4,7.7,3.2,7.8,2.9C8,2.6,8.2,2.2,8.4,1.8c0.1-0.2,0.4-0.3,0.7-0.2
		c0.5,0.3,1,0.5,1.5,0.8c0.9,0.5,1.7,0.9,2.6,1.4C13.5,4,13.8,4.3,14,4.6c0.1,0.1,0.2,0.2,0.2,0.3C14.3,5,14.4,5,14.4,5.1
		s0.1,0.1,0.2,0.2C14.6,5.4,14.8,5.4,14.9,5.5z"/>
	<g>
		<path class="st1" d="M13.9,6.7C14,6.9,14.2,6.9,14.3,7c0.4,0.2,1,0,1.3-0.6c0.3-0.5,0.1-1.2-0.3-1.4c-0.1-0.1-0.1,0-0.4-0.3
			c-0.3-1-1.1-1.4-1.1-1.4c0.5-0.4,1.1-0.6,1.7-0.6c1.5,0,2.7,1.2,2.7,2.7S17,8.1,15.5,8.1c-1.1,0-2-0.5-2.4-1.4
			C13.5,6.7,13.7,6.7,13.9,6.7z"/>
	</g>
</g>
</svg>
